<svg width="18" height="19" viewBox="0 0 18 19" fill="none" xmlns="http://www.w3.org/2000/svg">
<path d="M-0.000488281 9.25C-0.000488281 4.29297 4.00732 0.25 8.99951 0.25C13.9565 0.25 17.9995 4.29297 17.9995 9.25C17.9995 14.2422 13.9565 18.25 8.99951 18.25C4.00732 18.25 -0.000488281 14.2422 -0.000488281 9.25ZM13.0425 7.70312C13.4292 7.31641 13.4292 6.71875 13.0425 6.33203C12.6558 5.94531 12.0581 5.94531 11.6714 6.33203L7.87451 10.1289L6.29248 8.58203C5.90576 8.19531 5.30811 8.19531 4.92139 8.58203C4.53467 8.96875 4.53467 9.56641 4.92139 9.95312L7.17139 12.2031C7.55811 12.5898 8.15576 12.5898 8.54248 12.2031L13.0425 7.70312Z" fill="#093423"/>
</svg>
