<svg width="80" height="69" viewBox="0 0 80 69" fill="none" xmlns="http://www.w3.org/2000/svg">
<g filter="url(#filter0_d_250_4630)">
<path d="M20 27C20 15.9543 28.9543 7 40 7C51.0457 7 60 15.9543 60 27C60 38.0457 51.0457 47 40 47C28.9543 47 20 38.0457 20 27Z" fill="#E9F7F1" shape-rendering="crispEdges"/>
<path d="M40.5 28C41.875 28 43 29.125 43 30.5C43 30.7812 42.75 31 42.5 31H36.5C36.2188 31 36 30.7812 36 30.5C36 29.125 37.0938 28 38.5 28H40.5ZM39.5 27C38.375 27 37.5 26.125 37.5 25C37.5 23.9062 38.375 23 39.5 23C40.5938 23 41.5 23.9062 41.5 25C41.5 26.125 40.5938 27 39.5 27ZM47.5 29C47.75 29 48 29.25 48 29.5V31.5C48 31.7812 47.75 32 47.5 32H47V29H47.5ZM47.5 21C47.75 21 48 21.25 48 21.5V23.5C48 23.7812 47.75 24 47.5 24H47V21H47.5ZM47.5 25C47.75 25 48 25.25 48 25.5V27.5C48 27.7812 47.75 28 47.5 28H47V25H47.5ZM44 19C45.0938 19 46 19.9062 46 21V33C46 34.125 45.0938 35 44 35H35C33.875 35 33 34.125 33 33V21C33 19.9062 33.875 19 35 19H44ZM44.5 33V21C44.5 20.75 44.25 20.5 44 20.5H35C34.7188 20.5 34.5 20.75 34.5 21V33C34.5 33.2812 34.7188 33.5 35 33.5H44C44.25 33.5 44.5 33.2812 44.5 33Z" fill="#1EAD74"/>
</g>
<defs>
<filter id="filter0_d_250_4630" x="0" y="-11" width="80" height="80" filterUnits="userSpaceOnUse" color-interpolation-filters="sRGB">
<feFlood flood-opacity="0" result="BackgroundImageFix"/>
<feColorMatrix in="SourceAlpha" type="matrix" values="0 0 0 0 0 0 0 0 0 0 0 0 0 0 0 0 0 0 127 0" result="hardAlpha"/>
<feOffset dy="2"/>
<feGaussianBlur stdDeviation="10"/>
<feComposite in2="hardAlpha" operator="out"/>
<feColorMatrix type="matrix" values="0 0 0 0 0 0 0 0 0 0 0 0 0 0 0 0 0 0 0.05 0"/>
<feBlend mode="normal" in2="BackgroundImageFix" result="effect1_dropShadow_250_4630"/>
<feBlend mode="normal" in="SourceGraphic" in2="effect1_dropShadow_250_4630" result="shape"/>
</filter>
</defs>
</svg>
