<svg width="80" height="70" viewBox="0 0 80 70" fill="none" xmlns="http://www.w3.org/2000/svg">
<g filter="url(#filter0_d_250_4633)">
<path d="M20 28C20 16.9543 28.9543 8 40 8C51.0457 8 60 16.9543 60 28C60 39.0457 51.0457 48 40 48C28.9543 48 20 39.0457 20 28Z" fill="#E9F7F1" shape-rendering="crispEdges"/>
<path d="M36.5 26.5C37.0312 26.5 37.4688 26.9688 37.4688 27.5C37.4688 28.0625 37.0312 28.5 36.5 28.5C35.9375 28.5 35.5 28.0625 35.5 27.5C35.5 26.9688 35.9375 26.5 36.5 26.5ZM40 26.5C40.5312 26.5 40.9688 26.9688 40.9688 27.5C40.9688 28 40.5 28.4688 40 28.4688C39.4688 28.4688 39 28.0312 39 27.5C39 26.9375 39.4375 26.5 40 26.5ZM43.5 26.5C44.0312 26.5 44.5 26.9688 44.4688 27.5C44.4688 28.0625 44.0312 28.5 43.5 28.5C42.9688 28.5 42.5 28.0625 42.5 27.5C42.5 26.9688 42.9375 26.5 43.5 26.5ZM40 21C44.4062 21 47.9688 23.9688 47.9688 27.5312C47.9688 31.0938 44.4062 34 40 34C38.9688 34 37.9688 33.8438 37.0938 33.5625C36.1562 34.2188 34.6562 35 32.75 35C32.4375 35 32.1562 34.8438 32.0625 34.5312C31.9688 34.25 32 33.9375 32.2188 33.7188C32.2188 33.7188 33.1875 32.6562 33.6562 31.4375C32.625 30.3438 32 28.9688 32 27.5C32 23.9062 35.5625 21 40 21ZM40 32.5C43.5625 32.5 46.4375 30.2812 46.4375 27.5C46.4375 24.75 43.5312 22.5 39.9688 22.5C36.4062 22.5 33.5 24.75 33.5 27.5C33.5 28.8438 34.1562 29.8438 34.7188 30.4375L35.375 31.125L35.0312 32C34.875 32.4375 34.6562 32.875 34.4062 33.25C35.1562 33 35.7812 32.6562 36.2188 32.3438L36.8125 31.9062L37.5312 32.125C38.3125 32.375 39.1562 32.5 40 32.5Z" fill="#1EAD74"/>
</g>
<defs>
<filter id="filter0_d_250_4633" x="0" y="-10" width="80" height="80" filterUnits="userSpaceOnUse" color-interpolation-filters="sRGB">
<feFlood flood-opacity="0" result="BackgroundImageFix"/>
<feColorMatrix in="SourceAlpha" type="matrix" values="0 0 0 0 0 0 0 0 0 0 0 0 0 0 0 0 0 0 127 0" result="hardAlpha"/>
<feOffset dy="2"/>
<feGaussianBlur stdDeviation="10"/>
<feComposite in2="hardAlpha" operator="out"/>
<feColorMatrix type="matrix" values="0 0 0 0 0 0 0 0 0 0 0 0 0 0 0 0 0 0 0.05 0"/>
<feBlend mode="normal" in2="BackgroundImageFix" result="effect1_dropShadow_250_4633"/>
<feBlend mode="normal" in="SourceGraphic" in2="effect1_dropShadow_250_4633" result="shape"/>
</filter>
</defs>
</svg>
