<svg width="80" height="71" viewBox="0 0 80 71" fill="none" xmlns="http://www.w3.org/2000/svg">
<g filter="url(#filter0_d_250_4636)">
<path d="M20 29C20 17.9543 28.9543 9 40 9C51.0457 9 60 17.9543 60 29C60 40.0457 51.0457 49 40 49C28.9543 49 20 40.0457 20 29Z" fill="#E9F7F1" shape-rendering="crispEdges"/>
<path d="M37.75 23H42.25V21.75C42.25 21.3438 42.5625 21 43 21C43.4062 21 43.75 21.3438 43.75 21.75V23H45C46.0938 23 47 23.9062 47 25V35C47 36.125 46.0938 37 45 37H35C33.875 37 33 36.125 33 35V25C33 23.9062 33.875 23 35 23H36.25V21.75C36.25 21.3438 36.5625 21 37 21C37.4062 21 37.75 21.3438 37.75 21.75V23ZM34.5 28.75H37V27H34.5V28.75ZM34.5 30.25V32.25H37V30.25H34.5ZM38.5 30.25V32.25H41.5V30.25H38.5ZM43 30.25V32.25H45.5V30.25H43ZM45.5 27H43V28.75H45.5V27ZM45.5 33.75H43V35.5H45C45.25 35.5 45.5 35.2812 45.5 35V33.75ZM41.5 33.75H38.5V35.5H41.5V33.75ZM37 33.75H34.5V35C34.5 35.2812 34.7188 35.5 35 35.5H37V33.75ZM41.5 27H38.5V28.75H41.5V27Z" fill="#1EAD74"/>
</g>
<defs>
<filter id="filter0_d_250_4636" x="0" y="-9" width="80" height="80" filterUnits="userSpaceOnUse" color-interpolation-filters="sRGB">
<feFlood flood-opacity="0" result="BackgroundImageFix"/>
<feColorMatrix in="SourceAlpha" type="matrix" values="0 0 0 0 0 0 0 0 0 0 0 0 0 0 0 0 0 0 127 0" result="hardAlpha"/>
<feOffset dy="2"/>
<feGaussianBlur stdDeviation="10"/>
<feComposite in2="hardAlpha" operator="out"/>
<feColorMatrix type="matrix" values="0 0 0 0 0 0 0 0 0 0 0 0 0 0 0 0 0 0 0.05 0"/>
<feBlend mode="normal" in2="BackgroundImageFix" result="effect1_dropShadow_250_4636"/>
<feBlend mode="normal" in="SourceGraphic" in2="effect1_dropShadow_250_4636" result="shape"/>
</filter>
</defs>
</svg>
