<svg width="19" height="21" viewBox="0 0 19 21" fill="none" xmlns="http://www.w3.org/2000/svg">
<g clip-path="url(#clip0_389_118)">
<path d="M3.07143 1.3125C1.65313 1.3125 0.5 2.48965 0.5 3.9375V17.0625C0.5 18.5104 1.65313 19.6875 3.07143 19.6875H15.9286C17.3469 19.6875 18.5 18.5104 18.5 17.0625V3.9375C18.5 2.48965 17.3469 1.3125 15.9286 1.3125H3.07143ZM15.0085 4.75781L10.8379 9.62227L15.7437 16.2422H11.9027L8.89732 12.2268L5.45402 16.2422H3.54554L8.00536 11.0373L3.30045 4.75781H7.23795L9.95804 8.42871L13.1 4.75781H15.0085ZM13.4897 15.0773L6.66339 5.86113H5.52634L12.429 15.0773H13.4857H13.4897Z" fill="#494C4B"/>
</g>
<defs>
<clipPath id="clip0_389_118">
<rect width="18" height="21" fill="white" transform="translate(0.5)"/>
</clipPath>
</defs>
</svg>
