<svg width="441" height="306" viewBox="0 0 441 306" fill="none" xmlns="http://www.w3.org/2000/svg">
<g clip-path="url(#clip0_264_9550)">
<path opacity="0.2" d="M131.925 39.6711L131.612 39.5933L32.1387 247.846L382.8 274.914L383.194 274.944L396.043 105.889L396.068 105.556L131.925 39.6711ZM232.659 173.597L33.5188 246.79L131.906 40.8105L232.659 173.598V173.597ZM233.243 174.224L381.367 274.01L34.5823 247.242L233.243 174.224ZM233.426 173.301L132.822 40.7102L394.397 105.954L233.426 173.302L233.426 173.301ZM382.488 273.812L234.125 173.866L395.206 106.472L382.488 273.812Z" fill="#63C69E"/>
<path d="M440.861 109.411C440.286 124.236 433.269 137.288 422.615 145.978C413.562 153.362 401.894 157.599 389.305 157.111C383.174 156.873 377.345 155.532 372.003 153.289C368.507 151.824 365.218 149.969 362.192 147.777C356.374 143.579 351.519 138.161 347.977 131.905V131.899C343.589 124.142 341.236 115.113 341.606 105.56C342.67 78.1476 365.75 56.7919 393.157 57.8554C420.57 58.919 441.925 81.999 440.862 109.411H440.861Z" fill="white"/>
<path opacity="0.09" d="M440.861 109.411C440.286 124.236 433.269 137.288 422.615 145.978C413.562 153.362 401.894 157.599 389.305 157.111C383.174 156.873 377.345 155.532 372.003 153.289C368.507 151.824 365.218 149.969 362.192 147.777C356.374 143.579 351.519 138.161 347.977 131.905V131.899C343.589 124.142 341.236 115.113 341.606 105.56C342.67 78.1476 365.75 56.7919 393.157 57.8554C420.57 58.919 441.925 81.999 440.862 109.411H440.861Z" fill="#63C69E"/>
<path d="M402.975 69.6606C402.975 69.6606 414.849 69.8061 410.755 86.1702L409.64 86.2247L407.377 86.335" fill="#0C0C0C"/>
<path d="M389.715 103.339C389.771 103.334 389.989 113.541 401.853 113.112C410.067 112.817 413.324 104.241 413.511 104.248C412.636 104.026 411.159 103.696 410.775 103.471C409.513 102.728 407.945 101.945 407.627 99.4251C407.443 97.9722 408.136 90.6038 408.068 89.1387L395.388 91.4566C395.444 94.5477 396.396 101.746 392.038 102.844C391.312 103.026 390.533 103.188 389.715 103.339Z" fill="#FF9E85"/>
<path opacity="0.52" d="M394.879 100.027C395.079 99.4654 395.204 98.9753 395.333 98.0904C395.563 96.508 395.53 95.0441 395.427 93.5493C397.979 93.3098 400.459 92.3364 402.493 90.7749C402.693 91.646 403.83 95.4626 403.443 96.2681C402.711 97.7908 399.456 100.204 394.879 100.027L394.879 100.027Z" fill="#0C0C0C"/>
<path d="M397.757 98.2237C402.728 97.8692 408.724 94.8418 408.932 88.1073L409.121 82.0308C409.329 75.2962 405.961 69.7276 399.62 69.5311C393.279 69.3351 388.371 74.6477 388.162 81.3822L388.079 84.0725C388.062 84.6262 388.089 85.6217 388.23 86.8378C388.511 89.2645 388.949 92.9538 390.546 95.4734C392.055 97.8522 394.581 98.4501 397.757 98.2233L397.757 98.2237Z" fill="#FF9E85"/>
<path d="M408.475 90.1464C410.402 90.206 412.028 88.1928 412.087 86.2657C412.147 84.3386 410.618 83.2276 408.691 83.168L407.658 84.4283L406.818 90.0946L408.475 90.1464Z" fill="#FF9E85"/>
<path d="M388.487 88.8711C388.487 88.8711 389.516 90.2291 391.367 89.9959C392.512 89.8517 393.273 90.322 394.23 90.2275C395.033 90.1481 395.173 89.7777 396.543 89.6963C401.834 89.3829 405.804 89.0494 406.062 82.4101L409.429 79.4194C409.429 79.4194 410.933 97.8177 400.982 100.263C394.867 101.766 389.132 101.216 388.395 95.4729C387.795 90.8065 388.487 88.8707 388.487 88.8707V88.8711Z" fill="#0C0C0C"/>
<path d="M390.901 84.8369C391.307 84.8369 391.635 84.5086 391.635 84.1037C391.635 83.6988 391.307 83.3706 390.901 83.3706C390.496 83.3706 390.168 83.6988 390.168 84.1037C390.168 84.5086 390.496 84.8369 390.901 84.8369Z" fill="#0A0A0A"/>
<path d="M394.719 89.4257C394.867 89.4257 394.994 89.3138 395.01 89.1628C395.027 89.0016 394.91 88.8573 394.749 88.8407L393.196 88.6783L394.152 85.5766C394.199 85.4217 394.113 85.2577 393.958 85.2102C393.803 85.1628 393.639 85.2494 393.591 85.4039L392.53 88.8467C392.505 88.9304 392.518 89.0213 392.566 89.0945C392.615 89.1676 392.693 89.2154 392.781 89.2245L394.688 89.4241C394.699 89.4253 394.709 89.4257 394.719 89.4257H394.719Z" fill="#0A0A0A"/>
<path d="M397.282 81.5692C397.211 81.7877 398.006 82.1142 399.123 82.4138C400.24 82.7133 401.251 82.9291 401.328 82.6536C401.424 82.3059 400.591 81.4866 399.474 81.1874C398.356 80.8878 397.392 81.2257 397.282 81.5692Z" fill="#0A0A0A"/>
<path d="M398.222 84.9902C398.627 84.9902 398.955 84.662 398.955 84.2571C398.955 83.8522 398.627 83.5239 398.222 83.5239C397.817 83.5239 397.488 83.8522 397.488 84.2571C397.488 84.662 397.817 84.9902 398.222 84.9902Z" fill="#0A0A0A"/>
<path d="M388.41 82.2183C388.434 82.4463 389.293 82.4226 390.435 82.2428C391.578 82.0629 392.59 81.8499 392.547 81.5673C392.494 81.2105 391.52 80.7741 390.377 80.954C389.234 81.1338 388.371 81.859 388.409 82.2179L388.41 82.2183Z" fill="#0A0A0A"/>
<path d="M393.379 91.6076C393.273 91.6104 393.204 91.7147 393.237 91.8155C393.667 93.1193 394.981 93.7754 396.351 93.4383C397.72 93.1011 398.645 91.9005 398.437 90.5504C398.421 90.4425 398.304 90.3832 398.208 90.435C397.902 90.5994 397.179 90.9259 395.789 91.2571C394.595 91.5416 393.746 91.5981 393.379 91.608V91.6076Z" fill="white"/>
<path d="M406.615 87.0148C406.615 87.0148 406.137 77.4714 403.258 76.8303C401.341 76.4031 396.623 79.0487 392.314 78.1453C390.429 77.75 388.625 78.1856 388.426 79.0756C388.347 79.4281 386.855 76.3016 389.888 72.4972C392.302 69.4682 400.153 68.6161 403.646 69.6872C413.318 72.6533 409.082 83.5957 409.082 83.5957L408.589 86.8741L406.615 87.0148Z" fill="#0C0C0C"/>
<path d="M411.01 79.3197C413.857 79.3197 416.164 77.0119 416.164 74.1652C416.164 71.3185 413.857 69.0107 411.01 69.0107C408.163 69.0107 405.855 71.3185 405.855 74.1652C405.855 77.0119 408.163 79.3197 411.01 79.3197Z" fill="#0C0C0C"/>
<path d="M428.693 128.826C428.251 132.162 427.82 136.745 427.435 141.485C425.929 143.088 424.32 144.587 422.617 145.977C421.535 146.857 420.418 147.695 419.265 148.485C410.765 154.305 400.395 157.542 389.306 157.111C384.741 156.934 380.341 156.147 376.188 154.827C376.09 150.425 375.956 144.487 375.823 139.047C375.671 132.772 375.517 127.154 375.435 125.308C375.094 117.981 373.152 113.093 374.62 109.095C375.015 108.003 375.668 106.972 376.683 105.979C380.104 102.632 388.6 102.708 392.008 102.84C392.068 102.843 391.015 110.708 402.227 110.613C410.469 110.545 411.087 103.58 411.087 103.58C411.087 103.58 415.148 104.003 417.844 104.471C422.256 105.244 425.123 106.862 427.356 109.278C429.44 111.53 430.668 113.923 428.693 128.825L428.693 128.826Z" fill="#63C69E"/>
<path d="M362.773 103.616L363.112 95.2231C363.143 94.4505 362.509 93.8055 361.719 93.8418C361.019 93.8742 360.482 94.4841 360.454 95.1844L360.381 96.9842L358.012 91.22C357.76 90.5746 357.038 89.9438 356.332 90.2746C355.744 90.5042 355.414 91.1065 355.502 91.7053C355.495 91.7069 355.488 91.7069 355.482 91.7096C355.477 91.7116 355.474 91.7156 355.47 91.7183L355.081 90.7232C354.781 89.9556 353.846 89.6241 353.113 90.0952C352.576 90.4402 352.391 91.1417 352.623 91.7365L352.789 92.1602C352.779 92.1708 352.77 92.1827 352.765 92.1961C352.408 91.6741 351.711 91.4602 351.104 91.7444C350.46 92.0456 350.196 92.8277 350.454 93.4901L350.865 94.5422C350.833 94.5216 350.793 94.5145 350.754 94.5299C350.732 94.5394 350.715 94.5556 350.702 94.5742C350.27 94.2122 349.624 94.1371 349.09 94.4971C348.571 94.8473 348.4 95.5369 348.628 96.1203L352.097 104.997C353.09 107.537 355.524 109.221 358.251 109.253C360.641 109.281 362.62 107.403 362.717 105.015L362.773 103.616L362.773 103.616Z" fill="#FF9E85"/>
<g opacity="0.2">
<path d="M357.819 97.4222C357.757 97.4459 357.687 97.4159 357.661 97.3543L355.415 91.8698C355.39 91.8073 355.42 91.7354 355.483 91.7097C355.54 91.6809 355.617 91.7141 355.643 91.7769L357.889 97.2614C357.914 97.3238 357.884 97.3958 357.822 97.4214L357.819 97.4226V97.4222Z" fill="#0C0C0C"/>
</g>
<g opacity="0.2">
<path d="M355.427 98.4799C355.365 98.5036 355.295 98.4736 355.27 98.4119L352.763 92.2911C352.737 92.2287 352.767 92.1568 352.83 92.1311C352.888 92.1082 352.965 92.1354 352.99 92.1983L355.497 98.319C355.523 98.3815 355.492 98.4534 355.43 98.4791L355.427 98.4799Z" fill="#0C0C0C"/>
</g>
<g opacity="0.2">
<path d="M352.844 99.6399C352.782 99.6636 352.712 99.6336 352.686 99.5719L350.687 94.6898C350.661 94.6273 350.691 94.5554 350.754 94.5297C350.818 94.5052 350.888 94.534 350.914 94.5969L352.914 99.479C352.939 99.5415 352.909 99.6134 352.846 99.6391L352.844 99.6403V99.6399Z" fill="#0C0C0C"/>
</g>
<path d="M390.555 116.774L370.131 148.177C369.369 149.345 368.368 150.287 367.222 150.971C365.475 150.009 363.796 148.939 362.192 147.777C358.757 145.299 355.654 142.39 352.968 139.137L348.678 105.874L365.847 103.123L367.805 119.135L375.649 107.075L390.556 116.774L390.555 116.774Z" fill="#63C69E"/>
<path d="M434.231 132.355C432.315 135.662 430.029 138.722 427.434 141.485C425.928 143.088 424.32 144.587 422.616 145.977C421.534 146.857 420.417 147.695 419.264 148.485L411.285 118.136L429.251 113.41L434.231 132.355Z" fill="#63C69E"/>
<path d="M419.439 148.365C419.382 148.402 419.321 148.443 419.264 148.485C419.207 148.522 419.15 148.563 419.093 148.601L413.014 125.48L413.397 125.38L419.439 148.365Z" fill="#0C0C0C"/>
<path d="M375.872 140.477C375.771 140.473 375.687 140.391 375.683 140.288L375.291 131.672C375.286 131.563 375.371 131.471 375.48 131.466C375.587 131.459 375.681 131.545 375.686 131.655L376.078 140.27C376.083 140.38 375.999 140.472 375.889 140.477C375.884 140.477 375.878 140.477 375.872 140.477Z" fill="#0C0C0C"/>
<path d="M228.11 220.203C256.074 220.203 278.744 197.534 278.744 169.57C278.744 141.605 256.074 118.936 228.11 118.936C200.146 118.936 177.477 141.605 177.477 169.57C177.477 197.534 200.146 220.203 228.11 220.203Z" fill="white"/>
<path opacity="0.09" d="M278.744 169.568C278.744 178.334 276.517 186.582 272.597 193.776C269.113 200.161 264.294 205.712 258.516 210.057C254.078 213.397 249.072 216.022 243.67 217.758C238.768 219.346 233.542 220.201 228.111 220.201C214.152 220.201 201.51 214.55 192.353 205.414C183.163 196.246 177.479 183.571 177.479 169.568C177.479 141.605 200.149 118.935 228.111 118.935C256.074 118.935 278.744 141.605 278.744 169.568V169.568Z" fill="#63C69E"/>
<path d="M204.788 141.991C204.788 141.991 205.104 151.454 203.601 154.421C199.273 162.962 198.334 169.447 203.779 173.776C209.225 178.106 241.342 175.4 242.828 164.231C244.079 154.827 239.598 154.214 237.872 146.695C237.09 143.293 235.136 136.187 235.136 136.187" fill="#0A0A0A"/>
<path d="M233.034 164.195C232.979 164.188 232.37 174.3 220.623 173.418C212.49 172.809 209.59 164.181 209.404 164.181C210.281 163.994 211.757 163.724 212.147 163.516C213.428 162.828 215.012 162.111 215.425 159.625C215.663 158.191 215.259 150.859 215.384 149.409L227.867 152.195C227.692 155.258 226.471 162.358 230.75 163.615C231.462 163.823 232.229 164.014 233.034 164.195V164.195Z" fill="#FF9E85"/>
<path opacity="0.22" d="M228.041 160.713C227.865 160.149 227.759 159.658 227.666 158.776C227.499 157.198 227.587 155.747 227.747 154.269C225.225 153.934 222.804 152.873 220.848 151.247C220.616 152.103 219.341 155.843 219.694 156.657C220.361 158.195 223.497 160.713 228.041 160.713Z" fill="#0C0C0C"/>
<path d="M226.412 157.223C221.486 158.134 216.677 156.592 214.775 150.092L211.987 144.335C210.085 137.835 211.956 131.566 218.077 129.775C224.197 127.983 229.408 129.554 231.311 136.054C231.311 136.054 232.456 139.767 232.701 141.038C233.624 145.827 233.886 155.841 226.412 157.223L226.412 157.223Z" fill="#FF9E85"/>
<path d="M227.864 150.024C227.968 150.005 228.058 150.093 228.046 150.198C227.891 151.563 226.739 152.474 225.329 152.424C223.919 152.374 222.768 151.388 222.696 150.024C222.69 149.915 222.792 149.833 222.897 149.864C223.23 149.962 224.004 150.134 225.432 150.174C226.66 150.208 227.503 150.089 227.864 150.024Z" fill="white"/>
<path d="M231.539 140.157C231.537 140.374 230.727 140.431 229.634 140.367C228.541 140.304 227.568 140.197 227.582 139.926C227.6 139.585 228.504 139.361 229.597 139.424C230.689 139.488 231.542 139.816 231.539 140.157Z" fill="#0A0A0A"/>
<path d="M207.202 146.907L214.414 148.156C218.479 146.027 217.32 135.751 217.32 135.751C217.32 135.751 222.954 140.259 235.136 136.187C235.136 136.187 230.988 119.605 213.073 126.463C207.296 128.674 203.676 135.626 204.99 143.57C205.912 149.137 207.202 146.907 207.202 146.907Z" fill="#0A0A0A"/>
<path d="M214.664 152.069C212.804 152.614 210.787 152.131 209.974 149.33C209.435 147.468 210.832 145.879 212.692 145.334L214.015 146.3L216.262 151.601L214.664 152.069Z" fill="#FF9E85"/>
<path d="M228.601 143.2C228.983 143.162 229.262 142.823 229.224 142.442C229.187 142.06 228.847 141.782 228.466 141.819C228.085 141.856 227.806 142.196 227.843 142.577C227.88 142.958 228.22 143.237 228.601 143.2Z" fill="#0A0A0A"/>
<path d="M225.677 148.233C225.538 148.246 225.407 148.152 225.379 148.012C225.348 147.862 225.445 147.715 225.595 147.684L227.042 147.388L225.856 144.555C225.797 144.414 225.863 144.251 226.005 144.192C226.146 144.133 226.309 144.199 226.368 144.34L227.684 147.485C227.716 147.562 227.713 147.648 227.674 147.722C227.635 147.795 227.566 147.847 227.484 147.864L225.706 148.228C225.697 148.23 225.687 148.231 225.677 148.232V148.233Z" fill="#0A0A0A"/>
<path d="M223.142 140.598C223.228 140.797 222.51 141.178 221.485 141.563C220.46 141.948 219.528 142.245 219.431 141.992C219.309 141.674 220.044 141.102 221.069 140.716C222.093 140.331 223.005 140.285 223.141 140.598L223.142 140.598Z" fill="#0A0A0A"/>
<path d="M221.722 144.318C222.104 144.28 222.383 143.941 222.345 143.56C222.308 143.179 221.969 142.9 221.587 142.937C221.206 142.975 220.927 143.314 220.964 143.695C221.002 144.076 221.341 144.355 221.722 144.318Z" fill="#0A0A0A"/>
<path d="M210.006 144.274L210.177 146.917C210.618 146.266 211.3 145.777 212.129 145.595C212.334 145.547 212.542 145.53 212.745 145.527C214.102 146.401 213.386 148.311 214.413 148.156C214.997 148.068 216.198 146.552 216.434 145.662C216.584 145.098 214.914 143.153 214.865 142.571" fill="#0A0A0A"/>
<path d="M259.892 162.159L262.103 154.651C262.307 153.96 263.06 153.581 263.746 153.85C264.354 154.087 264.645 154.787 264.461 155.413L263.987 157.023L267.802 152.645C268.217 152.151 269.043 151.81 269.567 152.313C270.017 152.692 270.129 153.322 269.872 153.824C269.877 153.827 269.883 153.829 269.888 153.834C269.892 153.837 269.893 153.842 269.896 153.845L270.537 153.083C271.032 152.496 271.956 152.483 272.462 153.118C272.833 153.583 272.786 154.258 272.403 154.713L272.131 155.037C272.136 155.049 272.14 155.062 272.141 155.076C272.612 154.722 273.291 154.742 273.742 155.174C274.22 155.632 274.219 156.401 273.793 156.909L273.115 157.714C273.15 157.706 273.188 157.712 273.218 157.737C273.235 157.752 273.245 157.771 273.251 157.791C273.74 157.601 274.333 157.728 274.696 158.205C275.049 158.67 274.994 159.329 274.618 159.776L268.902 166.572C267.266 168.517 264.613 169.274 262.197 168.487C260.08 167.797 258.895 165.548 259.524 163.411L259.893 162.16L259.892 162.159Z" fill="#FF9E85"/>
<g opacity="0.2">
<path d="M266.118 158.176C266.165 158.215 266.236 158.21 266.277 158.163L269.9 153.994C269.941 153.947 269.936 153.875 269.888 153.833C269.847 153.791 269.768 153.797 269.727 153.845L266.104 158.013C266.063 158.06 266.068 158.133 266.116 158.174L266.118 158.176Z" fill="#0C0C0C"/>
</g>
<g opacity="0.2">
<path d="M267.911 159.825C267.958 159.864 268.029 159.859 268.07 159.812L272.113 155.16C272.154 155.112 272.149 155.04 272.102 154.999C272.058 154.961 271.982 154.962 271.94 155.01L267.897 159.662C267.856 159.709 267.861 159.782 267.909 159.823L267.911 159.825Z" fill="#0C0C0C"/>
</g>
<g opacity="0.2">
<path d="M269.844 161.621C269.892 161.661 269.963 161.655 270.004 161.608L273.228 157.897C273.27 157.85 273.265 157.778 273.217 157.736C273.168 157.696 273.097 157.7 273.056 157.748L269.831 161.458C269.789 161.506 269.794 161.578 269.842 161.62L269.844 161.621Z" fill="#0C0C0C"/>
</g>
<path d="M273.362 165.437L264.805 204.256C264.786 204.342 264.766 204.433 264.742 204.52C262.825 206.528 260.739 208.382 258.518 210.057C258.071 210.389 257.624 210.717 257.166 211.034C256.881 211.065 256.597 211.081 256.312 211.081C253.241 211.081 250.356 209.453 248.787 206.738L232.48 178.523L247.538 169.824L252.641 178.653L256.379 161.694L273.362 165.437Z" fill="#0CBC8B"/>
<path d="M247.028 183.135C246.977 183.752 246.874 184.85 246.732 186.297C246.02 193.692 244.356 210.172 243.586 217.788C238.709 219.353 233.508 220.203 228.109 220.203C223.066 220.203 218.201 219.468 213.604 218.092H213.6C206.269 215.903 199.637 212.097 194.116 207.089C194.148 200.28 194.049 192.62 193.59 187.696C192.219 172.982 193.515 170.678 195.645 168.548C195.819 168.374 196.001 168.204 196.183 168.038C198.384 166.038 201.147 164.734 205.174 164.188C207.838 163.829 211.846 163.568 211.846 163.568C211.846 163.568 212.185 170.437 220.276 170.816C231.29 171.334 230.555 163.568 230.611 163.568C233.381 163.568 239.546 163.742 243.435 165.722C243.438 165.722 243.441 165.723 243.443 165.726C244.265 166.145 244.985 166.643 245.55 167.239C250.004 171.958 247.807 173.978 247.028 183.135Z" fill="#0CBC8B"/>
<path d="M245.33 199.713C245.325 199.713 245.32 199.713 245.315 199.712C245.25 199.703 245.205 199.643 245.214 199.578L246.572 185.899C246.581 185.835 246.639 185.788 246.706 185.798C246.771 185.807 246.817 185.867 246.808 185.932L245.449 199.61C245.441 199.67 245.389 199.713 245.33 199.713Z" fill="#0C0C0C"/>
<path d="M237.112 199.054L244.533 195.74C245.216 195.435 246.023 195.774 246.273 196.497C246.495 197.138 246.14 197.839 245.52 198.115L243.929 198.826L249.958 198.888C250.629 198.883 251.455 199.306 251.41 200.059C251.415 200.669 250.992 201.182 250.422 201.318C250.423 201.324 250.426 201.33 250.425 201.337C250.425 201.342 250.423 201.347 250.422 201.352L251.456 201.344C252.253 201.339 252.886 202.06 252.726 202.888C252.608 203.494 252.044 203.912 251.426 203.916L250.986 203.919C250.98 203.932 250.972 203.944 250.963 203.954C251.56 204.087 252.002 204.636 251.964 205.284C251.925 205.971 251.316 206.488 250.628 206.494L249.535 206.501C249.565 206.523 249.586 206.557 249.587 206.598C249.587 206.621 249.578 206.642 249.566 206.66C250.046 206.918 250.345 207.472 250.213 208.081C250.084 208.673 249.526 209.074 248.92 209.078L239.7 209.144C237.061 209.162 234.675 207.578 233.668 205.139C232.786 203.001 233.764 200.55 235.875 199.607L237.112 199.055L237.112 199.054Z" fill="#FF9E85"/>
<g opacity="0.2">
<path d="M244.455 201.286C244.456 201.35 244.508 201.402 244.573 201.403L250.307 201.454C250.372 201.455 250.426 201.402 250.426 201.337C250.432 201.275 250.374 201.218 250.309 201.217L244.575 201.165C244.509 201.165 244.456 201.217 244.455 201.283V201.286Z" fill="#0C0C0C"/>
</g>
<g opacity="0.2">
<path d="M244.361 203.814C244.362 203.878 244.414 203.93 244.479 203.931L250.878 203.989C250.944 203.989 250.997 203.936 250.998 203.871C250.998 203.811 250.946 203.752 250.88 203.751L244.481 203.693C244.415 203.693 244.362 203.746 244.361 203.811V203.814Z" fill="#0C0C0C"/>
</g>
<g opacity="0.2">
<path d="M244.246 206.552C244.247 206.616 244.299 206.668 244.364 206.669L249.468 206.715C249.534 206.715 249.587 206.663 249.588 206.597C249.587 206.531 249.536 206.478 249.47 206.477L244.366 206.431C244.3 206.431 244.247 206.483 244.246 206.549V206.552Z" fill="#0C0C0C"/>
</g>
<path d="M239.239 212.267L213.605 218.093H213.601C206.269 215.903 199.638 212.097 194.116 207.09C193.516 206.544 192.927 205.987 192.354 205.414C191.354 204.414 190.393 203.375 189.48 202.296L193.069 173.429C193.441 171.227 194.587 169.354 196.183 168.038C198.104 166.457 200.673 165.686 203.317 166.129C208.166 166.943 211.431 171.536 210.617 176.381L208.348 203.485L236.931 197.015L239.239 212.267Z" fill="#0CBC8B"/>
<path d="M202.566 204.55C202.508 204.55 202.458 204.507 202.449 204.449C202.439 204.384 202.484 204.323 202.548 204.314L208.281 203.09C208.348 203.08 208.406 203.125 208.416 203.189C208.425 203.254 208.381 203.315 208.316 203.324L202.584 204.548C202.578 204.549 202.572 204.55 202.566 204.55Z" fill="#0C0C0C"/>
<path d="M239.239 212.267C239.251 212.33 239.215 212.393 239.152 212.409L214.249 218.278C214.091 218.235 213.937 218.191 213.783 218.144L238.978 212.211L236.733 197.193L208.321 203.323C208.281 203.331 208.246 203.315 208.218 203.291C208.194 203.264 208.182 203.224 208.186 203.188L209.779 187.7C209.791 187.637 209.85 187.593 209.917 187.605C209.981 187.613 210.024 187.676 210.016 187.739L208.447 203.07L236.784 196.928C236.816 196.92 236.848 196.924 236.875 196.944C236.903 196.96 236.923 196.984 236.931 197.015L239.239 212.267Z" fill="#0C0C0C"/>
<path d="M46.5276 278.543C72.1691 278.543 92.9557 257.756 92.9557 232.115C92.9557 206.473 72.1691 185.687 46.5276 185.687C20.8862 185.687 0.0996094 206.473 0.0996094 232.115C0.0996094 257.756 20.8862 278.543 46.5276 278.543Z" fill="white"/>
<path opacity="0.09" d="M46.5276 278.543C72.1691 278.543 92.9557 257.756 92.9557 232.115C92.9557 206.473 72.1691 185.687 46.5276 185.687C20.8862 185.687 0.0996094 206.473 0.0996094 232.115C0.0996094 257.756 20.8862 278.543 46.5276 278.543Z" fill="#63C69E"/>
<path d="M37.2032 223C40.1578 223 42.5529 220.605 42.5529 217.65C42.5529 214.696 40.1578 212.301 37.2032 212.301C34.2487 212.301 31.8535 214.696 31.8535 217.65C31.8535 220.605 34.2487 223 37.2032 223Z" fill="#0A0A0A"/>
<path d="M32.7154 206.661C32.7154 206.661 32.4538 216.437 43.0955 220.168L43.7598 202.971L32.7154 206.661Z" fill="#0A0A0A"/>
<path d="M57.2127 226.984C57.1637 226.977 56.6182 236.027 46.1046 235.238C38.8262 234.693 36.2312 226.971 36.0645 226.971C36.8494 226.804 38.1706 226.561 38.5192 226.376C39.6653 225.76 41.0833 225.119 41.4529 222.893C41.6659 221.611 41.3047 215.048 41.4157 213.75L52.5878 216.243C52.4317 218.985 51.3393 225.339 55.1686 226.464C55.8057 226.65 56.4922 226.821 57.2127 226.984Z" fill="#FF9E85"/>
<path opacity="0.22" d="M52.7434 223.867C52.5853 223.362 52.4909 222.923 52.4075 222.134C52.2577 220.721 52.3375 219.424 52.4806 218.101C50.2235 217.8 48.0569 216.851 46.3061 215.396C46.0986 216.162 44.9576 219.509 45.2738 220.237C45.8709 221.614 48.6766 223.867 52.7438 223.867H52.7434Z" fill="#0C0C0C"/>
<path d="M50.9676 221.429C46.5506 221.7 41.8677 219.756 40.8954 213.853L39.0675 208.506C38.0953 202.602 40.4077 197.305 45.9665 196.39C51.5252 195.474 55.9268 197.409 56.899 203.313C56.899 203.313 57.5057 206.692 57.5843 207.832C57.8812 212.131 57.6697 221.017 50.9676 221.429Z" fill="#FF9E85"/>
<path d="M57.638 206.905C57.6131 207.095 56.8962 207.059 55.9445 206.886C54.9932 206.713 54.1517 206.514 54.1929 206.279C54.2446 205.982 55.0615 205.882 56.0132 206.055C56.9649 206.228 57.6771 206.606 57.638 206.905Z" fill="#0A0A0A"/>
<path d="M56.6685 209.005C56.6766 208.667 56.4086 208.386 56.07 208.378C55.7314 208.37 55.4504 208.638 55.4423 208.976C55.4343 209.315 55.7022 209.595 56.0408 209.603C56.3794 209.612 56.6604 209.344 56.6685 209.005Z" fill="#0A0A0A"/>
<path d="M51.2236 213.459C51.0995 213.456 50.9955 213.36 50.9852 213.233C50.9741 213.099 51.075 212.98 51.2098 212.969L52.5114 212.865L51.774 210.254C51.7373 210.123 51.8132 209.988 51.9437 209.951C52.0737 209.914 52.2094 209.99 52.2461 210.12L53.0642 213.018C53.084 213.089 53.0713 213.165 53.0294 213.225C52.9875 213.286 52.9211 213.324 52.8479 213.33L51.2489 213.458C51.2402 213.459 51.2315 213.459 51.2232 213.459L51.2236 213.459Z" fill="#0A0A0A"/>
<path d="M51.2849 216.271C49.0685 216.426 48.3152 215.133 48.2813 215.072C48.2153 214.954 48.2571 214.804 48.3753 214.738C48.4927 214.672 48.6413 214.714 48.7081 214.831C48.7397 214.886 49.5084 216.154 51.9272 215.692C52.0627 215.666 52.1888 215.755 52.2141 215.887C52.2394 216.02 52.152 216.149 52.0192 216.174C51.7584 216.224 51.5138 216.255 51.2849 216.271Z" fill="#0A0A0A"/>
<path d="M50.201 206.6C50.2556 206.784 49.5849 207.041 48.6454 207.269C47.706 207.497 46.8563 207.657 46.7982 207.426C46.7251 207.133 47.4313 206.71 48.3707 206.482C49.3106 206.254 50.1152 206.311 50.201 206.6Z" fill="#0A0A0A"/>
<path d="M50.2076 209.185C50.2156 208.846 49.9477 208.566 49.6091 208.558C49.2705 208.549 48.9894 208.817 48.9814 209.156C48.9733 209.494 49.2413 209.775 49.5799 209.783C49.9185 209.791 50.1995 209.523 50.2076 209.185Z" fill="#0A0A0A"/>
<path d="M34.7338 210.114L40.7854 212.116C41.9185 211.75 42.918 210.693 43.761 209.397C45.7012 206.416 45.3692 202.448 45.3692 202.448C45.3692 202.448 48.8396 205.15 58.1684 204.235C58.1684 204.235 57.7838 191.434 42.6825 193.235C37.4229 193.863 32.6953 199.115 32.6546 206.01C32.6261 210.842 34.7338 210.114 34.7338 210.114V210.114Z" fill="#0A0A0A"/>
<path d="M40.5855 215.574C38.8963 215.852 37.1787 215.214 36.7668 212.67C36.4933 210.98 37.8885 209.735 39.578 209.457L40.6349 210.445L42.0379 215.335L40.5855 215.574Z" fill="#FF9E85"/>
<path d="M37.3355 208.24L37.2031 210.575C37.6596 210.052 38.3097 209.696 39.0559 209.625C39.2413 209.605 39.425 209.612 39.6041 209.631C40.7004 210.543 39.8681 212.142 40.7854 212.115C41.3063 212.1 42.522 210.9 42.8243 210.145C43.016 209.666 41.7604 207.782 41.779 207.267" fill="#0A0A0A"/>
<path d="M72.9042 236.446C72.8726 239.611 71.7857 243.386 71.3984 247.947C71.2956 249.164 68.6828 252.686 68.3034 256.602C67.8252 261.59 68.8887 269.366 69.031 272.731C66.4265 274.173 63.6718 275.375 60.7947 276.3C56.301 277.758 51.507 278.541 46.5272 278.541C37.2633 278.541 28.6356 275.825 21.3873 271.15C21.1976 262.51 20.9723 251.843 20.6838 249.286C19.7471 240.844 20.0001 235.505 21.3517 233.007C23.561 228.929 27.4934 227.684 31.6077 227.122C34.1213 226.783 37.8956 226.542 37.8956 226.542C37.8956 226.542 38.2158 233.011 45.8435 233.371C56.2259 233.861 55.5343 226.542 55.5857 226.542C59.3521 226.542 66.4898 227.443 69.2247 229.308C72.1256 231.28 72.9398 233.62 72.9042 236.446Z" fill="#FFC239"/>
<path d="M37.0355 241.37L22.9499 272.111C19.5826 270.127 16.492 267.724 13.7413 264.981C12.0655 263.309 10.5163 261.511 9.11719 259.602L20.8671 233.96L37.0355 241.37Z" fill="#FFC239"/>
<path d="M84.283 259.136C81.5284 262.982 78.1927 266.393 74.4065 269.238C73.1616 270.179 71.8692 271.052 70.5294 271.862L56.0723 240.079L72.2605 232.712L84.283 259.136Z" fill="#FFC239"/>
<path d="M143.151 96.6778C169.848 96.6778 191.49 75.0358 191.49 48.3389C191.49 21.6421 169.848 0 143.151 0C116.455 0 94.8125 21.6421 94.8125 48.3389C94.8125 75.0358 116.455 96.6778 143.151 96.6778Z" fill="white"/>
<path opacity="0.09" d="M143.151 96.6778C169.848 96.6778 191.49 75.0358 191.49 48.3389C191.49 21.6421 169.848 0 143.151 0C116.455 0 94.8125 21.6421 94.8125 48.3389C94.8125 75.0358 116.455 96.6778 143.151 96.6778Z" fill="#63C69E"/>
<path d="M153.68 19.6647C153.68 19.6647 156.928 16.4346 156.964 10.0186C156.991 5.0511 152.929 8.82307 152.929 8.82307C152.929 8.82307 152.914 5.24594 150.403 5.94508C147.892 6.64423 146.963 10.5312 146.963 10.5312" fill="#0C0C0C"/>
<path d="M137.229 8.16846C137.229 8.16846 124.715 11.2697 131.663 27.8512L132.798 27.7725L135.1 27.6129" fill="#0C0C0C"/>
<path d="M153.291 45.0843C153.234 45.0768 152.609 55.4549 140.553 54.5498C132.206 53.9246 129.23 45.0693 129.039 45.0693C129.939 44.878 131.051 44.5879 131.493 44.4883C132.961 44.1575 134.794 42.9458 135.218 40.3935C135.462 38.9225 135.048 31.3967 135.175 29.9087L147.987 32.7681C147.808 35.9113 146.555 43.1983 150.946 44.4883C151.677 44.7018 152.464 44.8978 153.29 45.0843H153.291Z" fill="#FF9E85"/>
<path opacity="0.22" d="M148.166 41.5102C147.985 40.9308 147.877 40.4273 147.781 39.5219C147.61 37.9026 147.701 36.4139 147.865 34.897C145.277 34.5524 142.792 33.4639 140.784 31.7949C140.546 32.6735 139.238 36.5123 139.6 37.3474C140.285 38.9259 143.502 41.5102 148.166 41.5102Z" fill="#0C0C0C"/>
<path d="M146.252 38.4833C141.183 38.7201 134.756 36.3772 133.738 29.5917L132.82 23.4689C131.803 16.6834 134.542 10.6484 140.931 9.69C147.32 8.73199 152.92 13.5165 153.937 20.302L154.344 23.0125C154.427 23.5705 154.519 24.5803 154.522 25.8272C154.528 28.3147 154.528 32.0986 153.214 34.8378C151.973 37.4241 149.49 38.3316 146.251 38.4829L146.252 38.4833Z" fill="#FF9E85"/>
<path d="M151.691 24.7181C152.08 24.7181 152.396 24.4028 152.396 24.0139C152.396 23.6249 152.08 23.3096 151.691 23.3096C151.302 23.3096 150.986 23.6249 150.986 24.0139C150.986 24.4028 151.302 24.7181 151.691 24.7181Z" fill="#0A0A0A"/>
<path d="M147.24 29.4918C147.098 29.4918 146.976 29.3843 146.961 29.2393C146.944 29.0843 147.057 28.946 147.212 28.9298L148.704 28.7737L147.785 25.7929C147.74 25.6443 147.823 25.4866 147.972 25.4408C148.121 25.395 148.278 25.4783 148.324 25.627L149.343 28.9353C149.368 29.016 149.356 29.1033 149.309 29.1737C149.262 29.244 149.187 29.2898 149.103 29.2985L147.27 29.4902C147.26 29.4914 147.25 29.4918 147.241 29.4918H147.24Z" fill="#0A0A0A"/>
<path d="M146.908 32.6829C144.354 32.6829 143.594 31.1396 143.56 31.0672C143.494 30.9265 143.554 30.7586 143.695 30.6922C143.834 30.6258 144.002 30.6855 144.069 30.825C144.101 30.8906 144.881 32.4066 147.691 32.0707C147.849 32.0513 147.986 32.1628 148.004 32.3169C148.023 32.4715 147.912 32.6118 147.758 32.6303C147.455 32.6667 147.172 32.6833 146.908 32.6833L146.908 32.6829Z" fill="#0A0A0A"/>
<path d="M144.778 21.46C144.845 21.6699 144.082 21.9837 143.008 22.2714C141.935 22.5591 140.963 22.7666 140.89 22.5018C140.798 22.1675 141.598 21.3802 142.672 21.0925C143.745 20.8048 144.672 21.1296 144.778 21.46H144.778Z" fill="#0A0A0A"/>
<path d="M144.627 25.1681C145.016 25.1681 145.332 24.8526 145.332 24.4635C145.332 24.0743 145.016 23.7588 144.627 23.7588C144.238 23.7588 143.922 24.0743 143.922 24.4635C143.922 24.8526 144.238 25.1681 144.627 25.1681Z" fill="#0A0A0A"/>
<path d="M153.333 21.6072C153.31 21.8266 152.484 21.8037 151.387 21.631C150.289 21.4582 149.316 21.2535 149.357 20.982C149.408 20.639 150.344 20.22 151.442 20.3927C152.54 20.5654 153.37 21.2622 153.333 21.6072Z" fill="#0A0A0A"/>
<path d="M134.443 31.5993C132.502 31.8906 130.616 30.0493 130.325 28.1079C130.034 26.1662 131.448 24.8596 133.389 24.5684L134.584 25.7192L136.112 31.3491L134.443 31.5993Z" fill="#FF9E85"/>
<path d="M135.351 28.2372C135.679 28.2218 135.934 27.9455 135.92 27.6171C135.831 25.4951 135.715 18.3519 138.125 17.5074C140.014 16.8458 145.101 18.9558 149.35 17.5259C151.209 16.9003 153.086 17.1248 153.394 18.001C153.516 18.348 154.002 13.0548 150.479 9.57095C147.675 6.7969 139.767 6.98859 136.363 8.49042C126.937 12.6489 133.046 25.047 133.046 25.047L133.811 27.8416C133.885 28.1115 134.136 28.2937 134.416 28.2806L135.35 28.2368L135.351 28.2372Z" fill="#0C0C0C"/>
<path d="M147.599 13.3646C148.997 12.8666 149.536 10.7943 148.804 8.736C148.071 6.67769 146.343 5.4128 144.944 5.9108C143.546 6.4088 143.006 8.48109 143.739 10.5394C144.472 12.5977 146.2 13.8626 147.599 13.3646Z" fill="#0C0C0C"/>
<path d="M169.511 55.5843C169.558 58.8607 168.278 62.5441 167.851 67.5318C167.764 68.5435 167.559 70.7726 167.286 73.6775C166.839 78.4873 166.207 85.1388 165.654 91.1343C158.935 94.6755 151.279 96.6792 143.154 96.6792C132.708 96.6792 123.041 93.3673 115.137 87.7433C114.963 87.6129 114.789 87.4864 114.615 87.3639C114.153 80.5859 113.607 73.4719 113.109 68.9783C112.172 60.5878 110.896 56.4103 111.611 53.5884C111.671 53.3434 111.746 53.1102 111.84 52.8849C113.9 47.8894 120.456 45.6603 124.899 45.0596C127.61 44.692 131.688 44.4272 131.688 44.4272C131.688 44.4272 132.032 51.4147 140.265 51.802C151.473 52.3316 150.726 44.4272 150.781 44.4272C152.596 44.4272 162.48 45.7473 164.95 47.3598C165.381 47.6404 165.776 47.9368 166.136 48.2451C168.681 50.399 169.475 53.0865 169.511 55.5843Z" fill="#383838"/>
<path d="M128.241 60.6509L115.136 87.7432C114.962 87.6128 114.788 87.4863 114.614 87.3638C109.544 83.6448 105.228 78.9693 101.928 73.5944L111.611 53.5883L111.994 52.7939L128.241 60.6509Z" fill="#383838"/>
<path d="M126.977 63.7689L115.057 87.6836C114.978 87.6243 114.903 87.569 114.824 87.5176L126.728 63.6464C126.764 63.5792 126.847 63.5476 126.918 63.5831C126.985 63.6187 127.013 63.7017 126.977 63.7689Z" fill="white"/>
<path d="M187.413 67.8001C185.026 73.2186 181.671 78.1193 177.568 82.281L167.285 73.677L154.223 62.7453L166.135 48.2446L166.17 48.2012L187.413 67.8001Z" fill="#383838"/>
<path d="M167.444 73.7828C167.513 73.7797 167.57 73.7259 167.576 73.656L168.255 65.7002C168.262 65.6235 168.205 65.5563 168.129 65.5496C168.052 65.5449 167.985 65.6002 167.978 65.6761L167.299 73.6318C167.293 73.7085 167.35 73.7757 167.426 73.7824C167.432 73.7828 167.438 73.7828 167.444 73.7824V73.7828Z" fill="white"/>
<path d="M370.767 306C396.23 306 416.872 285.358 416.872 259.895C416.872 234.432 396.23 213.79 370.767 213.79C345.304 213.79 324.662 234.432 324.662 259.895C324.662 285.358 345.304 306 370.767 306Z" fill="white"/>
<path opacity="0.09" d="M324.662 259.893C324.662 267.875 326.69 275.385 330.26 281.936C333.432 287.75 337.82 292.805 343.081 296.761C347.122 299.803 351.68 302.193 356.6 303.774C361.063 305.22 365.822 305.998 370.766 305.998C383.477 305.998 394.988 300.852 403.327 292.534C411.695 284.186 416.871 272.644 416.871 259.893C416.871 234.432 396.229 213.789 370.766 213.789C345.305 213.789 324.662 234.431 324.662 259.893Z" fill="#63C69E"/>
<path d="M392.22 233.763C391.834 242.67 392.827 245.912 394.741 251.615C396.428 256.639 381.239 252.071 373.355 251.012L379.397 230.538C379.397 230.538 392.355 230.635 392.22 233.763Z" fill="#0A0A0A"/>
<path d="M364.281 231.457C362.341 240.158 362.195 241.582 358.963 247.099C356.445 251.398 369.43 251.561 377.318 252.586L376.802 231.245C376.802 231.245 364.963 228.401 364.281 231.457Z" fill="#0A0A0A"/>
<path d="M366.594 254.928C366.643 254.922 367.187 263.951 377.676 263.164C384.938 262.62 387.527 254.915 387.694 254.915C386.911 254.749 385.592 254.507 385.245 254.321C384.101 253.706 382.686 253.067 382.318 250.847C382.105 249.567 382.465 243.019 382.355 241.724L371.208 244.212C371.364 246.947 372.454 253.287 368.633 254.409C367.997 254.595 367.313 254.765 366.594 254.928V254.928Z" fill="#FF9E85"/>
<path opacity="0.22" d="M371.051 251.819C371.209 251.315 371.303 250.877 371.386 250.089C371.535 248.68 371.456 247.385 371.313 246.065C373.565 245.766 375.727 244.818 377.474 243.366C377.681 244.131 378.819 247.471 378.504 248.197C377.908 249.57 375.109 251.819 371.051 251.819Z" fill="#0C0C0C"/>
<path d="M372.776 248.977C377.176 249.351 382.345 247.527 383.456 241.662L384.705 236.369C385.815 230.503 383.635 225.165 378.111 224.12C372.589 223.075 367.561 227.049 366.451 232.915L366.007 235.258C365.581 237.509 364.927 248.309 372.776 248.977V248.977Z" fill="#FF9E85"/>
<path d="M390.2 237.765L381.669 239.436C378.259 235.941 376.005 229.276 376.005 229.276C376.005 229.276 366.911 234.128 363.855 233.549C363.855 233.549 364.783 217.713 380.905 220.466C386.139 221.36 391.924 226.259 392.226 233.319C392.448 238.51 390.2 237.765 390.2 237.765Z" fill="#0A0A0A"/>
<path d="M366.462 233.641C366.497 233.844 367.265 233.774 368.279 233.547C369.292 233.321 370.187 233.072 370.133 232.821C370.065 232.504 369.183 232.432 368.17 232.658C367.156 232.885 366.407 233.322 366.462 233.641Z" fill="#0A0A0A"/>
<path d="M369.295 235.488C369.323 235.126 369.052 234.809 368.69 234.78C368.327 234.752 368.01 235.023 367.981 235.385C367.953 235.748 368.224 236.065 368.586 236.093C368.949 236.122 369.266 235.851 369.295 235.488Z" fill="#0A0A0A"/>
<path d="M370.69 240.577C370.823 240.587 370.945 240.496 370.97 240.363C370.996 240.219 370.902 240.082 370.759 240.056L369.38 239.801L370.454 237.091C370.508 236.956 370.442 236.803 370.307 236.749C370.171 236.696 370.018 236.762 369.965 236.897L368.772 239.905C368.743 239.978 368.749 240.061 368.787 240.129C368.825 240.198 368.892 240.246 368.97 240.261L370.663 240.574C370.673 240.576 370.682 240.577 370.691 240.578L370.69 240.577Z" fill="#0A0A0A"/>
<path d="M371.68 243.823C374.059 244.01 374.88 242.628 374.918 242.563C374.99 242.437 374.946 242.276 374.82 242.204C374.694 242.132 374.534 242.176 374.461 242.301C374.427 242.359 373.589 243.714 370.995 243.195C370.85 243.166 370.714 243.259 370.685 243.402C370.656 243.545 370.749 243.683 370.891 243.712C371.171 243.768 371.434 243.804 371.679 243.823L371.68 243.823Z" fill="#0A0A0A"/>
<path d="M373.86 233.43C373.781 233.621 374.469 233.969 375.449 234.316C376.428 234.663 377.318 234.927 377.405 234.686C377.516 234.381 376.808 233.852 375.829 233.505C374.85 233.158 373.983 233.13 373.86 233.43Z" fill="#0A0A0A"/>
<path d="M375.91 236.246C375.939 235.883 375.668 235.566 375.305 235.538C374.942 235.509 374.625 235.78 374.597 236.142C374.568 236.505 374.839 236.822 375.202 236.851C375.564 236.879 375.881 236.608 375.91 236.246Z" fill="#0A0A0A"/>
<path d="M383.023 243.384C384.702 243.702 386.402 242.164 386.72 240.485C387.037 238.807 385.852 237.624 384.174 237.306L382.671 237.026L381.58 243.111L383.023 243.384Z" fill="#FF9E85"/>
<path d="M382.024 234.779C381.987 235.332 380.438 237.208 380.591 237.741C380.831 238.581 381.998 239.997 382.553 240.07C383.531 240.199 382.817 238.4 384.088 237.545C384.282 237.544 384.478 237.557 384.674 237.599C385.464 237.756 386.12 238.208 386.55 238.817L386.665 236.307L382.024 234.779Z" fill="#0A0A0A"/>
<path d="M349.345 300.727C347.532 299.936 346.176 299.091 343.081 296.759C340.846 295.082 338.77 293.204 336.881 291.152L352.773 260.912L353.463 259.598L367.797 267.134L355.364 290.796L355.306 290.9L355.414 291.321" fill="#EA394A"/>
<path d="M402.197 276.401C401.78 280.885 401.69 287.86 401.719 294.06C396.017 299.237 389.005 302.964 381.508 304.737C373.361 306.694 364.647 306.372 356.674 303.801C355.731 294.45 354.329 280.709 353.539 272.248C352.738 263.484 350.384 260.589 356.81 256.392C360.351 254.589 365.966 254.431 368.488 254.431C367.632 262.738 385.14 263.761 385.575 254.431C398.668 255.655 404.731 255.959 402.198 276.401L402.197 276.401Z" fill="#EA394A"/>
<path d="M355.086 287.342C355.091 287.342 355.095 287.342 355.1 287.341C355.159 287.333 355.2 287.278 355.192 287.219L353.955 274.764C353.947 274.705 353.895 274.663 353.833 274.672C353.775 274.68 353.733 274.735 353.741 274.794L354.978 287.249C354.986 287.303 355.033 287.343 355.086 287.342Z" fill="#0C0C0C"/>
<path d="M353.471 277.856H340.852V293.333H353.471V277.856Z" fill="white"/>
<path d="M348.303 285.594C348.303 282.745 350.621 280.427 353.47 280.427C356.32 280.427 358.638 282.745 358.638 285.594C358.638 288.443 356.319 290.762 353.47 290.762C350.621 290.762 348.303 288.443 348.303 285.594ZM350.419 285.594C350.419 287.277 351.788 288.645 353.47 288.645C355.153 288.645 356.521 287.277 356.521 285.594C356.521 283.912 355.153 282.543 353.47 282.543C351.788 282.543 350.419 283.912 350.419 285.594Z" fill="white"/>
<path d="M353.37 287.51C353.46 286.954 353.935 286.569 354.468 286.561C354.461 286.55 354.455 286.538 354.452 286.525L354.076 286.444C353.542 286.328 353.13 285.861 353.143 285.314C353.16 284.579 353.831 284.077 354.513 284.224L355.4 284.416C355.4 284.412 355.399 284.409 355.4 284.406C355.401 284.398 355.405 284.392 355.408 284.385C354.942 284.166 354.67 283.65 354.783 283.126C354.881 282.47 355.667 282.254 356.244 282.379L358.54 282.79L357.765 282.276C357.269 281.918 357.092 281.224 357.425 280.71C357.779 280.162 358.515 280.028 359.038 280.406L368.293 290.999L366.24 290.067C364.935 291.986 362.596 292.921 360.328 292.431L355.307 291.337C354.773 291.222 354.361 290.754 354.374 290.208C354.386 289.68 354.736 289.274 355.184 289.141C355.177 289.124 355.173 289.106 355.176 289.087C355.182 289.05 355.206 289.023 355.237 289.008L354.311 288.808C353.712 288.679 353.272 288.115 353.37 287.51Z" fill="#FF9E85"/>
<path opacity="0.2" d="M357.078 284.79C357.119 284.782 357.153 284.749 357.161 284.704C357.171 284.646 357.131 284.592 357.074 284.582L355.523 284.319C355.465 284.31 355.41 284.349 355.4 284.406C355.39 284.464 355.429 284.519 355.487 284.529L357.038 284.791C357.052 284.794 357.065 284.793 357.078 284.79Z" fill="#0C0C0C"/>
<path opacity="0.2" d="M356.702 286.984C356.743 286.975 356.777 286.942 356.784 286.898C356.795 286.841 356.756 286.785 356.698 286.775L354.574 286.398C354.517 286.388 354.461 286.426 354.451 286.484C354.441 286.542 354.479 286.597 354.537 286.608L356.661 286.985C356.675 286.987 356.689 286.987 356.702 286.984Z" fill="#0C0C0C"/>
<path opacity="0.2" d="M356.31 289.361C356.352 289.353 356.386 289.319 356.393 289.274C356.402 289.216 356.362 289.161 356.304 289.152L355.296 288.998C355.239 288.989 355.184 289.029 355.175 289.087C355.166 289.145 355.206 289.199 355.264 289.208L356.272 289.363C356.285 289.365 356.298 289.364 356.31 289.361Z" fill="#0C0C0C"/>
<path d="M408.626 286.201C403.011 294.32 394.722 300.531 385.356 303.644L385.353 303.641C383.258 303.231 363.276 295.343 360.633 294.823L363.525 281.33C370.952 282.808 384.495 288.504 391.964 289.988L386.695 266.098C385.954 261.686 388.926 257.505 393.342 256.763C397.768 256.022 401.936 259.013 402.674 263.41L408.626 286.201L408.626 286.201Z" fill="#EA394A"/>
<path d="M397.624 291.746C397.676 291.746 397.723 291.708 397.731 291.654C397.739 291.595 397.699 291.54 397.64 291.531L392.024 289.626C391.963 289.617 391.91 289.658 391.902 289.717C391.893 289.776 391.934 289.831 391.992 289.84L397.608 291.745C397.613 291.746 397.618 291.746 397.624 291.746Z" fill="#0C0C0C"/>
<path d="M392.112 289.718C392.115 289.75 392.105 289.786 392.083 289.811C392.058 289.833 392.025 289.847 391.989 289.84L363.705 281.492L360.871 294.772L385.227 303.683C385.151 303.708 385.072 303.733 384.996 303.759C384.942 303.777 384.888 303.795 384.831 303.809L360.712 294.952C360.654 294.937 360.622 294.88 360.633 294.822L363.525 281.33C363.532 281.301 363.551 281.279 363.576 281.265C363.601 281.247 363.63 281.243 363.658 281.251L391.874 289.61L388.682 276.44C388.675 276.383 388.714 276.325 388.772 276.318C388.833 276.307 388.887 276.347 388.898 276.404L392.112 289.717L392.112 289.718Z" fill="#0C0C0C"/>
<path d="M23.2856 272.507C23.2599 272.507 23.2342 272.502 23.2089 272.492C23.1085 272.45 23.0611 272.334 23.1034 272.233L30.8461 253.827C30.8884 253.727 31.0046 253.68 31.105 253.722C31.2054 253.764 31.2528 253.88 31.2105 253.98L23.4678 272.387C23.4357 272.462 23.3626 272.507 23.2856 272.507Z" fill="#0C0C0C"/>
<path d="M68.8546 272.717L68.8459 272.717C68.7368 272.722 68.6443 272.638 68.6391 272.529L67.7756 253.703C67.7708 253.594 67.8598 253.507 67.9638 253.496C68.0729 253.492 68.1654 253.576 68.1706 253.685L69.0341 272.511C69.0389 272.617 68.9598 272.707 68.8546 272.717Z" fill="#0C0C0C"/>
</g>
<defs>
<clipPath id="clip0_264_9550">
<rect width="440.799" height="306" fill="white" transform="translate(0.0996094)"/>
</clipPath>
</defs>
</svg>
