<svg width="311" height="306" viewBox="0 0 311 306" fill="none" xmlns="http://www.w3.org/2000/svg">
<g clip-path="url(#clip0_267_10704)">
<path d="M261.727 0H107.943V153.784H261.727V0Z" fill="#F4F4F4"/>
<path d="M263.489 0H261.727V153.784H263.489V0Z" fill="#F4F4F4"/>
<path opacity="0.05" d="M263.489 0H261.727V153.784H263.489V0Z" fill="#292A2E"/>
<path opacity="0.05" d="M224.472 105.969V65.7344H191.514V89.1102H140.462V130.5H118.764V153.783H140.462H144.642H254.33V105.969H224.472Z" fill="#292A2E"/>
<path opacity="0.34" d="M219.745 70.103H195.744V74.4716H219.745V70.103Z" fill="#FFFFFA"/>
<path opacity="0.34" d="M219.745 79.1558H195.744V83.5243H219.745V79.1558Z" fill="#FFFFFA"/>
<path opacity="0.34" d="M219.745 88.2085H195.744V92.5771H219.745V88.2085Z" fill="#FFFFFA"/>
<path opacity="0.34" d="M250.074 110.21H245.65V114.579H250.074V110.21Z" fill="#FFFFFA"/>
<path opacity="0.34" d="M250.074 119.263H245.65V123.631H250.074V119.263Z" fill="#FFFFFA"/>
<path opacity="0.34" d="M250.074 128.315H245.65V132.684H250.074V128.315Z" fill="#FFFFFA"/>
<path opacity="0.34" d="M241.89 110.21H237.467V114.579H241.89V110.21Z" fill="#FFFFFA"/>
<path opacity="0.34" d="M241.89 119.263H237.467V123.631H241.89V119.263Z" fill="#FFFFFA"/>
<path opacity="0.34" d="M241.89 128.315H237.467V132.684H241.89V128.315Z" fill="#FFFFFA"/>
<path opacity="0.34" d="M233.928 110.21H229.504V114.579H233.928V110.21Z" fill="#FFFFFA"/>
<path opacity="0.34" d="M233.928 119.263H229.504V123.631H233.928V119.263Z" fill="#FFFFFA"/>
<path opacity="0.34" d="M233.928 128.315H229.504V132.684H233.928V128.315Z" fill="#FFFFFA"/>
<path d="M261.727 76.0292H230.783V0H228.224V76.0292H144.641V0H142.082V76.0292H107.943V78.5882H142.082V153.784H144.641V78.5882H228.224V153.784H230.783V78.5882H261.727V76.0292Z" fill="white"/>
<path d="M267.853 153.598H101.816V158.712H267.853V153.598Z" fill="#F4F4F4"/>
<path opacity="0.1" d="M267.853 153.598H101.816V158.712H267.853V153.598Z" fill="#292A2E"/>
<path opacity="0.1" d="M270.251 153.599H267.854V158.713H270.251V153.599Z" fill="#292A2E"/>
<path opacity="0.1" d="M270.251 153.599H267.854V158.713H270.251V153.599Z" fill="#292A2E"/>
<path d="M263.49 2.74512H107.943V6.54769H263.49V2.74512Z" fill="white"/>
<path d="M263.49 9.84766H107.943V13.6502H263.49V9.84766Z" fill="white"/>
<path d="M263.49 16.9497H107.943V20.7523H263.49V16.9497Z" fill="white"/>
<path d="M263.49 24.0518H107.943V27.8543H263.49V24.0518Z" fill="white"/>
<path d="M263.49 31.1543H107.943V34.9569H263.49V31.1543Z" fill="white"/>
<path d="M246.967 0H244.637V39.2451H246.967V0Z" fill="white"/>
<path d="M245.999 44.8815C247.768 44.8815 249.202 43.4477 249.202 41.679C249.202 39.9104 247.768 38.4766 245.999 38.4766C244.231 38.4766 242.797 39.9104 242.797 41.679C242.797 43.4477 244.231 44.8815 245.999 44.8815Z" fill="white"/>
<path d="M180.076 94.1254V57.7764H222.017V86.2962H191.007L180.076 94.1254Z" fill="#63C69E"/>
<path d="M180.076 94.1254V57.7764H222.017V86.2962H191.007L180.076 94.1254Z" fill="#63C69E"/>
<path d="M189.582 75.9511C191.59 75.9511 193.217 74.3237 193.217 72.3161C193.217 70.3086 191.59 68.6812 189.582 68.6812C187.575 68.6812 185.947 70.3086 185.947 72.3161C185.947 74.3237 187.575 75.9511 189.582 75.9511Z" fill="white"/>
<path d="M201.045 75.9511C203.053 75.9511 204.68 74.3237 204.68 72.3161C204.68 70.3086 203.053 68.6812 201.045 68.6812C199.038 68.6812 197.41 70.3086 197.41 72.3161C197.41 74.3237 199.038 75.9511 201.045 75.9511Z" fill="white"/>
<path d="M212.51 75.9511C214.518 75.9511 216.145 74.3237 216.145 72.3161C216.145 70.3086 214.518 68.6812 212.51 68.6812C210.502 68.6812 208.875 70.3086 208.875 72.3161C208.875 74.3237 210.502 75.9511 212.51 75.9511Z" fill="white"/>
<path d="M222.017 63.0891C224.951 63.0891 227.33 60.7107 227.33 57.7767C227.33 54.8428 224.951 52.4644 222.017 52.4644C219.084 52.4644 216.705 54.8428 216.705 57.7767C216.705 60.7107 219.084 63.0891 222.017 63.0891Z" fill="#0CBC8B"/>
<path d="M306.138 306H0.618408C0.480636 306 0.369141 305.889 0.369141 305.751C0.369141 305.613 0.480636 305.501 0.618408 305.501H306.138C306.276 305.501 306.387 305.613 306.387 305.751C306.387 305.889 306.276 306 306.138 306H306.138Z" fill="#292A2E"/>
<g opacity="0.65">
<path d="M306.138 306H0.618408C0.480636 306 0.369141 305.889 0.369141 305.751C0.369141 305.613 0.480636 305.501 0.618408 305.501H306.138C306.276 305.501 306.387 305.613 306.387 305.751C306.387 305.889 306.276 306 306.138 306H306.138Z" fill="#292A2E"/>
</g>
<path d="M21.8868 305.563L21.1895 305.429L32.0891 197.117L32.7864 197.251L21.8868 305.563Z" fill="#494949"/>
<path d="M62.4728 305.563L61.7754 305.429L72.675 197.117L73.372 197.251L62.4728 305.563Z" fill="#494949"/>
<path d="M152.184 305.563L152.882 305.429L141.983 197.117L141.285 197.251L152.184 305.563Z" fill="#494949"/>
<path d="M111.599 305.563L112.296 305.429L101.397 197.117L100.699 197.251L111.599 305.563Z" fill="#494949"/>
<path d="M97.1428 149.45L96.4395 149.543L102.807 197.232L103.51 197.138L97.1428 149.45Z" fill="#494949"/>
<path d="M24.0588 149.449L23.3555 149.543L29.7227 197.231L30.426 197.137L24.0588 149.449Z" fill="#494949"/>
<path d="M103.45 193.692H31.9649C30.0362 193.692 28.4727 195.256 28.4727 197.185V197.185C28.4727 199.114 30.0362 200.677 31.9649 200.677H103.45C105.379 200.677 106.942 199.114 106.942 197.185V197.185C106.942 195.256 105.379 193.692 103.45 193.692Z" fill="#292A2E"/>
<path opacity="0.8" d="M103.45 193.692H31.9649C30.0362 193.692 28.4727 195.256 28.4727 197.185V197.185C28.4727 199.114 30.0362 200.677 31.9649 200.677H103.45C105.379 200.677 106.942 199.114 106.942 197.185V197.185C106.942 195.256 105.379 193.692 103.45 193.692Z" fill="white"/>
<path d="M103.45 201.032H31.9645C29.8429 201.032 28.1172 199.306 28.1172 197.185C28.1172 195.063 29.8429 193.337 31.9645 193.337H103.45C105.571 193.337 107.297 195.063 107.297 197.185C107.297 199.306 105.571 201.032 103.45 201.032ZM31.9645 194.048C30.2345 194.048 28.8274 195.455 28.8274 197.185C28.8274 198.915 30.2345 200.322 31.9645 200.322H103.45C105.18 200.322 106.587 198.915 106.587 197.185C106.587 195.455 105.18 194.048 103.45 194.048H31.9645Z" fill="#292A2E"/>
<path d="M142.686 193.692H71.2012C69.2725 193.692 67.709 195.256 67.709 197.185V197.185C67.709 199.114 69.2725 200.677 71.2012 200.677H142.686C144.615 200.677 146.179 199.114 146.179 197.185V197.185C146.179 195.256 144.615 193.692 142.686 193.692Z" fill="white"/>
<path d="M142.686 201.032H71.2008C69.0792 201.032 67.3535 199.306 67.3535 197.185C67.3535 195.063 69.0796 193.337 71.2008 193.337H142.686C144.807 193.337 146.533 195.063 146.533 197.185C146.533 199.306 144.807 201.032 142.686 201.032ZM71.2008 194.048C69.4709 194.048 68.0637 195.455 68.0637 197.185C68.0637 198.915 69.4709 200.322 71.2008 200.322H142.686C144.416 200.322 145.823 198.915 145.823 197.185C145.823 195.455 144.416 194.048 142.686 194.048H71.2008Z" fill="#292A2E"/>
<path d="M93.2275 149.495H23.8987C21.5541 149.495 19.5731 147.756 19.2702 145.431L14.6843 110.213C14.3207 107.42 16.4956 104.943 19.3128 104.943H88.6416C90.9862 104.943 92.9672 106.683 93.2701 109.008L97.856 144.225C98.2196 147.018 96.0447 149.495 93.2275 149.495Z" fill="#292A2E"/>
<path opacity="0.8" d="M93.2275 149.495H23.8987C21.5541 149.495 19.5731 147.756 19.2702 145.431L14.6843 110.213C14.3207 107.42 16.4956 104.943 19.3128 104.943H88.6416C90.9862 104.943 92.9672 106.683 93.2701 109.008L97.856 144.225C98.2196 147.018 96.0447 149.495 93.2275 149.495Z" fill="white"/>
<path d="M93.2281 149.85H23.8993C21.3846 149.85 19.2435 147.97 18.9189 145.476L14.333 110.259C14.1466 108.827 14.5862 107.382 15.5396 106.297C16.493 105.211 17.8686 104.588 19.3134 104.588H88.6422C91.1569 104.588 93.298 106.469 93.6226 108.963L98.2084 144.18C98.3949 145.612 97.9553 147.057 97.0019 148.142C96.0485 149.228 94.6729 149.851 93.2281 149.851V149.85ZM19.3134 105.299C18.0728 105.299 16.8918 105.833 16.0733 106.765C15.2545 107.697 14.877 108.938 15.0375 110.168L19.6234 145.385C19.9021 147.526 21.7404 149.14 23.8997 149.14H93.2284C94.4691 149.14 95.6501 148.605 96.4685 147.673C97.2874 146.741 97.6648 145.501 97.5047 144.271L92.9188 109.054C92.6401 106.913 90.8018 105.298 88.6425 105.298H19.3134V105.299Z" fill="#292A2E"/>
<path d="M97.1474 149.495H27.8186C25.474 149.495 23.493 147.756 23.1901 145.431L18.6042 110.213C18.2406 107.42 20.4155 104.943 23.2327 104.943H92.5615C94.9061 104.943 96.8871 106.683 97.19 109.008L101.776 144.225C102.139 147.018 99.9646 149.495 97.1474 149.495Z" fill="white"/>
<path d="M97.148 149.85H27.8192C25.3045 149.85 23.1634 147.97 22.8388 145.476L18.253 110.259C18.0665 108.827 18.5061 107.382 19.4595 106.297C20.4129 105.211 21.7885 104.588 23.2333 104.588H92.5621C95.0768 104.588 97.2179 106.469 97.5425 108.963L102.128 144.18C102.315 145.612 101.875 147.057 100.922 148.142C99.9684 149.228 98.5928 149.851 97.148 149.851V149.85ZM23.2333 105.299C21.9927 105.299 20.8117 105.833 19.9932 106.765C19.1744 107.697 18.7969 108.938 18.9571 110.168L23.543 145.385C23.8217 147.526 25.66 149.141 27.8192 149.141H97.148C98.3886 149.141 99.5697 148.606 100.388 147.674C101.207 146.742 101.584 145.501 101.424 144.271L96.8384 109.054C96.5596 106.913 94.7214 105.299 92.5621 105.299H23.2333Z" fill="#292A2E"/>
<path d="M195.766 286.027C195.766 286.027 197.67 295.897 206.91 296.447C216.15 296.997 214.147 304.358 214.147 304.358H178.836V286.716L195.766 286.028L195.766 286.027Z" fill="#63C69E"/>
<path d="M128.588 279.796C128.588 279.796 125.94 289.492 133.988 294.064C142.037 298.637 136.989 304.357 136.989 304.357L105.305 288.771L113.092 272.94L128.587 279.796H128.588Z" fill="#63C69E"/>
<path d="M97.4488 79.1516C97.3778 79.1424 96.5895 92.2201 81.3973 91.0799C70.8798 90.292 67.1298 79.1332 66.8887 79.1332C68.0228 78.8921 69.424 78.5263 69.9811 78.401C71.8314 77.9841 74.1412 76.4573 74.6753 73.2409C74.9828 71.3874 74.4612 61.9039 74.6217 60.0283L90.7662 63.6317C90.5407 67.5926 88.9617 76.7758 94.4956 78.401C95.4163 78.6698 96.4081 78.9169 97.4495 79.1516H97.4488Z" fill="#FF9E85"/>
<path opacity="0.22" d="M90.9917 74.6482C90.763 73.9181 90.627 73.2836 90.5059 72.1423C90.2897 70.1017 90.4048 68.2258 90.6114 66.3144C87.35 65.8801 84.2189 64.5084 81.6885 62.4053C81.3889 63.5124 79.7402 68.3501 80.1965 69.4022C81.0593 71.391 85.114 74.6482 90.9913 74.6482H90.9917Z" fill="#0C0C0C"/>
<path d="M100.592 49.6808C100.592 49.6808 105.225 46.238 106.426 38.2426C107.357 32.0521 101.61 36.024 101.61 36.024C101.61 36.024 102.236 31.5599 98.9784 31.9789C95.7205 32.3979 93.8613 37.0786 93.8613 37.0786" fill="#0C0C0C"/>
<path d="M82.1463 32.376C82.1463 32.376 65.9794 33.987 71.6554 55.9201L73.0839 56.0266L75.9838 56.2428" fill="#0C0C0C"/>
<path d="M87.9309 71.8112C81.5661 71.1923 73.9733 67.1114 73.9279 58.4651L73.8871 50.6636C73.8416 42.0173 78.3462 34.9842 86.4872 34.9416C94.6281 34.899 100.75 41.8764 100.795 50.5226L100.813 53.9765C100.817 54.6874 100.749 55.9635 100.528 57.5192C100.088 60.6229 99.4051 65.3416 97.2721 68.5214C95.2588 71.5233 91.9973 72.2068 87.9309 71.8116V71.8112Z" fill="#FF9E85"/>
<path d="M97.267 54.7378C97.3372 54.2526 97.0007 53.8024 96.5155 53.7322C96.0302 53.662 95.58 53.9985 95.5099 54.4837C95.4397 54.969 95.7762 55.4192 96.2614 55.4893C96.7466 55.5595 97.1968 55.223 97.267 54.7378Z" fill="#0A0A0A"/>
<path d="M90.7882 60.7757C90.6103 60.7502 90.4775 60.5936 90.4846 60.4104C90.4925 60.2144 90.6572 60.0617 90.8536 60.0695L92.743 60.1441L92.1351 56.2609C92.1049 56.067 92.2373 55.8856 92.4312 55.8554C92.6247 55.8252 92.8065 55.9573 92.8371 56.1512L93.5117 60.4611C93.5281 60.5662 93.4965 60.6728 93.4258 60.7523C93.3551 60.8318 93.2529 60.8752 93.1467 60.8709L90.8259 60.7793C90.8135 60.7789 90.801 60.7775 90.789 60.7757H90.7882Z" fill="#0A0A0A"/>
<path d="M89.8006 64.6955C86.6151 64.235 85.9454 62.173 85.916 62.0765C85.8588 61.889 85.9639 61.6905 86.1514 61.633C86.3378 61.5754 86.5356 61.6802 86.5942 61.8663C86.6222 61.954 87.3214 63.985 90.8875 64.0731C91.0877 64.0774 91.2386 64.241 91.234 64.4367C91.2291 64.6327 91.0664 64.7875 90.8704 64.7829C90.4855 64.7733 90.1297 64.7431 89.8009 64.6955H89.8006Z" fill="#0A0A0A"/>
<path d="M89.166 50.3142C89.2126 50.588 88.2038 50.8419 86.8126 51.007C85.4213 51.1721 84.1722 51.2555 84.1288 50.9122C84.0742 50.4786 85.214 49.641 86.6048 49.4759C87.9957 49.3108 89.0925 49.8832 89.1657 50.3139L89.166 50.3142Z" fill="#0A0A0A"/>
<path d="M88.3764 54.024C88.4465 53.5387 88.1101 53.0885 87.6248 53.0183C87.1396 52.9482 86.6894 53.2846 86.6192 53.7699C86.5491 54.2551 86.8855 54.7053 87.3708 54.7755C87.856 54.8456 88.3062 54.5092 88.3764 54.024Z" fill="#0A0A0A"/>
<path d="M99.8094 52.0413C99.7409 52.3105 98.7158 52.1333 97.3775 51.72C96.0392 51.3067 94.8635 50.876 94.9629 50.5447C95.089 50.126 96.3321 49.7724 97.6704 50.1857C99.0087 50.599 99.9174 51.6177 99.8094 52.0413Z" fill="#0A0A0A"/>
<path d="M74.4478 61.0963C71.974 61.1094 69.9543 58.4729 69.9415 55.9991C69.9283 53.5252 71.9271 52.1503 74.4009 52.1372L75.6846 53.7883L76.5751 61.0853L74.4482 61.0963H74.4478Z" fill="#FF9E85"/>
<path d="M76.1853 57.0666C76.5976 57.1067 76.9651 56.8081 77.0073 56.3962C77.279 53.7338 78.422 44.8038 81.5804 44.1853C84.0546 43.7006 90.0197 47.2496 95.5767 46.233C98.008 45.7881 100.308 46.4063 100.534 47.5547C100.623 48.0095 102.185 41.4959 98.4199 36.5152C95.4222 32.5496 85.525 31.3626 81.0087 32.6217C68.5035 36.1082 73.8865 52.6728 73.8865 52.6728L74.3371 56.2961C74.3804 56.6458 74.6609 56.9189 75.0118 56.953L76.1853 57.0666Z" fill="#0C0C0C"/>
<path d="M94.1423 40.7266C95.9762 40.3577 97.0227 37.8705 96.4798 35.1712C95.9369 32.472 94.01 30.5828 92.1761 30.9517C90.3422 31.3206 89.2956 33.8078 89.8386 36.5071C90.3815 39.2064 92.3083 41.0955 94.1423 40.7266Z" fill="#0C0C0C"/>
<path d="M108.963 277.058L135.683 192.765H87.2499C77.5213 192.765 73.4648 184.514 73.4648 174.786C73.4648 165.057 83.029 156.529 92.7579 156.529H158.125C164.058 156.529 170.712 160.158 173.969 165.118C177.225 170.078 176.345 177.766 173.986 183.21L131.199 287.131" fill="#262626"/>
<path opacity="0.8" d="M108.963 277.058L135.683 192.765H87.2499C77.5213 192.765 73.4648 184.514 73.4648 174.786C73.4648 165.057 83.029 156.529 92.7579 156.529H158.125C164.058 156.529 170.712 160.158 173.969 165.118C177.225 170.078 176.345 177.766 173.986 183.21L131.199 287.131" fill="#0A0A0A"/>
<path d="M176.806 295.192L132.129 192.765L73.4666 192.761C59.721 191.683 53.4258 184.15 53.6257 174.423C53.8231 164.82 58.6856 155.335 68.2459 155.335H147.312C154.385 155.48 159.95 163.297 162.574 169.867L199.716 288.922" fill="#262626"/>
<path d="M49.6233 155.452C49.6233 155.452 47.018 172.442 51.1476 181.887C56.3031 193.68 75.6295 192.761 75.6295 192.761L74.5405 155.335L49.6233 155.452Z" fill="#262626"/>
<path d="M164.254 155.118L122.815 146.532C119.306 145.805 116.412 143.336 115.14 139.985L98.8414 97.0365C96.7865 91.6222 99.51 85.5677 104.924 83.5132C110.339 81.4583 116.393 84.1822 118.448 89.5961L132.705 127.165L168.509 134.584C168.509 134.584 164.972 155.268 164.254 155.119L164.254 155.118Z" fill="#63C69E"/>
<path d="M116.325 107.943C115.846 113.565 112.453 148.639 111.993 155.564H49.6493C49.291 149.318 47.6829 122.009 46.3243 109.796C45.0275 98.1415 43.2102 92.8379 44.7037 89.2161C47.3377 82.8285 55.7219 79.9758 61.3993 79.207C64.8664 78.7376 70.0807 78.4014 70.0807 78.4014C70.0807 78.4014 70.5221 87.3328 81.0496 87.8299C95.3807 88.5059 94.4234 78.4014 94.4944 78.4014C96.8159 78.4014 109.453 80.0898 112.613 82.1493C117.076 85.0581 118.395 89.0226 118.448 92.6647C118.508 96.8582 116.868 101.567 116.325 107.943Z" fill="#63C69E"/>
<path d="M113.873 136.602C113.868 136.602 113.863 136.602 113.858 136.601C113.761 136.593 113.688 136.507 113.696 136.409L115.314 116.967C115.322 116.87 115.405 116.793 115.506 116.805C115.604 116.813 115.676 116.899 115.668 116.997L114.05 136.439C114.042 136.532 113.965 136.602 113.873 136.602Z" fill="#0C0C0C"/>
<path d="M123.898 151.71L137.578 109.66C138.071 108.144 139.484 107.118 141.078 107.118H196.809C199.309 107.118 201.082 109.559 200.309 111.937L186.629 153.987C186.136 155.503 184.723 156.529 183.129 156.529H127.398C124.897 156.529 123.124 154.088 123.898 151.71Z" fill="#292A2E"/>
<path opacity="0.2" d="M123.898 151.71L137.578 109.66C138.071 108.144 139.484 107.118 141.078 107.118H196.809C199.309 107.118 201.082 109.559 200.309 111.937L186.629 153.987C186.136 155.503 184.723 156.529 183.129 156.529H127.398C124.897 156.529 123.124 154.088 123.898 151.71Z" fill="white"/>
<path d="M135.058 153.119H97.7515C96.8219 153.119 96.0684 153.873 96.0684 154.802V154.846C96.0684 155.775 96.8219 156.529 97.7515 156.529H135.058C135.987 156.529 136.741 155.775 136.741 154.846V154.802C136.741 153.873 135.987 153.119 135.058 153.119Z" fill="#292A2E"/>
<path opacity="0.2" d="M135.058 153.119H97.7515C96.8219 153.119 96.0684 153.873 96.0684 154.802V154.846C96.0684 155.775 96.8219 156.529 97.7515 156.529H135.058C135.987 156.529 136.741 155.775 136.741 154.846V154.802C136.741 153.873 135.987 153.119 135.058 153.119Z" fill="white"/>
<path d="M162.105 139.719C165.333 139.719 167.95 137.102 167.95 133.874C167.95 130.646 165.333 128.029 162.105 128.029C158.877 128.029 156.26 130.646 156.26 133.874C156.26 137.102 158.877 139.719 162.105 139.719Z" fill="white"/>
<path d="M116.892 100.106H102.072V118.281H116.892V100.106Z" fill="white"/>
<path d="M102.073 115.262C98.7263 115.262 96.0039 112.54 96.0039 109.194C96.0039 105.847 98.7263 103.125 102.073 103.125C105.419 103.125 108.141 105.847 108.141 109.194C108.141 112.54 105.419 115.262 102.073 115.262ZM102.073 105.611C100.097 105.611 98.4895 107.218 98.4895 109.194C98.4895 111.169 100.097 112.777 102.073 112.777C104.048 112.777 105.656 111.169 105.656 109.194C105.656 107.218 104.048 105.611 102.073 105.611Z" fill="white"/>
<path d="M102.927 111.887C102.64 111.142 101.87 110.746 101.128 110.889C101.135 110.872 101.139 110.854 101.139 110.836L101.637 110.613C102.345 110.298 102.78 109.53 102.603 108.775C102.365 107.76 101.288 107.26 100.386 107.663L99.2117 108.186C99.2103 108.182 99.211 108.177 99.2093 108.173C99.2053 108.163 99.1982 108.155 99.1922 108.147C99.7738 107.707 100.001 106.912 99.6907 106.218C99.3651 105.337 98.2111 105.267 97.448 105.608L94.383 106.846L95.3083 105.908C95.8921 105.266 95.935 104.253 95.3247 103.636C94.6738 102.979 93.6135 103.008 92.9989 103.684L82.0957 115.589L85.8234 119.18C88.1918 121.461 91.7074 122.077 94.7104 120.738L101.355 117.759C102.062 117.443 102.498 116.675 102.321 115.921C102.15 115.192 101.547 114.731 100.887 114.676C100.891 114.651 100.892 114.625 100.882 114.599C100.863 114.551 100.822 114.52 100.774 114.508L102.001 113.961C102.794 113.607 103.239 112.697 102.927 111.887L102.927 111.887Z" fill="#FF9E85"/>
<path opacity="0.2" d="M96.9945 109.193C96.9345 109.193 96.8777 109.157 96.8543 109.098C96.8237 109.021 96.8621 108.933 96.9391 108.903L99.0128 108.087C99.0899 108.058 99.1776 108.095 99.2081 108.172C99.2386 108.25 99.2003 108.337 99.1232 108.368L97.0496 109.183C97.0314 109.19 97.0126 109.193 96.9945 109.193Z" fill="#0C0C0C"/>
<path opacity="0.2" d="M98.1524 112.126C98.0927 112.126 98.0362 112.091 98.0128 112.032C97.9819 111.955 98.0192 111.867 98.0963 111.836L100.932 110.694C101.009 110.664 101.097 110.701 101.128 110.778C101.159 110.855 101.122 110.943 101.045 110.974L98.2088 112.115C98.1903 112.123 98.1715 112.126 98.1527 112.126H98.1524Z" fill="#0C0C0C"/>
<path opacity="0.2" d="M99.3888 115.31C99.3281 115.31 99.2706 115.272 99.2479 115.212C99.2188 115.134 99.2582 115.047 99.3359 115.018L100.688 114.511C100.766 114.481 100.852 114.521 100.882 114.599C100.911 114.676 100.872 114.763 100.794 114.793L99.4417 115.3C99.4243 115.306 99.4066 115.31 99.3888 115.31Z" fill="#0C0C0C"/>
<path d="M106.079 88.5464C105.95 88.5464 105.826 88.4761 105.763 88.3532C104.954 86.777 103.948 84.8148 104.062 82.7578C104.152 81.122 104.919 79.6697 105.66 78.265C106.112 77.4078 106.58 76.5215 106.88 75.6143C107.711 73.0957 107.248 70.2067 105.671 68.0741C105.555 67.9164 105.588 67.6942 105.746 67.5777C105.903 67.4605 106.125 67.4942 106.242 67.6523C107.953 69.967 108.456 73.1035 107.554 75.8373C107.236 76.801 106.754 77.7139 106.288 78.5966C105.549 79.9953 104.852 81.3162 104.77 82.7972C104.667 84.6618 105.585 86.451 106.394 88.0294C106.484 88.2037 106.415 88.4178 106.24 88.5073C106.188 88.5339 106.133 88.5464 106.078 88.5464H106.079Z" fill="white"/>
<path d="M111.781 94.0882C111.656 94.0882 111.535 94.0218 111.47 93.9046C111.375 93.7328 111.438 93.5169 111.61 93.4224C112.926 92.6966 113.073 90.6766 112.455 89.143C112.171 88.4399 111.77 87.7614 111.381 87.1055C110.879 86.2579 110.36 85.3816 110.061 84.4072C109.354 82.1124 110.037 79.4457 111.758 77.7722C111.899 77.6358 112.124 77.6387 112.261 77.7796C112.397 77.9202 112.394 78.145 112.253 78.2817C110.718 79.7741 110.109 82.1518 110.739 84.1988C111.014 85.0926 111.489 85.8947 111.992 86.744C112.394 87.423 112.81 88.1246 113.113 88.8777C113.837 90.6734 113.676 93.0943 111.952 94.0445C111.898 94.0744 111.839 94.0889 111.781 94.0889V94.0882Z" fill="white"/>
<path d="M94.5965 125.04L42.3092 146.679C41.0245 147.205 39.6763 147.46 38.3394 147.461C35.6674 147.461 33.0398 146.439 31.046 144.51C28.0548 141.616 27.0588 137.226 28.5079 133.324L44.1027 90.7308C46.1189 85.3023 51.7988 82.1804 57.2277 84.1969C62.6562 86.2127 65.4226 92.2481 63.4064 97.6766L56.2931 117.836L86.9381 106.022" fill="#63C69E"/>
<path d="M94.4666 125.234C94.4112 125.234 94.359 125.201 94.337 125.146L86.7294 106.255L56.1884 118.042C56.1369 118.062 56.0783 118.049 56.0389 118.01C55.9998 117.971 55.9874 117.912 56.0076 117.861L60.7292 105.74C60.7572 105.667 60.8385 105.632 60.9103 105.66C60.9823 105.688 61.0179 105.769 60.9898 105.841L56.3833 117.667L86.7571 105.944C86.8284 105.917 86.9083 105.952 86.9371 106.023L94.5962 125.041C94.625 125.113 94.5902 125.194 94.5188 125.224C94.5018 125.23 94.484 125.234 94.4666 125.234Z" fill="#0C0C0C"/>
<path d="M46.5968 121.791C46.541 121.791 46.4885 121.758 46.4668 121.703C46.4384 121.631 46.4739 121.549 46.5457 121.521L56.1116 117.757C56.1829 117.729 56.2646 117.764 56.293 117.836C56.3214 117.908 56.2859 117.989 56.2142 118.017L46.6483 121.781C46.6316 121.788 46.6142 121.791 46.5971 121.791L46.5968 121.791Z" fill="#0C0C0C"/>
<path d="M48.8235 144.152C48.7688 144.152 48.7166 144.12 48.6943 144.066C48.6648 143.995 48.6985 143.913 48.7699 143.883L94.4139 124.965C94.485 124.935 94.567 124.969 94.5965 125.04C94.6259 125.112 94.5922 125.193 94.5208 125.223L48.8768 144.142C48.8594 144.149 48.8413 144.152 48.8231 144.152H48.8235Z" fill="#0C0C0C"/>
<path d="M279.716 259.434C279.626 259.434 279.535 259.399 279.465 259.33C278.965 258.83 278.15 249.651 275.953 222.322C275.054 211.14 274.205 200.578 273.586 194.159C273.541 193.7 273.364 193.647 273.305 193.629C272.457 193.373 269.878 195.407 268.438 197.188C268.315 197.34 268.091 197.364 267.938 197.241C267.786 197.117 267.762 196.894 267.886 196.741C268.838 195.564 271.941 192.477 273.509 192.949C273.826 193.044 274.218 193.319 274.293 194.09C274.913 200.515 275.762 211.08 276.661 222.265C277.995 238.872 279.508 257.687 280.004 258.872C280.105 259.01 280.092 259.205 279.967 259.33C279.898 259.399 279.807 259.434 279.716 259.434Z" fill="#494949"/>
<path d="M272.673 205.937C278.565 201.214 280.518 193.863 277.035 189.517C273.552 185.172 265.952 185.478 260.059 190.201C254.167 194.924 252.214 202.276 255.697 206.621C259.181 210.966 266.781 210.66 272.673 205.937Z" fill="#0CBC8B"/>
<path opacity="0.2" d="M272.673 205.937C278.565 201.214 280.518 193.863 277.035 189.517C273.552 185.172 265.952 185.478 260.059 190.201C254.167 194.924 252.214 202.276 255.697 206.621C259.181 210.966 266.781 210.66 272.673 205.937Z" fill="white"/>
<path d="M257.349 207.727C257.309 207.727 257.269 207.713 257.236 207.686C257.161 207.624 257.15 207.512 257.213 207.436L274.005 187.186C274.068 187.111 274.179 187.1 274.255 187.163C274.33 187.225 274.341 187.337 274.278 187.413L257.486 207.663C257.451 207.705 257.4 207.727 257.349 207.727Z" fill="white"/>
<path d="M283.379 255.093C283.34 255.093 283.301 255.086 283.262 255.073C283.077 255.008 282.979 254.806 283.043 254.621L289.351 236.481C289.729 235.392 290.624 234.58 291.744 234.31C292.865 234.039 294.031 234.354 294.865 235.15L298.199 238.335C298.341 238.47 298.346 238.695 298.211 238.837C298.075 238.979 297.85 238.984 297.709 238.849L294.374 235.663C293.716 235.035 292.796 234.786 291.911 235C291.027 235.214 290.321 235.854 290.022 236.713L283.714 254.854C283.663 255 283.526 255.092 283.379 255.092V255.093Z" fill="#494949"/>
<path d="M307.516 248.379C311.882 244.923 311.623 237.321 306.936 231.4C302.249 225.479 294.91 223.481 290.543 226.937C286.177 230.393 286.436 237.995 291.123 243.916C295.81 249.837 303.149 251.835 307.516 248.379Z" fill="#0CBC8B"/>
<path d="M276.85 258.277C276.69 258.277 276.544 258.167 276.505 258.004L265.92 213.745C265.77 213.118 265.306 212.652 264.679 212.499C264.052 212.346 263.426 212.546 263.004 213.033L259.741 216.804C259.613 216.952 259.388 216.968 259.24 216.84C259.092 216.712 259.075 216.488 259.204 216.339L262.466 212.569C263.058 211.885 263.97 211.594 264.847 211.808C265.725 212.023 266.4 212.701 266.61 213.58L277.196 257.839C277.241 258.029 277.124 258.221 276.933 258.267C276.905 258.273 276.877 258.276 276.85 258.276V258.277Z" fill="#494949"/>
<path d="M272.946 226.638C274.233 219.197 270.828 212.396 265.34 211.447C259.852 210.498 254.361 215.761 253.074 223.202C251.787 230.643 255.193 237.444 260.68 238.393C266.168 239.342 271.66 234.079 272.946 226.638Z" fill="#0CBC8B"/>
<path d="M279.717 259.434C279.703 259.434 279.688 259.433 279.673 259.432C279.479 259.407 279.34 259.23 279.364 259.036L286.123 204.155C286.276 202.917 287.11 201.919 288.302 201.55C289.493 201.181 290.746 201.533 291.571 202.467L299.297 211.218C299.427 211.365 299.413 211.589 299.266 211.719C299.119 211.849 298.894 211.835 298.765 211.688L291.039 202.938C290.401 202.215 289.433 201.944 288.512 202.229C287.591 202.514 286.946 203.285 286.829 204.242L280.069 259.123C280.047 259.303 279.894 259.434 279.717 259.434V259.434Z" fill="#494949"/>
<path d="M307.22 216.08C309.916 211.207 306.744 204.293 300.136 200.638C293.529 196.983 285.987 197.971 283.291 202.844C280.595 207.717 283.767 214.631 290.375 218.286C296.983 221.941 304.525 220.953 307.22 216.08Z" fill="#0CBC8B"/>
<path opacity="0.2" d="M307.516 248.379C311.882 244.923 311.623 237.321 306.936 231.4C302.249 225.479 294.91 223.481 290.543 226.937C286.177 230.393 286.436 237.995 291.123 243.916C295.81 249.837 303.149 251.835 307.516 248.379Z" fill="white"/>
<path opacity="0.5" d="M272.946 226.638C274.233 219.197 270.828 212.396 265.34 211.447C259.852 210.498 254.361 215.761 253.074 223.202C251.787 230.643 255.193 237.444 260.68 238.393C266.168 239.342 271.66 234.079 272.946 226.638Z" fill="white"/>
<path opacity="0.5" d="M307.22 216.08C309.916 211.207 306.744 204.293 300.136 200.638C293.529 196.983 285.987 197.971 283.291 202.844C280.595 207.717 283.767 214.631 290.375 218.286C296.983 221.941 304.525 220.953 307.22 216.08Z" fill="white"/>
<path d="M288.361 306H271.07L268.205 250.677H291.227L288.361 306Z" fill="#292A2E"/>
<path opacity="0.3" d="M288.361 306H271.07L268.205 250.677H291.227L288.361 306Z" fill="white"/>
<path d="M307.516 248.555C307.463 248.555 307.411 248.532 307.376 248.488L290.404 227.046C290.343 226.969 290.356 226.857 290.433 226.796C290.51 226.735 290.622 226.749 290.682 226.825L307.655 248.267C307.716 248.344 307.703 248.456 307.626 248.517C307.593 248.543 307.554 248.555 307.516 248.555Z" fill="white"/>
<path d="M306.092 217.798C306.056 217.798 306.019 217.787 305.988 217.764L284.268 201.905C284.189 201.847 284.172 201.736 284.229 201.657C284.287 201.578 284.399 201.56 284.478 201.618L306.197 217.477C306.276 217.535 306.294 217.646 306.236 217.725C306.201 217.773 306.147 217.798 306.092 217.798Z" fill="white"/>
<path d="M259.797 238.162C259.781 238.162 259.766 238.16 259.751 238.156C259.656 238.13 259.6 238.033 259.625 237.938L266.539 212.034C266.565 211.939 266.664 211.883 266.757 211.908C266.851 211.933 266.908 212.031 266.882 212.126L259.968 238.03C259.947 238.109 259.875 238.162 259.797 238.162Z" fill="white"/>
</g>
<defs>
<clipPath id="clip0_267_10704">
<rect width="310.26" height="306" fill="white" transform="translate(0.369141)"/>
</clipPath>
</defs>
</svg>
