<svg width="369" height="306" viewBox="0 0 369 306" fill="none" xmlns="http://www.w3.org/2000/svg">
<g clip-path="url(#clip0_267_10361)">
<path d="M105.202 125.058L257.144 125.058C260.876 125.058 263.9 122.032 263.9 118.3V7.03596C263.9 3.30408 260.876 0.278801 257.144 0.278801L105.202 0.278801C101.471 0.278801 98.4465 3.30408 98.4465 7.03596L98.4465 118.3C98.4465 122.032 101.471 125.058 105.202 125.058Z" fill="white"/>
<path d="M257.144 125.336H105.202C101.324 125.336 98.168 122.18 98.168 118.3V7.03569C98.168 3.15615 101.324 0 105.202 0H257.144C261.023 0 264.178 3.15615 264.178 7.03569V118.3C264.178 122.18 261.023 125.336 257.144 125.336ZM105.202 0.557068C101.631 0.557068 98.7249 3.46342 98.7249 7.03569V118.3C98.7249 121.872 101.631 124.779 105.202 124.779H257.144C260.716 124.779 263.622 121.872 263.622 118.3V7.03569C263.622 3.46342 260.716 0.557068 257.144 0.557068H105.202Z" fill="#292A2E"/>
<path d="M118.136 10.7603L107.277 11.7903C106.155 11.8967 105.332 12.8923 105.439 14.0141L106.468 24.8756C106.575 25.9974 107.57 26.8205 108.692 26.7142L119.551 25.6842C120.673 25.5778 121.496 24.5822 121.39 23.4604L120.36 12.5989C120.254 11.4771 119.258 10.654 118.136 10.7603Z" fill="#292A2E"/>
<path d="M149.061 34.3219L138.216 33.1548C137.096 33.0342 136.09 33.8448 135.969 34.9651L134.802 45.8127C134.682 46.9331 135.492 47.939 136.612 48.0596L147.458 49.2267C148.578 49.3472 149.584 48.5367 149.704 47.4163L150.871 36.5688C150.992 35.4484 150.182 34.4425 149.061 34.3219Z" fill="white"/>
<path d="M147.681 49.5769C147.595 49.5769 147.509 49.5722 147.422 49.5627L136.577 48.3955C135.273 48.2549 134.327 47.0803 134.467 45.7762L135.634 34.9289C135.702 34.2971 136.011 33.7299 136.506 33.331C137.001 32.9322 137.621 32.75 138.253 32.8182L149.098 33.9855C149.729 34.0534 150.297 34.3634 150.695 34.8579C151.094 35.3528 151.276 35.9731 151.208 36.6045L150.041 47.4518C149.973 48.0835 149.664 48.6507 149.169 49.0496C148.742 49.3934 148.222 49.5763 147.682 49.5763L147.681 49.5769ZM147.494 48.8907C147.948 48.9391 148.39 48.8089 148.744 48.5236C149.098 48.2383 149.32 47.8324 149.369 47.3801L150.536 36.5328C150.585 36.0809 150.454 35.6367 150.169 35.2825C149.883 34.9285 149.477 34.7065 149.025 34.6578L138.18 33.4906C137.73 33.4426 137.285 33.572 136.93 33.8573C136.576 34.1426 136.354 34.5489 136.305 35.0009L135.138 45.8482C135.038 46.7815 135.716 47.6225 136.649 47.7229L147.494 48.8901L147.494 48.8907Z" fill="#292A2E"/>
<path d="M197.186 51.5204C197.077 51.5204 196.971 51.468 196.905 51.371C190.024 41.1335 179.585 39.2686 172.036 39.5066C163.829 39.7655 157.178 42.4897 157.113 42.517C156.94 42.588 156.742 42.5069 156.67 42.3342C156.599 42.1618 156.681 41.964 156.853 41.8924C156.921 41.8643 163.685 39.0935 172.015 38.8305C179.731 38.5878 190.412 40.4997 197.466 50.9934C197.571 51.1482 197.53 51.3585 197.375 51.4626C197.317 51.5014 197.251 51.52 197.186 51.52V51.5204Z" fill="#292A2E"/>
<path d="M197.312 51.6586C197.281 51.6586 197.25 51.6542 197.22 51.6458L190.295 49.69C190.115 49.6393 190.011 49.4523 190.062 49.2728C190.112 49.0927 190.301 48.9892 190.478 49.0396L197.078 50.9035L198.942 44.3025C198.993 44.1223 199.18 44.0192 199.359 44.0693C199.539 44.12 199.643 44.3069 199.592 44.4864L197.637 51.4125C197.595 51.5613 197.459 51.659 197.312 51.659V51.6586Z" fill="#292A2E"/>
<path d="M208.172 54.691L197.312 55.721C196.19 55.8273 195.367 56.823 195.474 57.9448L196.504 68.8062C196.61 69.928 197.605 70.7512 198.727 70.6448L209.587 69.6149C210.708 69.5085 211.531 68.5128 211.425 67.391L210.395 56.5296C210.289 55.4078 209.293 54.5846 208.172 54.691Z" fill="#63C69E"/>
<path d="M243.664 21.3002L232.778 20.6002C231.654 20.5279 230.684 21.3808 230.611 22.5054L229.911 33.393C229.839 34.5175 230.692 35.4878 231.816 35.5601L242.702 36.2601C243.826 36.3324 244.796 35.4795 244.869 34.3549L245.569 23.4673C245.641 22.3428 244.788 21.3725 243.664 21.3002Z" fill="#292A2E"/>
<path d="M249.815 56.8302L238.97 55.6631C237.849 55.5425 236.844 56.3531 236.723 57.4734L235.556 68.321C235.436 69.4414 236.246 70.4473 237.366 70.5679L248.212 71.735C249.332 71.8555 250.338 71.045 250.458 69.9246L251.625 59.0771C251.746 57.9567 250.935 56.9508 249.815 56.8302Z" fill="#0CBC8B"/>
<path d="M190.279 92.1666L179.42 93.1965C178.298 93.3029 177.475 94.2986 177.581 95.4204L178.611 106.282C178.717 107.404 179.713 108.227 180.834 108.12L191.694 107.09C192.816 106.984 193.639 105.988 193.532 104.867L192.502 94.0052C192.396 92.8834 191.401 92.0602 190.279 92.1666Z" fill="white"/>
<path d="M180.641 108.468C179.43 108.468 178.392 107.543 178.275 106.314L177.245 95.4525C177.121 94.1471 178.083 92.9839 179.388 92.8602L190.247 91.8303C190.879 91.7701 191.497 91.9601 191.987 92.365C192.477 92.77 192.779 93.3412 192.839 93.9737L193.869 104.835C193.992 106.14 193.031 107.303 191.726 107.427L180.867 108.457C180.791 108.464 180.715 108.468 180.641 108.468L180.641 108.468ZM190.475 92.4955C190.421 92.4955 190.366 92.4979 190.312 92.5033L179.452 93.5332C178.518 93.6218 177.829 94.4544 177.918 95.389L178.948 106.25C179.037 107.185 179.872 107.874 180.803 107.784L191.662 106.754C192.597 106.666 193.285 105.833 193.196 104.898L192.167 94.0372C192.124 93.5846 191.907 93.1759 191.557 92.8859C191.248 92.6314 190.87 92.4955 190.475 92.4955Z" fill="#292A2E"/>
<path d="M120.258 88.4928L109.398 89.5227C108.276 89.6291 107.453 90.6247 107.56 91.7465L108.59 102.608C108.696 103.73 109.691 104.553 110.813 104.447L121.672 103.417C122.794 103.31 123.617 102.315 123.511 101.193L122.481 90.3314C122.375 89.2095 121.379 88.3864 120.258 88.4928Z" fill="#63C69E"/>
<path d="M207.141 49.1577C207.128 49.1577 207.115 49.157 207.102 49.1557C206.916 49.1344 206.784 48.9664 206.805 48.7811C206.811 48.7328 207.389 43.9058 209.929 38.9834C213.31 32.4315 218.609 28.6729 225.253 28.1138C225.438 28.0993 225.602 28.2366 225.618 28.4225C225.633 28.6084 225.495 28.772 225.309 28.7879C209.814 30.0913 207.498 48.6713 207.476 48.8589C207.456 49.0313 207.31 49.1584 207.141 49.1584V49.1577Z" fill="#292A2E"/>
<path d="M222.038 32.1374C221.952 32.1374 221.866 32.1046 221.8 32.0387C221.668 31.9069 221.667 31.6932 221.799 31.5607L224.922 28.4235L221.785 25.3001C221.653 25.1683 221.652 24.9547 221.784 24.8222C221.916 24.69 222.13 24.6893 222.262 24.8212L225.638 28.1832C225.77 28.315 225.771 28.5286 225.639 28.6611L222.278 32.038C222.212 32.1043 222.125 32.1374 222.038 32.1374Z" fill="#292A2E"/>
<path d="M185.169 87.1165C185.024 87.1165 184.89 87.0232 184.846 86.8775C184.795 86.7125 179.935 70.2956 192.516 63.4877C192.681 63.3985 192.886 63.46 192.974 63.6243C193.063 63.7882 193.002 63.9934 192.838 64.0823C180.746 70.6252 185.443 86.5199 185.492 86.6797C185.547 86.8582 185.446 87.0472 185.268 87.1019C185.235 87.1121 185.202 87.1168 185.169 87.1168V87.1165Z" fill="#292A2E"/>
<path d="M191.232 67.9957C191.192 67.9957 191.15 67.9883 191.11 67.9724C190.936 67.9048 190.85 67.7087 190.918 67.535L192.328 63.9123L188.706 62.5021C188.532 62.4341 188.446 62.2384 188.513 62.0643C188.581 61.8903 188.777 61.8037 188.951 61.872L192.888 63.4046C192.972 63.4374 193.039 63.5016 193.075 63.5838C193.111 63.6659 193.113 63.7589 193.08 63.8424L191.548 67.78C191.496 67.9139 191.368 67.9957 191.232 67.9957Z" fill="#292A2E"/>
<path d="M143.135 31.2815C142.948 31.2815 142.797 31.1301 142.797 30.9435C142.797 25.8085 141.282 21.8888 138.293 19.2934C132.988 14.6871 124.734 15.7975 124.651 15.8094C124.466 15.8334 124.295 15.7069 124.269 15.5224C124.243 15.3375 124.371 15.1664 124.556 15.1401C124.905 15.0897 133.191 13.9715 138.733 18.7799C141.879 21.5095 143.474 25.602 143.473 30.9431C143.473 31.1297 143.322 31.2815 143.135 31.2815Z" fill="#292A2E"/>
<path d="M143.152 31.4034C143.141 31.4034 143.131 31.4031 143.12 31.402C143.031 31.3936 142.948 31.35 142.891 31.281L139.853 27.6107C139.734 27.4671 139.754 27.2538 139.898 27.1348C140.042 27.0155 140.255 27.0361 140.374 27.1798L143.197 30.5898L146.606 27.7666C146.75 27.6472 146.962 27.6679 147.082 27.8115C147.201 27.9552 147.181 28.1685 147.037 28.2875L143.367 31.3263C143.306 31.3767 143.23 31.4034 143.152 31.4034Z" fill="#292A2E"/>
<path d="M150.624 68.5713H139.716C138.589 68.5713 137.676 69.4848 137.676 70.6116V81.5218C137.676 82.6486 138.589 83.5621 139.716 83.5621H150.624C151.751 83.5621 152.664 82.6486 152.664 81.5218V70.6116C152.664 69.4848 151.751 68.5713 150.624 68.5713Z" fill="#0CBC8B"/>
<path d="M178.405 88.5102C178.254 88.5102 178.116 88.4078 178.078 88.2543C174.31 73.1794 155.886 74.236 155.702 74.2482C155.516 74.2617 155.355 74.1201 155.343 73.9335C155.33 73.7472 155.471 73.5863 155.657 73.5738C155.706 73.5701 160.492 73.2706 165.688 74.8942C170.511 76.4014 176.69 79.9145 178.734 88.0904C178.779 88.2716 178.669 88.4551 178.487 88.5004C178.46 88.5075 178.432 88.5106 178.405 88.5106L178.405 88.5102Z" fill="#292A2E"/>
<path d="M178.451 88.6243C178.382 88.6243 178.314 88.603 178.256 88.5617L174.431 85.847C174.279 85.7392 174.243 85.528 174.352 85.3758C174.46 85.2237 174.67 85.1876 174.823 85.2957L178.368 87.812L180.895 84.1471C181 83.9933 181.212 83.9548 181.365 84.0609C181.519 84.1667 181.557 84.3777 181.452 84.5311L178.73 88.4779C178.679 88.5523 178.6 88.603 178.511 88.6189C178.491 88.6223 178.472 88.6239 178.452 88.6239L178.451 88.6243Z" fill="#292A2E"/>
<path d="M344.603 306L345.266 305.872L334.892 202.764L334.229 202.891L344.603 306Z" fill="#494949"/>
<path d="M305.973 306L306.637 305.872L296.263 202.764L295.6 202.891L305.973 306Z" fill="#494949"/>
<path d="M220.588 306L219.924 305.872L230.298 202.763L230.962 202.891L220.588 306Z" fill="#494949"/>
<path d="M259.216 306L258.553 305.872L268.927 202.763L269.59 202.891L259.216 306Z" fill="#494949"/>
<path d="M272.971 157.382L266.91 202.781L267.58 202.87L273.641 157.472L272.971 157.382Z" fill="#494949"/>
<path d="M342.531 157.382L336.471 202.78L337.141 202.87L343.201 157.471L342.531 157.382Z" fill="#494949"/>
<path d="M266.973 206.152H335.012C336.848 206.152 338.336 204.663 338.336 202.827V202.827C338.336 200.991 336.848 199.503 335.012 199.503H266.973C265.137 199.503 263.649 200.991 263.649 202.827V202.827C263.649 204.663 265.137 206.152 266.973 206.152Z" fill="#292A2E"/>
<path opacity="0.8" d="M266.973 206.152H335.012C336.848 206.152 338.336 204.663 338.336 202.827V202.827C338.336 200.991 336.848 199.503 335.012 199.503H266.973C265.137 199.503 263.649 200.991 263.649 202.827V202.827C263.649 204.663 265.137 206.152 266.973 206.152Z" fill="white"/>
<path d="M263.311 202.828C263.311 200.808 264.953 199.165 266.972 199.165H335.012C337.031 199.165 338.674 200.808 338.674 202.828C338.674 204.847 337.031 206.49 335.012 206.49H266.972C264.953 206.49 263.311 204.847 263.311 202.828ZM266.972 199.841C265.326 199.841 263.986 201.181 263.986 202.828C263.986 204.474 265.326 205.814 266.972 205.814H335.012C336.658 205.814 337.998 204.474 337.998 202.828C337.998 201.181 336.658 199.841 335.012 199.841H266.972Z" fill="#292A2E"/>
<path d="M229.629 206.152H297.668C299.504 206.152 300.992 204.663 300.992 202.827V202.827C300.992 200.991 299.504 199.503 297.668 199.503H229.629C227.793 199.503 226.305 200.991 226.305 202.827V202.827C226.305 204.663 227.793 206.152 229.629 206.152Z" fill="white"/>
<path d="M225.967 202.828C225.967 200.808 227.61 199.165 229.629 199.165H297.668C299.687 199.165 301.33 200.808 301.33 202.828C301.33 204.847 299.687 206.49 297.668 206.49H229.629C227.61 206.49 225.967 204.847 225.967 202.828ZM229.629 199.841C227.982 199.841 226.643 201.181 226.643 202.828C226.643 204.474 227.982 205.814 229.629 205.814H297.668C299.315 205.814 300.654 204.474 300.654 202.828C300.654 201.181 299.315 199.841 297.668 199.841H229.629Z" fill="#292A2E"/>
<path d="M276.703 157.429H342.69C344.922 157.429 346.807 155.773 347.095 153.56L351.46 120.034C351.806 117.375 349.736 115.017 347.055 115.017H281.068C278.836 115.017 276.951 116.673 276.662 118.886L272.298 152.412C271.952 155.071 274.022 157.429 276.703 157.429Z" fill="#292A2E"/>
<path opacity="0.8" d="M276.703 157.429H342.69C344.922 157.429 346.807 155.773 347.095 153.56L351.46 120.034C351.806 117.375 349.736 115.017 347.055 115.017H281.068C278.836 115.017 276.951 116.673 276.662 118.886L272.298 152.412C271.952 155.071 274.022 157.429 276.703 157.429Z" fill="white"/>
<path d="M273.11 156.141C272.203 155.107 271.784 153.732 271.962 152.368L276.327 118.843C276.636 116.469 278.674 114.679 281.067 114.679H347.054C348.429 114.679 349.739 115.271 350.646 116.305C351.553 117.339 351.972 118.713 351.794 120.077L347.43 153.603C347.12 155.976 345.083 157.767 342.689 157.767H276.702C275.327 157.767 274.018 157.174 273.11 156.14V156.141ZM281.067 115.355C279.012 115.355 277.262 116.892 276.997 118.93L272.632 152.456C272.48 153.627 272.839 154.808 273.618 155.695C274.397 156.582 275.521 157.091 276.702 157.091H342.689C344.744 157.091 346.494 155.554 346.759 153.516L351.124 119.991C351.277 118.82 350.917 117.639 350.138 116.752C349.359 115.865 348.235 115.355 347.054 115.355H281.067L281.067 115.355Z" fill="#292A2E"/>
<path d="M272.971 157.429H338.958C341.189 157.429 343.075 155.773 343.363 153.56L347.728 120.034C348.074 117.375 346.004 115.017 343.322 115.017H277.335C275.104 115.017 273.218 116.673 272.93 118.886L268.565 152.412C268.219 155.071 270.289 157.429 272.971 157.429Z" fill="white"/>
<path d="M269.378 156.141C268.471 155.107 268.052 153.732 268.23 152.368L272.594 118.843C272.904 116.469 274.941 114.679 277.335 114.679H343.322C344.697 114.679 346.006 115.271 346.914 116.305C347.821 117.339 348.24 118.713 348.062 120.077L343.697 153.603C343.388 155.976 341.35 157.767 338.957 157.767H272.97C271.595 157.767 270.285 157.174 269.378 156.14V156.141ZM277.335 115.355C275.28 115.355 273.53 116.892 273.265 118.93L268.9 152.456C268.747 153.627 269.107 154.808 269.886 155.695C270.665 156.582 271.789 157.091 272.97 157.091H338.957C341.012 157.091 342.762 155.554 343.027 153.516L347.392 119.991C347.544 118.82 347.185 117.639 346.406 116.751C345.627 115.864 344.503 115.355 343.322 115.355H277.335Z" fill="#292A2E"/>
<path d="M223.099 288.139C223.099 288.139 221.287 297.534 212.492 298.057C203.697 298.581 205.604 305.589 205.604 305.589H239.213V288.794L223.099 288.139L223.099 288.139Z" fill="#63C69E"/>
<path d="M253.255 282.207C253.255 282.207 255.776 291.437 248.115 295.79C240.455 300.143 245.259 305.589 245.259 305.589L275.416 290.751L268.004 275.681L253.255 282.207Z" fill="#63C69E"/>
<path d="M271.934 279.6L246.502 199.356H292.6C301.86 199.356 305.721 191.502 305.721 182.241C305.721 172.98 296.618 164.861 287.358 164.861H225.142C219.494 164.861 213.161 168.315 210.061 173.038C206.962 177.76 207.799 185.078 210.045 190.261L250.769 289.19" fill="#262626"/>
<path opacity="0.8" d="M271.934 279.6L246.502 199.356H292.6C301.86 199.356 305.721 191.502 305.721 182.241C305.721 172.98 296.618 164.861 287.358 164.861H225.142C219.494 164.861 213.161 168.315 210.061 173.038C206.962 177.76 207.799 185.078 210.045 190.261L250.769 289.19" fill="#0A0A0A"/>
<path d="M241.841 294.874L249.885 199.356L305.72 199.352C318.803 198.326 324.795 191.155 324.605 181.896C324.417 172.754 319.789 163.724 310.689 163.724C310.55 163.724 275.701 163.724 275.701 163.724H235.435C228.703 163.862 220.908 170.232 220.908 177.558L216.998 293.764" fill="#262626"/>
<path d="M328.415 163.836C328.415 163.836 330.894 180.01 326.964 189.002C322.057 200.227 303.662 199.353 303.662 199.353L304.699 163.725L328.415 163.836Z" fill="#262626"/>
<path d="M331.146 162.008L331.218 162.012C331.218 162.012 331.166 160.634 331.146 162.008Z" fill="#333333"/>
<path d="M331.057 162.008L331.128 162.012C331.128 162.012 331.076 160.634 331.057 162.008Z" fill="#333333"/>
<path d="M211.355 96.4386C211.643 95.8734 212.23 95.605 212.795 95.676C212.795 95.6506 212.795 95.6246 212.811 95.602C212.839 95.5631 212.882 95.5519 212.926 95.555L211.949 94.8546C211.359 94.4314 211.118 93.6272 211.466 92.9894C211.827 92.3278 212.605 92.0889 213.251 92.3576C213.249 92.3437 213.258 92.3306 213.26 92.3164L212.858 92.0287C212.303 91.6305 212.063 90.8899 212.349 90.2693C212.735 89.4343 213.753 89.193 214.462 89.701L215.388 90.3649C215.391 90.3595 215.388 90.3531 215.392 90.348C215.396 90.3413 215.406 90.3413 215.411 90.3355C214.982 89.8528 214.926 89.1227 215.318 88.5761C215.755 87.8723 216.764 88.0163 217.363 88.4456L222.815 92.2119L221.841 90.5711C221.45 89.9133 221.592 89.0307 222.229 88.6062C222.907 88.1532 223.818 88.3662 224.229 89.0588L229.55 98.0175C230.848 100.203 230.172 103.024 228.025 104.384C225.575 105.935 222.429 105.845 220.073 104.155L211.84 98.2535C211.297 97.864 211.051 97.0342 211.355 96.4386Z" fill="#FF9E85"/>
<g opacity="0.25">
<path d="M220.785 94.0871C220.744 94.1443 220.664 94.1581 220.605 94.1176L215.425 90.5291C215.366 90.4882 215.351 90.407 215.392 90.3476C215.427 90.2887 215.515 90.2735 215.574 90.3148L220.754 93.9033C220.813 93.9442 220.828 94.0253 220.787 94.0848L220.785 94.0871Z" fill="#0C0C0C"/>
</g>
<g opacity="0.25">
<path d="M219.267 96.4158C219.225 96.473 219.145 96.4868 219.087 96.4463L213.306 92.4417C213.247 92.4008 213.232 92.3196 213.273 92.2601C213.311 92.2064 213.396 92.1865 213.455 92.2274L219.235 96.2319C219.295 96.2728 219.309 96.354 219.268 96.4135L219.267 96.4158Z" fill="#0C0C0C"/>
</g>
<g opacity="0.25">
<path d="M217.634 98.9473C217.593 99.0044 217.513 99.0182 217.454 98.9777L212.843 95.7833C212.784 95.7424 212.769 95.6613 212.81 95.6018C212.853 95.543 212.933 95.5281 212.992 95.569L217.603 98.7634C217.662 98.8043 217.677 98.8854 217.636 98.9449L217.634 98.9473Z" fill="#0C0C0C"/>
</g>
<path d="M232.691 95.9775L248.316 122.593L267.382 97.5818L283.215 111.859L256.176 146.884L255.999 147.133C255.056 148.429 253.809 149.533 252.296 150.33C247.013 153.108 240.479 151.078 237.701 145.794L215.482 105.55L232.692 95.9782L232.691 95.9775Z" fill="#63C69E"/>
<path d="M249.847 125.793C249.878 125.793 249.909 125.786 249.938 125.772C250.035 125.722 250.074 125.602 250.024 125.505L248.493 122.503C248.443 122.405 248.323 122.367 248.226 122.416C248.128 122.466 248.089 122.586 248.139 122.683L249.671 125.685C249.705 125.754 249.775 125.793 249.847 125.793Z" fill="#0C0C0C"/>
<path d="M268.48 122.442L268.084 122.464L268.561 130.871L268.957 130.848L268.48 122.442Z" fill="#0C0C0C"/>
<path d="M319.057 62.6009C319.057 62.6009 319.8 74.1124 321.974 77.5308C328.235 87.3725 330.144 95.1231 324.057 101.02C317.97 106.917 278.715 107.453 275.587 94.0867C272.952 82.8341 278.311 81.5591 279.511 72.2373C280.053 68.0194 281.578 59.1709 281.578 59.1709" fill="#0A0A0A"/>
<path d="M285.581 91.9504C285.649 91.9416 286.401 104.422 300.896 103.333C310.931 102.582 314.509 91.9325 314.739 91.9325C313.657 91.7026 311.835 91.368 311.355 91.1114C309.774 90.2623 307.819 89.3787 307.31 86.3094C307.016 84.5405 307.514 75.4905 307.361 73.7007L291.957 77.1394C292.172 80.9196 293.678 89.6826 288.398 91.2338C287.52 91.4904 286.573 91.7263 285.58 91.9504H285.581Z" fill="#FF9E85"/>
<path opacity="0.22" d="M291.74 87.6525C291.959 86.9558 292.088 86.35 292.204 85.2613C292.41 83.3139 292.3 81.5237 292.103 79.6997C295.215 79.2853 298.202 77.9764 300.617 75.9692C300.903 77.0259 302.706 80.9261 302.27 81.93C301.447 83.828 297.348 87.6525 291.74 87.6525Z" fill="#0C0C0C"/>
<path d="M293.783 83.7245C299.862 84.2437 306.381 81.7176 307.915 73.6104L310.61 66.2985C312.144 58.191 309.131 50.8129 301.498 49.3681C293.866 47.9234 287.736 50.4471 286.202 58.5544C286.202 58.5544 285.255 63.1931 285.109 64.7622C284.559 70.679 284.559 82.9369 293.783 83.7245Z" fill="#FF9E85"/>
<path d="M286.383 63.2702C286.411 63.5332 287.4 63.5058 288.717 63.2986C290.034 63.0914 291.201 62.846 291.152 62.5201C291.09 62.1087 289.967 61.9438 288.65 62.151C287.333 62.3582 286.339 62.8564 286.383 63.2702Z" fill="#0A0A0A"/>
<path d="M316.714 68.8481L308.121 71.2193C302.94 69.1222 303.124 56.525 303.124 56.525C303.124 56.525 296.83 62.6605 281.578 59.1707C281.578 59.1707 284.636 38.5724 307.169 44.7583C314.435 46.753 319.65 54.752 319 64.5392C318.545 71.3981 316.714 68.8481 316.714 68.8481Z" fill="#0A0A0A"/>
<path d="M308.283 75.9944C310.603 76.4335 312.991 75.609 313.642 72.1152C314.075 69.7943 312.192 68.0325 309.873 67.5938L308.383 68.9219L306.289 75.6168L308.283 75.9944H308.283Z" fill="#FF9E85"/>
<path d="M287.812 66.5803C288.278 66.5803 288.657 66.2019 288.657 65.7352C288.657 65.2685 288.278 64.8901 287.812 64.8901C287.345 64.8901 286.967 65.2685 286.967 65.7352C286.967 66.2019 287.345 66.5803 287.812 66.5803Z" fill="#0A0A0A"/>
<path d="M292.254 72.1956C292.425 72.1956 292.571 72.0665 292.59 71.8927C292.609 71.7072 292.474 71.5409 292.288 71.5213L290.499 71.334L291.6 67.7583C291.655 67.5799 291.555 67.3909 291.377 67.3358C291.198 67.2811 291.009 67.3808 290.954 67.5593L289.732 71.528C289.702 71.6247 289.717 71.7295 289.773 71.814C289.829 71.8985 289.919 71.9533 290.02 71.9637L292.218 72.1936C292.23 72.1949 292.242 72.1953 292.254 72.1953L292.254 72.1956Z" fill="#0A0A0A"/>
<path d="M294.089 76.5563C297.152 76.5563 298.064 74.7046 298.105 74.6181C298.184 74.4491 298.112 74.2479 297.943 74.1682C297.775 74.0887 297.575 74.1604 297.494 74.3277C297.456 74.4065 296.521 76.225 293.15 75.8218C292.96 75.7985 292.796 75.932 292.774 76.1172C292.752 76.3025 292.884 76.4708 293.069 76.4931C293.433 76.5367 293.772 76.5563 294.089 76.5563Z" fill="#0A0A0A"/>
<path d="M296.646 63.0933C296.565 63.3451 297.48 63.7217 298.768 64.0668C300.056 64.4119 301.221 64.6607 301.309 64.3433C301.419 63.9424 300.46 63.336 299.172 62.9908C297.885 62.6457 296.773 62.6974 296.646 63.0936V63.0933Z" fill="#0A0A0A"/>
<path d="M296.862 67.2316C297.329 67.2316 297.707 66.8533 297.707 66.3866C297.707 65.9199 297.329 65.5415 296.862 65.5415C296.396 65.5415 296.018 65.9199 296.018 66.3866C296.018 66.8533 296.396 67.2316 296.862 67.2316Z" fill="#0A0A0A"/>
<path d="M306.911 64.5024C306.919 65.2136 305.127 67.7701 305.375 68.4364C305.768 69.4873 307.404 71.1818 308.121 71.2194C309.385 71.2856 308.29 69.055 309.831 67.8334C310.078 67.8127 310.332 67.8094 310.587 67.8432C311.613 67.9652 312.497 68.4773 313.109 69.2135L313.003 65.9894" fill="#0A0A0A"/>
<path d="M268.026 119.006C268.476 124.299 270.668 157.204 271.101 163.724L328.415 163.846C328.753 157.965 332.649 132.25 333.927 120.75C335.148 109.776 337.543 104.282 335.788 101.038C332.919 95.7353 325.08 92.6711 319.735 91.9473C316.471 91.5055 311.562 91.1885 311.562 91.1885C311.562 91.1885 311.147 99.5986 301.235 100.066C287.743 100.703 288.644 91.1885 288.577 91.1885C286.392 91.1885 273.906 92.5724 270.851 94.3832C262.527 99.3133 267.069 107.787 268.026 119.006Z" fill="#63C69E"/>
<path d="M230.822 122.704L236.347 149.561C236.578 150.685 237.563 151.494 238.71 151.504L276.752 151.828C278.301 151.841 279.468 150.422 279.156 148.904L273.631 122.047C273.4 120.923 272.416 120.113 271.268 120.103L233.227 119.779C231.677 119.766 230.51 121.186 230.822 122.704Z" fill="#292A2E"/>
<path d="M266.296 141.781C266.228 142.503 266.764 143.147 267.475 143.306L268.646 143.564C268.606 143.58 268.571 143.607 268.559 143.655C268.555 143.679 268.563 143.707 268.575 143.726C268.027 143.885 267.59 144.362 267.55 144.997C267.503 145.66 268.055 146.327 268.705 146.474L278.594 148.67C279.106 148.785 279.622 148.841 280.135 148.841C282.445 148.841 284.652 147.713 285.998 145.756C287.439 143.663 286.955 140.8 284.902 139.303L276.49 133.153C276.3 133.014 276.081 132.926 275.863 132.895L276.637 136.655L276.431 136.608L276.387 136.599L269.936 135.285C269.217 135.126 268.233 135.388 268.106 136.206C267.963 136.865 268.301 137.513 268.884 137.791C268.88 137.795 268.872 137.799 268.872 137.807C268.868 137.814 268.876 137.818 268.876 137.826L267.76 137.58C266.911 137.39 266.069 138.013 266.042 138.93C266.022 139.613 266.534 140.201 267.201 140.348L267.681 140.455C267.685 140.471 267.681 140.487 267.689 140.499C266.99 140.503 266.367 141.031 266.295 141.781L266.296 141.781Z" fill="#FF9E85"/>
<g opacity="0.25">
<path d="M275.297 139.129C275.281 139.198 275.214 139.242 275.144 139.228L268.971 137.962C268.901 137.948 268.855 137.879 268.87 137.808C268.878 137.741 268.953 137.692 269.024 137.707L275.197 138.973C275.267 138.987 275.313 139.056 275.298 139.127L275.297 139.13V139.129Z" fill="#0C0C0C"/>
</g>
<g opacity="0.25">
<path d="M274.814 141.868C274.798 141.937 274.73 141.981 274.661 141.966L267.772 140.553C267.701 140.539 267.656 140.47 267.671 140.399C267.684 140.335 267.754 140.283 267.825 140.298L274.714 141.711C274.784 141.725 274.829 141.794 274.815 141.865L274.814 141.868V141.868Z" fill="#0C0C0C"/>
</g>
<g opacity="0.25">
<path d="M274.309 144.836C274.293 144.905 274.225 144.949 274.156 144.935L268.661 143.808C268.59 143.793 268.545 143.724 268.559 143.653C268.575 143.582 268.643 143.538 268.713 143.552L274.208 144.679C274.279 144.694 274.324 144.763 274.31 144.833L274.309 144.836Z" fill="#0C0C0C"/>
</g>
<path d="M279.207 152.583L332.858 162.28C333.253 162.323 333.646 162.344 334.038 162.344C337.022 162.344 339.895 161.119 341.966 158.924C344.309 156.44 345.353 153.002 344.786 149.634L337.275 104.982C336.276 99.045 330.656 95.0431 324.718 96.0406C318.782 97.0395 314.78 102.662 315.778 108.6L320.9 139.338L281.566 134.397L279.207 152.583Z" fill="#63C69E"/>
<path d="M332.858 162.479C332.952 162.479 333.035 162.412 333.053 162.316C333.072 162.208 333.001 162.104 332.893 162.085L279.428 152.421L281.737 134.619L320.874 139.535C320.939 139.542 320.999 139.521 321.042 139.475C321.086 139.429 321.106 139.367 321.095 139.305L317.839 119.659C317.822 119.551 317.721 119.475 317.611 119.496C317.503 119.514 317.43 119.616 317.448 119.725L320.66 139.107L281.59 134.2C281.484 134.187 281.382 134.263 281.368 134.371L279.009 152.557C278.996 152.663 279.067 152.76 279.171 152.778L332.822 162.476C332.834 162.478 332.846 162.479 332.858 162.479Z" fill="#0C0C0C"/>
<path d="M320.932 139.144L320.869 139.536L324.32 140.089L324.383 139.696L320.932 139.144Z" fill="#0C0C0C"/>
<path d="M368.763 305.8H0.237253C0.106122 305.8 0 305.694 0 305.562C0 305.431 0.106122 305.325 0.237253 305.325H368.762C368.894 305.325 369 305.431 369 305.562C369 305.694 368.894 305.8 368.763 305.8Z" fill="#292A2E"/>
<g opacity="0.65">
<path d="M368.763 305.8H0.237253C0.106122 305.8 0 305.694 0 305.562C0 305.431 0.106122 305.325 0.237253 305.325H368.762C368.894 305.325 369 305.431 369 305.562C369 305.694 368.894 305.8 368.763 305.8Z" fill="#292A2E"/>
</g>
<path d="M22.8981 306.001L22.2344 305.873L32.6086 202.764L33.2724 202.892L22.8981 306.001Z" fill="#494949"/>
<path d="M61.527 306.001L60.8633 305.873L71.2372 202.764L71.9009 202.892L61.527 306.001Z" fill="#494949"/>
<path d="M146.915 306.001L147.579 305.873L137.205 202.764L136.541 202.892L146.915 306.001Z" fill="#494949"/>
<path d="M108.286 306.001L108.95 305.873L98.5759 202.764L97.9121 202.892L108.286 306.001Z" fill="#494949"/>
<path d="M94.5274 157.386L93.8574 157.476L99.9178 202.874L100.588 202.785L94.5274 157.386Z" fill="#494949"/>
<path d="M24.9649 157.385L24.2949 157.475L30.3553 202.873L31.0253 202.784L24.9649 157.385Z" fill="#494949"/>
<path d="M100.529 199.503H32.4899C30.6542 199.503 29.166 200.991 29.166 202.827V202.828C29.166 204.664 30.6542 206.152 32.4899 206.152H100.529C102.365 206.152 103.853 204.664 103.853 202.828V202.827C103.853 200.991 102.365 199.503 100.529 199.503Z" fill="#292A2E"/>
<path opacity="0.8" d="M100.529 199.503H32.4899C30.6542 199.503 29.166 200.991 29.166 202.827V202.828C29.166 204.664 30.6542 206.152 32.4899 206.152H100.529C102.365 206.152 103.853 204.664 103.853 202.828V202.827C103.853 200.991 102.365 199.503 100.529 199.503Z" fill="white"/>
<path d="M100.529 206.49H32.49C30.4706 206.49 28.8281 204.847 28.8281 202.828C28.8281 200.808 30.4706 199.165 32.49 199.165H100.529C102.549 199.165 104.191 200.808 104.191 202.828C104.191 204.847 102.548 206.49 100.529 206.49ZM32.49 199.841C30.8434 199.841 29.5041 201.181 29.5041 202.828C29.5041 204.474 30.8434 205.814 32.49 205.814H100.529C102.176 205.814 103.515 204.474 103.515 202.828C103.515 201.181 102.176 199.841 100.529 199.841H32.49Z" fill="#292A2E"/>
<path d="M137.873 199.503H69.8337C67.9979 199.503 66.5098 200.991 66.5098 202.827V202.828C66.5098 204.664 67.9979 206.152 69.8337 206.152H137.873C139.709 206.152 141.197 204.664 141.197 202.828V202.827C141.197 200.991 139.709 199.503 137.873 199.503Z" fill="white"/>
<path d="M137.873 206.49H69.8337C67.8144 206.49 66.1719 204.847 66.1719 202.828C66.1719 200.808 67.8147 199.165 69.8337 199.165H137.873C139.892 199.165 141.535 200.808 141.535 202.828C141.535 204.847 139.892 206.49 137.873 206.49ZM69.8337 199.841C68.1872 199.841 66.8478 201.181 66.8478 202.828C66.8478 204.474 68.1872 205.814 69.8337 205.814H137.873C139.519 205.814 140.859 204.474 140.859 202.828C140.859 201.181 139.519 199.841 137.873 199.841H69.8337Z" fill="#292A2E"/>
<path d="M90.8009 157.429H24.814C22.5824 157.429 20.6969 155.773 20.4086 153.56L16.0437 120.035C15.6977 117.375 17.7677 115.018 20.4491 115.018H86.4361C88.6677 115.018 90.5532 116.674 90.8415 118.887L95.2063 152.412C95.5524 155.072 93.4823 157.429 90.8009 157.429Z" fill="#292A2E"/>
<path opacity="0.8" d="M90.8009 157.429H24.814C22.5824 157.429 20.6969 155.773 20.4086 153.56L16.0437 120.035C15.6977 117.375 17.7677 115.018 20.4491 115.018H86.4361C88.6677 115.018 90.5532 116.674 90.8415 118.887L95.2063 152.412C95.5524 155.072 93.4823 157.429 90.8009 157.429Z" fill="white"/>
<path d="M90.8001 157.768H24.8131C22.4196 157.768 20.3817 155.977 20.0728 153.604L15.708 120.078C15.5305 118.714 15.9489 117.339 16.8564 116.306C17.7638 115.273 19.0731 114.68 20.4483 114.68H86.4352C88.8287 114.68 90.8667 116.47 91.1756 118.844L95.5404 152.369C95.7178 153.733 95.2994 155.108 94.392 156.142C93.4845 157.175 92.1753 157.768 90.8001 157.768ZM20.4483 115.356C19.2674 115.356 18.1433 115.865 17.3643 116.752C16.585 117.639 16.2257 118.82 16.3785 119.991L20.7433 153.517C21.0086 155.555 22.7583 157.092 24.8135 157.092H90.8004C91.9813 157.092 93.1053 156.582 93.8844 155.695C94.6637 154.808 95.023 153.627 94.8705 152.456L90.5057 118.931C90.2404 116.892 88.4907 115.355 86.4356 115.355L20.4483 115.356Z" fill="#292A2E"/>
<path d="M94.5314 157.429H28.5444C26.3128 157.429 24.4273 155.773 24.139 153.56L19.7742 120.035C19.4281 117.375 21.4982 115.018 24.1796 115.018H90.1665C92.3981 115.018 94.2837 116.674 94.5719 118.887L98.9368 152.412C99.2829 155.072 97.2128 157.429 94.5314 157.429Z" fill="white"/>
<path d="M94.5305 157.768H28.5436C26.1501 157.768 24.1122 155.977 23.8033 153.604L19.4384 120.078C19.261 118.714 19.6794 117.339 20.5868 116.306C21.4943 115.273 22.8036 114.68 24.1787 114.68H90.1657C92.5592 114.68 94.5971 116.47 94.906 118.844L99.2709 152.369C99.4483 153.733 99.0299 155.108 98.1224 156.142C97.215 157.175 95.9057 157.768 94.5305 157.768ZM24.1787 115.356C22.9979 115.356 21.8738 115.864 21.0948 116.752C20.3154 117.639 19.9562 118.82 20.1086 119.991L24.4735 153.517C24.7388 155.555 26.4884 157.092 28.5436 157.092H94.5305C95.7114 157.092 96.8355 156.583 97.6145 155.696C98.3938 154.808 98.7531 153.627 98.6007 152.457L94.2358 118.931C93.9705 116.893 92.2209 115.356 90.1657 115.356H24.1787Z" fill="#292A2E"/>
<path d="M84.48 91.2338C84.4137 91.225 83.679 103.42 69.5138 102.357C59.7073 101.622 56.2111 91.2166 55.9863 91.2166C57.0435 90.9918 58.3501 90.6507 58.8695 90.5338C60.5948 90.145 62.7484 88.7209 63.2462 85.722C63.5331 83.9933 63.0465 75.1498 63.1962 73.4009L78.2489 76.7612C78.0386 80.4552 76.5665 89.0184 81.7259 90.5341C82.5843 90.7849 83.509 91.0151 84.48 91.2342V91.2338Z" fill="#FF9E85"/>
<path opacity="0.22" d="M78.4593 87.0339C78.246 86.3531 78.1193 85.7612 78.0064 84.6971C77.805 82.7944 77.9121 81.0447 78.1047 79.2623C75.0637 78.8574 72.1444 77.5783 69.7853 75.6167C69.5058 76.649 67.9688 81.1603 68.3943 82.1416C69.1986 83.9964 72.9791 87.0336 78.4593 87.0336V87.0339Z" fill="#0C0C0C"/>
<path d="M87.4121 63.7509C87.4121 63.7509 91.7316 60.5403 92.8517 53.0844C93.7189 47.3113 88.3611 51.0157 88.3611 51.0157C88.3611 51.0157 88.9451 46.8529 85.9078 47.2437C82.8705 47.6344 81.1367 51.9994 81.1367 51.9994" fill="#0C0C0C"/>
<path d="M70.2124 47.6133C70.2124 47.6133 55.1391 49.1158 60.431 69.5691L61.7629 69.6685L64.467 69.87" fill="#0C0C0C"/>
<path d="M75.6062 84.3884C69.6719 83.8114 62.5925 80.0056 62.5502 71.9426L62.512 64.6673C62.4698 56.6043 66.6697 50.0459 74.2601 50.006C81.8505 49.9662 87.5581 56.4728 87.6003 64.5358L87.6172 67.7568C87.6206 68.4197 87.5574 69.6099 87.3512 71.0604C86.9403 73.9546 86.3039 78.355 84.3156 81.3202C82.4382 84.1194 79.3975 84.7572 75.6062 84.3884Z" fill="#FF9E85"/>
<path d="M85.4462 68.6559C85.5116 68.2034 85.1979 67.7836 84.7455 67.7181C84.2931 67.6527 83.8733 67.9665 83.8079 68.419C83.7425 68.8715 84.0562 69.2913 84.5086 69.3568C84.961 69.4222 85.3808 69.1084 85.4462 68.6559Z" fill="#0A0A0A"/>
<path d="M78.2714 74.0972C78.1058 74.0732 77.9818 73.9275 77.9885 73.7565C77.9956 73.5736 78.1494 73.4313 78.3323 73.4388L80.0937 73.5084L79.527 69.8871C79.4989 69.7066 79.6223 69.5373 79.8031 69.5089C79.9836 69.4808 80.1529 69.6042 80.1813 69.7847L80.8102 73.8038C80.8254 73.9015 80.796 74.0012 80.7301 74.0753C80.6642 74.1493 80.5689 74.1899 80.4699 74.1858L78.3059 74.1003C78.2941 74.0999 78.2826 74.0986 78.2714 74.0972Z" fill="#0A0A0A"/>
<path d="M77.3494 77.7526C74.3794 77.323 73.7551 75.4003 73.7274 75.3103C73.674 75.1356 73.7724 74.9503 73.9471 74.8966C74.1208 74.8428 74.3053 74.9405 74.3598 75.1143C74.3858 75.1961 75.0377 77.09 78.3626 77.1722C78.5492 77.1759 78.6901 77.3287 78.6857 77.5116C78.6813 77.6944 78.5293 77.8388 78.3468 77.8344C77.9882 77.8256 77.6559 77.7969 77.3494 77.7526Z" fill="#0A0A0A"/>
<path d="M76.7587 64.3416C76.802 64.5971 75.8614 64.8337 74.5646 64.9879C73.2678 65.142 72.1029 65.2198 72.0623 64.8997C72.0113 64.4954 73.0738 63.7142 74.371 63.5604C75.6677 63.4063 76.6904 63.94 76.7587 64.3419V64.3416Z" fill="#0A0A0A"/>
<path d="M77.1572 67.9904C77.2226 67.5379 76.9089 67.118 76.4565 67.0526C76.004 66.9872 75.5843 67.301 75.5188 67.7534C75.4534 68.2059 75.7671 68.6258 76.2196 68.6912C76.672 68.7567 77.0917 68.4429 77.1572 67.9904Z" fill="#0A0A0A"/>
<path d="M86.6823 65.9519C86.6184 66.2031 85.6627 66.0375 84.4149 65.6521C83.1671 65.2668 82.0708 64.8652 82.1637 64.5559C82.281 64.1655 83.4402 63.8356 84.6883 64.2213C85.9361 64.6066 86.7834 65.5571 86.6827 65.9519H86.6823Z" fill="#0A0A0A"/>
<path d="M63.0356 74.3962C60.729 74.4083 58.8462 71.9499 58.834 69.6428C58.8219 67.3358 60.6851 66.0537 62.992 66.0415L64.1888 67.5812L65.0192 74.386L63.036 74.3965L63.0356 74.3962Z" fill="#FF9E85"/>
<path d="M64.6566 70.6387C65.0409 70.6762 65.3839 70.3977 65.4231 70.0134C65.6763 67.5306 66.7422 59.2033 69.6873 58.6263C71.9942 58.1743 77.5558 61.4839 82.7372 60.5358C85.0039 60.121 87.1486 60.6974 87.3592 61.7682C87.4427 62.1924 88.8983 56.1181 85.3878 51.4736C82.5932 47.7756 73.365 46.6686 69.1543 47.8425C57.4948 51.0937 62.5136 66.5408 62.5136 66.5408L62.9337 69.9197C62.9742 70.2459 63.2355 70.5005 63.5626 70.5322L64.6566 70.6387Z" fill="#0C0C0C"/>
<path d="M81.398 55.4007C83.1078 55.0567 84.0835 52.7372 83.5773 50.2199C83.071 47.7027 81.2745 45.9409 79.5647 46.2849C77.8549 46.6289 76.8791 48.9484 77.3854 51.4656C77.8916 53.9829 79.6881 55.7447 81.398 55.4007Z" fill="#0C0C0C"/>
<path d="M178.26 288.139C178.26 288.139 180.073 297.534 188.867 298.058C197.662 298.581 195.755 305.589 195.755 305.589H162.146V288.795L178.261 288.14L178.26 288.139Z" fill="#63C69E"/>
<path d="M114.321 282.208C114.321 282.208 111.801 291.438 119.461 295.791C127.122 300.144 122.318 305.59 122.318 305.59L92.1602 290.752L99.5721 275.682L114.321 282.208Z" fill="#63C69E"/>
<path d="M95.6427 279.601L121.074 199.357H74.976C65.7164 199.357 61.8555 191.503 61.8555 182.241C61.8555 172.98 70.9586 164.861 80.2185 164.861H142.434C148.082 164.861 154.415 168.316 157.515 173.038C160.614 177.76 159.777 185.078 157.531 190.261L116.807 289.19" fill="#262626"/>
<path opacity="0.8" d="M95.6427 279.601L121.074 199.357H74.976C65.7164 199.357 61.8555 191.503 61.8555 182.241C61.8555 172.98 70.9586 164.861 80.2185 164.861H142.434C148.082 164.861 154.415 168.316 157.515 173.038C160.614 177.76 159.777 185.078 157.531 190.261L116.807 289.19" fill="#0A0A0A"/>
<path d="M160.213 296.864L117.691 199.356L61.8557 199.353C48.7727 198.327 42.7809 191.155 42.9712 181.896C43.1591 172.754 47.7872 163.725 56.8866 163.725H132.141C138.874 163.863 144.17 171.304 146.668 177.558L182.02 290.895" fill="#262626"/>
<path d="M39.1623 163.837C39.1623 163.837 36.6827 180.01 40.6132 189.002C45.5201 200.228 63.915 199.353 63.915 199.353L62.8784 163.725L39.1623 163.837Z" fill="#262626"/>
<path d="M148.267 163.519L108.826 155.344C105.486 154.652 102.731 152.302 101.521 149.112L86.0076 108.227C84.0517 103.072 86.644 97.3087 91.7973 95.3529C96.9513 93.3967 102.713 95.9897 104.669 101.144L118.239 136.908L152.317 143.971C152.317 143.971 148.951 163.661 148.267 163.519L148.267 163.519Z" fill="#63C69E"/>
<path d="M102.65 118.609C102.194 123.961 98.9651 157.35 98.5271 163.942H39.1886C38.8476 157.997 37.7408 132.754 36.4481 121.127C35.2138 110.033 34.7664 103.702 36.1878 100.254C38.6949 94.1732 44.9686 91.9851 50.3726 91.2533C53.6725 90.8064 58.6356 90.4863 58.6356 90.4863C58.6356 90.4863 59.0557 98.9887 69.0757 99.462C82.716 100.106 81.8049 90.4863 81.8725 90.4863C84.0821 90.4863 96.1103 92.0936 99.1179 94.0542C103.366 96.8233 104.621 100.597 104.671 104.065C104.728 108.057 103.167 112.539 102.65 118.609V118.609Z" fill="#63C69E"/>
<path d="M100.318 145.891C100.313 145.891 100.308 145.891 100.303 145.89C100.21 145.883 100.142 145.801 100.149 145.708L101.689 127.2C101.697 127.107 101.776 127.034 101.872 127.045C101.965 127.053 102.034 127.134 102.026 127.228L100.486 145.736C100.479 145.824 100.405 145.891 100.318 145.891Z" fill="#0C0C0C"/>
<path d="M128.579 156.999L141.599 116.969C142.068 115.526 143.413 114.549 144.93 114.549H197.975C200.355 114.549 202.043 116.873 201.306 119.137L188.286 159.167C187.816 160.61 186.472 161.587 184.955 161.587H131.91C129.53 161.587 127.842 159.263 128.579 156.999Z" fill="#292A2E"/>
<path d="M128.579 156.999L141.599 116.969C142.068 115.526 143.413 114.549 144.93 114.549H197.975C200.355 114.549 202.043 116.873 201.306 119.137L188.286 159.167C187.816 160.61 186.472 161.587 184.955 161.587H131.91C129.53 161.587 127.842 159.263 128.579 156.999Z" fill="#292A2E"/>
<path d="M139.2 158.341H103.692C102.807 158.341 102.09 159.059 102.09 159.944V159.985C102.09 160.87 102.807 161.587 103.692 161.587H139.2C140.085 161.587 140.802 160.87 140.802 159.985V159.944C140.802 159.059 140.085 158.341 139.2 158.341Z" fill="#292A2E"/>
<path d="M139.2 158.341H103.692C102.807 158.341 102.09 159.059 102.09 159.944V159.985C102.09 160.87 102.807 161.587 103.692 161.587H139.2C140.085 161.587 140.802 160.87 140.802 159.985V159.944C140.802 159.059 140.085 158.341 139.2 158.341Z" fill="#292A2E"/>
<path d="M164.942 145.585C168.015 145.585 170.505 143.094 170.505 140.021C170.505 136.948 168.015 134.457 164.942 134.457C161.87 134.457 159.379 136.948 159.379 140.021C159.379 143.094 161.87 145.585 164.942 145.585Z" fill="white"/>
<path d="M125.611 147.622L116.749 144.515L118.021 144.428C118.864 144.335 119.55 143.622 119.501 142.775C119.45 141.873 118.655 141.209 117.768 141.306L102.09 142.972L102.497 148.012C102.756 151.213 104.931 153.938 107.996 154.899L114.786 157.014C115.508 157.24 116.323 156.96 116.681 156.293C117.027 155.648 116.884 154.921 116.435 154.454C116.454 154.438 116.472 154.42 116.482 154.395C116.5 154.347 116.49 154.298 116.462 154.259L117.714 154.651C118.523 154.905 119.437 154.526 119.733 153.732C120.005 153 119.697 152.209 119.058 151.835C119.074 151.827 119.085 151.817 119.097 151.804L119.611 151.965C120.334 152.192 121.149 151.911 121.507 151.244C121.926 150.464 121.629 149.559 120.939 149.147C120.942 149.136 120.944 149.125 120.944 149.115L124.634 150.409C125.404 150.678 126.246 150.273 126.516 149.504C126.785 148.734 126.38 147.892 125.611 147.622Z" fill="#FF9E85"/>
<path opacity="0.2" d="M120.799 149.26C120.783 149.26 120.766 149.257 120.749 149.251L117.179 147.952C117.102 147.925 117.063 147.841 117.091 147.764C117.119 147.688 117.203 147.649 117.279 147.676L120.849 148.975C120.925 149.002 120.965 149.086 120.937 149.163C120.915 149.223 120.859 149.26 120.799 149.26H120.799Z" fill="#0A0A0A"/>
<path opacity="0.2" d="M118.994 151.856C118.978 151.856 118.961 151.853 118.945 151.847L116.131 150.849C116.055 150.822 116.015 150.738 116.042 150.661C116.069 150.584 116.153 150.544 116.229 150.572L119.043 151.57C119.119 151.597 119.16 151.681 119.133 151.758C119.111 151.818 119.055 151.856 118.994 151.856Z" fill="#0A0A0A"/>
<path opacity="0.2" d="M116.344 154.49C116.327 154.49 116.309 154.487 116.291 154.48L114.974 153.977C114.898 153.948 114.86 153.864 114.888 153.787C114.917 153.711 115.002 153.673 115.078 153.702L116.396 154.205C116.472 154.234 116.51 154.319 116.481 154.395C116.459 154.453 116.403 154.489 116.344 154.489V154.49Z" fill="#0A0A0A"/>
<path d="M109.029 139.99L71.8534 139.965L57.7889 105.651L36.8086 114.473L54.3562 155.199L54.5278 155.604C56.2349 159.544 60.2679 162.19 64.802 161.923L109.592 159.276L109.029 139.99Z" fill="#63C69E"/>
<path d="M64.1865 162.11C59.9586 162.11 56.0686 159.583 54.3737 155.672L54.2016 155.265L39.25 120.564L39.5603 120.431L54.6843 155.538C56.4055 159.511 60.4682 162.008 64.7932 161.754L109.419 159.117L108.866 140.159L71.7411 140.134L60.9268 113.75L61.2395 113.622L71.9679 139.796L109.195 139.822L109.767 159.435L109.603 159.444L64.8128 162.091C64.6036 162.104 64.394 162.11 64.1862 162.11H64.1865Z" fill="#0C0C0C"/>
<path d="M287.61 164.827L286.938 164.895L301.185 305.97L301.858 305.902L287.61 164.827Z" fill="#494949"/>
<path d="M22.8338 164.828L8.57617 305.902L9.24868 305.97L23.5063 164.896L22.8338 164.828Z" fill="#494949"/>
<path d="M81.74 164.828L67.4824 305.902L68.1549 305.97L82.4125 164.896L81.74 164.828Z" fill="#494949"/>
<path d="M346.516 164.826L345.844 164.894L360.092 305.969L360.764 305.901L346.516 164.826Z" fill="#494949"/>
<path d="M359.364 162.091H10.9197C9.39025 162.091 8.15039 163.331 8.15039 164.861C8.15039 166.391 9.39025 167.631 10.9197 167.631H359.364C360.894 167.631 362.134 166.391 362.134 164.861C362.134 163.331 360.894 162.091 359.364 162.091Z" fill="#292A2E"/>
<path opacity="0.8" d="M359.364 162.091H10.9197C9.39025 162.091 8.15039 163.331 8.15039 164.861C8.15039 166.391 9.39025 167.631 10.9197 167.631H359.364C360.894 167.631 362.134 166.391 362.134 164.861C362.134 163.331 360.894 162.091 359.364 162.091Z" fill="white"/>
<path d="M359.365 167.969H10.9198C9.20661 167.969 7.8125 166.575 7.8125 164.861C7.8125 163.148 9.20661 161.753 10.9198 161.753H359.365C361.078 161.753 362.472 163.148 362.472 164.861C362.472 166.575 361.078 167.969 359.365 167.969ZM10.9198 162.429C9.57905 162.429 8.48843 163.52 8.48843 164.861C8.48843 166.202 9.57905 167.293 10.9198 167.293H359.365C360.705 167.293 361.796 166.202 361.796 164.861C361.796 163.521 360.705 162.429 359.365 162.429H10.9198Z" fill="#292A2E"/>
<path d="M359.364 162.091H72.0779C70.5485 162.091 69.3086 163.331 69.3086 164.861C69.3086 166.391 70.5485 167.631 72.0779 167.631H359.364C360.893 167.631 362.133 166.391 362.133 164.861C362.133 163.331 360.893 162.091 359.364 162.091Z" fill="white"/>
<path d="M359.364 167.969H72.0776C70.3645 167.969 68.9707 166.575 68.9707 164.861C68.9707 163.148 70.3645 161.753 72.0776 161.753H359.364C361.077 161.753 362.471 163.148 362.471 164.861C362.471 166.575 361.077 167.969 359.364 167.969ZM72.078 162.429C70.7376 162.429 69.647 163.52 69.647 164.861C69.647 166.202 70.7376 167.293 72.078 167.293H359.364C360.705 167.293 361.795 166.202 361.795 164.861C361.795 163.521 360.704 162.429 359.364 162.429H72.0776H72.078Z" fill="#292A2E"/>
</g>
<defs>
<clipPath id="clip0_267_10361">
<rect width="369" height="306" fill="white"/>
</clipPath>
</defs>
</svg>
