<svg width="21" height="20" viewBox="0 0 21 20" fill="none" xmlns="http://www.w3.org/2000/svg">
<path d="M19.6758 11.7158L12.4883 18.9033C12.2188 19.1729 11.8594 19.3076 11.5 19.3076C11.0957 19.3076 10.7363 19.1729 10.4668 18.9033C9.88281 18.3643 9.88281 17.4209 10.4668 16.8818L15.1836 12.1201H1.4375C0.628906 12.1201 0 11.4912 0 10.6826C0 9.91895 0.628906 9.24512 1.4375 9.24512H15.1836L10.4668 4.52832C9.88281 3.98926 9.88281 3.0459 10.4668 2.50684C11.0059 1.92285 11.9492 1.92285 12.4883 2.50684L19.6758 9.69434C20.2598 10.2334 20.2598 11.1768 19.6758 11.7158Z" fill="#606663"/>
</svg>
