<svg width="99" height="99" viewBox="0 0 99 99" fill="none" xmlns="http://www.w3.org/2000/svg">
<g filter="url(#filter0_d_389_8886)">
<path d="M25 47.5C25 33.969 35.969 23 49.5 23C63.031 23 74 33.969 74 47.5C74 61.031 63.031 72 49.5 72C35.969 72 25 61.031 25 47.5Z" fill="#E9F7F1" shape-rendering="crispEdges"/>
<path d="M55.0767 56.8672V57.2188C55.0767 57.4531 55.1157 57.6484 55.1938 57.8438C55.0376 57.9609 54.8423 58 54.6079 58H39.8032C39.061 58 38.4751 57.4141 38.4751 56.6719C38.4751 52.9219 41.4829 49.875 45.2329 49.875H49.1782C49.8032 49.875 50.3892 49.9922 50.9751 50.1484C50.9751 50.6562 51.2485 51.1641 51.7173 51.4375L52.0298 51.6328C52.0298 51.7109 52.0298 51.8281 52.0298 51.9062L51.7173 52.1016C51.0923 52.4141 50.8188 53.1562 51.0142 53.8594C51.3267 54.875 51.8735 55.8125 52.5767 56.5938C52.8892 56.9453 53.3188 57.1016 53.7095 57.1016C53.9829 57.1016 54.2563 57.0234 54.4907 56.9062L54.8032 56.7109C54.8813 56.7891 54.9595 56.8281 55.0767 56.8672ZM47.2251 48C44.4517 48 42.2251 45.7734 42.2251 43C42.2251 40.2656 44.4517 38 47.2251 38C49.9595 38 52.2251 40.2656 52.2251 43C52.2251 45.7734 49.9595 48 47.2251 48ZM62.3032 52.6094L63.3188 53.1953C63.436 53.2344 63.4751 53.3906 63.436 53.5078C63.1626 54.3672 62.7329 55.1094 62.147 55.7734C62.0688 55.8516 61.9126 55.8906 61.7954 55.8125L60.7798 55.2266C60.3501 55.5781 59.8813 55.8906 59.3345 56.0469V57.2188C59.3345 57.375 59.2563 57.4922 59.1392 57.4922C58.2798 57.6875 57.4204 57.6875 56.522 57.4922C56.4048 57.4922 56.3267 57.375 56.3267 57.2188V56.0469C55.7798 55.8906 55.311 55.5781 54.8813 55.2266L53.8657 55.8125C53.7485 55.8906 53.5923 55.8516 53.5142 55.7734C52.9282 55.1094 52.4595 54.3672 52.2251 53.5078C52.186 53.3906 52.2251 53.2344 52.3423 53.1953L53.3579 52.6094C53.2407 52.0625 53.2407 51.4766 53.3579 50.9297L52.3423 50.3438C52.2251 50.3047 52.186 50.1484 52.2251 50.0312C52.4595 49.1719 52.9282 48.4297 53.5142 47.7656C53.5923 47.6875 53.7485 47.6484 53.8657 47.7266L54.8813 48.3125C55.311 47.9609 55.7798 47.6484 56.3267 47.4922V46.3203C56.3267 46.1641 56.4048 46.0469 56.522 46.0469C57.3423 45.8516 58.2407 45.8516 59.1001 46.0469C59.2563 46.0469 59.3345 46.1641 59.3345 46.3203V47.4922C59.8813 47.6484 60.3501 47.9609 60.7798 48.3125L61.7954 47.7266C61.9126 47.6484 62.0688 47.6875 62.147 47.7656C62.7329 48.4297 63.1626 49.1719 63.436 50.0312C63.4751 50.1484 63.436 50.3047 63.3188 50.3438L62.3032 50.9297C62.4204 51.4766 62.4204 52.0625 62.3032 52.6094ZM57.8501 53.6641C58.8657 53.6641 59.7251 52.8047 59.7251 51.75C59.7251 50.7344 58.8657 49.875 57.8501 49.875C56.7954 49.875 55.936 50.7344 55.936 51.75C55.936 52.8047 56.7954 53.6641 57.8501 53.6641Z" fill="#1EAD74"/>
</g>
<defs>
<filter id="filter0_d_389_8886" x="0.5" y="0.95" width="98" height="98" filterUnits="userSpaceOnUse" color-interpolation-filters="sRGB">
<feFlood flood-opacity="0" result="BackgroundImageFix"/>
<feColorMatrix in="SourceAlpha" type="matrix" values="0 0 0 0 0 0 0 0 0 0 0 0 0 0 0 0 0 0 127 0" result="hardAlpha"/>
<feOffset dy="2.45"/>
<feGaussianBlur stdDeviation="12.25"/>
<feComposite in2="hardAlpha" operator="out"/>
<feColorMatrix type="matrix" values="0 0 0 0 0 0 0 0 0 0 0 0 0 0 0 0 0 0 0.05 0"/>
<feBlend mode="normal" in2="BackgroundImageFix" result="effect1_dropShadow_389_8886"/>
<feBlend mode="normal" in="SourceGraphic" in2="effect1_dropShadow_389_8886" result="shape"/>
</filter>
</defs>
</svg>
