<svg width="176" height="89" viewBox="0 0 176 89" fill="none" xmlns="http://www.w3.org/2000/svg">
<path d="M20.5 26.5C20.5 22.0817 24.0817 18.5 28.5 18.5H71.5C75.9183 18.5 79.5 22.0817 79.5 26.5V58.5C79.5 62.9183 75.9183 66.5 71.5 66.5H28.5C24.0817 66.5 20.5 62.9183 20.5 58.5V26.5Z" fill="#1EAD74"/>
<path d="M30.5 35.5C30.5 31.0817 34.0817 27.5 38.5 27.5H62.5C66.9183 27.5 70.5 31.0817 70.5 35.5V49.5C70.5 53.9183 66.9183 57.5 62.5 57.5H38.5C34.0817 57.5 30.5 53.9183 30.5 49.5V35.5Z" fill="#011C14"/>
<path d="M50.275 50.73C47.699 50.73 45.652 50.1703 44.134 49.051C42.6313 47.9317 41.88 46.1837 41.88 43.807V35.021C41.88 34.8523 41.9413 34.7067 42.064 34.584C42.1867 34.4613 42.3323 34.4 42.501 34.4H47.308C47.4767 34.4 47.6223 34.4613 47.745 34.584C47.8677 34.7067 47.929 34.8523 47.929 35.021V44.175C47.929 44.8037 48.136 45.2867 48.55 45.624C48.9793 45.9613 49.5543 46.13 50.275 46.13C50.9957 46.13 51.563 45.9613 51.977 45.624C52.4063 45.2867 52.621 44.8037 52.621 44.175V35.021C52.621 34.8523 52.6823 34.7067 52.805 34.584C52.9277 34.4613 53.0733 34.4 53.242 34.4H58.049C58.2177 34.4 58.3633 34.4613 58.486 34.584C58.6087 34.7067 58.67 34.8523 58.67 35.021V43.807C58.67 46.1837 57.911 47.9317 56.393 49.051C54.8903 50.1703 52.851 50.73 50.275 50.73Z" fill="#1EAD74"/>
<path d="M20.5 26.5C20.5 22.0817 24.0817 18.5 28.5 18.5H71.5C75.9183 18.5 79.5 22.0817 79.5 26.5V58.5C79.5 62.9183 75.9183 66.5 71.5 66.5H28.5C24.0817 66.5 20.5 62.9183 20.5 58.5V26.5Z" fill="#1EAD74"/>
<path d="M30.5 35.5C30.5 31.0817 34.0817 27.5 38.5 27.5H62.5C66.9183 27.5 70.5 31.0817 70.5 35.5V49.5C70.5 53.9183 66.9183 57.5 62.5 57.5H38.5C34.0817 57.5 30.5 53.9183 30.5 49.5V35.5Z" fill="#011C14"/>
<path d="M50.275 50.73C47.699 50.73 45.652 50.1703 44.134 49.051C42.6313 47.9317 41.88 46.1837 41.88 43.807V35.021C41.88 34.8523 41.9413 34.7067 42.064 34.584C42.1867 34.4613 42.3323 34.4 42.501 34.4H47.308C47.4767 34.4 47.6223 34.4613 47.745 34.584C47.8677 34.7067 47.929 34.8523 47.929 35.021V44.175C47.929 44.8037 48.136 45.2867 48.55 45.624C48.9793 45.9613 49.5543 46.13 50.275 46.13C50.9957 46.13 51.563 45.9613 51.977 45.624C52.4063 45.2867 52.621 44.8037 52.621 44.175V35.021C52.621 34.8523 52.6823 34.7067 52.805 34.584C52.9277 34.4613 53.0733 34.4 53.242 34.4H58.049C58.2177 34.4 58.3633 34.4613 58.486 34.584C58.6087 34.7067 58.67 34.8523 58.67 35.021V43.807C58.67 46.1837 57.911 47.9317 56.393 49.051C54.8903 50.1703 52.851 50.73 50.275 50.73Z" fill="#1EAD74"/>
<g filter="url(#filter0_d_389_41)">
<path d="M20.5 26.5C20.5 22.0817 24.0817 18.5 28.5 18.5H71.5C75.9183 18.5 79.5 22.0817 79.5 26.5V58.5C79.5 62.9183 75.9183 66.5 71.5 66.5H28.5C24.0817 66.5 20.5 62.9183 20.5 58.5V26.5Z" fill="white"/>
<path d="M30.5 35.5C30.5 31.0817 34.0817 27.5 38.5 27.5H62.5C66.9183 27.5 70.5 31.0817 70.5 35.5V49.5C70.5 53.9183 66.9183 57.5 62.5 57.5H38.5C34.0817 57.5 30.5 53.9183 30.5 49.5V35.5Z" fill="#1EAD74"/>
<path d="M50.275 50.73C47.699 50.73 45.652 50.1703 44.134 49.051C42.6313 47.9317 41.88 46.1837 41.88 43.807V35.021C41.88 34.8523 41.9413 34.7067 42.064 34.584C42.1867 34.4613 42.3323 34.4 42.501 34.4H47.308C47.4767 34.4 47.6223 34.4613 47.745 34.584C47.8677 34.7067 47.929 34.8523 47.929 35.021V44.175C47.929 44.8037 48.136 45.2867 48.55 45.624C48.9793 45.9613 49.5543 46.13 50.275 46.13C50.9957 46.13 51.563 45.9613 51.977 45.624C52.4063 45.2867 52.621 44.8037 52.621 44.175V35.021C52.621 34.8523 52.6823 34.7067 52.805 34.584C52.9277 34.4613 53.0733 34.4 53.242 34.4H58.049C58.2177 34.4 58.3633 34.4613 58.486 34.584C58.6087 34.7067 58.67 34.8523 58.67 35.021V43.807C58.67 46.1837 57.911 47.9317 56.393 49.051C54.8903 50.1703 52.851 50.73 50.275 50.73Z" fill="white"/>
</g>
<path d="M65.5 63.5L57.5 57.5L64.5 57L65.5 63.5Z" fill="#1EAD74"/>
<path d="M88.212 35.605V43.376C88.212 44.098 88.3767 44.6553 88.706 45.048C89.048 45.4407 89.561 45.637 90.245 45.637C90.929 45.637 91.442 45.4407 91.784 45.048C92.1387 44.6427 92.316 44.0853 92.316 43.376V35.605H96.04V43.376C96.04 44.6047 95.7803 45.656 95.261 46.53C94.7417 47.3913 94.0323 48.0437 93.133 48.487C92.2463 48.9177 91.2583 49.133 90.169 49.133C89.0797 49.133 88.1043 48.9177 87.243 48.487C86.3943 48.0437 85.723 47.3913 85.229 46.53C84.7477 45.6687 84.507 44.6173 84.507 43.376V35.605H88.212ZM110.497 49H106.773L101.814 41.514V49H98.0904V35.605H101.814L106.773 43.186V35.605H110.497V49ZM116.343 35.605V49H112.619V35.605H116.343ZM134.214 38.341L131.497 49H127.317L125.835 42.54L124.296 49H120.135L117.437 38.341H121.142L122.339 45.409L123.916 38.341H127.906L129.54 45.428L130.718 38.341H134.214ZM137.155 37.353C136.496 37.353 135.964 37.1757 135.559 36.821C135.166 36.4537 134.97 35.9977 134.97 35.453C134.97 34.8957 135.166 34.4333 135.559 34.066C135.964 33.6987 136.496 33.515 137.155 33.515C137.801 33.515 138.32 33.6987 138.713 34.066C139.118 34.4333 139.321 34.8957 139.321 35.453C139.321 35.9977 139.118 36.4537 138.713 36.821C138.32 37.1757 137.801 37.353 137.155 37.353ZM138.998 38.341V49H135.274V38.341H138.998ZM145.66 49.133C144.697 49.133 143.836 48.9747 143.076 48.658C142.328 48.3287 141.733 47.8853 141.29 47.328C140.859 46.758 140.618 46.1183 140.568 45.409H144.178C144.228 45.751 144.387 46.017 144.653 46.207C144.919 46.397 145.248 46.492 145.641 46.492C145.945 46.492 146.185 46.4287 146.363 46.302C146.54 46.1753 146.629 46.0107 146.629 45.808C146.629 45.542 146.483 45.3457 146.192 45.219C145.9 45.0923 145.419 44.953 144.748 44.801C143.988 44.649 143.354 44.478 142.848 44.288C142.341 44.098 141.898 43.7877 141.518 43.357C141.15 42.9263 140.967 42.3437 140.967 41.609C140.967 40.9757 141.138 40.4057 141.48 39.899C141.822 39.3797 142.322 38.968 142.981 38.664C143.652 38.36 144.456 38.208 145.394 38.208C146.787 38.208 147.883 38.55 148.681 39.234C149.479 39.918 149.941 40.8173 150.068 41.932H146.705C146.641 41.59 146.489 41.3303 146.249 41.153C146.021 40.963 145.71 40.868 145.318 40.868C145.014 40.868 144.779 40.925 144.615 41.039C144.463 41.153 144.387 41.3113 144.387 41.514C144.387 41.7673 144.532 41.9637 144.824 42.103C145.115 42.2297 145.584 42.3627 146.23 42.502C147.002 42.6667 147.642 42.8503 148.149 43.053C148.668 43.2557 149.118 43.585 149.498 44.041C149.89 44.4843 150.087 45.0923 150.087 45.865C150.087 46.4857 149.903 47.043 149.536 47.537C149.181 48.031 148.668 48.4237 147.997 48.715C147.338 48.9937 146.559 49.133 145.66 49.133ZM162.102 43.547C162.102 43.8383 162.083 44.1297 162.045 44.421H154.996C155.034 45.0037 155.192 45.4407 155.471 45.732C155.762 46.0107 156.129 46.15 156.573 46.15C157.193 46.15 157.637 45.8713 157.903 45.314H161.874C161.709 46.0487 161.386 46.7073 160.905 47.29C160.436 47.86 159.841 48.3097 159.119 48.639C158.397 48.9683 157.599 49.133 156.725 49.133C155.673 49.133 154.736 48.9113 153.913 48.468C153.102 48.0247 152.462 47.3913 151.994 46.568C151.538 45.7447 151.31 44.7757 151.31 43.661C151.31 42.5463 151.538 41.5837 151.994 40.773C152.45 39.9497 153.083 39.3163 153.894 38.873C154.717 38.4297 155.661 38.208 156.725 38.208C157.776 38.208 158.707 38.4233 159.518 38.854C160.328 39.2847 160.962 39.9053 161.418 40.716C161.874 41.514 162.102 42.4577 162.102 43.547ZM158.302 42.616C158.302 42.16 158.15 41.8053 157.846 41.552C157.542 41.286 157.162 41.153 156.706 41.153C156.25 41.153 155.876 41.2797 155.585 41.533C155.293 41.7737 155.103 42.1347 155.015 42.616H158.302Z" fill="#1EAD74"/>
<defs>
<filter id="filter0_d_389_41" x="0.5" y="0.5" width="99" height="88" filterUnits="userSpaceOnUse" color-interpolation-filters="sRGB">
<feFlood flood-opacity="0" result="BackgroundImageFix"/>
<feColorMatrix in="SourceAlpha" type="matrix" values="0 0 0 0 0 0 0 0 0 0 0 0 0 0 0 0 0 0 127 0" result="hardAlpha"/>
<feOffset dy="2"/>
<feGaussianBlur stdDeviation="10"/>
<feComposite in2="hardAlpha" operator="out"/>
<feColorMatrix type="matrix" values="0 0 0 0 0 0 0 0 0 0 0 0 0 0 0 0 0 0 0.05 0"/>
<feBlend mode="normal" in2="BackgroundImageFix" result="effect1_dropShadow_389_41"/>
<feBlend mode="normal" in="SourceGraphic" in2="effect1_dropShadow_389_41" result="shape"/>
</filter>
</defs>
</svg>
