<svg width="163" height="88" viewBox="0 0 163 88" fill="none" xmlns="http://www.w3.org/2000/svg">
<path d="M37.775 50.23C35.199 50.23 33.152 49.6703 31.634 48.551C30.1313 47.4317 29.38 45.6837 29.38 43.307V34.521C29.38 34.3523 29.4413 34.2067 29.564 34.084C29.6867 33.9613 29.8323 33.9 30.001 33.9H34.808C34.9767 33.9 35.1223 33.9613 35.245 34.084C35.3677 34.2067 35.429 34.3523 35.429 34.521V43.675C35.429 44.3037 35.636 44.7867 36.05 45.124C36.4793 45.4613 37.0543 45.63 37.775 45.63C38.4957 45.63 39.063 45.4613 39.477 45.124C39.9063 44.7867 40.121 44.3037 40.121 43.675V34.521C40.121 34.3523 40.1823 34.2067 40.305 34.084C40.4277 33.9613 40.5733 33.9 40.742 33.9H45.549C45.7177 33.9 45.8633 33.9613 45.986 34.084C46.1087 34.2067 46.17 34.3523 46.17 34.521V43.307C46.17 45.6837 45.411 47.4317 43.893 48.551C42.3903 49.6703 40.351 50.23 37.775 50.23Z" fill="#1EAD74"/>

<path d="M8 26C8 21.5817 11.5817 18 16 18H59C63.4183 18 67 21.5817 67 26V58C67 62.4183 63.4183 66 59 66H16C11.5817 66 8 62.4183 8 58V26Z" fill="white"/>
<path d="M18 35C18 30.5817 21.5817 27 26 27H50C54.4183 27 58 30.5817 58 35V49C58 53.4183 54.4183 57 50 57H26C21.5817 57 18 53.4183 18 49V35Z" fill="#1EAD74"/>
<path d="M37.775 50.23C35.199 50.23 33.152 49.6703 31.634 48.551C30.1313 47.4317 29.38 45.6837 29.38 43.307V34.521C29.38 34.3523 29.4413 34.2067 29.564 34.084C29.6867 33.9613 29.8323 33.9 30.001 33.9H34.808C34.9767 33.9 35.1223 33.9613 35.245 34.084C35.3677 34.2067 35.429 34.3523 35.429 34.521V43.675C35.429 44.3037 35.636 44.7867 36.05 45.124C36.4793 45.4613 37.0543 45.63 37.775 45.63C38.4957 45.63 39.063 45.4613 39.477 45.124C39.9063 44.7867 40.121 44.3037 40.121 43.675V34.521C40.121 34.3523 40.1823 34.2067 40.305 34.084C40.4277 33.9613 40.5733 33.9 40.742 33.9H45.549C45.7177 33.9 45.8633 33.9613 45.986 34.084C46.1087 34.2067 46.17 34.3523 46.17 34.521V43.307C46.17 45.6837 45.411 47.4317 43.893 48.551C42.3903 49.6703 40.351 50.23 37.775 50.23Z" fill="white"/>
<path d="M53 63L45 57L52 56.5L53 63Z" fill="#1EAD74"/>
<path d="M75.712 35.105V42.876C75.712 43.598 75.8767 44.1553 76.206 44.548C76.548 44.9407 77.061 45.137 77.745 45.137C78.429 45.137 78.942 44.9407 79.284 44.548C79.6387 44.1427 79.816 43.5853 79.816 42.876V35.105H83.54V42.876C83.54 44.1047 83.2803 45.156 82.761 46.03C82.2417 46.8913 81.5323 47.5437 80.633 47.987C79.7463 48.4177 78.7583 48.633 77.669 48.633C76.5797 48.633 75.6043 48.4177 74.743 47.987C73.8943 47.5437 73.223 46.8913 72.729 46.03C72.2477 45.1687 72.007 44.1173 72.007 42.876V35.105H75.712ZM97.9974 48.5H94.2734L89.3144 41.014V48.5H85.5904V35.105H89.3144L94.2734 42.686V35.105H97.9974V48.5ZM103.843 35.105V48.5H100.119V35.105H103.843ZM121.714 37.841L118.997 48.5H114.817L113.335 42.04L111.796 48.5H107.635L104.937 37.841H108.642L109.839 44.909L111.416 37.841H115.406L117.04 44.928L118.218 37.841H121.714ZM124.655 36.853C123.996 36.853 123.464 36.6757 123.059 36.321C122.666 35.9537 122.47 35.4977 122.47 34.953C122.47 34.3957 122.666 33.9333 123.059 33.566C123.464 33.1987 123.996 33.015 124.655 33.015C125.301 33.015 125.82 33.1987 126.213 33.566C126.618 33.9333 126.821 34.3957 126.821 34.953C126.821 35.4977 126.618 35.9537 126.213 36.321C125.82 36.6757 125.301 36.853 124.655 36.853ZM126.498 37.841V48.5H122.774V37.841H126.498ZM133.16 48.633C132.197 48.633 131.336 48.4747 130.576 48.158C129.828 47.8287 129.233 47.3853 128.79 46.828C128.359 46.258 128.118 45.6183 128.068 44.909H131.678C131.728 45.251 131.887 45.517 132.153 45.707C132.419 45.897 132.748 45.992 133.141 45.992C133.445 45.992 133.685 45.9287 133.863 45.802C134.04 45.6753 134.129 45.5107 134.129 45.308C134.129 45.042 133.983 44.8457 133.692 44.719C133.4 44.5923 132.919 44.453 132.248 44.301C131.488 44.149 130.854 43.978 130.348 43.788C129.841 43.598 129.398 43.2877 129.018 42.857C128.65 42.4263 128.467 41.8437 128.467 41.109C128.467 40.4757 128.638 39.9057 128.98 39.399C129.322 38.8797 129.822 38.468 130.481 38.164C131.152 37.86 131.956 37.708 132.894 37.708C134.287 37.708 135.383 38.05 136.181 38.734C136.979 39.418 137.441 40.3173 137.568 41.432H134.205C134.141 41.09 133.989 40.8303 133.749 40.653C133.521 40.463 133.21 40.368 132.818 40.368C132.514 40.368 132.279 40.425 132.115 40.539C131.963 40.653 131.887 40.8113 131.887 41.014C131.887 41.2673 132.032 41.4637 132.324 41.603C132.615 41.7297 133.084 41.8627 133.73 42.002C134.502 42.1667 135.142 42.3503 135.649 42.553C136.168 42.7557 136.618 43.085 136.998 43.541C137.39 43.9843 137.587 44.5923 137.587 45.365C137.587 45.9857 137.403 46.543 137.036 47.037C136.681 47.531 136.168 47.9237 135.497 48.215C134.838 48.4937 134.059 48.633 133.16 48.633ZM149.602 43.047C149.602 43.3383 149.583 43.6297 149.545 43.921H142.496C142.534 44.5037 142.692 44.9407 142.971 45.232C143.262 45.5107 143.629 45.65 144.073 45.65C144.693 45.65 145.137 45.3713 145.403 44.814H149.374C149.209 45.5487 148.886 46.2073 148.405 46.79C147.936 47.36 147.341 47.8097 146.619 48.139C145.897 48.4683 145.099 48.633 144.225 48.633C143.173 48.633 142.236 48.4113 141.413 47.968C140.602 47.5247 139.962 46.8913 139.494 46.068C139.038 45.2447 138.81 44.2757 138.81 43.161C138.81 42.0463 139.038 41.0837 139.494 40.273C139.95 39.4497 140.583 38.8163 141.394 38.373C142.217 37.9297 143.161 37.708 144.225 37.708C145.276 37.708 146.207 37.9233 147.018 38.354C147.828 38.7847 148.462 39.4053 148.918 40.216C149.374 41.014 149.602 41.9577 149.602 43.047ZM145.802 42.116C145.802 41.66 145.65 41.3053 145.346 41.052C145.042 40.786 144.662 40.653 144.206 40.653C143.75 40.653 143.376 40.7797 143.085 41.033C142.793 41.2737 142.603 41.6347 142.515 42.116H145.802Z" fill="#1EAD74"/>

<filter id="filter0_d_250_8014" x="-12" y="0" width="99" height="88" filterUnits="userSpaceOnUse" color-interpolation-filters="sRGB">
<feFlood flood-opacity="0" result="BackgroundImageFix"/>
<feColorMatrix in="SourceAlpha" type="matrix" values="0 0 0 0 0 0 0 0 0 0 0 0 0 0 0 0 0 0 127 0" result="hardAlpha"/>
<feOffset dy="2"/>
<feGaussianBlur stdDeviation="10"/>
<feComposite in2="hardAlpha" operator="out"/>
<feColorMatrix type="matrix" values="0 0 0 0 0 0 0 0 0 0 0 0 0 0 0 0 0 0 0.05 0"/>
<feBlend mode="normal" in2="BackgroundImageFix" result="effect1_dropShadow_250_8014"/>
<feBlend mode="normal" in="SourceGraphic" in2="effect1_dropShadow_250_8014" result="shape"/>
</filter>

</svg>
