<svg width="80" height="65" viewBox="0 0 80 65" fill="none" xmlns="http://www.w3.org/2000/svg">
<g filter="url(#filter0_d_250_4634)">
<path d="M20 38C20 26.9543 28.9543 18 40 18C51.0457 18 60 26.9543 60 38C60 49.0457 51.0457 58 40 58C28.9543 58 20 49.0457 20 38Z" fill="#E9F7F1" shape-rendering="crispEdges"/>
<path d="M32 34C32 32.9062 32.875 32 34 32H46C47.0938 32 48 32.9062 48 34V42C48 43.125 47.0938 44 46 44H34C32.875 44 32 43.125 32 42V34ZM33.5 34V34.7188L38.875 39.125C39.5312 39.6562 40.4375 39.6562 41.0938 39.125L46.5 34.7188V34C46.5 33.75 46.25 33.5 46 33.5H34C33.7188 33.5 33.5 33.75 33.5 34ZM33.5 36.6562V42C33.5 42.2812 33.7188 42.5 34 42.5H46C46.25 42.5 46.5 42.2812 46.5 42V36.6562L42.0625 40.2812C40.8438 41.2812 39.125 41.2812 37.9062 40.2812L33.5 36.6562Z" fill="#1EAD74"/>
</g>
<defs>
<filter id="filter0_d_250_4634" x="0" y="0" width="80" height="80" filterUnits="userSpaceOnUse" color-interpolation-filters="sRGB">
<feFlood flood-opacity="0" result="BackgroundImageFix"/>
<feColorMatrix in="SourceAlpha" type="matrix" values="0 0 0 0 0 0 0 0 0 0 0 0 0 0 0 0 0 0 127 0" result="hardAlpha"/>
<feOffset dy="2"/>
<feGaussianBlur stdDeviation="10"/>
<feComposite in2="hardAlpha" operator="out"/>
<feColorMatrix type="matrix" values="0 0 0 0 0 0 0 0 0 0 0 0 0 0 0 0 0 0 0.05 0"/>
<feBlend mode="normal" in2="BackgroundImageFix" result="effect1_dropShadow_250_4634"/>
<feBlend mode="normal" in="SourceGraphic" in2="effect1_dropShadow_250_4634" result="shape"/>
</filter>
</defs>
</svg>
