<svg width="397" height="444" viewBox="0 0 397 444" fill="none" xmlns="http://www.w3.org/2000/svg">
<g style="mix-blend-mode:multiply" opacity="0.25">
<path opacity="0.1" d="M282.256 -142.181L60.3831 41.041C27.0345 68.5803 22.953 118.7 51.2669 152.987L239.643 381.1C267.957 415.387 317.944 420.857 351.293 393.318L573.166 210.095C606.514 182.556 610.596 132.436 582.282 98.1495L393.906 -129.964C365.592 -164.251 315.605 -169.721 282.256 -142.181Z" fill="white"/>
<path opacity="0.18" d="M280.147 -132.383L69.0029 41.9793C35.5301 69.6211 31.4334 119.927 59.8526 154.342L239.12 371.425C267.539 405.839 317.712 411.33 351.185 383.688L562.33 209.325C595.802 181.683 599.899 131.377 571.48 96.9626L392.213 -120.121C363.794 -154.535 313.62 -160.025 280.147 -132.383Z" fill="#F2F0FD"/>
<path opacity="0.26" d="M278.073 -122.523L77.601 43.026C44.0352 70.7446 39.9271 121.191 68.4254 155.701L238.631 361.812C267.13 396.322 317.443 401.827 351.008 374.108L551.48 208.559C585.046 180.84 589.154 130.394 560.656 95.8841L390.45 -110.227C361.952 -144.737 311.639 -150.242 278.073 -122.523Z" fill="#E4E1FB"/>
<path opacity="0.35" d="M275.941 -112.676L86.1973 44.0144C52.5074 71.8355 48.3841 122.468 76.9877 157.106L238.085 352.186C266.689 386.824 317.187 392.35 350.877 364.528L540.621 207.839C574.311 180.018 578.434 129.385 549.83 94.7473L388.733 -100.333C360.13 -134.971 309.631 -140.497 275.941 -112.676Z" fill="#D7D3F8"/>
<path opacity="0.43" d="M273.796 -102.869L94.7814 44.9615C60.9673 72.8851 56.8289 123.704 85.5379 158.469L237.526 342.52C266.235 377.285 316.92 382.831 350.734 354.907L529.749 207.077C563.563 179.153 567.702 128.334 538.993 93.5691L387.004 -90.481C358.295 -125.246 307.61 -130.792 273.796 -102.869Z" fill="#CAC4F6"/>
<path opacity="0.51" d="M271.696 -92.9626L103.466 45.9616C69.5274 73.9877 65.3738 124.993 94.1881 159.886L237.02 332.848C265.834 367.741 316.705 373.307 350.643 345.281L518.874 206.357C552.812 178.331 556.965 127.325 528.151 92.4326L385.319 -80.5295C356.505 -115.422 305.634 -120.989 271.696 -92.9626Z" fill="#BCB5F4"/>
<path opacity="0.59" d="M112.07 46.9376L269.684 -83.2198C303.723 -111.329 354.767 -105.691 383.619 -70.7525L517.437 91.2947C546.338 126.291 542.118 177.468 508.135 205.532L350.521 335.689C316.481 363.799 265.438 358.161 236.586 323.222L102.767 161.174C73.867 126.178 78.087 75.0008 112.07 46.9376Z" fill="#AFA6F2"/>
<path opacity="0.67" d="M267.534 -73.3982L120.648 47.8996C86.493 76.105 82.3128 127.437 111.311 162.553L236.021 313.57C265.02 348.686 316.216 354.288 350.371 326.083L497.257 204.785C531.412 176.58 535.592 125.248 506.594 90.1315L381.884 -60.8855C352.885 -96.0014 301.689 -101.604 267.534 -73.3982Z" fill="#A197F0"/>
<path opacity="0.75" d="M265.351 -63.4539L129.25 48.938C94.971 77.2458 90.7756 128.764 119.88 164.008L235.433 303.937C264.537 339.18 315.919 344.803 350.199 316.495L486.299 204.103C520.579 175.795 524.774 124.277 495.67 89.0333L380.117 -50.8957C351.013 -86.1392 299.631 -91.7617 265.351 -63.4539Z" fill="#9488EE"/>
<path opacity="0.84" d="M263.298 -53.6963L137.813 49.9287C103.441 78.3134 99.2342 129.972 128.417 165.311L234.957 294.325C264.14 329.664 315.662 335.302 350.034 306.918L475.519 203.293C509.891 174.908 514.098 123.249 484.915 87.9102L378.375 -41.104C349.192 -76.4432 297.67 -82.081 263.298 -53.6963Z" fill="#877AEB"/>
<path opacity="0.92" d="M261.224 -43.9102L146.468 50.8552C111.972 79.3424 107.75 131.187 137.038 166.654L234.469 284.638C263.758 320.105 315.465 325.763 349.962 297.276L464.718 202.51C499.215 174.023 503.437 122.178 474.148 86.7115L376.717 -31.2724C347.429 -66.7392 295.721 -72.3973 261.224 -43.9102Z" fill="#796BE9"/>
<path d="M259.071 -33.9628L155.1 51.8966C120.479 80.4862 116.242 132.518 145.636 168.112L233.91 275.008C263.304 310.602 315.198 316.281 349.818 287.691L453.79 201.832C488.41 173.242 492.648 121.211 463.254 85.6162L374.979 -21.2796C345.586 -56.874 293.692 -62.5525 259.071 -33.9628Z" fill="#6C5CE7"/>
</g>
<path d="M269.283 -82.098L134.474 29.227C97.2478 59.9686 92.6917 115.916 124.298 154.19L238.754 292.791C270.36 331.064 326.16 337.17 363.387 306.428L498.196 195.103C535.422 164.362 539.978 108.414 508.372 70.1405L393.916 -68.4601C362.31 -106.734 306.51 -112.84 269.283 -82.098Z" fill="white"/>
<path d="M379.497 56.3047L368.385 193.405C366.248 219.647 333.446 229.348 316.421 208.732L258.429 138.507C258 137.987 256.222 135.376 256.222 135.376C245.431 119.907 247.624 98.7665 262.06 86.8455L330.981 29.9306C351.034 13.371 381.691 30.0161 379.497 56.3047Z" fill="url(#paint0_linear_389_7187)"/>
<path d="M312.192 45.4824L262.088 86.8582C247.652 98.7792 245.459 119.92 256.25 135.389C256.25 135.389 257.972 138.047 258.457 138.52L283.733 169.128C261.307 171.717 237.864 163.005 222.174 144.005C197.804 114.495 201.362 71.4405 230.009 47.7839C253.826 28.1165 287.47 28.0158 312.192 45.4824Z" fill="url(#paint1_linear_389_7187)"/>
<path d="M325.949 58.2724C350.271 87.7251 346.712 130.779 318.065 154.436C307.898 162.832 295.926 167.668 283.705 169.115L258.429 138.507C258 137.987 256.222 135.376 256.222 135.376C245.431 119.907 247.624 98.7665 262.06 86.8455L312.164 45.4697C317.167 49.0115 321.847 53.3059 325.949 58.2724Z" fill="url(#paint2_linear_389_7187)"/>
<defs>
<linearGradient id="paint0_linear_389_7187" x1="295.499" y1="62.2425" x2="395.506" y2="183.345" gradientUnits="userSpaceOnUse">
<stop stop-color="#B07BF6"/>
<stop offset="1" stop-color="#5B42FF"/>
</linearGradient>
<linearGradient id="paint1_linear_389_7187" x1="229.054" y1="48.5725" x2="310.414" y2="147.094" gradientUnits="userSpaceOnUse">
<stop stop-color="#94FFE5"/>
<stop offset="1" stop-color="#6BD2E4"/>
</linearGradient>
<linearGradient id="paint2_linear_389_7187" x1="339.886" y1="79.4969" x2="264.28" y2="141.932" gradientUnits="userSpaceOnUse">
<stop stop-color="#52CEF2"/>
<stop offset="1" stop-color="#31ADF9"/>
</linearGradient>
</defs>
</svg>
