<svg width="80" height="71" viewBox="0 0 80 71" fill="none" xmlns="http://www.w3.org/2000/svg">
<g filter="url(#filter0_d_250_4625)">
<path d="M20 28.6575C20 17.801 28.801 9 39.6575 9C50.5141 9 59.3151 17.801 59.3151 28.6575V29.3425C59.3151 40.199 50.5141 49 39.6575 49C28.801 49 20 40.199 20 29.3425V28.6575Z" fill="#E9F7F1" shape-rendering="crispEdges"/>
<g style="mix-blend-mode:multiply" opacity="0.25">
<path opacity="0.1" d="M46.7812 17.6452H32.5353C30.394 17.6452 28.6582 19.437 28.6582 21.6473V36.3527C28.6582 38.563 30.394 40.3548 32.5353 40.3548H46.7812C48.9224 40.3548 50.6582 38.563 50.6582 36.3527V21.6473C50.6582 19.437 48.9224 17.6452 46.7812 17.6452Z" fill="white"/>
<path opacity="0.18" d="M46.3919 17.954H32.8348C30.6856 17.954 28.9434 19.7525 28.9434 21.971V35.9654C28.9434 38.1839 30.6856 39.9824 32.8348 39.9824H46.3919C48.5411 39.9824 50.2834 38.1839 50.2834 35.9654V21.971C50.2834 19.7525 48.5411 17.954 46.3919 17.954Z" fill="#F2F0FD"/>
<path opacity="0.26" d="M46.0007 18.2661H33.1289C30.9737 18.2661 29.2266 20.0695 29.2266 22.2942V35.5813C29.2266 37.806 30.9737 39.6094 33.1289 39.6094H46.0007C48.1558 39.6094 49.903 37.806 49.903 35.5813V22.2942C49.903 20.0695 48.1558 18.2661 46.0007 18.2661Z" fill="#E4E1FB"/>
<path opacity="0.35" d="M45.6094 18.5765H33.4265C31.2633 18.5765 29.5098 20.3867 29.5098 22.6196V35.1955C29.5098 37.4284 31.2633 39.2386 33.4265 39.2386H45.6094C47.7726 39.2386 49.5262 37.4284 49.5262 35.1955V22.6196C49.5262 20.3867 47.7726 18.5765 45.6094 18.5765Z" fill="#D7D3F8"/>
<path opacity="0.43" d="M45.2182 18.8843H33.7241C31.553 18.8843 29.793 20.7011 29.793 22.9422V34.8071C29.793 37.0482 31.553 38.8651 33.7241 38.8651H45.2182C47.3893 38.8651 49.1494 37.0482 49.1494 34.8071V22.9422C49.1494 20.7011 47.3893 18.8843 45.2182 18.8843Z" fill="#CAC4F6"/>
<path opacity="0.51" d="M44.8273 19.1974H34.0257C31.8466 19.1974 30.0801 21.0209 30.0801 23.2703V34.4203C30.0801 36.6697 31.8466 38.4932 34.0257 38.4932H44.8273C47.0064 38.4932 48.7729 36.6697 48.7729 34.4203V23.2703C48.7729 21.0209 47.0064 19.1974 44.8273 19.1974Z" fill="#BCB5F4"/>
<path opacity="0.59" d="M34.3236 19.5068H44.4436C46.6292 19.5068 48.4 21.3384 48.4 23.5908V34.0372C48.4 36.2933 46.6255 38.1213 44.4436 38.1213H34.3236C32.138 38.1213 30.3672 36.2896 30.3672 34.0372V23.5908C30.3672 21.3347 32.1416 19.5068 34.3236 19.5068Z" fill="#AFA6F2"/>
<path opacity="0.67" d="M44.0504 19.8156H34.6193C32.4262 19.8156 30.6484 21.6508 30.6484 23.9145V33.6499C30.6484 35.9137 32.4262 37.7488 34.6193 37.7488H44.0504C46.2434 37.7488 48.0212 35.9137 48.0212 33.6499V23.9145C48.0212 21.6508 46.2434 19.8156 44.0504 19.8156Z" fill="#A197F0"/>
<path opacity="0.75" d="M43.6536 20.1277H34.9149C32.7139 20.1277 30.9297 21.9695 30.9297 24.2415V33.2621C30.9297 35.534 32.7139 37.3759 34.9149 37.3759H43.6536C45.8546 37.3759 47.6389 35.534 47.6389 33.2621V24.2415C47.6389 21.9695 45.8546 20.1277 43.6536 20.1277Z" fill="#9488EE"/>
<path opacity="0.84" d="M43.268 20.4365H35.2109C33.0039 20.4365 31.2148 22.2833 31.2148 24.5615V32.8784C31.2148 35.1566 33.0039 37.0034 35.2109 37.0034H43.268C45.4749 37.0034 47.264 35.1566 47.264 32.8784V24.5615C47.264 22.2833 45.4749 20.4365 43.268 20.4365Z" fill="#877AEB"/>
<path opacity="0.92" d="M42.8806 20.7459H35.5124C33.2975 20.7459 31.502 22.5994 31.502 24.8858V32.4916C31.502 34.778 33.2975 36.6315 35.5124 36.6315H42.8806C45.0956 36.6315 46.8911 34.778 46.8911 32.4916V24.8858C46.8911 22.5994 45.0956 20.7459 42.8806 20.7459Z" fill="#796BE9"/>
<path d="M42.4858 21.059H35.8101C33.5872 21.059 31.7852 22.9192 31.7852 25.2138V32.1049C31.7852 34.3995 33.5872 36.2596 35.8101 36.2596H42.4858C44.7087 36.2596 46.5107 34.3995 46.5107 32.1049V25.2138C46.5107 22.9192 44.7087 21.059 42.4858 21.059Z" fill="#6C5CE7"/>
</g>
<path d="M44.3918 19.5374H35.7361C33.3459 19.5374 31.4082 21.5376 31.4082 24.0049V32.9398C31.4082 35.4072 33.3459 37.4073 35.7361 37.4073H44.3918C46.782 37.4073 48.7197 35.4072 48.7197 32.9398V24.0049C48.7197 21.5376 46.782 19.5374 44.3918 19.5374Z" fill="white"/>
<path d="M44.2366 28.331L39.4903 33.234C38.5815 34.1722 37.0234 33.5058 37.0234 32.1767V27.6497C37.0234 27.6162 37.0379 27.4598 37.0379 27.4598C37.1136 26.5254 37.8638 25.7845 38.7907 25.7845H43.2159C44.5034 25.7845 45.149 27.3928 44.2366 28.331Z" fill="url(#paint0_linear_250_4625)"/>
<path d="M42.0071 25.7854H38.7901C37.8632 25.7854 37.113 26.5263 37.0373 27.4607C37.0373 27.4607 37.0193 27.6171 37.0229 27.6506V29.6237C36.0852 29.0132 35.4648 27.9372 35.4648 26.7124C35.4648 24.81 36.958 23.2724 38.7973 23.2724C40.3265 23.2724 41.614 24.3335 42.0071 25.7854Z" fill="url(#paint1_linear_250_4625)"/>
<path d="M42.1303 26.7115C42.1303 28.6102 40.6372 30.1478 38.7979 30.1478C38.1451 30.1478 37.5356 29.9542 37.0234 29.6228V27.6497C37.0234 27.6162 37.0379 27.4598 37.0379 27.4598C37.1136 26.5254 37.8638 25.7845 38.7907 25.7845H42.0077C42.087 26.0786 42.1303 26.3913 42.1303 26.7115Z" fill="url(#paint2_linear_250_4625)"/>
</g>
<defs>
<filter id="filter0_d_250_4625" x="0" y="-9" width="79.3145" height="80" filterUnits="userSpaceOnUse" color-interpolation-filters="sRGB">
<feFlood flood-opacity="0" result="BackgroundImageFix"/>
<feColorMatrix in="SourceAlpha" type="matrix" values="0 0 0 0 0 0 0 0 0 0 0 0 0 0 0 0 0 0 127 0" result="hardAlpha"/>
<feOffset dy="2"/>
<feGaussianBlur stdDeviation="10"/>
<feComposite in2="hardAlpha" operator="out"/>
<feColorMatrix type="matrix" values="0 0 0 0 0 0 0 0 0 0 0 0 0 0 0 0 0 0 0.05 0"/>
<feBlend mode="normal" in2="BackgroundImageFix" result="effect1_dropShadow_250_4625"/>
<feBlend mode="normal" in="SourceGraphic" in2="effect1_dropShadow_250_4625" result="shape"/>
</filter>
<linearGradient id="paint0_linear_250_4625" x1="40.8428" y1="25.8999" x2="40.8428" y2="33.7068" gradientUnits="userSpaceOnUse">
<stop stop-color="#B07BF6"/>
<stop offset="1" stop-color="#5B42FF"/>
</linearGradient>
<linearGradient id="paint1_linear_250_4625" x1="38.736" y1="23.2724" x2="38.736" y2="29.6237" gradientUnits="userSpaceOnUse">
<stop stop-color="#94FFE5"/>
<stop offset="1" stop-color="#6BD2E4"/>
</linearGradient>
<linearGradient id="paint2_linear_250_4625" x1="41.9933" y1="27.9661" x2="37.1388" y2="27.9661" gradientUnits="userSpaceOnUse">
<stop stop-color="#52CEF2"/>
<stop offset="1" stop-color="#31ADF9"/>
</linearGradient>
</defs>
</svg>
