<svg width="19" height="19" viewBox="0 0 19 19" fill="none" xmlns="http://www.w3.org/2000/svg">
<path d="M9.50024 0.250244C14.4573 0.250244 18.5002 4.29321 18.5002 9.25024C18.5002 14.2424 14.4573 18.2502 9.50024 18.2502C4.50806 18.2502 0.500244 14.2424 0.500244 9.25024C0.500244 4.29321 4.50806 0.250244 9.50024 0.250244ZM9.50024 14.3127C10.0979 14.3127 10.6252 13.8206 10.6252 13.1877C10.6252 12.5549 10.0979 12.0627 9.50024 12.0627C8.83228 12.0627 8.37524 12.5549 8.37524 13.1877C8.37524 13.8206 8.86743 14.3127 9.50024 14.3127ZM11.926 9.32056C12.6995 8.86353 13.1565 8.05493 13.1565 7.21118C13.1565 5.84009 12.0667 4.75024 10.6252 4.75024H8.83228C7.49634 4.75024 6.40649 5.84009 6.40649 7.21118C6.40649 7.66821 6.79321 8.05493 7.25024 8.05493C7.70728 8.05493 8.09399 7.66821 8.09399 7.21118C8.09399 6.78931 8.4104 6.43774 8.86743 6.43774H10.6604C11.0823 6.43774 11.469 6.78931 11.469 7.21118C11.469 7.49243 11.3284 7.73853 11.0823 7.87915L9.07837 9.07446C8.79712 9.25024 8.65649 9.53149 8.65649 9.81274V10.3752C8.65649 10.8323 9.04321 11.219 9.50024 11.219C9.95728 11.219 10.344 10.8323 10.344 10.3752V10.3049L11.926 9.32056Z" fill="#011610"/>
</svg>
