<svg width="70" height="65" viewBox="0 0 70 65" fill="none" xmlns="http://www.w3.org/2000/svg">
<g filter="url(#filter0_d_250_4627)">
<path d="M10 38C10 26.9543 18.9543 18 30 18C41.0457 18 50 26.9543 50 38C50 49.0457 41.0457 58 30 58C18.9543 58 10 49.0457 10 38Z" fill="#E9F7F1" shape-rendering="crispEdges"/>
<path d="M35.8125 34L40 34.0312V42H37.9688C37.4375 42 37 41.5312 37 41V35.5H35.25C35.0938 35.4688 34.9688 35.375 34.875 35.25C34.875 35.25 33.5938 33.5625 31.75 33.2812C31.4062 33.2188 31.0625 33.3438 30.8438 33.5938L28.1562 36.3125C28.0312 36.4375 27.9688 36.5625 27.9688 36.7188C27.9688 36.875 28.0312 37 28.1562 37.0938C28.3438 37.3125 28.7188 37.3125 28.9062 37.0938L30.5938 35.4062C30.9062 35.125 31.375 35.125 31.6562 35.4062C31.9375 35.7188 31.9375 36.1875 31.6562 36.4688L31.4062 36.75L35.1562 39.8125C35.875 40.375 35.9688 41.4375 35.4062 42.1562L34.5312 43.25C34.0625 43.8438 33.2812 44.0312 32.625 43.7812C32.3438 44.0312 31.9688 44.2188 31.5625 44.25C31.0938 44.3125 30.5938 44.1562 30.2188 43.8438H30.1875C29.8438 44.0625 29.4688 44.2188 29.0312 44.25C28.9375 44.25 28.8438 44.25 28.75 44.25C28.1562 44.25 27.5938 44.0625 27.125 43.6875L24.7188 41.5H22.8438C22.6562 41.8125 22.3438 42 22 42H20V34.0312H23V40H25.3125L28.125 42.5625C28.3125 42.7188 28.5938 42.7812 28.875 42.75C29.1562 42.7188 29.4375 42.5938 29.5938 42.375L29.6875 42.2812L30.1875 41.8125L31.1875 42.6875C31.2812 42.75 31.3438 42.75 31.4062 42.75C31.4688 42.7188 31.5625 42.7188 31.625 42.625L32.4375 41.75L33.125 42.3438C33.1875 42.375 33.3125 42.375 33.375 42.3125L34.2188 41.1875C34.2812 41.0938 34.2812 41 34.2188 40.9375L30.3438 37.7812L29.9688 38.125C29.5938 38.5312 29.0625 38.75 28.5312 38.75C27.9688 38.75 27.4688 38.5625 27.0625 38.1562C26.6562 37.7812 26.4688 37.25 26.4688 36.7188C26.4688 36.1562 26.6875 35.6562 27.0938 35.2812L28.9062 33.4062C28.6875 33.2812 28.4688 33.25 28.2188 33.2812C26.3438 33.5625 25.0938 35.2188 25.0938 35.25C24.9375 35.4375 24.7188 35.5625 24.4688 35.5625C24.3438 35.5625 24.1875 35.5 24.0312 35.4062C23.7188 35.1562 23.625 34.6875 23.875 34.375C23.9375 34.2812 25.5 32.1875 28 31.7812C28.7188 31.6875 29.4375 31.9062 29.9688 32.3438C30.5625 31.875 31.25 31.6562 31.9688 31.75C33.875 32.0625 35.25 33.3438 35.8125 34ZM21.5 41C21.75 41 22 40.7812 22 40.5312C22 40.25 21.75 40.0312 21.5 40.0312C21.2188 40.0312 21 40.25 21 40.5312C21 40.7812 21.2188 41 21.5 41ZM38.5 41C38.75 41 39 40.7812 39 40.5312C39 40.25 38.75 40.0312 38.5 40.0312C38.2188 40.0312 38 40.25 38 40.5312C38 40.7812 38.2188 41 38.5 41Z" fill="#1EAD74"/>
</g>
<defs>
<filter id="filter0_d_250_4627" x="-10" y="0" width="80" height="80" filterUnits="userSpaceOnUse" color-interpolation-filters="sRGB">
<feFlood flood-opacity="0" result="BackgroundImageFix"/>
<feColorMatrix in="SourceAlpha" type="matrix" values="0 0 0 0 0 0 0 0 0 0 0 0 0 0 0 0 0 0 127 0" result="hardAlpha"/>
<feOffset dy="2"/>
<feGaussianBlur stdDeviation="10"/>
<feComposite in2="hardAlpha" operator="out"/>
<feColorMatrix type="matrix" values="0 0 0 0 0 0 0 0 0 0 0 0 0 0 0 0 0 0 0.05 0"/>
<feBlend mode="normal" in2="BackgroundImageFix" result="effect1_dropShadow_250_4627"/>
<feBlend mode="normal" in="SourceGraphic" in2="effect1_dropShadow_250_4627" result="shape"/>
</filter>
</defs>
</svg>
