<svg width="80" height="71" viewBox="0 0 80 71" fill="none" xmlns="http://www.w3.org/2000/svg">
<g filter="url(#filter0_d_250_4628)">
<path d="M20 29C20 17.9543 28.9543 9 40 9C51.0457 9 60 17.9543 60 29C60 40.0457 51.0457 49 40 49C28.9543 49 20 40.0457 20 29Z" fill="#E9F7F1" shape-rendering="crispEdges"/>
<path d="M35 27C35.5312 27 36 27.4688 36 28V34.9375C36 35.4688 35.5312 35.9062 35 35.9062H33C32.4375 35.9062 32 35.4688 32 34.9375V27.9688C32 27.4375 32.4375 27 33 27H35ZM48 28.0938C48 28.8438 47.5938 29.4688 47.0312 29.8438C47.0625 30.0312 47.0938 30.1875 47.0938 30.3438C47.0938 31.0625 46.7188 31.6875 46.1875 32.0625C46.1875 32.1562 46.1875 32.25 46.1875 32.3438C46.1875 33.0625 45.8438 33.6875 45.2812 34.0625C45.2188 35.1562 44.3125 36 43.2188 36H41.5625C40.4375 36 39.3438 35.6562 38.4375 34.9688L37.2812 34.125C37.0938 33.9688 36.9688 33.75 36.9688 33.5C36.9688 33.125 37.3125 32.75 37.75 32.75C37.9062 32.75 38.0625 32.8125 38.1875 32.9062L39.3438 33.7812C39.9688 34.25 40.75 34.5312 41.5625 34.5312H43.2188C43.5312 34.5312 43.8125 34.25 43.8125 33.9375C43.8125 33.8125 43.75 33.7812 43.75 33.625C43.75 32.7812 44.6875 33.0625 44.6875 32.3438C44.6875 32.0625 44.5 32 44.5 31.6562C44.5 30.7188 45.5938 31.125 45.5938 30.3438C45.5938 29.9375 45.2188 29.9375 45.2188 29.4375C45.2188 29.0625 45.5312 28.7188 45.9375 28.6875C46.25 28.6875 46.5 28.4062 46.5 28.0938C46.5 27.7812 46.2188 27.5312 45.875 27.5H41.5938C41.1875 27.5 40.8438 27.2188 40.8438 26.7812C40.8438 26.6562 40.875 26.5312 40.9375 26.4062C41.5 25.4062 41.75 24.4062 41.75 24.1562C41.75 23.9062 41.5625 23.5312 41.0312 23.5312C40 23.5312 40.5938 25.4375 38.1875 27.3438C38.0625 27.4688 37.9062 27.5 37.75 27.5C37.3125 27.5 37 27.1562 37 26.75C37 25.9062 37.875 26.375 38.875 23.8438C39.1875 23.0312 39.5938 22.0312 41.0312 22.0312C42.4062 22.0312 43.25 23.0938 43.25 24.1562C43.25 24.5625 43.0625 25.25 42.7812 26.0312H45.9062C47.0312 26.0312 48 26.9688 48 28.0938Z" fill="#1EAD74"/>
</g>
<defs>
<filter id="filter0_d_250_4628" x="0" y="-9" width="80" height="80" filterUnits="userSpaceOnUse" color-interpolation-filters="sRGB">
<feFlood flood-opacity="0" result="BackgroundImageFix"/>
<feColorMatrix in="SourceAlpha" type="matrix" values="0 0 0 0 0 0 0 0 0 0 0 0 0 0 0 0 0 0 127 0" result="hardAlpha"/>
<feOffset dy="2"/>
<feGaussianBlur stdDeviation="10"/>
<feComposite in2="hardAlpha" operator="out"/>
<feColorMatrix type="matrix" values="0 0 0 0 0 0 0 0 0 0 0 0 0 0 0 0 0 0 0.05 0"/>
<feBlend mode="normal" in2="BackgroundImageFix" result="effect1_dropShadow_250_4628"/>
<feBlend mode="normal" in="SourceGraphic" in2="effect1_dropShadow_250_4628" result="shape"/>
</filter>
</defs>
</svg>
