<svg width="373" height="279" viewBox="0 0 373 279" fill="none" xmlns="http://www.w3.org/2000/svg">
<g clip-path="url(#clip0_389_2324)">
<path d="M151.637 15.6783H20.6472V152.364H151.637V15.6783Z" fill="#F4F4F4"/>
<path d="M20.6467 15.6783H19.146V152.364H20.6467V15.6783Z" fill="#F4F4F4"/>
<path opacity="0.05" d="M20.6467 15.6783H19.146V152.364H20.6467V15.6783Z" fill="#292A2E"/>
<path opacity="0.05" d="M52.3796 109.866V74.1047H80.4523V94.8813H123.938V131.669H142.42V152.364H123.938H120.377H26.9478V109.866H52.3796Z" fill="#292A2E"/>
<path opacity="0.34" d="M76.8487 77.9872H56.4055V81.8702H76.8487V77.9872Z" fill="#FFFFFA"/>
<path opacity="0.34" d="M76.8487 86.0333H56.4055V89.9163H76.8487V86.0333Z" fill="#FFFFFA"/>
<path opacity="0.34" d="M76.8487 94.0795H56.4055V97.9625H76.8487V94.0795Z" fill="#FFFFFA"/>
<path opacity="0.34" d="M34.3414 113.635H30.5735V117.518H34.3414V113.635Z" fill="#FFFFFA"/>
<path opacity="0.34" d="M34.3414 121.681H30.5735V125.564H34.3414V121.681Z" fill="#FFFFFA"/>
<path opacity="0.34" d="M34.3414 129.727H30.5735V133.61H34.3414V129.727Z" fill="#FFFFFA"/>
<path opacity="0.34" d="M41.3116 113.635H37.5437V117.518H41.3116V113.635Z" fill="#FFFFFA"/>
<path opacity="0.34" d="M41.3116 121.681H37.5437V125.564H41.3116V121.681Z" fill="#FFFFFA"/>
<path opacity="0.34" d="M41.3116 129.727H37.5437V133.61H41.3116V129.727Z" fill="#FFFFFA"/>
<path opacity="0.34" d="M48.0944 113.635H44.3264V117.518H48.0944V113.635Z" fill="#FFFFFA"/>
<path opacity="0.34" d="M48.0944 121.681H44.3264V125.564H48.0944V121.681Z" fill="#FFFFFA"/>
<path opacity="0.34" d="M48.0944 129.727H44.3264V133.61H48.0944V129.727Z" fill="#FFFFFA"/>
<path d="M20.6472 83.2544H47.0045V15.6783H49.1845V83.2544H120.378V15.6783H122.558V83.2544H151.637V85.529H122.558V152.364H120.378V85.529H49.1845V152.364H47.0045V85.529H20.6472V83.2544Z" fill="white"/>
<path d="M156.855 152.199H15.4294V156.744H156.855V152.199Z" fill="#F4F4F4"/>
<path opacity="0.1" d="M156.855 152.199H15.4294V156.744H156.855V152.199Z" fill="#292A2E"/>
<path opacity="0.1" d="M15.4288 152.199H13.387V156.744H15.4288V152.199Z" fill="#292A2E"/>
<path opacity="0.1" d="M15.4288 152.199H13.387V156.744H15.4288V152.199Z" fill="#292A2E"/>
<path d="M19.1459 21.4982L151.637 21.4982V18.1185L19.1459 18.1185V21.4982Z" fill="white"/>
<path d="M19.1459 27.8107L151.637 27.8107V24.431L19.1459 24.431V27.8107Z" fill="white"/>
<path d="M19.1459 34.1227L151.637 34.1227V30.743L19.1459 30.743V34.1227Z" fill="white"/>
<path d="M19.1459 40.4352L151.637 40.4352V37.0556L19.1459 37.0556V40.4352Z" fill="white"/>
<path d="M19.1459 46.7483L151.637 46.7483V43.3686L19.1459 43.3686V46.7483Z" fill="white"/>
<path d="M33.218 50.5598H35.2034L35.2034 15.6777H33.218L33.218 50.5598Z" fill="white"/>
<path d="M34.0422 55.5693C35.5488 55.5693 36.7701 54.295 36.7701 52.7231C36.7701 51.1511 35.5488 49.8768 34.0422 49.8768C32.5356 49.8768 31.3142 51.1511 31.3142 52.7231C31.3142 54.295 32.5356 55.5693 34.0422 55.5693Z" fill="white"/>
<path d="M320.213 14.9147H265.098V89.7728H320.213V14.9147Z" fill="#F4F4F4"/>
<path d="M320.213 89.7728H322V14.9146H320.213V89.7728Z" fill="#F4F4F4"/>
<path opacity="0.05" d="M320.213 89.7728H322V14.9146H320.213V89.7728Z" fill="#292A2E"/>
<path opacity="0.05" d="M310.173 28.5506H275.138V76.1362H310.173V28.5506Z" fill="#292A2E"/>
<path opacity="0.03" d="M310.172 28.5506H308.346V76.1362H310.172V28.5506Z" fill="#292A2E"/>
<path d="M365.287 108.182H320.212V155.649H365.287V108.182Z" fill="#F4F4F4"/>
<path opacity="0.05" d="M357.076 116.829H328.423V147.002H357.076V116.829Z" fill="#292A2E"/>
<path d="M365.288 155.649H367.075V108.181H365.288V155.649Z" fill="#F4F4F4"/>
<path opacity="0.05" d="M365.288 155.649H367.075V108.181H365.288V155.649Z" fill="#292A2E"/>
<path opacity="0.03" d="M357.076 116.829H355.251V147.002H357.076V116.829Z" fill="#292A2E"/>
<path d="M215.811 188.587C215.752 188.587 215.694 188.573 215.639 188.545L126.894 142.772C126.776 142.712 126.696 142.593 126.682 142.457C126.667 142.321 126.719 142.186 126.82 142.099L215.538 66.1403C215.68 66.0177 215.885 66.0177 216.028 66.1403L304.802 142.099C304.904 142.186 304.956 142.321 304.941 142.457C304.926 142.593 304.845 142.712 304.728 142.773L215.983 188.546C215.929 188.574 215.87 188.588 215.811 188.588L215.811 188.587ZM127.774 142.327L215.811 187.734L303.848 142.327L215.783 66.9743L127.774 142.327Z" fill="#292A2E"/>
<path d="M311.441 0.403351L293.777 25.1065V235.312C293.777 239.449 290.563 242.803 286.598 242.803H144.966C141.002 242.803 137.788 239.449 137.788 235.312V20.6428C137.788 9.46479 146.472 0.403351 157.183 0.403351H311.441Z" fill="white"/>
<path d="M286.598 243.206H144.967C140.795 243.206 137.401 239.665 137.401 235.312V20.6427C137.401 9.2604 146.275 0 157.183 0H311.441C311.587 0 311.721 0.0860382 311.786 0.222624C311.852 0.35921 311.838 0.522682 311.751 0.644749L294.163 25.2404V235.312C294.163 239.665 290.77 243.206 286.598 243.206ZM157.183 0.806609C146.702 0.806609 138.174 9.70458 138.174 20.6422V235.312C138.174 239.22 141.221 242.4 144.967 242.4H286.598C290.343 242.4 293.39 239.22 293.39 235.312V25.1065C293.39 25.0194 293.417 24.935 293.467 24.8651L310.67 0.806609H157.183H157.183Z" fill="#292A2E"/>
<path opacity="0.3" d="M264.913 27.2204H166.709C166.385 27.2204 166.122 27.4835 166.122 27.8081V28.8159C166.122 29.1405 166.385 29.4036 166.709 29.4036H264.913C265.238 29.4036 265.501 29.1405 265.501 28.8159V27.8081C265.501 27.4835 265.238 27.2204 264.913 27.2204Z" fill="#262626"/>
<path d="M293.778 18.8354C293.778 8.6555 301.687 0.403351 311.442 0.403351C321.197 0.403351 329.105 8.6555 329.105 18.8354V34.3971H293.778L293.778 18.8354Z" fill="white"/>
<path d="M329.106 34.8003H293.778C293.564 34.8003 293.391 34.6196 293.391 34.397V18.8354C293.391 8.4495 301.488 0 311.441 0C321.394 0 329.492 8.4495 329.492 18.8354V34.397C329.492 34.6196 329.319 34.8003 329.106 34.8003ZM294.164 33.9937H328.719V18.8354C328.719 8.89421 320.969 0.806609 311.441 0.806609C301.914 0.806609 294.164 8.89474 294.164 18.8354V33.9937H294.164Z" fill="#292A2E"/>
<path opacity="0.3" d="M280.634 73.054H214.039C213.767 73.054 213.548 73.2738 213.548 73.545V73.5659C213.548 73.8371 213.767 74.0569 214.039 74.0569H280.634C280.905 74.0569 281.125 73.8371 281.125 73.5659V73.545C281.125 73.2738 280.905 73.054 280.634 73.054Z" fill="#262626"/>
<path opacity="0.3" d="M280.634 65.9333H214.039C213.767 65.9333 213.548 66.1531 213.548 66.4243V66.4452C213.548 66.7164 213.767 66.9362 214.039 66.9362H280.634C280.905 66.9362 281.125 66.7164 281.125 66.4452V66.4243C281.125 66.1531 280.905 65.9333 280.634 65.9333Z" fill="#262626"/>
<path opacity="0.3" d="M280.634 58.812H214.039C213.767 58.812 213.548 59.0318 213.548 59.3029V59.3239C213.548 59.595 213.767 59.8148 214.039 59.8148H280.634C280.905 59.8148 281.125 59.595 281.125 59.3239V59.3029C281.125 59.0318 280.905 58.812 280.634 58.812Z" fill="#262626"/>
<path opacity="0.3" d="M280.634 51.6912H214.039C213.767 51.6912 213.548 51.911 213.548 52.1822V52.2032C213.548 52.4743 213.767 52.6941 214.039 52.6941H280.634C280.905 52.6941 281.125 52.4743 281.125 52.2032V52.1822C281.125 51.911 280.905 51.6912 280.634 51.6912Z" fill="#262626"/>
<path opacity="0.3" d="M280.634 44.5388H214.039C213.767 44.5388 213.548 44.7586 213.548 45.0297V45.0507C213.548 45.3219 213.767 45.5417 214.039 45.5417H280.634C280.905 45.5417 281.125 45.3219 281.125 45.0507V45.0297C281.125 44.7586 280.905 44.5388 280.634 44.5388Z" fill="#262626"/>
<path opacity="0.3" d="M253.091 80.1747H214.039C213.767 80.1747 213.548 80.3946 213.548 80.6657V80.6867C213.548 80.9578 213.767 81.1776 214.039 81.1776H253.091C253.362 81.1776 253.582 80.9578 253.582 80.6867V80.6657C253.582 80.3946 253.362 80.1747 253.091 80.1747Z" fill="#262626"/>
<path opacity="0.9" d="M203.156 38.8156H152.106C151.216 38.8156 150.495 39.5367 150.495 40.4261V84.2196C150.495 85.1091 151.216 85.8301 152.106 85.8301H203.156C204.045 85.8301 204.766 85.1091 204.766 84.2196V40.4261C204.766 39.5367 204.045 38.8156 203.156 38.8156Z" fill="#4B2C91"/>
<path opacity="0.8" d="M169.424 57.4768C171.593 57.4768 173.351 55.6422 173.351 53.3792C173.351 51.1162 171.593 49.2816 169.424 49.2816C167.255 49.2816 165.497 51.1162 165.497 53.3792C165.497 55.6422 167.255 57.4768 169.424 57.4768Z" fill="white"/>
<path opacity="0.5" d="M174.832 72.5378L186.215 59.2858C187.694 57.5639 190.225 57.4042 191.892 58.9276L204.767 70.6901V85.8302H189.205" fill="white"/>
<path opacity="0.8" d="M189.204 85.8296L164.52 63.0026C163.011 61.6077 160.75 61.584 159.215 62.9472L150.495 70.6901V85.8301" fill="white"/>
<path opacity="0.3" d="M280.589 120.102H151.033C150.762 120.102 150.542 120.322 150.542 120.593V120.614C150.542 120.885 150.762 121.105 151.033 121.105H280.589C280.86 121.105 281.08 120.885 281.08 120.614V120.593C281.08 120.322 280.86 120.102 280.589 120.102Z" fill="#262626"/>
<path opacity="0.3" d="M280.589 112.982H151.033C150.762 112.982 150.542 113.202 150.542 113.473V113.494C150.542 113.765 150.762 113.985 151.033 113.985H280.589C280.86 113.985 281.08 113.765 281.08 113.494V113.473C281.08 113.202 280.86 112.982 280.589 112.982Z" fill="#262626"/>
<path opacity="0.3" d="M280.589 105.86H151.033C150.762 105.86 150.542 106.08 150.542 106.351V106.372C150.542 106.643 150.762 106.863 151.033 106.863H280.589C280.86 106.863 281.08 106.643 281.08 106.372V106.351C281.08 106.08 280.86 105.86 280.589 105.86Z" fill="#262626"/>
<path opacity="0.3" d="M280.589 98.7397H151.033C150.762 98.7397 150.542 98.9595 150.542 99.2306V99.2516C150.542 99.5227 150.762 99.7425 151.033 99.7425H280.589C280.86 99.7425 281.08 99.5227 281.08 99.2516V99.2306C281.08 98.9595 280.86 98.7397 280.589 98.7397Z" fill="#262626"/>
<path opacity="0.3" d="M190.085 127.224H151.033C150.762 127.224 150.542 127.444 150.542 127.715V127.736C150.542 128.007 150.762 128.227 151.033 128.227H190.085C190.357 128.227 190.576 128.007 190.576 127.736V127.715C190.576 127.444 190.357 127.224 190.085 127.224Z" fill="#262626"/>
<path opacity="0.3" d="M280.589 161.167H151.033C150.762 161.167 150.542 161.387 150.542 161.658V161.679C150.542 161.95 150.762 162.17 151.033 162.17H280.589C280.86 162.17 281.08 161.95 281.08 161.679V161.658C281.08 161.387 280.86 161.167 280.589 161.167Z" fill="#262626"/>
<path opacity="0.3" d="M280.589 154.046H151.033C150.762 154.046 150.542 154.266 150.542 154.537V154.558C150.542 154.829 150.762 155.049 151.033 155.049H280.589C280.86 155.049 281.08 154.829 281.08 154.558V154.537C281.08 154.266 280.86 154.046 280.589 154.046Z" fill="#262626"/>
<path opacity="0.3" d="M280.589 146.925H151.033C150.762 146.925 150.542 147.145 150.542 147.416V147.437C150.542 147.708 150.762 147.928 151.033 147.928H280.589C280.86 147.928 281.08 147.708 281.08 147.437V147.416C281.08 147.145 280.86 146.925 280.589 146.925Z" fill="#262626"/>
<path opacity="0.3" d="M280.589 139.804H151.033C150.762 139.804 150.542 140.024 150.542 140.295V140.316C150.542 140.587 150.762 140.807 151.033 140.807H280.589C280.86 140.807 281.08 140.587 281.08 140.316V140.295C281.08 140.024 280.86 139.804 280.589 139.804Z" fill="#262626"/>
<path opacity="0.3" d="M190.085 168.288H151.033C150.762 168.288 150.542 168.507 150.542 168.779V168.8C150.542 169.071 150.762 169.29 151.033 169.29H190.085C190.357 169.29 190.576 169.071 190.576 168.8V168.779C190.576 168.507 190.357 168.288 190.085 168.288Z" fill="#262626"/>
<path d="M295.891 249.494H135.731C130.945 249.494 127.065 245.446 127.065 240.452V142.411L215.811 188.184L304.556 142.411V240.452C304.556 245.446 300.676 249.494 295.891 249.494Z" fill="#6C3ECF"/>
<path opacity="0.78" d="M295.891 249.494H135.731C130.945 249.494 127.065 245.446 127.065 240.452V142.411L215.811 188.184L304.556 142.411V240.452C304.556 245.446 300.676 249.494 295.891 249.494Z" fill="white"/>
<path d="M295.891 249.897H135.731C130.739 249.897 126.679 245.66 126.679 240.452V142.411C126.679 142.272 126.748 142.142 126.861 142.069C126.975 141.995 127.116 141.988 127.237 142.05L215.811 187.734L304.385 142.05C304.505 141.988 304.647 141.995 304.76 142.069C304.874 142.142 304.943 142.272 304.943 142.411V240.452C304.943 245.66 300.882 249.897 295.891 249.897ZM127.452 143.06V240.451C127.452 245.214 131.166 249.09 135.731 249.09H295.891C300.456 249.09 304.169 245.214 304.169 240.451V143.06L215.982 188.545C215.874 188.601 215.747 188.601 215.639 188.545L127.452 143.06H127.452Z" fill="#292A2E"/>
<path d="M345.049 271.813C345.173 271.813 345.292 271.741 345.35 271.617L354.165 252.753C354.246 252.579 354.176 252.371 354.011 252.286C353.845 252.202 353.645 252.274 353.564 252.447L344.749 271.312C344.668 271.485 344.737 271.694 344.903 271.778C344.95 271.802 345 271.814 345.049 271.814V271.813Z" fill="#292A2E"/>
<path d="M330.15 270.718C330.299 270.718 330.434 270.615 330.474 270.458L340.673 229.824C340.72 229.638 340.613 229.447 340.434 229.398C340.254 229.35 340.073 229.461 340.026 229.647L329.827 270.281C329.78 270.467 329.887 270.658 330.065 270.707C330.094 270.715 330.122 270.718 330.15 270.718Z" fill="#292A2E"/>
<path d="M310.693 272.517C310.736 272.517 310.781 272.508 310.823 272.489C310.993 272.414 311.072 272.209 311 272.032L300.457 246.121C300.384 245.943 300.188 245.86 300.018 245.936C299.848 246.011 299.769 246.216 299.841 246.393L310.385 272.304C310.439 272.437 310.562 272.517 310.692 272.517L310.693 272.517Z" fill="#292A2E"/>
<path d="M329.772 278.52C329.799 278.52 329.827 278.517 329.854 278.51C330.033 278.463 330.141 278.274 330.097 278.087L317.845 226.943C317.8 226.756 317.618 226.643 317.439 226.689C317.26 226.736 317.152 226.925 317.196 227.112L329.448 278.256C329.486 278.414 329.623 278.52 329.772 278.52Z" fill="#292A2E"/>
<path d="M325.927 236.205C328.695 228.674 325.851 220.698 319.575 218.392C313.299 216.086 305.968 220.321 303.2 227.853C300.432 235.384 303.276 243.36 309.552 245.666C315.828 247.972 323.16 243.736 325.927 236.205Z" fill="#4B2C91"/>
<path opacity="0.4" d="M325.927 236.205C328.695 228.674 325.851 220.698 319.575 218.392C313.299 216.086 305.968 220.321 303.2 227.853C300.432 235.384 303.276 243.36 309.552 245.666C315.828 247.972 323.16 243.736 325.927 236.205Z" fill="white"/>
<path d="M305.009 253.68C306.485 249.092 304.666 244.402 300.946 243.204C297.225 242.006 293.013 244.754 291.537 249.341C290.061 253.929 291.88 258.619 295.6 259.817C299.321 261.015 303.533 258.268 305.009 253.68Z" fill="#4B2C91"/>
<path d="M346.841 248.629C352.29 247.269 355.304 240.542 353.572 233.605C351.84 226.668 346.018 222.147 340.568 223.507C335.118 224.868 332.105 231.595 333.837 238.532C335.569 245.469 341.391 249.99 346.841 248.629Z" fill="#4B2C91"/>
<path d="M356.438 263.113C359.442 262.668 361.348 258.739 360.696 254.337C360.044 249.935 357.081 246.727 354.077 247.172C351.073 247.617 349.167 251.546 349.819 255.948C350.471 260.35 353.435 263.558 356.438 263.113Z" fill="#4B2C91"/>
<path d="M300.86 279H352.904V265.467H300.86V279Z" fill="#292A2E"/>
<path opacity="0.3" d="M300.86 279H352.904V265.467H300.86V279Z" fill="white"/>
<path d="M325.779 261.344C327.572 255.744 325.327 250.021 320.765 248.56C316.204 247.1 311.052 250.455 309.26 256.055C307.467 261.654 309.711 267.377 314.273 268.838C318.835 270.298 323.986 266.943 325.779 261.344Z" fill="#4B2C91"/>
<path d="M337.076 267.266C341.48 267.266 345.049 263.541 345.049 258.946C345.049 254.351 341.48 250.626 337.076 250.626C332.673 250.626 329.103 254.351 329.103 258.946C329.103 263.541 332.673 267.266 337.076 267.266Z" fill="#4B2C91"/>
<path opacity="0.68" d="M305.009 253.68C306.485 249.092 304.666 244.402 300.946 243.204C297.225 242.006 293.013 244.754 291.537 249.341C290.061 253.929 291.88 258.619 295.6 259.817C299.321 261.015 303.533 258.268 305.009 253.68Z" fill="white"/>
<path opacity="0.68" d="M346.841 248.629C352.29 247.269 355.304 240.542 353.572 233.605C351.84 226.668 346.018 222.147 340.568 223.507C335.118 224.868 332.105 231.595 333.837 238.532C335.569 245.469 341.391 249.99 346.841 248.629Z" fill="white"/>
<path opacity="0.68" d="M356.438 263.113C359.442 262.668 361.348 258.739 360.696 254.337C360.044 249.935 357.081 246.727 354.077 247.172C351.073 247.617 349.167 251.546 349.819 255.948C350.471 260.35 353.435 263.558 356.438 263.113Z" fill="white"/>
<path opacity="0.68" d="M325.779 261.344C327.572 255.744 325.327 250.021 320.765 248.56C316.204 247.1 311.052 250.455 309.26 256.055C307.467 261.654 309.711 267.377 314.273 268.838C318.835 270.298 323.986 266.943 325.779 261.344Z" fill="white"/>
<path opacity="0.4" d="M337.076 267.266C341.48 267.266 345.049 263.541 345.049 258.946C345.049 254.351 341.48 250.626 337.076 250.626C332.673 250.626 329.103 254.351 329.103 258.946C329.103 263.541 332.673 267.266 337.076 267.266Z" fill="white"/>
<path d="M311.468 251.942C317.52 253.706 320.705 248.546 320.705 248.546L320.701 248.539C317.473 247.534 313.894 248.947 311.468 251.942Z" fill="#292A2E"/>
<path d="M349.693 254.055C352.677 252.912 355.056 250.621 356.647 247.66C355.801 247.21 354.889 247.029 353.98 247.19C351.46 247.629 349.75 250.527 349.693 254.055Z" fill="#292A2E"/>
<path d="M335.655 250.76C338.121 252.999 341.008 254.415 343.973 254.767C342.589 252.291 340.019 250.628 337.079 250.628C336.591 250.628 336.116 250.673 335.655 250.76Z" fill="#292A2E"/>
<path d="M372.071 278.875H14.4077C14.1233 278.875 13.8926 278.634 13.8926 278.338C13.8926 278.041 14.1233 277.8 14.4077 277.8H372.071C372.356 277.8 372.587 278.041 372.587 278.338C372.587 278.634 372.356 278.875 372.071 278.875Z" fill="#292A2E"/>
<path d="M205.308 108.048L198.759 121.853L198.867 119.764C198.884 118.374 197.903 117.114 196.574 117.023C195.156 116.926 193.967 118.087 193.948 119.551L193.535 145.411L201.475 145.758C206.52 145.978 211.188 142.983 213.275 138.186L217.88 127.555C218.372 126.425 218.09 125.042 217.119 124.325C216.181 123.632 215.018 123.72 214.203 124.356C214.182 124.322 214.157 124.289 214.12 124.268C214.049 124.23 213.969 124.237 213.904 124.273L214.757 122.314C215.308 121.048 214.893 119.483 213.711 118.843C212.621 118.253 211.328 118.597 210.622 119.56C210.613 119.534 210.599 119.514 210.581 119.492L210.932 118.686C211.424 117.556 211.142 116.172 210.171 115.455C209.035 114.616 207.567 114.919 206.79 115.96C206.774 115.953 206.758 115.948 206.741 115.945L209.469 110.196C210.037 108.998 209.567 107.545 208.418 106.951C207.27 106.358 205.878 106.849 205.309 108.047L205.308 108.048Z" fill="#FF9E85"/>
<path opacity="0.2" d="M206.937 116.211C206.934 116.238 206.927 116.266 206.914 116.291L204.203 121.844C204.144 121.962 204.006 122.01 203.892 121.949C203.778 121.889 203.734 121.743 203.791 121.625L206.502 116.073C206.56 115.954 206.699 115.906 206.813 115.967C206.902 116.015 206.949 116.114 206.937 116.211H206.937Z" fill="#0A0A0A"/>
<path opacity="0.2" d="M210.64 119.67C210.637 119.696 210.63 119.723 210.618 119.748L208.52 124.129C208.463 124.248 208.324 124.297 208.209 124.237C208.095 124.177 208.048 124.033 208.105 123.913L210.204 119.532C210.261 119.413 210.399 119.365 210.514 119.424C210.604 119.471 210.652 119.571 210.64 119.67Z" fill="#0A0A0A"/>
<path opacity="0.2" d="M214.24 124.511C214.237 124.54 214.229 124.568 214.215 124.595L213.178 126.64C213.119 126.758 212.979 126.802 212.867 126.74C212.753 126.678 212.71 126.533 212.77 126.414L213.807 124.369C213.866 124.252 214.007 124.207 214.119 124.269C214.207 124.317 214.252 124.415 214.24 124.511Z" fill="#0A0A0A"/>
<path d="M189.58 128.226L170.158 186.354L138.593 143.278L109.058 169.033L163.623 229.836C165.535 232.121 168.044 233.913 171.008 234.922C179.765 237.902 189.179 232.909 192.035 223.771L218.63 138.174L189.58 128.226Z" fill="#6C3ECF"/>
<path d="M17.2138 253.018C12.0751 253.018 7.17632 250.556 3.97301 246.275C0.393282 241.491 -0.560667 235.115 1.45155 229.42C2.40228 226.729 24.783 163.393 29.0263 151.981L60.3544 164.664C57.9685 171.081 49.3243 195.402 42.3794 214.995L53.9166 213.686L57.5485 248.546L19.0313 252.915C18.4237 252.984 17.8166 253.018 17.2132 253.018L17.2138 253.018Z" fill="#6C3ECF"/>
<path d="M37.3497 251.227L32.2261 277.838H131.737L126.006 250.721L37.3497 251.227Z" fill="#262626"/>
<path d="M58.8652 132.304C50.5512 132.948 42.0738 135.767 35.8312 141.533C26.4154 150.231 27.2532 155.667 31.9535 179.751C35.9979 200.474 34.3933 209.53 37.0986 247.771C37.1782 248.897 37.3492 251.227 37.3492 251.227L126.287 251.074C126.287 251.074 134.62 200.338 139.222 176.938C142.721 159.148 151.911 137.551 113.162 133.198C113.059 133.187 81.9816 130.515 58.8652 132.304Z" fill="#6C3ECF"/>
<path d="M113.161 133.2C113.058 133.186 110.235 144.271 88.2054 142.546C72.954 141.353 69.235 130.521 68.8855 130.521C70.5299 130.156 73.2003 129.777 73.9306 129.37C76.3321 128.024 78.0814 126.385 78.9622 122.867C79.651 120.116 80.0016 109.526 80.0016 104.212L103.47 109.715C103.143 115.709 100.854 129.604 108.878 132.063C110.213 132.469 111.652 132.844 113.161 133.199V133.2Z" fill="#FF9E85"/>
<path d="M102.657 121.499C93.4052 122.261 81.5201 118.185 79.2626 105.304L77.2257 93.6822C74.9682 80.8018 79.6213 69.1226 91.2435 66.905C102.866 64.6868 113.383 73.4708 115.64 86.3512L116.542 91.4963C117.408 96.4387 119.164 120.14 102.657 121.499Z" fill="#FF9E85"/>
<path d="M111.236 109.674C109.575 100.966 108.813 95.1572 108.902 89.0281C111.241 84.7466 110.626 79.8328 110.094 77.7092C112.387 79.0143 113.345 79.1568 115.503 79.1568C115.503 79.1568 111.635 62.9564 98.4867 58.5969C96.069 57.615 89.8958 56.375 81.699 57.5478C74.7272 58.5453 57.5422 63.985 55.0868 84.1734H55.0858C55.0858 84.1734 55.0858 84.1793 55.0852 84.1852C55.004 84.8547 53.3542 103.456 50.0644 112.38C45.642 124.378 39.4338 128.106 39.5908 141.948C39.7935 159.754 71.1625 162.124 90.084 160.792C109.005 159.46 119.567 152.967 119.704 140.136C119.857 125.759 114.558 127.094 111.235 109.674H111.236Z" fill="#0A0A0A"/>
<path d="M111.242 102.375C107.71 103.049 104.155 99.6522 103.51 95.9666C102.864 92.2809 105.371 89.7019 108.903 89.0281L111.242 102.375Z" fill="#FF9E85"/>
<path d="M135.106 200.343C135.092 200.343 135.078 200.342 135.064 200.339C134.943 200.315 134.862 200.193 134.886 200.066L138.615 175.689C138.638 175.562 138.757 175.479 138.877 175.503C138.998 175.527 139.078 175.649 139.055 175.776L135.326 200.153C135.306 200.265 135.212 200.343 135.106 200.343Z" fill="#0C0C0C"/>
<path d="M37.3491 251.461C37.2292 251.461 37.1303 251.363 37.1254 251.237L34.3383 175.742C34.3335 175.613 34.4297 175.504 34.5534 175.499C34.6712 175.505 34.7814 175.594 34.7857 175.723L37.5728 251.218C37.5776 251.347 37.4814 251.456 37.3577 251.461H37.3491Z" fill="#0C0C0C"/>
</g>
<defs>
<clipPath id="clip0_389_2324">
<rect width="372.172" height="279" fill="white" transform="translate(0.413818)"/>
</clipPath>
</defs>
</svg>
