<svg width="346" height="279" viewBox="0 0 346 279" fill="none" xmlns="http://www.w3.org/2000/svg">
<g clip-path="url(#clip0_389_4435)">
<path d="M132.007 35.5498C133.696 30.6176 132.458 25.7264 129.241 24.6251C126.025 23.5237 122.049 26.6292 120.36 31.5614C118.671 36.4936 119.909 41.3848 123.125 42.4862C126.341 43.5875 130.318 40.482 132.007 35.5498Z" fill="#F4F4F4"/>
<path d="M120.554 31.5492C122.845 30.5166 123.422 26.8413 121.844 23.3403C120.266 19.8392 117.13 17.8382 114.839 18.8708C112.548 19.9034 111.971 23.5786 113.549 27.0797C115.127 30.5808 118.264 32.5818 120.554 31.5492Z" fill="#F4F4F4"/>
<path d="M116.223 39.6857H128.475C130.718 39.6857 132.539 41.5064 132.539 43.7491V49.3237C132.539 51.5664 130.718 53.3871 128.475 53.3871H116.223V39.6854V39.6857Z" fill="#F4F4F4"/>
<g opacity="0.05">
<path d="M116.223 39.6857H128.475C130.718 39.6857 132.539 41.5064 132.539 43.7491V49.3237C132.539 51.5664 130.718 53.3871 128.475 53.3871H116.223V39.6854V39.6857Z" fill="#292A2E"/>
</g>
<g opacity="0.05">
<path d="M130.973 30.2266C130.967 30.2266 130.963 30.2266 130.957 30.2257C130.907 30.2206 130.863 30.191 130.839 30.1462C130.776 30.0274 130.807 29.8974 130.83 29.8022C130.901 29.5063 130.882 29.1828 130.78 28.9095C130.75 28.8316 130.79 28.7445 130.869 28.7149C130.946 28.6858 131.034 28.7251 131.063 28.8037C131.162 29.0673 131.196 29.3693 131.163 29.658C131.344 29.4948 131.541 29.3584 131.746 29.2554C131.82 29.2179 131.911 29.2475 131.949 29.3225C131.987 29.3968 131.957 29.4878 131.882 29.5253C131.592 29.6713 131.318 29.895 131.089 30.1716C131.06 30.2064 131.018 30.2266 130.973 30.2266Z" fill="#292A2E"/>
<path d="M126.392 26.6279C126.372 26.6279 126.353 26.624 126.334 26.6164C126.211 26.5656 126.153 26.4444 126.111 26.3561C125.981 26.0817 125.766 25.8459 125.518 25.7035C125.446 25.6618 125.42 25.5696 125.462 25.497C125.504 25.4245 125.596 25.4 125.668 25.4411C125.908 25.5789 126.122 25.7875 126.276 26.0303C126.314 25.786 126.381 25.552 126.474 25.3389C126.508 25.2624 126.597 25.2286 126.673 25.2609C126.75 25.2942 126.784 25.3834 126.751 25.4598C126.619 25.763 126.546 26.1152 126.543 26.478C126.542 26.5281 126.517 26.5747 126.475 26.6025C126.45 26.6191 126.421 26.6279 126.392 26.6279Z" fill="#292A2E"/>
<path d="M122.528 31.5027C122.508 31.5027 122.489 31.4987 122.471 31.4915C122.347 31.441 122.29 31.321 122.248 31.2333C122.117 30.9564 121.902 30.7209 121.654 30.5782C121.581 30.5365 121.556 30.4443 121.598 30.3718C121.639 30.2992 121.732 30.2744 121.804 30.3159C122.044 30.4537 122.258 30.6623 122.412 30.9053C122.45 30.6608 122.517 30.4271 122.61 30.2137C122.643 30.1372 122.733 30.1034 122.809 30.1357C122.885 30.1689 122.92 30.2581 122.887 30.3346C122.754 30.6381 122.682 30.99 122.679 31.3524C122.679 31.4026 122.653 31.4491 122.611 31.477C122.586 31.4939 122.557 31.5027 122.528 31.5027Z" fill="#292A2E"/>
<path d="M126.629 30.7657C126.609 30.7657 126.59 30.7618 126.571 30.7545C126.447 30.7038 126.39 30.5831 126.348 30.4949C126.218 30.2195 126.002 29.984 125.754 29.8413C125.682 29.7996 125.657 29.7071 125.699 29.6345C125.74 29.562 125.832 29.5378 125.906 29.5789C126.145 29.7168 126.359 29.9254 126.513 30.1681C126.551 29.9238 126.617 29.6899 126.711 29.4768C126.744 29.4003 126.834 29.3661 126.91 29.3988C126.986 29.432 127.021 29.5212 126.988 29.5977C126.855 29.9012 126.783 30.253 126.78 30.6155C126.78 30.6657 126.754 30.7122 126.712 30.74C126.687 30.757 126.658 30.7657 126.629 30.7657Z" fill="#292A2E"/>
<path d="M129.238 35.0268C129.214 35.0268 129.191 35.021 129.169 35.0101C129.124 34.9872 129.094 34.9433 129.088 34.8934C129.072 34.7601 129.147 34.651 129.202 34.5712C129.374 34.3215 129.472 34.0138 129.475 33.7212C129.475 33.638 129.543 33.5712 129.626 33.5712H129.627C129.71 33.5718 129.778 33.6401 129.777 33.7236C129.775 34.0074 129.697 34.3034 129.562 34.5609C129.79 34.4763 130.024 34.4228 130.252 34.4034C130.334 34.3971 130.409 34.4578 130.416 34.5413C130.423 34.6244 130.361 34.6979 130.278 34.7045C129.956 34.7317 129.621 34.8366 129.311 35.0077C129.288 35.0204 129.263 35.0265 129.238 35.0265L129.238 35.0268Z" fill="#292A2E"/>
<path d="M122.874 37.653C122.853 37.653 122.832 37.6485 122.812 37.6397C122.69 37.5847 122.636 37.462 122.597 37.3722C122.475 37.0938 122.267 36.8513 122.024 36.7011C121.952 36.657 121.93 36.5639 121.974 36.4931C122.018 36.4221 122.112 36.4009 122.182 36.4439C122.417 36.5893 122.625 36.8045 122.772 37.0521C122.817 36.8093 122.89 36.5778 122.99 36.3671C123.026 36.2915 123.117 36.2604 123.192 36.2954C123.267 36.3314 123.299 36.4215 123.264 36.4971C123.121 36.7957 123.039 37.1455 123.025 37.5079C123.023 37.5581 122.996 37.604 122.954 37.6303C122.929 37.6455 122.902 37.653 122.874 37.653H122.874Z" fill="#292A2E"/>
<path d="M126.66 39.0563C126.655 39.0563 126.65 39.0563 126.644 39.0554C126.594 39.0502 126.55 39.0203 126.526 38.9756C126.464 38.8574 126.494 38.728 126.517 38.6334C126.588 38.3353 126.569 38.0119 126.467 37.7392C126.437 37.6609 126.477 37.5738 126.555 37.5445C126.633 37.5146 126.721 37.5548 126.75 37.6328C126.849 37.8964 126.883 38.1987 126.85 38.4877C127.031 38.3241 127.228 38.1878 127.433 38.0847C127.507 38.0472 127.598 38.0769 127.636 38.1518C127.673 38.2262 127.643 38.3172 127.569 38.3547C127.279 38.5007 127.005 38.7244 126.777 39.0013C126.748 39.036 126.705 39.0563 126.66 39.0563Z" fill="#292A2E"/>
</g>
<g opacity="0.05">
<path d="M119.871 24.6334C119.866 24.6334 119.861 24.6334 119.856 24.6325C119.805 24.6273 119.761 24.5977 119.737 24.553C119.674 24.4342 119.706 24.3042 119.729 24.209C119.799 23.913 119.781 23.5896 119.678 23.3163C119.649 23.2383 119.689 23.1513 119.767 23.1216C119.844 23.0923 119.932 23.1322 119.962 23.2105C120.06 23.4741 120.095 23.7761 120.061 24.0648C120.243 23.9015 120.439 23.7652 120.645 23.6621C120.719 23.6249 120.81 23.6543 120.847 23.7292C120.885 23.8036 120.855 23.8946 120.78 23.9321C120.49 24.0781 120.216 24.3018 119.988 24.5784C119.959 24.6131 119.916 24.6334 119.871 24.6334Z" fill="#292A2E"/>
<path d="M116.693 21.2499C116.674 21.2499 116.654 21.2459 116.636 21.2387C116.512 21.1879 116.455 21.0673 116.413 20.979C116.282 20.7036 116.067 20.4681 115.819 20.3254C115.747 20.2837 115.722 20.1912 115.763 20.1187C115.806 20.0464 115.897 20.0219 115.97 20.0631C116.21 20.2009 116.423 20.4095 116.578 20.6522C116.616 20.408 116.682 20.174 116.775 19.9609C116.809 19.8844 116.898 19.8502 116.974 19.8829C117.051 19.9161 117.086 20.0053 117.052 20.0818C116.92 20.3853 116.848 20.7372 116.845 21.0996C116.845 21.1498 116.819 21.1963 116.777 21.2242C116.752 21.2411 116.722 21.2499 116.693 21.2499Z" fill="#292A2E"/>
<path d="M116.184 24.8495C116.165 24.8495 116.145 24.8456 116.126 24.838C116.003 24.7873 115.945 24.666 115.903 24.5778C115.773 24.3033 115.558 24.0675 115.31 23.9251C115.238 23.8834 115.213 23.7912 115.254 23.7187C115.296 23.6461 115.389 23.6216 115.461 23.6627C115.701 23.8006 115.914 24.0092 116.069 24.2519C116.106 24.0076 116.173 23.7737 116.266 23.5606C116.3 23.4841 116.389 23.4496 116.465 23.4826C116.542 23.5158 116.577 23.605 116.543 23.6815C116.411 23.9847 116.338 24.3368 116.335 24.6996C116.335 24.7498 116.309 24.7963 116.267 24.8241C116.242 24.8408 116.213 24.8495 116.184 24.8495Z" fill="#292A2E"/>
<path d="M118.794 29.1109C118.77 29.1109 118.746 29.1052 118.724 29.094C118.68 29.071 118.649 29.0272 118.643 28.977C118.627 28.8443 118.703 28.7349 118.758 28.6554C118.93 28.4057 119.028 28.098 119.03 27.8053C119.031 27.7225 119.099 27.6557 119.182 27.6557H119.183C119.266 27.6566 119.334 27.7249 119.333 27.8084C119.33 28.0922 119.253 28.3882 119.117 28.6454C119.346 28.5605 119.579 28.507 119.808 28.4879C119.883 28.4803 119.965 28.5426 119.971 28.6261C119.978 28.7089 119.916 28.7823 119.833 28.789C119.512 28.8156 119.178 28.9208 118.866 29.0922C118.843 29.1049 118.818 29.1109 118.793 29.1109H118.794Z" fill="#292A2E"/>
<path d="M115.632 28.1723C115.513 28.1723 115.417 28.0998 115.346 28.0457C115.105 27.8634 114.809 27.7567 114.526 27.7479C114.442 27.7452 114.377 27.6754 114.379 27.5919C114.382 27.5085 114.452 27.4396 114.536 27.4456C114.812 27.4544 115.097 27.539 115.345 27.682C115.267 27.4459 115.219 27.2047 115.206 26.9692C115.201 26.8861 115.265 26.8144 115.348 26.8099C115.441 26.802 115.503 26.8688 115.508 26.9523C115.527 27.2842 115.622 27.6303 115.783 27.9535C115.805 27.9976 115.804 28.0502 115.78 28.0937C115.756 28.1373 115.712 28.166 115.663 28.1711C115.653 28.1723 115.642 28.1729 115.632 28.1729V28.1723Z" fill="#292A2E"/>
</g>
<path d="M74.6141 53.0796L108.323 53.0796V43.4063H74.6141V53.0796Z" fill="#F4F4F4"/>
<path opacity="0.05" d="M74.6141 53.0796L108.323 53.0796V43.4063H74.6141V53.0796Z" fill="#292A2E"/>
<path d="M79.1401 53.0797H83.5571V43.4063H79.1401V53.0797Z" fill="white"/>
<path d="M85.6495 50.9772H104.015V45.2449H85.6495V50.9772Z" fill="white"/>
<path d="M66.5779 43.4157L99.8232 43.4157V33.7424H66.5779V43.4157Z" fill="#F4F4F4"/>
<path opacity="0.05" d="M91.0026 43.4157H95.3589V33.7424H91.0026V43.4157Z" fill="#292A2E"/>
<path d="M70.826 41.3133H88.939V35.5809H70.826V41.3133Z" fill="white"/>
<path d="M50.3444 53.0794L72.2439 27.4538L64.8901 21.1693L42.9906 46.7949L50.3444 53.0794Z" fill="#F4F4F4"/>
<path opacity="0.05" d="M53.2849 49.6381L56.1545 46.2802L48.8008 39.9957L45.9311 43.3536L53.2849 49.6381Z" fill="#292A2E"/>
<path opacity="0.05" d="M55.9157 43.324L67.8472 29.3624L63.4894 25.6382L51.5579 39.5998L55.9157 43.324Z" fill="#292A2E"/>
<path d="M136.05 52.903H38.7207V56.7276H136.05V52.903Z" fill="#F4F4F4"/>
<path d="M287.435 0.302307H160.276C157.561 0.302307 155.361 2.50294 155.361 5.21756V154.933C155.361 157.648 157.561 159.849 160.276 159.849H287.435C290.149 159.849 292.35 157.648 292.35 154.933V5.21756C292.35 2.50294 290.149 0.302307 287.435 0.302307Z" fill="white"/>
<path d="M287.434 160.151H160.276C157.399 160.151 155.058 157.81 155.058 154.933V5.21754C155.058 2.34064 157.399 0 160.276 0H287.434C290.311 0 292.652 2.34064 292.652 5.21754V154.933C292.652 157.81 290.311 160.151 287.434 160.151ZM160.276 0.604582C157.732 0.604582 155.663 2.67407 155.663 5.21754V154.933C155.663 157.477 157.732 159.546 160.276 159.546H287.434C289.978 159.546 292.047 157.477 292.047 154.933V5.21754C292.047 2.67407 289.978 0.604582 287.434 0.604582H160.276Z" fill="#292A2E"/>
<path d="M238.252 24.4408C239.879 24.4408 241.199 23.1217 241.199 21.4944C241.199 19.8671 239.879 18.548 238.252 18.548C236.625 18.548 235.306 19.8671 235.306 21.4944C235.306 23.1217 236.625 24.4408 238.252 24.4408Z" fill="#63C69E"/>
<path d="M238.252 24.4408C239.879 24.4408 241.199 23.1217 241.199 21.4944C241.199 19.8671 239.879 18.548 238.252 18.548C236.625 18.548 235.306 19.8671 235.306 21.4944C235.306 23.1217 236.625 24.4408 238.252 24.4408Z" fill="#63C69E"/>
<path d="M238.252 39.4599C239.879 39.4599 241.199 38.1407 241.199 36.5134C241.199 34.8862 239.879 33.567 238.252 33.567C236.625 33.567 235.306 34.8862 235.306 36.5134C235.306 38.1407 236.625 39.4599 238.252 39.4599Z" fill="#292A2E"/>
<path opacity="0.5" d="M238.252 54.4789C239.879 54.4789 241.199 53.1597 241.199 51.5324C241.199 49.9052 239.879 48.586 238.252 48.586C236.625 48.586 235.306 49.9052 235.306 51.5324C235.306 53.1597 236.625 54.4789 238.252 54.4789Z" fill="#63C69E"/>
<path opacity="0.2" d="M238.252 69.4979C239.879 69.4979 241.199 68.1787 241.199 66.5515C241.199 64.9242 239.879 63.605 238.252 63.605C236.625 63.605 235.306 64.9242 235.306 66.5515C235.306 68.1787 236.625 69.4979 238.252 69.4979Z" fill="#63C69E"/>
<path d="M179.766 44.0229C179.766 51.5817 184.602 58.0114 191.348 60.3926L186.586 72.0069C175.274 67.7473 167.226 56.8225 167.226 44.0229C167.226 27.5124 180.613 14.1254 197.124 14.1254V26.6648C187.539 26.6648 179.766 34.4345 179.766 44.0229Z" fill="#292A2E"/>
<path d="M227.022 44.0229H214.482C214.482 34.4345 206.709 26.6648 197.124 26.6648V14.1254C213.635 14.1254 227.022 27.5124 227.022 44.0229Z" fill="#63C69E"/>
<path opacity="0.5" d="M227.021 44.0229C227.021 58.2505 217.081 70.1568 203.772 73.1782L201.647 60.7831C209.041 58.7922 214.482 52.0427 214.482 44.0229H227.021Z" fill="#63C69E"/>
<path opacity="0.2" d="M203.771 73.1783C201.632 73.6638 199.406 73.9204 197.123 73.9204C193.412 73.9204 189.863 73.2451 186.585 72.0069L191.348 60.3926C193.152 61.0292 195.097 61.3774 197.123 61.3774C198.689 61.3774 200.205 61.1701 201.647 60.7831L203.771 73.1783Z" fill="#63C69E"/>
<path d="M279.239 21.7081H245.109C244.991 21.7081 244.896 21.6123 244.896 21.4944C244.896 21.3765 244.991 21.2806 245.109 21.2806H279.239C279.357 21.2806 279.453 21.3765 279.453 21.4944C279.453 21.6123 279.357 21.7081 279.239 21.7081Z" fill="#63C69E"/>
<path d="M279.239 36.7272H245.109C244.991 36.7272 244.896 36.6314 244.896 36.5135C244.896 36.3956 244.991 36.2997 245.109 36.2997H279.239C279.357 36.2997 279.453 36.3956 279.453 36.5135C279.453 36.6314 279.357 36.7272 279.239 36.7272Z" fill="#292A2E"/>
<g opacity="0.5">
<path d="M279.239 51.7461H245.109C244.991 51.7461 244.896 51.6503 244.896 51.5324C244.896 51.4145 244.991 51.3187 245.109 51.3187H279.239C279.357 51.3187 279.453 51.4145 279.453 51.5324C279.453 51.6503 279.357 51.7461 279.239 51.7461Z" fill="#63C69E"/>
</g>
<g opacity="0.2">
<path d="M279.239 66.7652H245.109C244.991 66.7652 244.896 66.6694 244.896 66.5515C244.896 66.4336 244.991 66.3378 245.109 66.3378H279.239C279.357 66.3378 279.453 66.4336 279.453 66.5515C279.453 66.6694 279.357 66.7652 279.239 66.7652Z" fill="#63C69E"/>
</g>
<g opacity="0.1">
<path d="M279.387 148.392H168.323C166.315 148.392 164.681 146.758 164.681 144.75V88.4814C164.681 86.4733 166.315 84.8394 168.323 84.8394H279.387C281.395 84.8394 283.029 86.4733 283.029 88.4814V144.75C283.029 146.758 281.395 148.392 279.387 148.392Z" fill="#63C69E"/>
</g>
<path opacity="0.5" d="M179.82 97.6028H177.658C177.332 97.6028 177.068 97.8666 177.068 98.1919V139.497C177.068 139.823 177.332 140.086 177.658 140.086H179.82C180.145 140.086 180.409 139.823 180.409 139.497V98.1919C180.409 97.8666 180.145 97.6028 179.82 97.6028Z" fill="#63C69E"/>
<path d="M176.479 110.946H174.317C173.992 110.946 173.728 111.21 173.728 111.535V139.498C173.728 139.823 173.992 140.087 174.317 140.087H176.479C176.805 140.087 177.068 139.823 177.068 139.498V111.535C177.068 111.21 176.805 110.946 176.479 110.946Z" fill="#63C69E"/>
<path opacity="0.5" d="M206.555 134.711H204.393C204.067 134.711 203.804 134.975 203.804 135.3V139.497C203.804 139.823 204.067 140.087 204.393 140.087H206.555C206.881 140.087 207.144 139.823 207.144 139.497V135.3C207.144 134.975 206.881 134.711 206.555 134.711Z" fill="#63C69E"/>
<path d="M203.214 108.547H201.052C200.727 108.547 200.463 108.811 200.463 109.136V139.497C200.463 139.823 200.727 140.086 201.052 140.086H203.214C203.54 140.086 203.804 139.823 203.804 139.497V109.136C203.804 108.811 203.54 108.547 203.214 108.547Z" fill="#63C69E"/>
<path opacity="0.5" d="M193.188 114.657H191.026C190.701 114.657 190.437 114.921 190.437 115.246V139.497C190.437 139.823 190.701 140.086 191.026 140.086H193.188C193.514 140.086 193.778 139.823 193.778 139.497V115.246C193.778 114.921 193.514 114.657 193.188 114.657Z" fill="#63C69E"/>
<path d="M189.848 123.443H187.685C187.36 123.443 187.096 123.707 187.096 124.033V139.497C187.096 139.823 187.36 140.086 187.685 140.086H189.848C190.173 140.086 190.437 139.823 190.437 139.497V124.033C190.437 123.707 190.173 123.443 189.848 123.443Z" fill="#63C69E"/>
<path opacity="0.5" d="M246.658 105.819H244.496C244.171 105.819 243.907 106.083 243.907 106.409V139.498C243.907 139.823 244.171 140.087 244.496 140.087H246.658C246.984 140.087 247.247 139.823 247.247 139.498V106.409C247.247 106.083 246.984 105.819 246.658 105.819Z" fill="#63C69E"/>
<path d="M243.318 118.435H241.155C240.83 118.435 240.566 118.699 240.566 119.025V139.498C240.566 139.823 240.83 140.087 241.155 140.087H243.318C243.643 140.087 243.907 139.823 243.907 139.498V119.025C243.907 118.699 243.643 118.435 243.318 118.435Z" fill="#63C69E"/>
<path opacity="0.5" d="M219.924 111.164H217.761C217.436 111.164 217.172 111.428 217.172 111.754V139.497C217.172 139.823 217.436 140.086 217.761 140.086H219.924C220.249 140.086 220.513 139.823 220.513 139.497V111.754C220.513 111.428 220.249 111.164 219.924 111.164Z" fill="#63C69E"/>
<path d="M216.583 114.439H214.42C214.095 114.439 213.831 114.703 213.831 115.028V139.497C213.831 139.823 214.095 140.086 214.42 140.086H216.583C216.908 140.086 217.172 139.823 217.172 139.497V115.028C217.172 114.703 216.908 114.439 216.583 114.439Z" fill="#63C69E"/>
<path opacity="0.5" d="M233.29 97.6028H231.127C230.802 97.6028 230.538 97.8666 230.538 98.1919V139.497C230.538 139.823 230.802 140.086 231.127 140.086H233.29C233.615 140.086 233.879 139.823 233.879 139.497V98.1919C233.879 97.8666 233.615 97.6028 233.29 97.6028Z" fill="#63C69E"/>
<path d="M229.949 99.6493H227.787C227.462 99.6493 227.198 99.9131 227.198 100.238V139.497C227.198 139.823 227.462 140.086 227.787 140.086H229.949C230.275 140.086 230.538 139.823 230.538 139.497V100.238C230.538 99.9131 230.275 99.6493 229.949 99.6493Z" fill="#63C69E"/>
<path opacity="0.5" d="M260.025 97.6028H257.863C257.537 97.6028 257.273 97.8665 257.273 98.1919V139.497C257.273 139.823 257.537 140.086 257.863 140.086H260.025C260.35 140.086 260.614 139.823 260.614 139.497V98.1919C260.614 97.8665 260.35 97.6028 260.025 97.6028Z" fill="#63C69E"/>
<path d="M256.684 110.946H254.522C254.197 110.946 253.933 111.21 253.933 111.535V139.498C253.933 139.823 254.197 140.087 254.522 140.087H256.684C257.01 140.087 257.273 139.823 257.273 139.498V111.535C257.273 111.21 257.01 110.946 256.684 110.946Z" fill="#63C69E"/>
<path opacity="0.5" d="M273.392 114.657H271.229C270.904 114.657 270.64 114.921 270.64 115.246V139.497C270.64 139.823 270.904 140.086 271.229 140.086H273.392C273.717 140.086 273.981 139.823 273.981 139.497V115.246C273.981 114.921 273.717 114.657 273.392 114.657Z" fill="#63C69E"/>
<path d="M270.051 123.443H267.889C267.563 123.443 267.3 123.707 267.3 124.033V139.497C267.3 139.823 267.563 140.086 267.889 140.086H270.051C270.376 140.086 270.64 139.823 270.64 139.497V124.033C270.64 123.707 270.376 123.443 270.051 123.443Z" fill="#63C69E"/>
<path d="M92.1684 278.691L91.5747 278.577L100.854 186.369L101.447 186.483L92.1684 278.691Z" fill="#494949"/>
<path d="M126.721 278.691L126.127 278.577L135.406 186.369L136 186.483L126.721 278.691Z" fill="#494949"/>
<path d="M203.093 278.691L203.686 278.577L194.407 186.369L193.813 186.483L203.093 278.691Z" fill="#494949"/>
<path d="M168.541 278.691L169.135 278.577L159.856 186.369L159.262 186.483L168.541 278.691Z" fill="#494949"/>
<path d="M156.237 145.788L155.637 145.868L161.058 186.468L161.657 186.388L156.237 145.788Z" fill="#494949"/>
<path d="M94.0173 145.788L93.4177 145.868L98.8384 186.467L99.4381 186.387L94.0173 145.788Z" fill="#494949"/>
<path d="M161.606 183.453H100.748C99.1065 183.453 97.7754 184.784 97.7754 186.426V186.426C97.7754 188.068 99.1065 189.399 100.748 189.399H161.606C163.248 189.399 164.579 188.068 164.579 186.426V186.426C164.579 184.784 163.248 183.453 161.606 183.453Z" fill="#292A2E"/>
<path opacity="0.8" d="M161.606 183.453H100.748C99.1065 183.453 97.7754 184.784 97.7754 186.426V186.426C97.7754 188.068 99.1065 189.399 100.748 189.399H161.606C163.248 189.399 164.579 188.068 164.579 186.426V186.426C164.579 184.784 163.248 183.453 161.606 183.453Z" fill="white"/>
<path d="M161.605 189.701H100.748C98.9418 189.701 97.4727 188.232 97.4727 186.426C97.4727 184.62 98.9418 183.151 100.748 183.151H161.605C163.411 183.151 164.881 184.62 164.881 186.426C164.881 188.232 163.411 189.701 161.605 189.701ZM100.748 183.755C99.2752 183.755 98.0772 184.953 98.0772 186.426C98.0772 187.899 99.2752 189.097 100.748 189.097H161.605C163.078 189.097 164.276 187.899 164.276 186.426C164.276 184.953 163.078 183.755 161.605 183.755H100.748Z" fill="#292A2E"/>
<path d="M195.008 183.453H134.151C132.509 183.453 131.178 184.784 131.178 186.426V186.426C131.178 188.068 132.509 189.399 134.151 189.399H195.008C196.65 189.399 197.981 188.068 197.981 186.426V186.426C197.981 184.784 196.65 183.453 195.008 183.453Z" fill="white"/>
<path d="M195.007 189.701H134.15C132.344 189.701 130.875 188.232 130.875 186.426C130.875 184.62 132.344 183.151 134.15 183.151H195.007C196.813 183.151 198.283 184.62 198.283 186.426C198.283 188.232 196.813 189.701 195.007 189.701ZM134.15 183.755C132.678 183.755 131.48 184.953 131.48 186.426C131.48 187.899 132.678 189.097 134.15 189.097H195.007C196.48 189.097 197.678 187.899 197.678 186.426C197.678 184.953 196.48 183.755 195.007 183.755H134.15Z" fill="#292A2E"/>
<path d="M152.902 145.827H93.881C91.885 145.827 90.1985 144.346 89.9406 142.367L86.0366 112.385C85.727 110.007 87.5785 107.899 89.9769 107.899H148.998C150.994 107.899 152.681 109.38 152.939 111.359L156.843 141.34C157.152 143.718 155.301 145.827 152.902 145.827Z" fill="#292A2E"/>
<path opacity="0.8" d="M152.902 145.827H93.881C91.885 145.827 90.1985 144.346 89.9406 142.367L86.0366 112.385C85.727 110.007 87.5785 107.899 89.9769 107.899H148.998C150.994 107.899 152.681 109.38 152.939 111.359L156.843 141.34C157.152 143.718 155.301 145.827 152.902 145.827Z" fill="white"/>
<path d="M152.903 146.129H93.8814C91.7406 146.129 89.9178 144.528 89.6415 142.406L85.7374 112.424C85.5787 111.205 85.953 109.975 86.7646 109.051C87.5763 108.127 88.7473 107.597 89.9774 107.597H148.999C151.14 107.597 152.962 109.197 153.239 111.32L157.143 141.302C157.301 142.521 156.927 143.751 156.116 144.675C155.304 145.6 154.133 146.13 152.903 146.13V146.129ZM89.9774 108.201C88.9212 108.201 87.9157 108.656 87.219 109.45C86.5219 110.243 86.2005 111.299 86.3372 112.346L90.2413 142.328C90.4786 144.15 92.0435 145.525 93.8818 145.525H152.903C153.959 145.525 154.965 145.069 155.662 144.276C156.359 143.482 156.68 142.426 156.544 141.379L152.64 111.398C152.402 109.575 150.837 108.201 148.999 108.201H89.9777L89.9774 108.201Z" fill="#292A2E"/>
<path d="M156.24 145.827H97.2184C95.2224 145.827 93.5359 144.346 93.278 142.367L89.374 112.385C89.0644 110.007 90.9159 107.899 93.3143 107.899H152.336C154.332 107.899 156.018 109.38 156.276 111.359L160.18 141.34C160.49 143.718 158.638 145.827 156.24 145.827Z" fill="white"/>
<path d="M156.24 146.129H97.2189C95.078 146.129 93.2552 144.528 92.9789 142.406L89.0748 112.424C88.9161 111.205 89.2904 109.975 90.102 109.051C90.9137 108.127 92.0847 107.597 93.3148 107.597H152.336C154.477 107.597 156.3 109.197 156.576 111.32L160.48 141.302C160.639 142.521 160.265 143.751 159.453 144.675C158.641 145.6 157.47 146.13 156.24 146.13V146.129ZM93.3148 108.201C92.2586 108.201 91.2531 108.656 90.5564 109.45C89.8593 110.243 89.5379 111.299 89.6743 112.347L93.5784 142.328C93.8157 144.15 95.3806 145.525 97.2189 145.525H156.24C157.296 145.525 158.302 145.07 158.999 144.276C159.696 143.483 160.017 142.427 159.881 141.38L155.977 111.398C155.739 109.576 154.174 108.201 152.336 108.201H93.3148Z" fill="#292A2E"/>
<path d="M199.758 262.935C199.758 262.935 201.379 271.337 209.246 271.805C217.112 272.273 215.406 278.54 215.406 278.54H185.345V263.521L199.759 262.935L199.758 262.935Z" fill="#63C69E"/>
<path d="M169.763 257.63C169.763 257.63 167.509 265.885 174.361 269.777C181.213 273.67 176.916 278.54 176.916 278.54L149.942 265.271L156.571 251.794L169.763 257.63Z" fill="#63C69E"/>
<path d="M153.056 255.299L181.849 183.538H146.663C138.381 183.538 134.927 176.514 134.927 168.232C134.927 159.95 143.07 152.69 151.352 152.69H200.955C206.006 152.69 211.671 155.779 214.443 160.002C217.216 164.225 216.467 170.769 214.458 175.404L171.987 263.875" fill="#262626"/>
<path opacity="0.8" d="M153.056 255.299L181.849 183.538H146.663C138.381 183.538 134.927 176.514 134.927 168.232C134.927 159.95 143.07 152.69 151.352 152.69H200.955C206.006 152.69 211.671 155.779 214.443 160.002C217.216 164.225 216.467 170.769 214.458 175.404L171.987 263.875" fill="#0A0A0A"/>
<path d="M182.994 268.958L166.73 183.538L134.927 183.535C123.225 182.617 117.865 176.204 118.035 167.924C118.203 159.748 122.343 151.673 130.482 151.673H179.655C185.677 151.797 192.648 157.493 192.648 164.045L205.215 267.965" fill="#262626"/>
<path d="M114.629 151.774C114.629 151.774 112.412 166.237 115.927 174.278C120.316 184.317 136.769 183.535 136.769 183.535L135.842 151.674L114.629 151.774Z" fill="#262626"/>
<path d="M122.101 61.6251C122.571 72.4879 120.756 76.4428 118.421 83.3982C116.364 89.5262 134.889 83.9544 144.503 82.663L137.135 57.6917C137.135 57.6917 121.936 57.8104 122.101 61.6251Z" fill="#0A0A0A"/>
<path d="M155.571 58.8122C157.938 69.4244 158.115 71.1614 162.057 77.8907C165.129 83.1333 149.292 83.3317 139.672 84.5819L140.301 58.5538C140.301 58.5538 154.739 55.0859 155.571 58.8122Z" fill="#0A0A0A"/>
<path d="M112.185 150.139L112.121 150.142C112.121 150.142 112.168 148.91 112.185 150.139Z" fill="#333333"/>
<path d="M112.265 150.139L112.201 150.142C112.201 150.142 112.248 148.91 112.265 150.139Z" fill="#333333"/>
<path d="M219.332 91.501C219.074 90.9956 218.549 90.7555 218.044 90.819C218.044 90.7964 218.044 90.7731 218.03 90.7528C218.005 90.7181 217.966 90.7081 217.926 90.7108L218.8 90.0845C219.328 89.706 219.544 88.9868 219.233 88.4164C218.91 87.8248 218.213 87.6111 217.636 87.8514C217.638 87.839 217.63 87.8273 217.628 87.8146L217.987 87.5573C218.484 87.2012 218.698 86.5389 218.442 85.9839C218.098 85.2372 217.187 85.0214 216.553 85.4757L215.724 86.0694C215.722 86.0646 215.724 86.0589 215.721 86.0543C215.717 86.0483 215.709 86.0483 215.704 86.0431C216.087 85.6115 216.138 84.9585 215.787 84.4697C215.396 83.8403 214.493 83.9691 213.958 84.353L209.081 87.7211L209.953 86.2538C210.302 85.6656 210.175 84.8763 209.606 84.4966C208.999 84.0915 208.184 84.282 207.816 84.9014L203.057 92.913C201.897 94.8673 202.501 97.3902 204.421 98.6063C206.613 99.9939 209.426 99.9131 211.534 98.402L218.898 93.124C219.384 92.7758 219.603 92.0336 219.332 91.501Z" fill="#FF9E85"/>
<g opacity="0.25">
<path d="M210.897 89.3982C210.934 89.4493 211.006 89.4617 211.058 89.4255L215.691 86.2163C215.744 86.1798 215.757 86.1072 215.721 86.054C215.69 86.0014 215.611 85.9878 215.558 86.0247L210.925 89.2338C210.872 89.2704 210.859 89.3429 210.896 89.3961L210.897 89.3982Z" fill="#0C0C0C"/>
</g>
<g opacity="0.25">
<path d="M212.256 91.4808C212.293 91.5319 212.365 91.5443 212.417 91.508L217.587 87.9267C217.64 87.8902 217.653 87.8176 217.617 87.7644C217.583 87.7163 217.507 87.6985 217.454 87.7351L212.284 91.3163C212.231 91.3529 212.218 91.4255 212.255 91.4787L212.256 91.4808Z" fill="#0C0C0C"/>
</g>
<g opacity="0.25">
<path d="M213.715 93.7445C213.752 93.7956 213.823 93.808 213.875 93.7717L218 90.9151C218.053 90.8785 218.066 90.806 218.029 90.7528C217.991 90.7002 217.92 90.6869 217.867 90.7234L213.742 93.5801C213.689 93.6167 213.676 93.6892 213.713 93.7424L213.715 93.7445Z" fill="#0C0C0C"/>
</g>
<path d="M209.081 87.7209L209.953 86.2536C210.302 85.6653 210.175 84.876 209.606 84.4963C208.999 84.0913 208.184 84.2817 207.816 84.9011L203.057 92.9127" fill="#FF9E85"/>
<path d="M200.249 91.0884L186.273 114.891L169.22 92.5231L155.058 105.291L179.243 136.613L179.401 136.836C180.245 137.995 181.36 138.983 182.714 139.694C187.438 142.179 193.283 140.363 195.768 135.639L215.641 99.6493L200.248 91.089L200.249 91.0884Z" fill="#63C69E"/>
<path d="M184.904 117.753C184.876 117.753 184.849 117.746 184.823 117.733C184.736 117.689 184.701 117.582 184.746 117.494L186.116 114.81C186.16 114.722 186.267 114.688 186.354 114.732C186.442 114.777 186.477 114.884 186.432 114.971L185.062 117.656C185.031 117.717 184.968 117.753 184.904 117.753Z" fill="#0C0C0C"/>
<path d="M168.237 114.755L167.81 122.273L168.165 122.293L168.591 114.775L168.237 114.755Z" fill="#0C0C0C"/>
<path d="M152.75 87.4382C152.69 87.4304 152.026 98.4428 139.233 97.4828C130.376 96.8192 127.218 87.4228 127.016 87.4228C127.971 87.22 129.578 86.9247 130.003 86.6985C131.397 85.9492 133.123 85.1695 133.572 82.4613C133.831 80.9003 133.392 72.9147 133.527 71.3355L147.122 74.3699C146.932 77.7054 145.603 85.438 150.263 86.8068C151.038 87.0332 151.873 87.2412 152.75 87.4388L152.75 87.4382Z" fill="#FF9E85"/>
<path opacity="0.52" d="M147.312 83.6457C147.119 83.0312 147.004 82.4967 146.903 81.5357C146.721 79.8175 146.817 78.2377 146.991 76.6283C144.245 76.2629 141.608 75.1075 139.478 73.3364C139.225 74.2687 137.837 78.3423 138.221 79.2283C138.948 80.9033 142.362 83.6457 147.312 83.6457Z" fill="#0C0C0C"/>
<path d="M145.208 80.1799C139.842 80.6364 133.537 78.4124 132.183 71.2584L130.659 64.8033C129.305 57.6493 131.965 51.1389 138.701 49.8641C145.437 48.5893 151.569 53.436 152.923 60.59L153.464 63.4478C153.983 66.1926 154.781 79.3653 145.208 80.1799Z" fill="#FF9E85"/>
<path d="M168.646 111.682C168.243 116.416 166.282 145.842 165.895 151.673L114.631 151.782C114.329 146.523 110.844 123.526 109.7 113.242C108.608 103.428 106.466 98.5148 108.036 95.6137C110.602 90.872 117.614 88.1317 122.394 87.4845C125.314 87.0894 129.705 86.8058 129.705 86.8058C129.705 86.8058 130.076 94.3268 138.941 94.7452C151.009 95.3144 150.203 86.8058 150.263 86.8058C152.218 86.8058 163.386 88.0434 166.119 89.6628C173.564 94.0717 169.501 101.65 168.646 111.682Z" fill="#63C69E"/>
<path d="M201.92 114.989L196.978 139.007C196.771 140.012 195.891 140.736 194.865 140.745L160.839 141.035C159.453 141.046 158.409 139.777 158.688 138.42L163.63 114.402C163.836 113.397 164.717 112.673 165.743 112.664L199.769 112.374C201.155 112.362 202.199 113.632 201.92 114.989Z" fill="#292A2E"/>
<path d="M170.191 132.05C170.252 132.696 169.772 133.271 169.137 133.413L168.089 133.644C168.125 133.659 168.157 133.683 168.167 133.726C168.171 133.747 168.164 133.772 168.153 133.79C168.643 133.932 169.034 134.358 169.069 134.926C169.112 135.519 168.618 136.116 168.036 136.247L159.191 138.211C158.733 138.314 158.271 138.363 157.813 138.363C155.747 138.363 153.772 137.355 152.569 135.604C151.28 133.733 151.713 131.173 153.549 129.834L161.073 124.334C161.243 124.21 161.439 124.132 161.634 124.103L160.941 127.466L161.126 127.423L161.165 127.416L166.935 126.241C167.578 126.099 168.459 126.333 168.572 127.065C168.7 127.654 168.398 128.233 167.876 128.481C167.88 128.485 167.887 128.489 167.887 128.496C167.891 128.503 167.883 128.506 167.883 128.514L168.881 128.293C169.641 128.123 170.394 128.68 170.419 129.501C170.436 130.111 169.978 130.637 169.382 130.768L168.952 130.864C168.949 130.878 168.952 130.893 168.945 130.903C169.57 130.907 170.128 131.379 170.192 132.05L170.191 132.05Z" fill="#FF9E85"/>
<g opacity="0.25">
<path d="M162.14 129.679C162.154 129.74 162.214 129.78 162.277 129.767L167.798 128.635C167.861 128.622 167.901 128.56 167.888 128.497C167.881 128.437 167.814 128.393 167.751 128.406L162.23 129.538C162.166 129.551 162.126 129.613 162.139 129.676L162.14 129.679V129.679Z" fill="#0C0C0C"/>
</g>
<g opacity="0.25">
<path d="M162.57 132.127C162.585 132.189 162.645 132.228 162.708 132.216L168.869 130.952C168.932 130.939 168.973 130.877 168.96 130.814C168.948 130.757 168.885 130.711 168.822 130.724L162.66 131.987C162.597 132 162.557 132.062 162.57 132.125L162.57 132.128V132.127Z" fill="#0C0C0C"/>
</g>
<g opacity="0.25">
<path d="M163.025 134.782C163.039 134.844 163.099 134.883 163.162 134.87L168.077 133.863C168.14 133.85 168.18 133.788 168.167 133.725C168.153 133.661 168.093 133.621 168.03 133.634L163.115 134.642C163.051 134.655 163.011 134.717 163.024 134.78L163.025 134.782V134.782Z" fill="#0C0C0C"/>
</g>
<path d="M158.643 141.71L110.656 150.382C110.303 150.421 109.951 150.439 109.6 150.439C106.932 150.439 104.362 149.343 102.509 147.38C100.414 145.159 99.4801 142.084 99.9868 139.073L106.705 99.1415C107.598 93.832 112.626 90.2532 117.936 91.1453C123.246 92.0385 126.826 97.0668 125.932 102.377L121.351 129.865L156.534 125.447L158.643 141.71V141.71Z" fill="#63C69E"/>
<path d="M110.655 150.56C110.57 150.56 110.496 150.5 110.48 150.414C110.463 150.317 110.527 150.225 110.624 150.207L158.445 141.565L156.38 125.645L121.373 130.041C121.315 130.048 121.262 130.029 121.223 129.988C121.184 129.947 121.167 129.891 121.176 129.836L124.088 112.267C124.104 112.171 124.194 112.103 124.292 112.121C124.389 112.137 124.454 112.229 124.438 112.326L121.565 129.659L156.511 125.271C156.606 125.259 156.697 125.327 156.709 125.424L158.819 141.687C158.831 141.781 158.768 141.868 158.675 141.885L110.687 150.557C110.676 150.559 110.666 150.56 110.655 150.56Z" fill="#0C0C0C"/>
<path d="M121.325 129.69L118.238 130.184L118.294 130.535L121.381 130.041L121.325 129.69Z" fill="#0C0C0C"/>
<path d="M123.958 66.5061L134.363 68.5435C138.522 64.2806 141.271 56.152 141.271 56.152C141.271 56.152 152.362 62.0706 156.089 61.3638C156.089 61.3638 154.957 42.0499 135.295 45.408C128.911 46.4984 122.46 52.4735 122.092 61.0833C121.822 67.4145 123.958 66.5061 123.958 66.5061H123.958Z" fill="#0A0A0A"/>
<path d="M152.857 60.7345C152.85 60.9857 151.91 61.0335 150.647 60.9355C149.384 60.8376 148.261 60.6919 148.282 60.3796C148.31 59.9854 149.361 59.7454 150.625 59.8434C151.888 59.9413 152.867 60.3391 152.857 60.7342V60.7345Z" fill="#0A0A0A"/>
<path d="M151.368 63.7848C151.81 63.75 152.141 63.3635 152.106 62.9214C152.071 62.4793 151.684 62.1492 151.242 62.184C150.8 62.2188 150.47 62.6054 150.505 63.0474C150.54 63.4895 150.926 63.8196 151.368 63.7848Z" fill="#0A0A0A"/>
<path d="M147.754 69.9351C147.592 69.9478 147.443 69.8365 147.413 69.6733C147.381 69.4989 147.496 69.3314 147.67 69.299L149.352 68.9883L148.042 65.6836C147.976 65.5186 148.057 65.3321 148.222 65.2668C148.387 65.2015 148.573 65.2822 148.639 65.447L150.093 69.1149C150.128 69.2041 150.122 69.3048 150.075 69.3888C150.029 69.4729 149.947 69.5318 149.852 69.5493L147.787 69.9311C147.775 69.9333 147.764 69.9348 147.753 69.9354L147.754 69.9351Z" fill="#0A0A0A"/>
<path d="M146.546 73.8938C143.644 74.1223 142.643 72.4365 142.597 72.3573C142.509 72.2034 142.563 72.0072 142.717 71.9189C142.87 71.831 143.065 71.8842 143.154 72.0365C143.196 72.1082 144.218 73.7608 147.381 73.1278C147.559 73.0915 147.725 73.2058 147.76 73.3796C147.794 73.5534 147.682 73.7227 147.508 73.7575C147.166 73.8258 146.846 73.8699 146.547 73.8935L146.546 73.8938Z" fill="#0A0A0A"/>
<path d="M144.352 61.3327C144.448 61.5652 143.608 61.9902 142.414 62.4131C141.22 62.836 140.134 63.1589 140.028 62.8644C139.893 62.4929 140.757 61.8469 141.951 61.424C143.145 61.0011 144.202 60.9673 144.352 61.3327H144.352Z" fill="#0A0A0A"/>
<path d="M143.382 64.9272C143.824 64.8924 144.154 64.5059 144.119 64.0638C144.084 63.6217 143.698 63.2916 143.255 63.3264C142.813 63.3612 142.483 63.7478 142.518 64.1898C142.553 64.6319 142.939 64.962 143.382 64.9272Z" fill="#0A0A0A"/>
<path d="M132.712 73.3588C130.665 73.7463 128.591 71.8703 128.204 69.8232C127.817 67.7761 129.262 66.3332 131.31 65.946L133.142 65.6047L134.472 73.0256L132.712 73.3588H132.712Z" fill="#FF9E85"/>
<path d="M128.271 64.7274L128.411 67.7893C128.936 67.0463 129.736 66.4952 130.699 66.3033C130.938 66.2522 131.178 66.2365 131.414 66.2377C132.965 67.2797 132.094 69.4743 133.286 69.3171C133.963 69.2279 135.387 67.5009 135.68 66.4762C135.866 65.8266 133.976 63.5388 133.932 62.8644L128.271 64.7274Z" fill="#0A0A0A"/>
<path d="M34.8732 152.07L316.307 152.07C317.675 152.07 318.784 150.961 318.784 149.594C318.784 148.226 317.675 147.117 316.307 147.117L34.8732 147.117C33.5052 147.117 32.3963 148.226 32.3963 149.594C32.3963 150.961 33.5052 152.07 34.8732 152.07Z" fill="#292A2E"/>
<path opacity="0.8" d="M34.8732 152.07L316.307 152.07C317.675 152.07 318.784 150.961 318.784 149.594C318.784 148.226 317.675 147.117 316.307 147.117L34.8732 147.117C33.5052 147.117 32.3963 148.226 32.3963 149.594C32.3963 150.961 33.5052 152.07 34.8732 152.07Z" fill="white"/>
<path d="M32.0945 149.594C32.0945 148.061 33.3411 146.815 34.8734 146.815H316.307C317.84 146.815 319.087 148.061 319.087 149.594C319.087 151.126 317.84 152.373 316.307 152.373H34.8734C33.3411 152.373 32.0945 151.126 32.0945 149.594ZM34.8734 147.419C33.6743 147.419 32.6991 148.395 32.6991 149.594C32.6991 150.793 33.6746 151.768 34.8734 151.768H316.307C317.507 151.768 318.482 150.793 318.482 149.594C318.482 148.395 317.507 147.419 316.307 147.419H34.8734Z" fill="#292A2E"/>
<path d="M34.8737 152.07L261.605 152.07C262.973 152.07 264.082 150.962 264.082 149.594C264.082 148.226 262.973 147.117 261.605 147.117L34.8737 147.117C33.5057 147.117 32.3967 148.226 32.3967 149.594C32.3967 150.962 33.5057 152.07 34.8737 152.07Z" fill="white"/>
<path d="M32.0945 149.594C32.0945 148.061 33.3411 146.815 34.8734 146.815H261.605C263.137 146.815 264.384 148.061 264.384 149.594C264.384 151.126 263.137 152.373 261.605 152.373H34.8734C33.3411 152.373 32.0945 151.126 32.0945 149.594ZM34.8734 147.419C33.6743 147.419 32.6991 148.395 32.6991 149.594C32.6991 150.793 33.6746 151.768 34.8734 151.768H261.605C262.803 151.768 263.779 150.793 263.779 149.594C263.779 148.395 262.803 147.419 261.605 147.419H34.8734Z" fill="#292A2E"/>
<path d="M16.7822 153.362C13.5093 153.362 10.3893 151.86 8.34915 149.247C6.06928 146.327 5.46167 142.435 6.74338 138.959C7.34887 137.317 22.8736 97.2415 25.5761 90.2758L44.2589 101.147C42.7393 105.064 37.2337 119.908 32.8105 131.867L40.1589 131.068L42.4721 150.633L17.9405 153.3C17.5536 153.342 17.167 153.362 16.7828 153.362L16.7822 153.362Z" fill="#0CBC8B"/>
<path d="M77.8919 81.9425C77.8263 81.934 76.0286 88.6999 61.9971 87.647C52.2833 86.9194 49.9149 80.3074 49.6924 80.3074C50.7398 80.0849 52.4405 79.8537 52.9054 79.6055C54.435 78.7836 55.5493 77.7833 56.11 75.6361C56.5486 73.9569 56.772 67.493 56.772 64.25L71.7194 67.6088C71.5111 71.2671 70.0529 79.7482 75.1637 81.2491C76.0141 81.4972 76.93 81.7255 77.8919 81.9425Z" fill="#FF9E85"/>
<path d="M71.2013 74.801C65.3087 75.2659 57.7391 72.778 56.3014 64.9161L55.0039 57.8222C53.5662 49.9605 56.5296 42.8322 63.9321 41.4782C71.3343 40.1246 78.0328 45.4857 79.4705 53.3477L80.0448 56.4882C80.5965 59.5048 81.715 73.9712 71.2013 74.8007V74.801Z" fill="#FF9E85"/>
<path d="M43.3097 81.3957C38.0145 81.7887 32.6153 82.3618 28.7187 85.9691C24.0263 90.3133 23.1759 95.6551 26.1695 110.355C28.7453 123.004 27.7236 128.531 29.4467 151.872C29.4974 152.56 29.6063 153.982 29.6063 153.982L89.6304 153.884C89.6304 153.884 91.5587 122.921 94.49 108.638C96.7185 97.7799 102.572 84.5982 77.8921 81.9414C77.8265 81.9344 58.0328 80.3032 43.3097 81.3957Z" fill="#0CBC8B"/>
<path d="M142.289 95.5663L135.166 100.627L135.788 99.6046C136.175 98.909 136 97.9964 135.325 97.5744C134.606 97.1243 133.666 97.373 133.259 98.1055L128.349 106.883C127.059 109.187 127.842 112.099 130.114 113.445C132.707 114.983 135.974 114.794 138.373 112.967L143.677 108.911C144.242 108.48 144.469 107.703 144.153 107.067C143.847 106.452 143.211 106.168 142.611 106.258C142.609 106.235 142.605 106.211 142.591 106.19C142.564 106.15 142.52 106.132 142.476 106.131L143.458 105.383C144.058 104.926 144.285 104.083 143.904 103.431C143.509 102.754 142.691 102.527 142.027 102.827C142.03 102.811 142.028 102.797 142.025 102.781L142.427 102.474C142.952 102.075 143.198 101.239 142.911 100.646C142.543 99.8869 141.678 99.6191 140.981 99.9313L140.966 99.9071L143.96 97.7808C144.604 97.3232 144.739 96.416 144.242 95.7884C143.776 95.2002 142.902 95.1316 142.29 95.5663H142.289Z" fill="#FF9E85"/>
<path opacity="0.2" d="M140.997 100.097C140.988 100.109 140.976 100.121 140.963 100.13L138.031 102.162C137.969 102.205 137.882 102.189 137.839 102.127C137.796 102.064 137.812 101.978 137.874 101.935L140.805 99.9035C140.868 99.86 140.954 99.8757 140.997 99.9382C141.031 99.9872 141.029 100.051 140.996 100.097H140.997Z" fill="#0C0C0C"/>
<path opacity="0.2" d="M142.008 102.887C141.999 102.9 141.988 102.911 141.975 102.92L139.683 104.535C139.621 104.579 139.535 104.564 139.491 104.502C139.447 104.44 139.462 104.353 139.524 104.31L141.816 102.695C141.878 102.651 141.964 102.666 142.008 102.728C142.042 102.777 142.041 102.841 142.008 102.887Z" fill="#0C0C0C"/>
<path opacity="0.2" d="M142.589 106.347C142.58 106.36 142.568 106.372 142.553 106.381L141.453 107.119C141.389 107.161 141.303 107.144 141.261 107.081C141.218 107.017 141.235 106.932 141.299 106.889L142.4 106.152C142.463 106.109 142.549 106.126 142.591 106.19C142.624 106.239 142.621 106.301 142.589 106.346V106.347Z" fill="#0C0C0C"/>
<path d="M99.5342 151.055C95.411 150.532 91.9576 148.288 90.6789 144.333L75.811 98.3512L96.1752 91.7667L104.902 122.61L126.13 101.822L140.227 116.233L109.92 146.737C107.946 149.876 102.779 151.466 99.5342 151.055Z" fill="#0CBC8B"/>
<path d="M29.6068 154.125C29.5303 154.125 29.4671 154.064 29.4641 153.987L27.6891 107.908C27.6863 107.83 27.7477 107.763 27.8263 107.76C27.9134 107.755 27.9714 107.819 27.9744 107.897L29.7495 153.976C29.7522 154.055 29.6908 154.121 29.6122 154.125C29.6104 154.125 29.6083 154.125 29.6068 154.125Z" fill="#0C0C0C"/>
<path d="M79.6838 82.3446C79.5991 89.8565 73.9735 93.212 62.4139 93.9949C50.8513 94.7748 38.1006 90.4793 39.9386 80.2135C41.8007 69.8237 44.5334 66.6527 45.1863 56.1572C45.2135 55.6735 45.2407 55.1717 45.2619 54.6548C45.7425 42.7475 54.3578 38.0137 58.6171 37.4302C63.6261 36.741 67.3987 37.4695 68.8738 38.0439C74.7443 39.909 77.5859 44.265 78.6922 47.1277C79.0429 48.0346 78.1663 48.9354 77.2473 48.618C76.8785 48.4911 76.4765 48.3036 75.9686 48.0255C76.2921 49.2679 76.6669 52.1458 75.2401 54.6548C75.2008 57.2907 75.4396 59.8239 75.9747 63.0071C76.1651 64.1558 76.3948 65.3891 76.6639 66.7434C78.6953 76.9457 79.7775 73.9258 79.6838 82.3446Z" fill="#0A0A0A"/>
<path d="M76.6683 63.128C74.4186 63.5394 72.1551 61.4663 71.7437 59.2167C71.3322 56.967 72.3576 54.6539 75.2375 54.6539L76.6683 63.128Z" fill="#FF9E85"/>
<path d="M106.721 129.086C106.658 129.086 106.6 129.044 106.583 128.979L104.9 122.494C104.88 122.418 104.926 122.34 105.002 122.32C105.079 122.3 105.156 122.347 105.176 122.423L106.859 128.908C106.879 128.984 106.833 129.062 106.757 129.081C106.745 129.085 106.733 129.086 106.721 129.086V129.086Z" fill="#0C0C0C"/>
<path d="M69.549 258.619L68.2981 278.307L95.1854 278.435C95.1854 278.435 96.5556 273.493 90.2544 271.384C86.7508 270.211 84.464 266.268 85.1789 261.403L69.549 258.619Z" fill="#383838"/>
<path opacity="0.17" d="M69.549 258.619L68.2981 278.307L95.1854 278.435C95.1854 278.435 96.5556 273.493 90.2544 271.384C86.7508 270.211 84.464 266.268 85.1789 261.403L69.549 258.619Z" fill="#070707"/>
<path d="M105.823 258.619L104.573 278.307L131.46 278.435C131.46 278.435 132.83 273.493 126.529 271.384C123.025 270.211 120.738 266.268 121.453 261.403L105.824 258.619H105.823Z" fill="#383838"/>
<path d="M95.2527 166.886L90.5337 267.772L66.364 266.96L68.4299 165.985L95.2527 166.886Z" fill="#292A2E"/>
<path opacity="0.52" d="M95.2527 166.886L90.5337 267.772L66.364 266.96L68.4299 165.985L95.2527 166.886Z" fill="white"/>
<path d="M101.126 267.192L125.293 266.289L123.188 169.537C123.201 169.304 123.21 169.07 123.212 168.834C123.216 168.298 123.19 167.77 123.138 167.249L123.136 167.123H123.123C122.331 159.748 116.096 153.988 108.497 153.973L50.8534 153.863L50.8518 153.822H29.6111C29.6111 153.822 27.4213 168.385 30.9369 176.427C35.3259 186.466 51.8515 183.755 51.8515 183.755L51.8415 183.459H96.4298L101.126 267.192H101.126Z" fill="#292A2E"/>
<path opacity="0.64" d="M101.126 267.192L125.293 266.289L123.188 169.537C123.201 169.304 123.21 169.07 123.212 168.834C123.216 168.298 123.19 167.77 123.138 167.249L123.136 167.123H123.123C122.331 159.748 116.096 153.988 108.497 153.973L50.8534 153.863L50.8518 153.822H29.6111C29.6111 153.822 27.4213 168.385 30.9369 176.427C35.3259 186.466 51.8515 183.755 51.8515 183.755L51.8415 183.459H96.4298L101.126 267.192H101.126Z" fill="white"/>
<path d="M131.84 279L132.434 278.886L120.132 186.678L119.538 186.792L131.84 279Z" fill="#494949"/>
<path d="M94.2667 279L94.8601 278.886L85.5813 186.678L84.9875 186.792L94.2667 279Z" fill="#494949"/>
<path d="M81.9646 146.136H22.9433C20.9472 146.136 19.2608 144.655 19.0029 142.676L15.0988 112.694C14.7893 110.316 16.6408 108.208 19.0392 108.208H78.0606C80.0566 108.208 81.7431 109.689 82.0009 111.668L85.905 141.649C86.2145 144.027 84.363 146.136 81.9646 146.136Z" fill="white"/>
<path d="M81.9651 146.438H22.9437C20.8029 146.438 18.9801 144.837 18.7038 142.715L14.7997 112.733C14.641 111.514 15.0152 110.284 15.8269 109.36C16.6385 108.435 17.8096 107.905 19.0396 107.905H78.061C80.2018 107.905 82.0246 109.506 82.3009 111.629L86.205 141.611C86.3637 142.83 85.9895 144.06 85.1778 144.984C84.3662 145.909 83.1951 146.438 81.9651 146.438ZM19.0396 108.51C17.9834 108.51 16.978 108.965 16.2812 109.759C15.5841 110.552 15.2628 111.608 15.3991 112.656L19.3032 142.637C19.5405 144.459 21.1055 145.834 22.9437 145.834H81.9651C83.0213 145.834 84.0267 145.379 84.7235 144.585C85.4206 143.792 85.7419 142.736 85.6056 141.689L81.7015 111.707C81.4642 109.885 79.8992 108.51 78.061 108.51H19.0396Z" fill="#292A2E"/>
<path d="M120.733 183.762H59.8759C58.2339 183.762 56.9028 185.093 56.9028 186.735V186.735C56.9028 188.377 58.2339 189.708 59.8759 189.708H120.733C122.375 189.708 123.706 188.377 123.706 186.735V186.735C123.706 185.093 122.375 183.762 120.733 183.762Z" fill="white"/>
<path d="M120.732 190.01H59.8754C58.0692 190.01 56.6001 188.541 56.6001 186.735C56.6001 184.929 58.0695 183.459 59.8754 183.459H120.732C122.539 183.459 124.008 184.929 124.008 186.735C124.008 188.541 122.539 190.01 120.732 190.01ZM59.8754 184.064C58.4027 184.064 57.2047 185.262 57.2047 186.735C57.2047 188.208 58.4027 189.405 59.8754 189.405H120.732C122.205 189.405 123.403 188.208 123.403 186.735C123.403 185.262 122.205 184.064 120.732 184.064H59.8754Z" fill="#292A2E"/>
<path d="M17.8935 279L17.2998 278.886L26.5789 186.678L27.1726 186.792L17.8935 279Z" fill="#494949"/>
<path d="M52.4462 279L51.8525 278.886L61.1317 186.678L61.7251 186.792L52.4462 279Z" fill="#494949"/>
<path d="M81.9617 146.097L81.3621 146.177L86.7828 186.776L87.3824 186.696L81.9617 146.097Z" fill="#494949"/>
<path d="M19.7424 146.096L19.1428 146.176L24.5635 186.776L25.1632 186.696L19.7424 146.096Z" fill="#494949"/>
<path d="M87.3307 183.762H26.4735C24.8316 183.762 23.5005 185.093 23.5005 186.735V186.735C23.5005 188.377 24.8316 189.708 26.4735 189.708H87.3307C88.9727 189.708 90.3037 188.377 90.3037 186.735V186.735C90.3037 185.093 88.9727 183.762 87.3307 183.762Z" fill="#292A2E"/>
<path opacity="0.8" d="M87.3307 183.762H26.4735C24.8316 183.762 23.5005 185.093 23.5005 186.735V186.735C23.5005 188.377 24.8316 189.708 26.4735 189.708H87.3307C88.9727 189.708 90.3037 188.377 90.3037 186.735V186.735C90.3037 185.093 88.9727 183.762 87.3307 183.762Z" fill="white"/>
<path d="M87.3303 190.01H26.4731C24.6669 190.01 23.1978 188.541 23.1978 186.735C23.1978 184.929 24.6669 183.46 26.4731 183.46H87.3303C89.1365 183.46 90.6056 184.929 90.6056 186.735C90.6056 188.541 89.1362 190.01 87.3303 190.01ZM26.4731 184.064C25.0003 184.064 23.8023 185.262 23.8023 186.735C23.8023 188.208 25.0003 189.406 26.4731 189.406H87.3303C88.803 189.406 90.001 188.208 90.001 186.735C90.001 185.262 88.803 184.064 87.3303 184.064H26.4731Z" fill="#292A2E"/>
<path d="M78.6275 146.136H19.6061C17.6101 146.136 15.9236 144.655 15.6657 142.676L11.7617 112.694C11.4521 110.316 13.3036 108.208 15.702 108.208H74.7234C76.7194 108.208 78.4059 109.689 78.6638 111.668L82.5679 141.649C82.8774 144.027 81.0259 146.136 78.6275 146.136Z" fill="#292A2E"/>
<path opacity="0.8" d="M78.6275 146.136H19.6061C17.6101 146.136 15.9236 144.655 15.6657 142.676L11.7617 112.694C11.4521 110.316 13.3036 108.208 15.702 108.208H74.7234C76.7194 108.208 78.4059 109.689 78.6638 111.668L82.5679 141.649C82.8774 144.027 81.0259 146.136 78.6275 146.136Z" fill="white"/>
<path d="M78.6279 146.438H19.6065C17.4657 146.438 15.6429 144.837 15.3666 142.715L11.4625 112.733C11.3038 111.514 11.6781 110.284 12.4897 109.36C13.3014 108.435 14.4724 107.905 15.7025 107.905H74.7238C76.8647 107.905 78.6875 109.506 78.9638 111.629L82.8679 141.611C83.0266 142.83 82.6523 144.06 81.8407 144.984C81.029 145.909 79.858 146.438 78.6279 146.438ZM15.7025 108.51C14.6463 108.51 13.6408 108.965 12.9441 109.759C12.247 110.552 11.9256 111.608 12.0623 112.655L15.9664 142.637C16.2037 144.459 17.7686 145.834 19.6068 145.834H78.6282C79.6844 145.834 80.6899 145.378 81.3866 144.585C82.0837 143.791 82.4051 142.735 82.2687 141.688L78.3646 111.707C78.1273 109.884 76.5624 108.51 74.7241 108.51H15.7025V108.51Z" fill="#292A2E"/>
<path d="M198.862 116.547C199.504 116.547 200.024 116.026 200.024 115.384C200.024 114.742 199.504 114.222 198.862 114.222C198.22 114.222 197.699 114.742 197.699 115.384C197.699 116.026 198.22 116.547 198.862 116.547Z" fill="white"/>
<path d="M277.706 143.835L272.415 114.563C272.072 113.508 271.089 112.793 269.979 112.793H231.183C229.442 112.793 228.208 114.493 228.747 116.148L234.037 145.421C234.381 146.476 235.364 147.19 236.474 147.19H275.27C277.011 147.19 278.245 145.491 277.706 143.835Z" fill="white"/>
<path d="M275.27 147.493H236.474C235.23 147.493 234.135 146.697 233.75 145.514L233.74 145.474L228.453 116.222C228.175 115.345 228.325 114.417 228.866 113.672C229.411 112.921 230.256 112.491 231.183 112.491H269.98C271.224 112.491 272.319 113.286 272.704 114.469L272.714 114.509L278.001 143.762C278.279 144.638 278.129 145.566 277.588 146.311C277.043 147.062 276.198 147.493 275.27 147.493ZM234.332 145.346C234.64 146.269 235.499 146.888 236.474 146.888H275.27C276.002 146.888 276.669 146.548 277.099 145.956C277.529 145.364 277.646 144.625 277.419 143.929L277.41 143.889L272.123 114.638C271.814 113.714 270.955 113.095 269.98 113.095H231.184C230.452 113.095 229.785 113.435 229.355 114.027C228.925 114.62 228.808 115.358 229.035 116.055L229.045 116.094L234.332 145.346Z" fill="#292A2E"/>
<path d="M276.314 145.46L270.784 115.451C270.604 114.898 270.088 114.523 269.506 114.523H231.988C231.075 114.523 230.428 115.415 230.711 116.283L235.97 145.46H276.314Z" fill="white"/>
<path d="M276.678 145.762H235.718L230.417 116.356C230.261 115.855 230.348 115.326 230.657 114.9C230.97 114.469 231.456 114.221 231.989 114.221H269.507C270.222 114.221 270.851 114.679 271.072 115.358L271.082 115.397L276.678 145.762V145.762ZM236.223 145.158H275.952L270.492 115.527C270.347 115.107 269.953 114.826 269.507 114.826H231.989C231.652 114.826 231.345 114.982 231.146 115.255C230.948 115.528 230.894 115.869 230.999 116.19L231.009 116.23L236.223 145.158Z" fill="#292A2E"/>
<path d="M254.119 128.404C254.119 125.866 252.496 123.707 250.23 122.908L251.829 119.009C255.627 120.439 258.329 124.107 258.329 128.404C258.329 133.947 253.835 138.442 248.291 138.442V134.232C251.509 134.232 254.119 131.623 254.119 128.404Z" fill="#292A2E"/>
<path d="M238.253 128.404H242.463C242.463 131.623 245.073 134.232 248.291 134.232V138.442C242.748 138.442 238.253 133.947 238.253 128.404Z" fill="#63C69E"/>
<path opacity="0.5" d="M238.253 128.404C238.253 123.627 241.59 119.629 246.059 118.615L246.772 122.777C244.29 123.445 242.463 125.712 242.463 128.404L238.253 128.404Z" fill="#63C69E"/>
<path opacity="0.2" d="M246.058 118.615C246.776 118.452 247.524 118.366 248.29 118.366C249.536 118.366 250.728 118.593 251.828 119.008L250.229 122.908C249.624 122.694 248.971 122.577 248.29 122.577C247.765 122.577 247.256 122.646 246.772 122.776L246.058 118.615L246.058 118.615Z" fill="#63C69E"/>
<path d="M295.895 144.741H235.513C234.858 144.741 234.326 145.273 234.326 145.928C234.326 146.584 234.858 147.115 235.513 147.115H295.895C296.55 147.115 297.081 146.584 297.081 145.928C297.081 145.273 296.55 144.741 295.895 144.741Z" fill="white"/>
<path d="M295.894 147.417H235.513C234.692 147.417 234.024 146.749 234.024 145.928C234.024 145.107 234.692 144.439 235.513 144.439H295.894C296.715 144.439 297.384 145.107 297.384 145.928C297.384 146.749 296.715 147.417 295.894 147.417ZM235.513 145.044C235.025 145.044 234.628 145.44 234.628 145.928C234.628 146.416 235.025 146.813 235.513 146.813H295.894C296.382 146.813 296.779 146.416 296.779 145.928C296.779 145.44 296.382 145.044 295.894 145.044H235.513Z" fill="#292A2E"/>
<path d="M280.941 83.3573C281.006 83.3488 281.732 95.3969 295.729 94.3465C305.418 93.6207 308.873 83.3404 309.095 83.3404C308.05 83.1182 306.291 82.7953 305.827 82.5478C304.302 81.7279 302.128 80.8749 301.637 77.9118C301.353 76.2042 301.834 67.4674 301.686 65.7395L287.098 69.0592C287.305 72.7085 288.76 81.1684 283.662 82.6656C282.814 82.9132 281.9 83.1412 280.941 83.3573Z" fill="#FF9E85"/>
<path d="M287.508 74.7511C293.382 75.2046 300.923 72.7119 302.342 64.8738L303.624 57.8014C305.043 49.9633 302.077 42.8634 294.697 41.5266C287.317 40.1899 280.65 45.545 279.231 53.3831L278.663 56.5142C278.547 57.1587 278.405 58.3277 278.357 59.7741C278.262 62.6604 278.129 67.0512 279.557 70.2763C280.906 73.321 283.756 74.4615 287.508 74.7511Z" fill="#FF9E85"/>
<path d="M300.681 41.1252C298.801 40.5115 296.142 39.9895 293.49 39.9015C293.253 38.9698 292.726 38.2456 291.951 37.943C290.66 37.4387 289.084 38.2507 288.035 39.8157C287.452 38.9221 286.662 38.1168 285.615 37.7906C282.725 36.891 282.582 41.0414 282.582 41.0414C282.582 41.0414 278.001 36.521 277.858 42.2863C277.685 49.2619 278.966 51.3078 279.901 51.8242C281.748 52.8441 283.124 52.6715 283.855 54.1721C286.068 58.7161 283.899 71.5151 286.46 73.1175C290.384 75.5727 298.42 75.6574 301.031 75.4709C302.034 75.3989 302.974 74.2354 303.397 73.3222C304.762 70.3736 307.807 63.6894 308.654 60.9249C310.218 55.8232 310.1 44.201 300.681 41.1255V41.1252Z" fill="#0C0C0C"/>
<path d="M284.707 68.5448C286.973 68.2988 288.547 65.6752 288.301 63.4092C288.055 61.1432 286.082 60.0931 283.816 60.3391L282.813 61.9842L282.759 68.7564L284.707 68.5448Z" fill="#FF9E85"/>
<path d="M322.558 152.235L322.628 152.239C322.628 152.239 322.577 150.886 322.558 152.235Z" fill="#333333"/>
<path d="M260.819 110.016C261.261 115.213 263.413 147.638 263.839 154.04H322.457C322.788 148.266 324.275 123.019 325.531 111.729C326.73 100.955 329.082 95.5605 327.358 92.3753C324.541 87.1695 316.843 84.1614 311.595 83.4508C308.39 83.017 307.729 82.7059 306.423 82.7059C297.021 82.7059 283.919 82.7059 283.853 82.7059C281.707 82.7059 268.002 84.7739 265.192 86.8394C257.416 92.557 259.88 99.0024 260.819 110.016Z" fill="#63C69E"/>
<path d="M334.973 153.7C338.246 153.7 341.366 152.197 343.407 149.584C345.687 146.664 346.294 142.772 345.013 139.296C344.407 137.653 330.21 100.058 327.507 93.0914L307.494 101.2C309.014 105.117 314.52 119.963 318.943 131.923L311.594 131.124L309.281 152.403L333.815 153.637C334.202 153.679 334.588 153.7 334.973 153.7Z" fill="#63C69E"/>
<path d="M323.553 111.947L322.113 154.034L322.502 154.048L323.943 111.96L323.553 111.947Z" fill="#0C0C0C"/>
<path d="M252.34 153.7C249.066 153.7 245.946 152.197 243.906 149.584C241.625 146.664 241.018 142.772 242.3 139.296C242.905 137.653 257.697 99.892 260.4 92.9258L279.818 101.2C278.299 105.117 272.793 119.963 268.369 131.923L275.718 131.124L278.031 152.403L253.498 153.637C253.11 153.679 252.724 153.7 252.34 153.7Z" fill="#63C69E"/>
<path d="M268.322 129.427C268.301 129.427 268.279 129.424 268.258 129.417C268.145 129.381 268.083 129.261 268.119 129.148L273.314 112.792C273.35 112.68 273.47 112.618 273.583 112.653C273.696 112.689 273.758 112.81 273.722 112.922L268.526 129.278C268.497 129.369 268.413 129.427 268.322 129.427V129.427Z" fill="#0C0C0C"/>
<path d="M252.503 258.619L253.754 278.307L226.866 278.435C226.866 278.435 225.496 273.493 231.797 271.384C235.301 270.211 237.588 266.268 236.873 261.403L252.503 258.619Z" fill="#383838"/>
<path opacity="0.17" d="M252.503 258.619L253.754 278.307L226.866 278.435C226.866 278.435 225.496 273.493 231.797 271.384C235.301 270.211 237.588 266.268 236.873 261.403L252.503 258.619Z" fill="#070707"/>
<path d="M281.548 258.619L286.486 273.476L267.718 278.384L257.095 278.435C257.095 278.435 255.725 273.493 262.026 271.383C265.53 270.211 266.633 266.268 265.918 261.403L281.547 258.618L281.548 258.619Z" fill="#383838"/>
<g opacity="0.75">
<path d="M283.408 169.884L255.289 270.473L231.917 264.259L257.471 162.987L283.408 169.884Z" fill="white"/>
</g>
<path d="M283.408 169.884L255.289 270.473L231.917 264.259L257.471 162.987L283.408 169.884Z" fill="#383838"/>
<g opacity="0.52">
<path d="M283.408 169.884L255.289 270.473L231.917 264.259L257.471 162.987L283.408 169.884Z" fill="white"/>
</g>
<path d="M243.783 153.973C235.606 153.989 229.004 160.657 229.069 168.834C229.088 171.302 229.716 173.622 230.805 175.658L263.858 270.516L286.832 262.965L262.255 183.459H307.395C315.608 183.459 322.303 176.87 322.433 168.657L322.668 153.822L243.783 153.973L243.783 153.973Z" fill="#383838"/>
<path opacity="0.64" d="M243.783 153.973C235.606 153.989 229.004 160.657 229.069 168.834C229.088 171.302 229.716 173.622 230.805 175.658L263.858 270.516L286.832 262.965L262.255 183.459H307.395C315.608 183.459 322.303 176.87 322.433 168.657L322.668 153.822L243.783 153.973L243.783 153.973Z" fill="white"/>
<path d="M218.393 279L217.799 278.886L230.101 186.678L230.695 186.792L218.393 279Z" fill="#494949"/>
<path d="M255.967 279L255.374 278.886L264.653 186.678L265.246 186.792L255.967 279Z" fill="#494949"/>
<path d="M268.268 146.136H327.29C329.286 146.136 330.972 144.655 331.23 142.676L335.134 112.694C335.444 110.316 333.592 108.208 331.194 108.208H272.172C270.176 108.208 268.49 109.689 268.232 111.668L264.328 141.649C264.018 144.027 265.87 146.136 268.268 146.136Z" fill="white"/>
<path d="M265.056 144.984C264.244 144.059 263.87 142.83 264.029 141.61L267.933 111.629C268.209 109.506 270.032 107.905 272.173 107.905H331.194C332.424 107.905 333.595 108.435 334.407 109.36C335.219 110.284 335.593 111.513 335.434 112.733L331.53 142.714C331.253 144.837 329.431 146.438 327.29 146.438H268.269C267.039 146.438 265.868 145.908 265.056 144.984V144.984ZM272.173 108.51C270.335 108.51 268.77 109.885 268.532 111.707L264.628 141.689C264.492 142.736 264.813 143.792 265.51 144.585C266.207 145.379 267.213 145.834 268.269 145.834H327.29C329.128 145.834 330.693 144.459 330.931 142.637L334.835 112.656C334.971 111.608 334.65 110.552 333.953 109.759C333.256 108.965 332.25 108.51 331.194 108.51H272.173Z" fill="#292A2E"/>
<path d="M229.501 189.708H290.358C292 189.708 293.331 188.377 293.331 186.735V186.735C293.331 185.093 292 183.762 290.358 183.762H229.501C227.859 183.762 226.528 185.093 226.528 186.735V186.735C226.528 188.377 227.859 189.708 229.501 189.708Z" fill="white"/>
<path d="M226.226 186.735C226.226 184.929 227.695 183.46 229.501 183.46H290.358C292.165 183.46 293.634 184.929 293.634 186.735C293.634 188.541 292.164 190.01 290.358 190.01H229.501C227.695 190.01 226.226 188.541 226.226 186.735ZM229.501 184.064C228.029 184.064 226.83 185.262 226.83 186.735C226.83 188.208 228.029 189.406 229.501 189.406H290.358C291.831 189.406 293.029 188.208 293.029 186.735C293.029 185.262 291.831 184.064 290.358 184.064H229.501Z" fill="#292A2E"/>
<path d="M332.341 279L332.934 278.886L323.655 186.678L323.062 186.792L332.341 279Z" fill="#494949"/>
<path d="M297.79 279L298.383 278.886L289.104 186.678L288.511 186.792L297.79 279Z" fill="#494949"/>
<path d="M268.27 146.094L262.85 186.693L263.449 186.773L268.87 146.174L268.27 146.094Z" fill="#494949"/>
<path d="M330.488 146.094L325.067 186.693L325.667 186.773L331.087 146.174L330.488 146.094Z" fill="#494949"/>
<path d="M262.903 189.708H323.761C325.403 189.708 326.734 188.377 326.734 186.735V186.735C326.734 185.093 325.403 183.762 323.761 183.762H262.903C261.261 183.762 259.93 185.093 259.93 186.735V186.735C259.93 188.377 261.261 189.708 262.903 189.708Z" fill="#292A2E"/>
<path opacity="0.8" d="M262.903 189.708H323.761C325.403 189.708 326.734 188.377 326.734 186.735V186.735C326.734 185.093 325.403 183.762 323.761 183.762H262.903C261.261 183.762 259.93 185.093 259.93 186.735V186.735C259.93 188.377 261.261 189.708 262.903 189.708Z" fill="white"/>
<path d="M259.628 186.735C259.628 184.929 261.098 183.46 262.903 183.46H323.761C325.567 183.46 327.036 184.929 327.036 186.735C327.036 188.541 325.567 190.01 323.761 190.01H262.903C261.097 190.01 259.628 188.541 259.628 186.735ZM262.903 184.064C261.431 184.064 260.233 185.262 260.233 186.735C260.233 188.208 261.431 189.406 262.903 189.406H323.761C325.233 189.406 326.431 188.208 326.431 186.735C326.431 185.262 325.233 184.064 323.761 184.064H262.903Z" fill="#292A2E"/>
<path d="M271.605 146.136H330.627C332.623 146.136 334.309 144.655 334.567 142.676L338.471 112.694C338.781 110.316 336.929 108.208 334.531 108.208H275.509C273.513 108.208 271.827 109.689 271.569 111.668L267.665 141.649C267.355 144.027 269.207 146.136 271.605 146.136Z" fill="#292A2E"/>
<path opacity="0.8" d="M271.605 146.136H330.627C332.623 146.136 334.309 144.655 334.567 142.676L338.471 112.694C338.781 110.316 336.929 108.208 334.531 108.208H275.509C273.513 108.208 271.827 109.689 271.569 111.668L267.665 141.649C267.355 144.027 269.207 146.136 271.605 146.136Z" fill="white"/>
<path d="M268.393 144.984C267.581 144.059 267.207 142.83 267.366 141.61L271.27 111.629C271.547 109.506 273.369 107.905 275.51 107.905H334.531C335.761 107.905 336.932 108.435 337.744 109.36C338.556 110.284 338.93 111.513 338.771 112.733L334.867 142.714C334.591 144.837 332.768 146.438 330.627 146.438H271.606C270.376 146.438 269.205 145.908 268.393 144.984V144.984ZM275.51 108.51C273.672 108.51 272.107 109.885 271.869 111.707L267.965 141.689C267.829 142.736 268.15 143.792 268.847 144.585C269.544 145.379 270.55 145.834 271.606 145.834H330.627C332.465 145.834 334.03 144.459 334.268 142.637L338.172 112.656C338.308 111.609 337.987 110.553 337.29 109.759C336.593 108.966 335.588 108.51 334.532 108.51H275.51L275.51 108.51Z" fill="#292A2E"/>
<path d="M0.537404 278.862H339.23C339.347 278.862 339.442 278.767 339.442 278.649C339.442 278.532 339.347 278.437 339.23 278.437H0.537404C0.420115 278.437 0.325195 278.532 0.325195 278.649C0.325195 278.767 0.420115 278.862 0.537404 278.862Z" fill="#292A2E"/>
<g opacity="0.65">
<path d="M0.537404 278.862H339.23C339.347 278.862 339.442 278.767 339.442 278.649C339.442 278.532 339.347 278.437 339.23 278.437H0.537404C0.420115 278.437 0.325195 278.532 0.325195 278.649C0.325195 278.767 0.420115 278.862 0.537404 278.862Z" fill="#292A2E"/>
</g>
</g>
<defs>
<clipPath id="clip0_389_4435">
<rect width="345.35" height="279" fill="white" transform="translate(0.325195)"/>
</clipPath>
</defs>
</svg>
