<svg width="304" height="279" viewBox="0 0 304 279" fill="none" xmlns="http://www.w3.org/2000/svg">
<g clip-path="url(#clip0_389_2553)">
<path d="M154.041 277.376C153.889 277.376 153.766 277.254 153.766 277.102C153.766 276.95 153.889 276.827 154.041 276.827C155.137 276.827 156.247 276.813 157.341 276.786C157.343 276.786 157.346 276.786 157.348 276.786C157.496 276.786 157.618 276.904 157.622 277.053C157.626 277.205 157.506 277.331 157.354 277.335C156.256 277.362 155.141 277.376 154.041 277.376ZM150.735 277.337C150.733 277.337 150.73 277.337 150.728 277.337C149.627 277.31 148.513 277.27 147.418 277.217C147.266 277.209 147.149 277.081 147.157 276.929C147.164 276.778 147.291 276.656 147.444 276.668C148.535 276.721 149.644 276.762 150.742 276.788C150.893 276.792 151.013 276.918 151.009 277.069C151.006 277.219 150.884 277.337 150.735 277.337ZM160.651 277.212C160.506 277.212 160.384 277.098 160.377 276.951C160.37 276.8 160.487 276.671 160.638 276.663C161.73 276.609 162.839 276.541 163.931 276.46C164.086 276.448 164.214 276.562 164.225 276.713C164.236 276.865 164.123 276.996 163.972 277.007C162.875 277.089 161.762 277.157 160.665 277.212C160.66 277.212 160.656 277.212 160.651 277.212L160.651 277.212ZM144.132 277.015C144.125 277.015 144.118 277.015 144.111 277.015C143.017 276.934 141.907 276.839 140.811 276.731C140.66 276.716 140.549 276.582 140.564 276.431C140.579 276.28 140.713 276.169 140.864 276.185C141.957 276.292 143.062 276.387 144.152 276.467C144.303 276.478 144.416 276.61 144.406 276.761C144.395 276.905 144.274 277.015 144.132 277.015ZM167.245 276.723C167.105 276.723 166.986 276.617 166.972 276.475C166.957 276.324 167.067 276.19 167.218 276.175C168.306 276.067 169.409 275.944 170.496 275.808C170.648 275.79 170.784 275.897 170.802 276.047C170.821 276.197 170.715 276.335 170.564 276.353C169.472 276.489 168.364 276.613 167.272 276.722C167.263 276.722 167.254 276.723 167.244 276.723L167.245 276.723ZM137.552 276.367C137.54 276.367 137.529 276.367 137.518 276.365C136.427 276.231 135.322 276.08 134.235 275.918C134.085 275.896 133.981 275.756 134.004 275.606C134.026 275.456 134.166 275.353 134.316 275.375C135.399 275.536 136.499 275.686 137.585 275.821C137.735 275.839 137.842 275.976 137.824 276.127C137.806 276.266 137.688 276.367 137.552 276.367ZM173.805 275.906C173.672 275.906 173.554 275.809 173.534 275.673C173.512 275.523 173.615 275.383 173.765 275.36C174.849 275.198 175.945 275.02 177.021 274.831C177.17 274.804 177.313 274.904 177.339 275.054C177.365 275.203 177.265 275.345 177.116 275.372C176.035 275.561 174.935 275.74 173.847 275.903C173.833 275.906 173.819 275.906 173.805 275.906ZM131.012 275.393C130.996 275.393 130.98 275.391 130.965 275.388C129.883 275.199 128.787 274.994 127.708 274.777C127.559 274.747 127.463 274.603 127.493 274.454C127.523 274.305 127.667 274.209 127.816 274.239C128.891 274.455 129.981 274.659 131.059 274.848C131.208 274.874 131.308 275.016 131.282 275.165C131.259 275.299 131.142 275.393 131.011 275.393H131.012ZM180.318 274.764C180.189 274.764 180.075 274.674 180.049 274.543C180.019 274.395 180.115 274.25 180.264 274.22C181.341 274.003 182.426 273.77 183.489 273.528C183.636 273.494 183.784 273.587 183.818 273.735C183.851 273.883 183.759 274.03 183.611 274.064C182.543 274.307 181.453 274.54 180.372 274.758C180.354 274.762 180.335 274.764 180.318 274.764V274.764ZM124.529 274.092C124.509 274.092 124.489 274.09 124.468 274.085C123.397 273.842 122.313 273.582 121.247 273.312C121.1 273.275 121.011 273.126 121.048 272.978C121.085 272.832 121.235 272.743 121.382 272.78C122.444 273.049 123.523 273.308 124.59 273.55C124.738 273.583 124.83 273.731 124.797 273.878C124.768 274.006 124.654 274.092 124.529 274.092ZM186.764 273.297C186.642 273.297 186.53 273.214 186.498 273.09C186.461 272.943 186.55 272.793 186.697 272.756C187.756 272.487 188.828 272.2 189.884 271.903C190.031 271.862 190.181 271.947 190.222 272.093C190.263 272.239 190.178 272.39 190.032 272.431C188.973 272.729 187.896 273.017 186.832 273.288C186.809 273.294 186.787 273.297 186.764 273.297ZM118.12 272.468C118.095 272.468 118.07 272.465 118.045 272.458C116.986 272.161 115.916 271.846 114.867 271.523C114.722 271.479 114.641 271.325 114.685 271.18C114.729 271.035 114.883 270.954 115.028 270.998C116.074 271.32 117.139 271.633 118.194 271.929C118.34 271.97 118.425 272.121 118.384 272.267C118.35 272.389 118.24 272.468 118.12 272.468ZM193.13 271.508C193.012 271.508 192.904 271.432 192.868 271.314C192.823 271.169 192.904 271.015 193.049 270.971C194.098 270.647 195.154 270.307 196.189 269.958C196.333 269.91 196.489 269.988 196.537 270.131C196.585 270.275 196.508 270.43 196.364 270.479C195.325 270.828 194.264 271.17 193.211 271.495C193.184 271.503 193.157 271.507 193.13 271.507V271.508ZM111.788 270.52C111.759 270.52 111.73 270.515 111.701 270.506C110.654 270.155 109.598 269.786 108.563 269.409C108.42 269.357 108.347 269.199 108.398 269.057C108.45 268.914 108.609 268.842 108.75 268.893C109.782 269.268 110.833 269.635 111.876 269.985C112.019 270.033 112.097 270.189 112.048 270.333C112.01 270.447 111.903 270.52 111.788 270.52ZM199.397 269.4C199.285 269.4 199.179 269.331 199.139 269.22C199.087 269.077 199.161 268.92 199.303 268.868C200.332 268.493 201.371 268.099 202.389 267.699C202.529 267.644 202.689 267.713 202.745 267.855C202.8 267.996 202.731 268.155 202.59 268.21C201.567 268.612 200.525 269.007 199.491 269.384C199.46 269.395 199.428 269.4 199.397 269.4H199.397ZM105.554 268.253C105.521 268.253 105.487 268.247 105.454 268.233C104.43 267.832 103.394 267.41 102.377 266.98C102.237 266.921 102.171 266.761 102.23 266.621C102.289 266.481 102.45 266.416 102.59 266.475C103.603 266.902 104.635 267.322 105.655 267.722C105.796 267.778 105.866 267.937 105.81 268.078C105.768 268.186 105.664 268.253 105.554 268.253ZM205.54 266.986C205.432 266.986 205.331 266.923 205.287 266.819C205.228 266.679 205.293 266.518 205.433 266.459C206.441 266.033 207.455 265.589 208.446 265.142C208.584 265.079 208.747 265.141 208.809 265.279C208.871 265.417 208.81 265.58 208.672 265.642C207.677 266.092 206.659 266.537 205.647 266.965C205.611 266.979 205.575 266.986 205.54 266.986ZM99.4453 265.675C99.4074 265.675 99.369 265.667 99.3325 265.651C98.328 265.197 97.3156 264.725 96.3232 264.246C96.1865 264.18 96.1294 264.016 96.1953 263.879C96.2612 263.743 96.4253 263.685 96.5618 263.751C97.55 264.228 98.5584 264.699 99.5584 265.151C99.6965 265.213 99.758 265.376 99.6957 265.514C99.6498 265.616 99.5499 265.676 99.4453 265.676V265.675ZM211.546 264.271C211.444 264.271 211.346 264.214 211.299 264.116C211.233 263.979 211.29 263.816 211.427 263.75C212.41 263.275 213.401 262.781 214.372 262.283C214.507 262.214 214.672 262.267 214.742 262.402C214.811 262.537 214.758 262.702 214.623 262.772C213.648 263.272 212.653 263.768 211.665 264.244C211.627 264.263 211.586 264.272 211.546 264.272L211.546 264.271ZM93.4765 262.796C93.4342 262.796 93.3914 262.786 93.3513 262.766C92.3707 262.262 91.3838 261.739 90.4178 261.212C90.2846 261.139 90.2358 260.972 90.3082 260.84C90.381 260.706 90.5482 260.658 90.6808 260.73C91.6429 261.255 92.6257 261.776 93.6022 262.277C93.737 262.347 93.7902 262.512 93.7211 262.647C93.6725 262.742 93.5764 262.796 93.4765 262.796ZM217.412 261.259C217.315 261.259 217.221 261.207 217.171 261.116C217.098 260.983 217.147 260.816 217.28 260.743C218.24 260.22 219.205 259.677 220.15 259.131C220.281 259.055 220.449 259.099 220.525 259.231C220.601 259.362 220.556 259.53 220.425 259.606C219.476 260.155 218.507 260.699 217.543 261.225C217.501 261.248 217.456 261.258 217.412 261.258L217.412 261.259ZM87.6616 259.623C87.6149 259.623 87.5677 259.611 87.5243 259.586C86.5718 259.035 85.6126 258.463 84.6732 257.888C84.5439 257.809 84.5033 257.64 84.5826 257.51C84.6619 257.381 84.831 257.34 84.9601 257.42C85.8956 257.993 86.8507 258.562 87.7994 259.111C87.9306 259.187 87.9754 259.355 87.8996 259.486C87.8485 259.574 87.7566 259.623 87.6616 259.623ZM223.123 257.956C223.031 257.956 222.941 257.909 222.889 257.824C222.81 257.695 222.85 257.526 222.979 257.447C223.911 256.877 224.849 256.287 225.767 255.693C225.895 255.61 226.064 255.647 226.147 255.775C226.229 255.902 226.192 256.072 226.065 256.154C225.143 256.751 224.201 257.343 223.266 257.916C223.222 257.943 223.172 257.956 223.123 257.956ZM82.0147 256.164C81.9637 256.164 81.9118 256.15 81.866 256.12C80.9441 255.523 80.0149 254.905 79.104 254.283C78.9788 254.197 78.9467 254.026 79.0321 253.901C79.1175 253.776 79.2885 253.743 79.4137 253.829C80.3207 254.449 81.2461 255.064 82.1644 255.659C82.2917 255.741 82.328 255.911 82.2456 256.038C82.1932 256.119 82.1048 256.164 82.015 256.164H82.0147ZM228.666 254.372C228.578 254.372 228.492 254.33 228.439 254.252C228.353 254.126 228.386 253.956 228.511 253.87C229.415 253.253 230.323 252.617 231.209 251.979C231.332 251.89 231.504 251.919 231.592 252.042C231.681 252.165 231.653 252.336 231.53 252.425C230.639 253.065 229.728 253.704 228.82 254.324C228.773 254.356 228.719 254.372 228.666 254.372ZM76.5493 252.429C76.4939 252.429 76.4376 252.413 76.3893 252.378C75.4946 251.733 74.5975 251.07 73.7232 250.406C73.6024 250.314 73.5788 250.142 73.6705 250.021C73.7619 249.901 73.9343 249.877 74.0551 249.969C74.9258 250.63 75.8191 251.29 76.7102 251.932C76.8332 252.021 76.8612 252.192 76.7725 252.315C76.7187 252.39 76.6347 252.429 76.5496 252.429H76.5493ZM234.026 250.514C233.943 250.514 233.861 250.477 233.807 250.406C233.715 250.285 233.739 250.113 233.859 250.021C234.731 249.36 235.607 248.679 236.462 247.997C236.581 247.903 236.753 247.923 236.848 248.041C236.942 248.159 236.923 248.332 236.804 248.427C235.946 249.111 235.067 249.795 234.191 250.458C234.142 250.496 234.083 250.514 234.026 250.514L234.026 250.514ZM71.2786 248.429C71.2185 248.429 71.1581 248.409 71.1073 248.369C70.2489 247.683 69.386 246.976 68.5433 246.268C68.4274 246.17 68.412 245.997 68.5098 245.881C68.6072 245.765 68.7807 245.75 68.8966 245.847C69.736 246.553 70.5953 247.257 71.4501 247.94C71.5687 248.035 71.588 248.207 71.4932 248.326C71.4392 248.394 71.3593 248.429 71.2786 248.429ZM239.19 246.395C239.111 246.395 239.033 246.361 238.979 246.297C238.881 246.181 238.897 246.008 239.013 245.91C239.848 245.209 240.689 244.486 241.512 243.759C241.625 243.66 241.799 243.67 241.899 243.784C241.999 243.897 241.989 244.071 241.875 244.171C241.048 244.901 240.204 245.627 239.365 246.331C239.314 246.374 239.251 246.395 239.189 246.395H239.19ZM66.2142 244.173C66.1497 244.173 66.0847 244.15 66.0325 244.105C65.2076 243.376 64.3813 242.627 63.5767 241.88C63.4658 241.777 63.4592 241.603 63.5624 241.492C63.6659 241.381 63.8394 241.374 63.9506 241.477C64.7519 242.222 65.5749 242.967 66.3963 243.693C66.5099 243.794 66.5206 243.967 66.4201 244.081C66.3658 244.142 66.2903 244.173 66.2142 244.173ZM244.145 242.023C244.071 242.023 243.997 241.993 243.943 241.935C243.84 241.824 243.847 241.65 243.958 241.547C244.763 240.801 245.567 240.036 246.349 239.274C246.457 239.169 246.631 239.171 246.737 239.28C246.843 239.388 246.841 239.562 246.732 239.668C245.947 240.433 245.139 241.201 244.331 241.95C244.279 241.998 244.211 242.023 244.145 242.023ZM61.3687 239.673C61.2995 239.673 61.2304 239.647 61.1771 239.595C60.3914 238.829 59.6036 238.04 58.8352 237.252C58.7292 237.144 58.7314 236.97 58.8401 236.864C58.9486 236.758 59.1226 236.761 59.2283 236.869C59.9936 237.654 60.7782 238.439 61.5606 239.202C61.669 239.308 61.6712 239.482 61.5653 239.591C61.5115 239.646 61.4401 239.674 61.3687 239.674V239.673ZM248.879 237.41C248.81 237.41 248.741 237.383 248.688 237.331C248.579 237.225 248.577 237.052 248.683 236.943C249.449 236.158 250.215 235.354 250.959 234.554C251.062 234.443 251.236 234.437 251.347 234.54C251.457 234.643 251.464 234.817 251.361 234.928C250.614 235.731 249.845 236.538 249.076 237.327C249.022 237.382 248.951 237.409 248.879 237.409V237.41ZM56.754 234.941C56.6802 234.941 56.6066 234.911 56.5528 234.853C55.8056 234.047 55.0581 233.221 54.3306 232.398C54.2301 232.284 54.2411 232.111 54.3548 232.01C54.4681 231.91 54.6416 231.92 54.7421 232.034C55.4666 232.854 56.2113 233.677 56.9553 234.479C57.0585 234.591 57.0519 234.764 56.9407 234.867C56.888 234.916 56.8208 234.941 56.754 234.941ZM253.381 232.566C253.316 232.566 253.251 232.543 253.199 232.497C253.085 232.397 253.075 232.223 253.175 232.109C253.902 231.288 254.627 230.447 255.331 229.61C255.429 229.494 255.602 229.479 255.717 229.576C255.834 229.674 255.849 229.847 255.751 229.963C255.044 230.804 254.316 231.648 253.586 232.473C253.532 232.534 253.457 232.566 253.381 232.566V232.566ZM52.3807 229.987C52.3024 229.987 52.2248 229.953 52.1704 229.889C51.4638 229.047 50.7583 228.185 50.0731 227.327C49.9786 227.209 49.9979 227.036 50.1165 226.941C50.235 226.847 50.4074 226.866 50.5022 226.985C51.1843 227.84 51.8868 228.698 52.5904 229.536C52.6879 229.652 52.6728 229.825 52.5567 229.922C52.505 229.966 52.4424 229.987 52.3801 229.987H52.3807ZM257.638 227.503C257.578 227.503 257.517 227.483 257.467 227.443C257.348 227.348 257.329 227.176 257.424 227.057C258.109 226.2 258.791 225.324 259.453 224.453C259.545 224.332 259.717 224.309 259.838 224.4C259.959 224.492 259.982 224.664 259.89 224.785C259.226 225.66 258.54 226.539 257.852 227.4C257.798 227.468 257.718 227.503 257.638 227.503ZM48.2593 224.824C48.1764 224.824 48.0943 224.787 48.0403 224.715C47.3754 223.838 46.7135 222.943 46.0733 222.054C45.9847 221.931 46.0127 221.76 46.1357 221.671C46.2589 221.582 46.4305 221.61 46.5189 221.733C47.1563 222.618 47.8154 223.51 48.4778 224.383C48.5693 224.504 48.5459 224.676 48.4249 224.768C48.3752 224.806 48.317 224.824 48.2593 224.824ZM261.64 222.234C261.585 222.234 261.529 222.217 261.48 222.182C261.357 222.093 261.329 221.921 261.418 221.799C262.057 220.912 262.696 220.002 263.316 219.096C263.401 218.97 263.572 218.939 263.697 219.024C263.823 219.11 263.854 219.28 263.769 219.406C263.147 220.316 262.505 221.229 261.863 222.12C261.81 222.194 261.725 222.234 261.64 222.234ZM44.4007 219.465C44.3131 219.465 44.2269 219.424 44.1737 219.346C43.5552 218.44 42.9389 217.514 42.3421 216.591C42.2597 216.464 42.2962 216.294 42.4233 216.212C42.5507 216.129 42.7204 216.166 42.803 216.293C43.3976 217.212 44.0111 218.135 44.6272 219.036C44.7128 219.161 44.6804 219.332 44.5552 219.418C44.508 219.45 44.4539 219.465 44.4007 219.465ZM265.377 216.77C265.325 216.77 265.274 216.756 265.228 216.726C265.101 216.643 265.064 216.473 265.147 216.346C265.742 215.426 266.335 214.486 266.908 213.551C266.987 213.422 267.156 213.381 267.286 213.461C267.415 213.54 267.456 213.709 267.376 213.838C266.801 214.777 266.205 215.721 265.607 216.645C265.555 216.726 265.467 216.77 265.377 216.77ZM40.8144 213.924C40.7221 213.924 40.6318 213.877 40.5799 213.793C40.0056 212.855 39.4363 211.899 38.8881 210.952C38.8123 210.82 38.8571 210.652 38.9883 210.576C39.1195 210.501 39.2872 210.545 39.3635 210.677C39.9096 211.62 40.4764 212.572 41.0483 213.506C41.1276 213.635 41.087 213.804 40.9577 213.883C40.9129 213.911 40.8635 213.924 40.8146 213.924L40.8144 213.924ZM268.837 211.125C268.791 211.125 268.743 211.113 268.7 211.088C268.569 211.012 268.524 210.844 268.6 210.712C269.148 209.767 269.693 208.798 270.221 207.832C270.294 207.698 270.46 207.649 270.593 207.722C270.726 207.795 270.775 207.962 270.702 208.095C270.172 209.065 269.624 210.039 269.075 210.988C269.024 211.076 268.932 211.125 268.837 211.125ZM37.5094 208.214C37.4123 208.214 37.3181 208.162 37.2681 208.071C36.7435 207.11 36.223 206.127 35.7209 205.151C35.6518 205.016 35.7048 204.85 35.8395 204.781C35.9741 204.712 36.1399 204.765 36.2093 204.9C36.7092 205.872 37.2278 206.851 37.7502 207.808C37.8229 207.941 37.7738 208.107 37.6409 208.18C37.5992 208.203 37.5542 208.214 37.5097 208.214H37.5094ZM272.013 205.311C271.971 205.311 271.928 205.301 271.888 205.28C271.753 205.211 271.7 205.046 271.769 204.911C272.271 203.934 272.768 202.938 273.244 201.952C273.309 201.815 273.474 201.758 273.61 201.824C273.747 201.89 273.804 202.054 273.738 202.19C273.26 203.181 272.762 204.181 272.257 205.162C272.208 205.257 272.113 205.311 272.013 205.311ZM34.4947 202.349C34.3926 202.349 34.2945 202.291 34.2473 202.193C33.7716 201.208 33.3008 200.202 32.8481 199.201C32.7855 199.063 32.847 198.9 32.9851 198.838C33.1234 198.776 33.286 198.837 33.3483 198.975C33.799 199.971 34.2679 200.973 34.7415 201.955C34.8073 202.091 34.7502 202.255 34.6138 202.321C34.5754 202.34 34.5345 202.349 34.4947 202.349ZM274.895 199.343C274.857 199.343 274.819 199.335 274.782 199.319C274.644 199.256 274.582 199.094 274.645 198.956C275.097 197.954 275.543 196.934 275.97 195.925C276.029 195.785 276.19 195.719 276.329 195.778C276.469 195.838 276.535 195.999 276.476 196.138C276.047 197.152 275.6 198.176 275.145 199.182C275.099 199.284 274.999 199.343 274.895 199.343ZM31.7775 196.344C31.6704 196.344 31.5688 196.281 31.5246 196.176C31.0991 195.169 30.6794 194.141 30.2775 193.119C30.2221 192.978 30.2915 192.819 30.4323 192.763C30.574 192.708 30.7327 192.777 30.7884 192.918C31.1886 193.936 31.6067 194.96 32.0303 195.962C32.0893 196.102 32.024 196.263 31.8843 196.322C31.8494 196.337 31.8132 196.344 31.7775 196.344ZM277.474 193.235C277.44 193.235 277.407 193.229 277.374 193.216C277.232 193.161 277.163 193.001 277.219 192.86C277.621 191.837 278.015 190.795 278.39 189.765C278.442 189.623 278.6 189.549 278.742 189.601C278.885 189.653 278.958 189.81 278.906 189.953C278.529 190.988 278.134 192.033 277.73 193.061C277.688 193.169 277.584 193.235 277.474 193.235L277.474 193.235ZM29.3609 190.202C29.2489 190.202 29.1435 190.132 29.1031 190.021C28.7257 188.986 28.357 187.934 28.007 186.894C27.9586 186.751 28.0358 186.595 28.1796 186.546C28.3235 186.498 28.4789 186.576 28.5275 186.719C28.8761 187.755 29.2434 188.802 29.6192 189.833C29.6711 189.975 29.5978 190.133 29.4553 190.185C29.4243 190.196 29.3925 190.201 29.3612 190.201L29.3609 190.202ZM279.744 187.002C279.715 187.002 279.685 186.997 279.656 186.988C279.513 186.939 279.435 186.784 279.483 186.64C279.832 185.601 280.174 184.54 280.498 183.488C280.542 183.343 280.697 183.261 280.841 183.306C280.986 183.351 281.067 183.504 281.023 183.649C280.697 184.706 280.354 185.771 280.004 186.815C279.965 186.93 279.858 187.002 279.744 187.002ZM27.2518 183.935C27.1345 183.935 27.0261 183.859 26.9896 183.741C26.6659 182.693 26.3505 181.624 26.0518 180.564C26.0107 180.418 26.0958 180.266 26.2415 180.225C26.3887 180.183 26.5391 180.269 26.58 180.415C26.8773 181.471 27.1916 182.536 27.5139 183.579C27.5587 183.724 27.4774 183.878 27.3325 183.923C27.3056 183.931 27.2781 183.935 27.2515 183.935L27.2518 183.935ZM281.694 180.671C281.669 180.671 281.644 180.668 281.619 180.661C281.473 180.62 281.388 180.468 281.429 180.323C281.723 179.274 282.01 178.202 282.281 177.135C282.318 176.988 282.468 176.899 282.615 176.937C282.762 176.974 282.851 177.123 282.814 177.27C282.542 178.342 282.254 179.419 281.958 180.471C281.924 180.592 281.814 180.671 281.694 180.671H281.694ZM25.46 177.57C25.3373 177.57 25.2255 177.488 25.194 177.363C24.9227 176.298 24.6611 175.214 24.4168 174.143C24.383 173.995 24.4756 173.848 24.6235 173.814C24.7715 173.78 24.9183 173.873 24.9521 174.021C25.1953 175.087 25.4556 176.167 25.726 177.228C25.7633 177.375 25.6744 177.525 25.5275 177.562C25.5047 177.568 25.4822 177.57 25.46 177.57ZM283.32 174.263C283.3 174.263 283.28 174.26 283.259 174.256C283.111 174.222 283.019 174.075 283.052 173.927C283.296 172.855 283.528 171.77 283.743 170.701C283.773 170.552 283.918 170.457 284.066 170.486C284.215 170.516 284.311 170.661 284.281 170.809C284.065 171.882 283.832 172.972 283.588 174.049C283.559 174.176 283.446 174.263 283.32 174.263V174.263ZM23.9902 171.124C23.8623 171.124 23.7478 171.034 23.7214 170.904C23.5043 169.828 23.2976 168.733 23.1068 167.648C23.0804 167.499 23.1804 167.357 23.3297 167.33C23.4788 167.304 23.6212 167.404 23.6476 167.553C23.8376 168.634 24.0435 169.724 24.2595 170.795C24.2894 170.944 24.1933 171.089 24.0446 171.119C24.0262 171.123 24.008 171.124 23.9899 171.124L23.9902 171.124ZM284.623 167.78C284.608 167.78 284.592 167.779 284.576 167.776C284.426 167.75 284.326 167.608 284.353 167.459C284.541 166.383 284.718 165.287 284.881 164.202C284.903 164.052 285.044 163.949 285.193 163.971C285.343 163.993 285.446 164.133 285.424 164.283C285.261 165.372 285.083 166.473 284.894 167.553C284.87 167.687 284.754 167.781 284.624 167.781L284.623 167.78ZM22.8449 164.612C22.7115 164.612 22.5943 164.515 22.574 164.378C22.4106 163.29 22.2588 162.186 22.1229 161.096C22.1043 160.946 22.2108 160.808 22.3612 160.79C22.5119 160.771 22.6489 160.878 22.6676 161.028C22.8029 162.113 22.9542 163.213 23.1167 164.297C23.1392 164.447 23.036 164.586 22.8861 164.609C22.8724 164.611 22.8584 164.612 22.8449 164.612ZM285.6 161.241C285.589 161.241 285.578 161.24 285.566 161.239C285.416 161.22 285.309 161.083 285.328 160.933C285.462 159.849 285.585 158.746 285.693 157.654C285.708 157.503 285.842 157.393 285.993 157.408C286.144 157.422 286.254 157.557 286.239 157.708C286.131 158.804 286.007 159.912 285.872 161C285.855 161.139 285.737 161.241 285.6 161.241ZM22.0266 158.051C21.8871 158.051 21.7677 157.946 21.7537 157.804C21.645 156.713 21.5484 155.602 21.4665 154.503C21.4553 154.352 21.5687 154.221 21.7199 154.209C21.8673 154.197 22.0027 154.312 22.0139 154.463C22.0955 155.557 22.1918 156.663 22.3 157.75C22.3151 157.901 22.2047 158.035 22.054 158.05C22.0447 158.051 22.0356 158.051 22.0266 158.051ZM286.251 154.661C286.244 154.661 286.237 154.661 286.231 154.661C286.079 154.649 285.966 154.518 285.977 154.367C286.057 153.278 286.125 152.17 286.179 151.074C286.186 150.922 286.313 150.802 286.467 150.813C286.618 150.82 286.735 150.949 286.727 151.1C286.673 152.201 286.605 153.313 286.524 154.407C286.514 154.551 286.393 154.661 286.251 154.661V154.661ZM21.5346 151.458C21.3894 151.458 21.2681 151.344 21.2607 151.197C21.206 150.102 21.1643 148.988 21.1366 147.886C21.1327 147.735 21.2524 147.609 21.404 147.605C21.5516 147.595 21.6815 147.721 21.6853 147.872C21.7131 148.97 21.7545 150.079 21.8089 151.17C21.8166 151.321 21.6999 151.45 21.5484 151.457C21.5437 151.457 21.539 151.458 21.5344 151.458L21.5346 151.458ZM286.575 148.058H286.568C286.417 148.054 286.297 147.928 286.3 147.777C286.327 146.685 286.34 145.575 286.34 144.477V144.288C286.34 144.136 286.463 144.013 286.615 144.013C286.767 144.013 286.889 144.136 286.889 144.288V144.477C286.889 145.58 286.876 146.694 286.849 147.79C286.845 147.939 286.723 148.058 286.575 148.058ZM21.3683 144.848C21.2167 144.848 21.0938 144.725 21.0938 144.573V144.476C21.0938 143.409 21.1067 142.326 21.1322 141.261C21.1358 141.109 21.2505 140.987 21.413 140.993C21.5646 140.996 21.6845 141.122 21.6809 141.274C21.6557 142.335 21.6431 143.413 21.6431 144.477V144.573C21.6431 144.725 21.5198 144.848 21.3683 144.848ZM286.57 141.256C286.421 141.256 286.299 141.138 286.295 140.989C286.267 139.895 286.225 138.786 286.17 137.691C286.162 137.54 286.279 137.411 286.43 137.403C286.58 137.395 286.71 137.512 286.718 137.664C286.774 138.762 286.816 139.876 286.844 140.975C286.848 141.126 286.729 141.252 286.577 141.256C286.574 141.256 286.572 141.256 286.57 141.256V141.256ZM21.5258 138.238C21.5215 138.238 21.5171 138.238 21.5124 138.238C21.3609 138.231 21.2442 138.102 21.2513 137.951C21.3046 136.851 21.3721 135.739 21.4523 134.644C21.4633 134.493 21.5969 134.38 21.746 134.39C21.8973 134.401 22.0109 134.533 21.9999 134.684C21.9201 135.775 21.8525 136.883 21.7998 137.977C21.7927 138.124 21.6713 138.238 21.5256 138.238L21.5258 138.238ZM286.236 134.652C286.094 134.652 285.973 134.543 285.963 134.398C285.881 133.311 285.784 132.206 285.674 131.112C285.659 130.961 285.769 130.826 285.92 130.811C286.074 130.797 286.206 130.906 286.221 131.057C286.331 132.155 286.428 133.266 286.51 134.358C286.522 134.509 286.408 134.64 286.257 134.652C286.25 134.652 286.243 134.653 286.236 134.653L286.236 134.652ZM22.0084 131.644C21.9994 131.644 21.9906 131.644 21.9813 131.643C21.8303 131.628 21.7199 131.494 21.735 131.343C21.8424 130.249 21.9648 129.142 22.0993 128.05C22.1177 127.899 22.2533 127.793 22.4054 127.811C22.5558 127.829 22.6629 127.966 22.6445 128.117C22.5105 129.204 22.3884 130.307 22.2816 131.396C22.2676 131.538 22.1482 131.644 22.0087 131.644L22.0084 131.644ZM285.576 128.074C285.44 128.074 285.321 127.973 285.304 127.834C285.169 126.752 285.017 125.653 284.852 124.566C284.83 124.416 284.933 124.276 285.083 124.253C285.234 124.23 285.373 124.334 285.396 124.484C285.56 125.576 285.713 126.68 285.849 127.766C285.867 127.916 285.761 128.054 285.61 128.072C285.599 128.074 285.587 128.074 285.576 128.074ZM22.8177 125.082C22.8043 125.082 22.7906 125.081 22.7771 125.079C22.6272 125.056 22.5237 124.917 22.546 124.767C22.7079 123.679 22.8855 122.579 23.0741 121.496C23.1002 121.347 23.243 121.247 23.3917 121.273C23.5411 121.299 23.641 121.441 23.6149 121.591C23.4269 122.668 23.2501 123.764 23.089 124.848C23.0686 124.984 22.9517 125.082 22.8177 125.082ZM284.59 121.536C284.459 121.536 284.343 121.443 284.32 121.31C284.131 120.236 283.924 119.146 283.706 118.068C283.676 117.919 283.772 117.774 283.92 117.745C284.068 117.715 284.214 117.811 284.244 117.959C284.463 119.041 284.671 120.136 284.861 121.214C284.887 121.364 284.787 121.506 284.638 121.532C284.622 121.535 284.606 121.536 284.59 121.536ZM23.9531 118.568C23.9353 118.568 23.9172 118.567 23.8988 118.563C23.75 118.533 23.6536 118.389 23.6836 118.24C23.8991 117.163 24.1316 116.073 24.3748 115C24.4083 114.852 24.556 114.759 24.7031 114.793C24.8511 114.826 24.9436 114.973 24.9101 115.121C24.668 116.19 24.4363 117.276 24.2219 118.348C24.1958 118.478 24.0811 118.568 23.9531 118.568ZM283.277 115.056C283.152 115.056 283.039 114.97 283.01 114.843C282.766 113.777 282.505 112.699 282.234 111.636C282.196 111.489 282.285 111.339 282.432 111.302C282.579 111.264 282.729 111.353 282.766 111.5C283.038 112.567 283.301 113.65 283.545 114.72C283.579 114.868 283.487 115.015 283.339 115.049C283.318 115.054 283.298 115.056 283.277 115.056ZM25.413 112.12C25.3908 112.12 25.368 112.117 25.3455 112.111C25.1984 112.074 25.1094 111.925 25.1467 111.778C25.4163 110.712 25.7035 109.634 25.9997 108.576C26.0403 108.43 26.1916 108.345 26.3379 108.386C26.4839 108.427 26.569 108.579 26.5281 108.724C26.2333 109.778 25.9475 110.851 25.6788 111.912C25.6475 112.037 25.5357 112.12 25.4128 112.12L25.413 112.12ZM281.642 108.65C281.522 108.65 281.412 108.571 281.378 108.45C281.082 107.401 280.767 106.337 280.442 105.286C280.397 105.141 280.478 104.987 280.623 104.943C280.768 104.898 280.921 104.979 280.966 105.124C281.293 106.178 281.609 107.247 281.906 108.301C281.947 108.446 281.862 108.598 281.717 108.639C281.692 108.646 281.666 108.65 281.642 108.65ZM27.1955 105.753C27.1686 105.753 27.1417 105.749 27.1148 105.741C26.9698 105.696 26.8883 105.542 26.9328 105.397C27.2575 104.34 27.5996 103.275 27.9496 102.231C27.9979 102.088 28.1536 102.01 28.2971 102.058C28.4407 102.107 28.5184 102.262 28.4701 102.406C28.1217 103.445 27.781 104.506 27.4576 105.559C27.4214 105.677 27.3127 105.753 27.1952 105.753L27.1955 105.753ZM279.686 102.334C279.572 102.334 279.465 102.261 279.426 102.147C279.077 101.111 278.709 100.064 278.333 99.0341C278.281 98.8917 278.354 98.7341 278.496 98.6822C278.638 98.63 278.796 98.7033 278.848 98.8458C279.226 99.8799 279.596 100.932 279.947 101.972C279.995 102.115 279.918 102.271 279.774 102.32C279.745 102.329 279.715 102.334 279.687 102.334L279.686 102.334ZM29.3032 99.461C29.2722 99.461 29.2404 99.4555 29.2096 99.4443C29.0672 99.3927 28.9936 99.2351 29.0452 99.0926C29.4224 98.0549 29.8171 97.0087 30.2193 95.9831C30.2748 95.842 30.4334 95.772 30.5751 95.8278C30.7162 95.8832 30.7859 96.0424 30.7305 96.1835C30.3299 97.2047 29.9366 98.2465 29.561 99.2798C29.5207 99.3916 29.4152 99.4607 29.303 99.4607L29.3032 99.461ZM277.416 96.1237C277.307 96.1237 277.204 96.0578 277.161 95.9499C276.76 94.9342 276.342 93.9102 275.917 92.9071C275.858 92.7674 275.923 92.6063 276.063 92.5472C276.201 92.4888 276.363 92.553 276.423 92.693C276.849 93.7005 277.27 94.7288 277.672 95.7487C277.727 95.8898 277.658 96.049 277.517 96.1047C277.484 96.1176 277.45 96.124 277.417 96.124L277.416 96.1237ZM31.7242 93.2871C31.6888 93.2871 31.6526 93.2802 31.6177 93.2654C31.478 93.2066 31.4124 93.0455 31.4714 92.9058C31.8994 91.8906 32.3463 90.8661 32.7998 89.8608C32.8624 89.7227 33.0249 89.6615 33.163 89.7235C33.3011 89.7861 33.3628 89.9486 33.3002 90.0867C32.8484 91.0876 32.4034 92.108 31.9773 93.1188C31.9331 93.2237 31.8313 93.2868 31.7242 93.2868V93.2871ZM274.847 90.0565C274.743 90.0565 274.643 89.9967 274.597 89.8951C274.147 88.903 273.678 87.9007 273.202 86.9163C273.136 86.7796 273.193 86.6157 273.329 86.5496C273.467 86.4837 273.63 86.5408 273.696 86.6772C274.174 87.6657 274.646 88.6721 275.097 89.6684C275.16 89.8064 275.099 89.969 274.96 90.0316C274.924 90.0483 274.885 90.0563 274.847 90.0563V90.0565ZM34.4513 87.2452C34.4112 87.2452 34.3709 87.2364 34.3322 87.218C34.1954 87.1521 34.1381 86.9882 34.204 86.8515C34.6822 85.8597 35.1796 84.8596 35.6831 83.8788C35.7522 83.744 35.9181 83.6904 36.0526 83.7599C36.1874 83.8291 36.2409 83.9946 36.1714 84.1294C35.6702 85.1061 35.1747 86.1024 34.6986 87.0898C34.6514 87.1878 34.5531 87.2452 34.4513 87.2452ZM271.976 84.1217C271.876 84.1217 271.78 84.0673 271.731 83.9729C271.234 83.0074 270.716 82.0293 270.189 81.066C270.116 80.9329 270.165 80.7663 270.298 80.6935C270.43 80.621 270.598 80.6696 270.67 80.8025C271.199 81.7699 271.72 82.7521 272.22 83.7217C272.289 83.8565 272.236 84.0221 272.101 84.0915C272.061 84.1121 272.018 84.122 271.976 84.122L271.976 84.1217ZM37.4762 81.3507C37.4318 81.3507 37.3867 81.34 37.345 81.3172C37.2119 81.2447 37.163 81.0778 37.2355 80.9447C37.7623 79.9784 38.3091 79.0049 38.8606 78.051C38.9364 77.9198 39.1047 77.8748 39.2356 77.9508C39.3668 78.0266 39.4119 78.1946 39.3358 78.3258C38.7868 79.2756 38.2421 80.2455 37.7172 81.2077C37.6673 81.2991 37.5734 81.3507 37.4759 81.3507H37.4762ZM268.811 78.3343C268.716 78.3343 268.624 78.2852 268.573 78.1973C268.028 77.2568 267.461 76.3053 266.886 75.3695C266.807 75.2402 266.847 75.0714 266.977 74.992C267.106 74.913 267.275 74.953 267.354 75.0826C267.931 76.0223 268.501 76.9779 269.048 77.9222C269.124 78.0535 269.079 78.2215 268.948 78.2975C268.905 78.3225 268.857 78.3343 268.811 78.3343ZM40.7913 75.6171C40.7424 75.6171 40.693 75.6042 40.6483 75.5768C40.519 75.4974 40.4784 75.3286 40.5574 75.1993C41.1317 74.261 41.7263 73.3161 42.3245 72.3912C42.4069 72.2641 42.5771 72.2276 42.7042 72.3097C42.8315 72.3921 42.868 72.562 42.7857 72.6894C42.19 73.6104 41.5979 74.5511 41.0258 75.4859C40.9741 75.5704 40.8836 75.6171 40.7913 75.6171ZM265.36 72.7091C265.27 72.7091 265.182 72.6649 265.13 72.5839C264.534 71.6646 263.919 70.7422 263.304 69.8421C263.218 69.7169 263.25 69.5461 263.375 69.4605C263.501 69.3748 263.672 69.4072 263.757 69.5321C264.375 70.4358 264.992 71.3621 265.591 72.2853C265.673 72.4124 265.637 72.5826 265.51 72.6649C265.463 72.6949 265.412 72.7091 265.36 72.7091ZM44.3872 70.0581C44.334 70.0581 44.2802 70.0427 44.2327 70.0103C44.1075 69.925 44.0754 69.7539 44.1608 69.6287C44.7803 68.7212 45.4211 67.8076 46.0648 66.9135C46.1532 66.7908 46.3248 66.7622 46.4481 66.8509C46.571 66.9396 46.599 67.1111 46.5104 67.2341C45.8694 68.1247 45.2311 69.0344 44.614 69.9384C44.561 70.0164 44.4751 70.0581 44.3872 70.0581ZM261.633 67.2599C261.547 67.2599 261.464 67.2204 261.41 67.146C260.769 66.2579 260.11 65.3668 259.449 64.4972C259.358 64.3764 259.381 64.2043 259.502 64.1126C259.622 64.0212 259.795 64.0442 259.886 64.165C260.55 65.0382 261.212 65.9329 261.855 66.8248C261.944 66.9478 261.916 67.1194 261.793 67.208C261.744 67.2429 261.688 67.2599 261.633 67.2599H261.633ZM48.2541 64.6869C48.1962 64.6869 48.138 64.6687 48.0883 64.6311C47.9675 64.5394 47.9439 64.3673 48.0353 64.2465C48.7016 63.3681 49.3865 62.4877 50.0714 61.6301C50.1661 61.5118 50.3391 61.4923 50.4571 61.587C50.5757 61.6814 50.5949 61.8544 50.5002 61.9727C49.8183 62.8267 49.1359 63.7035 48.4726 64.5784C48.4186 64.6495 48.3365 64.6871 48.2538 64.6871L48.2541 64.6869ZM257.637 62.0004C257.557 62.0004 257.477 61.9653 257.423 61.8972C256.742 61.0459 256.039 60.1883 255.333 59.348C255.235 59.2319 255.25 59.0587 255.366 58.9612C255.482 58.8638 255.655 58.8783 255.753 58.9947C256.463 59.8386 257.169 60.6997 257.852 61.5546C257.947 61.6732 257.927 61.8459 257.809 61.9406C257.758 61.9809 257.698 62.0007 257.638 62.0007L257.637 62.0004ZM52.3815 59.5166C52.3192 59.5166 52.2566 59.4954 52.205 59.4523C52.0889 59.3549 52.0738 59.1817 52.1712 59.0655C52.8792 58.2225 53.6067 57.3775 54.3339 56.554C54.4344 56.4403 54.6079 56.4296 54.7215 56.5301C54.8352 56.6305 54.8459 56.804 54.7454 56.9177C54.0215 57.7377 53.2968 58.5791 52.5915 59.4188C52.5372 59.4834 52.4595 59.5168 52.3812 59.5168L52.3815 59.5166ZM253.385 56.9435C253.309 56.9435 253.234 56.9122 253.18 56.8507C252.456 56.0329 251.711 55.2107 250.965 54.4072C250.862 54.296 250.868 54.1225 250.979 54.0193C251.09 53.9161 251.263 53.9221 251.367 54.0336C252.117 54.8404 252.865 55.6659 253.591 56.4872C253.692 56.6009 253.681 56.7741 253.567 56.8746C253.515 56.9207 253.45 56.9435 253.385 56.9435ZM56.759 54.5585C56.692 54.5585 56.625 54.5343 56.5723 54.4852C56.4611 54.3822 56.4548 54.2085 56.5578 54.0973C57.3028 53.2943 58.0712 52.4867 58.8415 51.6966C58.9472 51.5882 59.1212 51.5857 59.2297 51.6917C59.3384 51.7974 59.3403 51.9714 59.2346 52.0798C58.4676 52.8666 57.7022 53.671 56.9602 54.4704C56.9061 54.5286 56.8326 54.5582 56.759 54.5582V54.5585ZM248.886 52.1018C248.814 52.1018 248.743 52.0741 248.689 52.0192C247.924 51.2351 247.138 50.4508 246.355 49.6877C246.247 49.5817 246.245 49.408 246.35 49.2995C246.456 49.1908 246.631 49.1889 246.739 49.2943C247.525 50.0608 248.313 50.8483 249.082 51.6354C249.188 51.7441 249.186 51.9176 249.077 52.0236C249.024 52.0757 248.954 52.1018 248.885 52.1018H248.886ZM61.375 49.8252C61.3037 49.8252 61.2323 49.7975 61.1785 49.7423C61.0725 49.6339 61.0747 49.4601 61.1834 49.3541C61.971 48.5858 62.7781 47.8174 63.5824 47.0704C63.6936 46.9672 63.8674 46.9738 63.9706 47.0847C64.0735 47.1959 64.0675 47.3696 63.9563 47.4729C63.1553 48.2165 62.3512 48.9819 61.5669 49.7473C61.5137 49.7991 61.4445 49.8252 61.3753 49.8252H61.375ZM244.151 47.4871C244.084 47.4871 244.017 47.463 243.964 47.4138C243.16 46.6682 242.337 45.9235 241.517 45.2001C241.404 45.0999 241.393 44.9262 241.493 44.8125C241.593 44.6986 241.767 44.6884 241.88 44.7883C242.704 45.515 243.531 46.2628 244.337 47.0114C244.448 47.1143 244.455 47.2881 244.352 47.3993C244.298 47.4575 244.224 47.4871 244.151 47.4871ZM66.2184 45.3278C66.1423 45.3278 66.0668 45.2965 66.0125 45.235C65.912 45.1213 65.9227 44.9478 66.0364 44.8474C66.8596 44.1202 67.7035 43.393 68.5446 42.6861C68.6608 42.5889 68.834 42.6037 68.9314 42.7196C69.0289 42.8357 69.0141 43.0089 68.8979 43.1064C68.0604 43.8102 67.2198 44.5344 66.3998 45.2589C66.3477 45.305 66.2829 45.3275 66.2181 45.3275L66.2184 45.3278ZM239.191 43.1119C239.129 43.1119 239.066 43.0907 239.015 43.0476C238.177 42.3446 237.317 41.6413 236.459 40.9572C236.341 40.8627 236.322 40.6898 236.416 40.5715C236.511 40.4531 236.683 40.4336 236.802 40.5281C237.663 41.2152 238.526 41.9215 239.367 42.6271C239.484 42.7245 239.499 42.8977 239.401 43.0139C239.347 43.0786 239.269 43.1119 239.191 43.1119H239.191ZM71.2767 41.0774C71.1962 41.0774 71.1163 41.0423 71.062 40.9742C70.9673 40.8556 70.9868 40.6829 71.1051 40.5885C71.9621 39.9038 72.8406 39.2197 73.7166 38.5548C73.8374 38.4632 74.0095 38.4868 74.1012 38.6075C74.1929 38.7283 74.1693 38.9005 74.0485 38.9921C73.1763 39.6546 72.3012 40.3359 71.4477 41.0175C71.3972 41.0579 71.3365 41.0777 71.2764 41.0777L71.2767 41.0774ZM234.019 38.9861C233.961 38.9861 233.903 38.968 233.853 38.9304C232.979 38.2682 232.086 37.6083 231.197 36.9687C231.074 36.8803 231.046 36.7087 231.134 36.5854C231.222 36.4622 231.394 36.4342 231.517 36.5228C232.41 37.1649 233.307 37.8276 234.185 38.4925C234.305 38.5839 234.329 38.7563 234.237 38.8771C234.184 38.9485 234.102 38.9858 234.018 38.9858L234.019 38.9861ZM76.5375 37.0842C76.4522 37.0842 76.3682 37.0447 76.3146 36.97C76.226 36.8471 76.2537 36.6755 76.3769 36.5868C77.2669 35.9455 78.1781 35.3059 79.0848 34.686C79.2105 34.6007 79.381 34.6328 79.4664 34.7577C79.552 34.8829 79.5199 35.0536 79.3947 35.1393C78.4916 35.7567 77.5843 36.3936 76.6979 37.0324C76.6493 37.0672 76.5933 37.084 76.5378 37.084L76.5375 37.0842ZM228.646 35.1214C228.593 35.1214 228.539 35.1061 228.492 35.0737C227.589 34.4574 226.663 33.8424 225.74 33.2459C225.613 33.1636 225.576 32.9936 225.659 32.8663C225.741 32.7392 225.91 32.7024 226.038 32.7847C226.965 33.384 227.895 34.0014 228.801 34.6202C228.926 34.7055 228.959 34.8763 228.873 35.0015C228.82 35.0794 228.734 35.1214 228.646 35.1214H228.646ZM81.9878 33.3587C81.8978 33.3587 81.8097 33.3145 81.7572 33.2333C81.6749 33.1062 81.7111 32.936 81.8385 32.8536C82.7587 32.2576 83.7 31.6644 84.6364 31.0904C84.7657 31.0111 84.9345 31.0517 85.0139 31.181C85.0932 31.3103 85.0526 31.4791 84.9233 31.5584C83.991 32.1303 83.0532 32.7208 82.1369 33.3143C82.0908 33.3442 82.0392 33.3585 81.9881 33.3585L81.9878 33.3587ZM223.086 31.5277C223.037 31.5277 222.988 31.5148 222.943 31.4873C222.005 30.9139 221.05 30.3456 220.102 29.7985C219.971 29.7227 219.926 29.5547 220.002 29.4235C220.078 29.292 220.246 29.247 220.377 29.323C221.328 29.8724 222.288 30.4431 223.23 31.019C223.359 31.0981 223.4 31.2672 223.321 31.3965C223.269 31.481 223.178 31.5277 223.086 31.5277ZM87.6141 29.9097C87.5194 29.9097 87.4272 29.8605 87.3764 29.7727C87.3003 29.6415 87.3451 29.4737 87.4763 29.3977C88.4226 28.8495 89.3919 28.3043 90.3571 27.7767C90.49 27.7036 90.6571 27.7528 90.7296 27.8859C90.8024 28.0188 90.7535 28.1857 90.6204 28.2585C89.659 28.7839 88.6938 29.3272 87.7516 29.8729C87.7083 29.8979 87.6608 29.91 87.6144 29.91L87.6141 29.9097ZM217.352 28.2145C217.307 28.2145 217.262 28.2038 217.22 28.181C216.259 27.6575 215.276 27.1376 214.298 26.6358C214.163 26.5666 214.109 26.4013 214.179 26.2663C214.248 26.1312 214.414 26.0779 214.548 26.1471C215.531 26.6509 216.518 27.173 217.483 27.6987C217.616 27.7712 217.665 27.9381 217.592 28.071C217.542 28.1624 217.448 28.214 217.351 28.214L217.352 28.2145ZM93.4026 26.7467C93.303 26.7467 93.2069 26.6923 93.1583 26.5979C93.0888 26.4631 93.1418 26.2976 93.2769 26.2281C94.2495 25.7277 95.2444 25.2316 96.2337 24.7531C96.3707 24.6867 96.5343 24.7443 96.6002 24.8808C96.6661 25.0172 96.609 25.1814 96.4726 25.2473C95.4873 25.7235 94.4966 26.2177 93.5281 26.7159C93.488 26.7365 93.4449 26.7467 93.4026 26.7467ZM211.456 25.1913C211.416 25.1913 211.375 25.1825 211.337 25.1641C210.35 24.6892 209.342 24.2189 208.339 23.7668C208.201 23.7045 208.139 23.5419 208.202 23.4036C208.264 23.2655 208.426 23.204 208.565 23.2663C209.572 23.7204 210.584 24.1926 211.575 24.6697C211.712 24.7355 211.769 24.8994 211.703 25.0361C211.656 25.1342 211.558 25.1913 211.456 25.1913ZM99.3383 23.878C99.2339 23.878 99.134 23.8181 99.0879 23.7168C99.0253 23.5787 99.0868 23.4159 99.2249 23.3533C100.22 22.9029 101.238 22.4573 102.25 22.0288C102.389 21.97 102.55 22.0348 102.61 22.1746C102.669 22.314 102.604 22.4752 102.464 22.5345C101.456 22.9611 100.442 23.405 99.4516 23.8538C99.4149 23.8705 99.3764 23.8782 99.3385 23.8782L99.3383 23.878ZM205.413 22.4664C205.378 22.4664 205.341 22.4595 205.307 22.4447C204.295 22.0189 203.264 21.6 202.241 21.1992C202.1 21.1437 202.03 20.9845 202.086 20.8434C202.141 20.702 202.301 20.6326 202.442 20.688C203.469 21.0905 204.505 21.5113 205.52 21.9387C205.659 21.9975 205.725 22.1586 205.666 22.2984C205.622 22.4032 205.52 22.4664 205.413 22.4664ZM105.407 21.3106C105.297 21.3106 105.194 21.2448 105.151 21.1366C105.096 20.9955 105.165 20.836 105.306 20.7806C106.33 20.3776 107.372 19.982 108.404 19.6051C108.546 19.5532 108.704 19.6265 108.756 19.7687C108.808 19.9112 108.735 20.0687 108.592 20.1209C107.565 20.4962 106.527 20.8901 105.508 21.2914C105.474 21.3046 105.44 21.3106 105.407 21.3106H105.407ZM199.238 20.0479C199.207 20.0479 199.175 20.0424 199.145 20.0311C198.113 19.6567 197.061 19.2899 196.019 18.941C195.875 18.893 195.797 18.7373 195.845 18.5935C195.893 18.4499 196.05 18.3727 196.193 18.4202C197.24 18.7705 198.296 19.1389 199.332 19.515C199.475 19.5666 199.548 19.7242 199.497 19.8667C199.456 19.9781 199.351 20.0476 199.238 20.0476L199.238 20.0479ZM111.617 19.0426C111.503 19.0426 111.396 18.9701 111.357 18.8556C111.309 18.7121 111.386 18.5561 111.53 18.5078C112.571 18.1567 113.632 17.8141 114.683 17.4893C114.826 17.4449 114.981 17.5256 115.026 17.6705C115.071 17.8152 114.99 17.9689 114.845 18.014C113.799 18.3373 112.742 18.6786 111.705 19.0283C111.676 19.0382 111.646 19.0426 111.617 19.0426ZM192.946 17.942C192.919 17.942 192.892 17.9379 192.865 17.9299C191.82 17.6093 190.755 17.2969 189.699 17.0018C189.553 16.9612 189.468 16.8096 189.509 16.6636C189.549 16.5173 189.701 16.4327 189.847 16.4731C190.907 16.7696 191.977 17.0831 193.026 17.4051C193.171 17.4495 193.253 17.6033 193.208 17.7482C193.172 17.8663 193.063 17.942 192.946 17.942ZM117.934 17.0894C117.814 17.0894 117.704 17.0103 117.67 16.8892C117.629 16.7432 117.714 16.5917 117.86 16.5505C118.916 16.2529 119.992 15.9638 121.06 15.6918C121.207 15.6547 121.356 15.7434 121.393 15.89C121.431 16.0369 121.342 16.1865 121.195 16.2238C120.132 16.495 119.06 16.7827 118.009 17.0789C117.984 17.0861 117.959 17.0894 117.934 17.0894ZM186.578 16.162C186.556 16.162 186.533 16.1593 186.51 16.1535C185.45 15.8856 184.371 15.6273 183.302 15.3857C183.154 15.3522 183.061 15.2053 183.095 15.0574C183.128 14.9094 183.275 14.8172 183.423 14.8501C184.496 15.0928 185.58 15.3522 186.645 15.6215C186.792 15.6586 186.88 15.8079 186.844 15.9548C186.812 16.0791 186.701 16.162 186.578 16.162ZM124.341 15.4557C124.216 15.4557 124.103 15.3695 124.074 15.2424C124.04 15.0944 124.132 14.9473 124.28 14.9135C125.349 14.6695 126.439 14.4348 127.519 14.2165C127.668 14.1863 127.812 14.2824 127.842 14.4312C127.872 14.58 127.776 14.7247 127.627 14.7546C126.552 14.972 125.467 15.2056 124.402 15.4488C124.381 15.4535 124.361 15.4557 124.34 15.4557H124.341ZM180.129 14.7038C180.111 14.7038 180.093 14.7022 180.075 14.6983C179.003 14.4839 177.911 14.2799 176.832 14.0922C176.683 14.0661 176.583 13.9239 176.609 13.7746C176.635 13.6252 176.775 13.5258 176.926 13.5511C178.01 13.7397 179.106 13.9445 180.183 14.16C180.331 14.1896 180.428 14.3343 180.398 14.4831C180.372 14.6135 180.257 14.7038 180.129 14.7038H180.129ZM130.821 14.1457C130.691 14.1457 130.575 14.0521 130.552 13.9187C130.525 13.7696 130.625 13.6271 130.775 13.6008C131.858 13.4097 132.958 13.2302 134.044 13.0668C134.192 13.0435 134.334 13.1473 134.356 13.2974C134.379 13.4473 134.276 13.5873 134.126 13.6098C133.045 13.7726 131.949 13.9516 130.87 14.1419C130.854 14.1446 130.838 14.146 130.822 14.146L130.821 14.1457ZM173.615 13.5706C173.602 13.5706 173.589 13.5698 173.575 13.5676C172.493 13.407 171.393 13.2579 170.306 13.1242C170.155 13.1058 170.048 12.9688 170.067 12.8181C170.085 12.668 170.221 12.5615 170.373 12.579C171.465 12.7133 172.569 12.8631 173.656 13.0243C173.806 13.0465 173.909 13.1863 173.887 13.3361C173.867 13.4723 173.749 13.5703 173.616 13.5703L173.615 13.5706ZM137.359 13.1616C137.223 13.1616 137.105 13.06 137.087 12.9211C137.069 12.7706 137.175 12.6334 137.326 12.6147C138.414 12.4785 139.521 12.3539 140.618 12.2444C140.769 12.229 140.903 12.3394 140.918 12.4904C140.933 12.6413 140.823 12.7759 140.672 12.791C139.58 12.8999 138.477 13.0243 137.394 13.1596C137.382 13.161 137.371 13.1616 137.359 13.1616ZM167.053 12.7638C167.044 12.7638 167.035 12.7635 167.026 12.7624C165.936 12.6559 164.83 12.5617 163.739 12.4821C163.588 12.4711 163.474 12.3396 163.485 12.1884C163.496 12.0371 163.629 11.9265 163.778 11.9345C164.874 12.0143 165.985 12.1088 167.079 12.2158C167.23 12.2307 167.34 12.3646 167.325 12.5156C167.311 12.6575 167.192 12.7635 167.053 12.7635L167.053 12.7638ZM143.939 12.5041C143.796 12.5041 143.676 12.3943 143.665 12.2501C143.654 12.0989 143.767 11.9671 143.918 11.9559C145.015 11.8735 146.128 11.8041 147.225 11.7489C147.377 11.7439 147.505 11.8579 147.513 12.0094C147.52 12.1607 147.404 12.2897 147.252 12.2971C146.16 12.352 145.051 12.4214 143.959 12.503C143.952 12.5035 143.945 12.5038 143.938 12.5038L143.939 12.5041ZM160.459 12.2839C160.454 12.2839 160.45 12.2839 160.445 12.2839C159.351 12.2315 158.242 12.192 157.148 12.1661C156.996 12.1626 156.876 12.0368 156.88 11.8853C156.883 11.7335 157.023 11.6108 157.16 11.6174C158.259 11.6429 159.373 11.6827 160.471 11.7354C160.623 11.7428 160.74 11.8713 160.732 12.0228C160.725 12.17 160.604 12.2842 160.458 12.2842L160.459 12.2839ZM150.542 12.173C150.394 12.173 150.272 12.0547 150.268 11.9054C150.264 11.7538 150.384 11.6278 150.536 11.624C151.635 11.5957 152.75 11.5811 153.848 11.5798C154 11.5798 154.123 11.7025 154.123 11.854C154.123 12.0056 154 12.1285 153.848 12.1288C152.754 12.1299 151.644 12.1447 150.549 12.1727C150.546 12.1727 150.544 12.1727 150.542 12.1727L150.542 12.173Z" fill="#292A2E"/>
<path opacity="0.1" d="M153.992 222.31C196.977 222.31 231.824 187.464 231.824 144.479C231.824 101.493 196.977 66.6469 153.992 66.6469C111.007 66.6469 76.1604 101.493 76.1604 144.479C76.1604 187.464 111.007 222.31 153.992 222.31Z" fill="#1B9C68"/>
<path d="M269.898 116.412C288.642 116.412 303.836 101.217 303.836 82.4735C303.836 63.7299 288.642 48.5352 269.898 48.5352C251.155 48.5352 235.96 63.7299 235.96 82.4735C235.96 101.217 251.155 116.412 269.898 116.412Z" fill="white"/>
<path opacity="0.1" d="M269.898 116.412C288.642 116.412 303.836 101.217 303.836 82.4735C303.836 63.7299 288.642 48.5352 269.898 48.5352C251.155 48.5352 235.96 63.7299 235.96 82.4735C235.96 101.217 251.155 116.412 269.898 116.412Z" fill="#1B9C68"/>
<path d="M249.62 95.9291L289.029 102.378C291.108 102.719 293.069 101.309 293.41 99.2297L297.636 73.4025C297.976 71.3234 296.567 69.3621 294.488 69.0218L255.079 62.5726C253 62.2324 251.038 63.6421 250.698 65.7212L246.472 91.5484C246.131 93.6275 247.541 95.5888 249.62 95.9291Z" fill="#262626"/>
<path d="M261.227 68.3458L256.307 67.5405C255.456 67.4013 254.654 67.978 254.515 68.8286L254.046 71.6943C253.906 72.545 254.483 73.3473 255.334 73.4865L260.254 74.2918C261.105 74.431 261.907 73.8543 262.047 73.0037L262.516 70.1379C262.655 69.2873 262.078 68.485 261.227 68.3458Z" fill="white"/>
<path d="M262.659 69.2595L262.431 70.6549L259.72 70.2112L259.354 69.7025L259.619 68.0848L262.108 68.4919C262.472 68.5515 262.719 68.8952 262.659 69.2595Z" fill="#0CBC8B"/>
<path d="M262.13 72.4911L261.902 73.8865C261.843 74.2508 261.499 74.4976 261.135 74.438L258.646 74.0309L258.918 72.3695L259.419 72.0475L262.13 72.4911H262.13Z" fill="#0CBC8B"/>
<path d="M257.87 67.7985L257.605 69.4162L257.14 69.789L254.43 69.3454L254.658 67.95C254.718 67.5857 255.061 67.3389 255.426 67.3985L257.87 67.7985H257.87Z" fill="#0CBC8B"/>
<path d="M257.169 72.0832L256.897 73.7445L254.452 73.3446C254.088 73.285 253.841 72.9413 253.901 72.577L254.129 71.1816L256.84 71.6253L257.169 72.0832Z" fill="#0CBC8B"/>
<path d="M290.23 95.7725C289.915 97.6964 288.083 99.0127 286.16 98.6978C285.329 98.5619 284.636 98.1342 284.103 97.5531C283.423 96.7685 283.056 95.7207 283.235 94.6278C283.414 93.5347 284.103 92.615 284.99 92.1316C285.68 91.7508 286.474 91.5664 287.305 91.7022C289.228 92.0171 290.545 93.8487 290.23 95.7723V95.7725Z" fill="white"/>
<path d="M282.791 97.3384C282.1 97.7191 281.307 97.9036 280.476 97.7677C278.552 97.4529 277.236 95.6213 277.551 93.6977C277.866 91.7739 279.697 90.4576 281.621 90.7724C282.452 90.9083 283.145 91.336 283.678 91.9172C282.784 92.4443 282.275 93.3485 282.096 94.4417C281.917 95.5348 282.104 96.598 282.791 97.3387V97.3384Z" fill="#0CBC8B"/>
<path d="M260.627 79.2797L253.652 78.1383C253.297 78.0801 252.962 78.3211 252.903 78.6764C252.845 79.0318 253.086 79.367 253.442 79.4251L260.417 80.5666C260.772 80.6247 261.107 80.3838 261.165 80.0285C261.224 79.6731 260.983 79.3379 260.627 79.2797Z" fill="white"/>
<path d="M270.899 80.9608L263.924 79.8194C263.568 79.7612 263.233 80.0022 263.175 80.3575C263.117 80.7129 263.358 81.0481 263.713 81.1062L270.688 82.2477C271.043 82.3058 271.379 82.0649 271.437 81.7095C271.495 81.3542 271.254 81.019 270.899 80.9608Z" fill="white"/>
<path d="M281.172 82.642L274.197 81.5005C273.842 81.4424 273.507 81.6833 273.448 82.0387C273.39 82.394 273.631 82.7292 273.987 82.7874L280.962 83.9288C281.317 83.987 281.652 83.7461 281.71 83.3907C281.768 83.0353 281.527 82.7001 281.172 82.642Z" fill="white"/>
<path d="M291.444 84.3229L284.469 83.1814C284.114 83.1233 283.779 83.3642 283.72 83.7195C283.662 84.0749 283.903 84.4101 284.259 84.4683L291.234 85.6097C291.589 85.6679 291.924 85.4269 291.982 85.0716C292.04 84.7162 291.799 84.381 291.444 84.3229Z" fill="white"/>
<path d="M35.0582 229.437C54.3298 229.437 69.9526 213.814 69.9526 194.542C69.9526 175.271 54.3298 159.648 35.0582 159.648C15.7866 159.648 0.163818 175.271 0.163818 194.542C0.163818 213.814 15.7866 229.437 35.0582 229.437Z" fill="white"/>
<path opacity="0.1" d="M35.0582 229.437C54.3298 229.437 69.9526 213.814 69.9526 194.542C69.9526 175.271 54.3298 159.648 35.0582 159.648C15.7866 159.648 0.163818 175.271 0.163818 194.542C0.163818 213.814 15.7866 229.437 35.0582 229.437Z" fill="#1B9C68"/>
<path d="M50.4459 191.535H14.4238C13.7537 191.535 13.2104 192.078 13.2104 192.748L15.5702 218.937C15.5702 219.607 16.1135 220.15 16.7836 220.15H50.4459C51.116 220.15 51.6593 219.607 51.6593 218.937V192.748C51.6593 192.078 51.116 191.535 50.4459 191.535Z" fill="#292A2E"/>
<path d="M53.1958 178.374L51.6827 212.527C51.6616 213.007 51.255 213.378 50.7751 213.357L19.6809 211.979C19.2008 211.958 18.8291 211.552 18.8502 211.072L20.6461 170.543C20.6673 170.063 21.0738 169.691 21.5537 169.712L46.3469 170.811L46.0647 177.177C46.0433 177.663 46.4193 178.074 46.9052 178.096L53.1958 178.374Z" fill="#335BAC"/>
<path opacity="0.4" d="M53.1958 178.374L51.6827 212.527C51.6616 213.007 51.255 213.378 50.7751 213.357L19.6809 211.979C19.2008 211.958 18.8291 211.552 18.8502 211.072L20.6461 170.543C20.6673 170.063 21.0738 169.691 21.5537 169.712L46.3469 170.811L46.0589 177.311C46.0408 177.723 46.3598 178.071 46.7718 178.09L53.1961 178.374L53.1958 178.374Z" fill="white"/>
<path d="M24.4475 180.957L48.9291 182.042Z" fill="white"/>
<path d="M48.9293 182.179C48.9271 182.179 48.9252 182.179 48.9233 182.179L24.4417 181.095C24.3659 181.091 24.3071 181.027 24.3104 180.952C24.3137 180.876 24.3818 180.816 24.4535 180.82L48.9351 181.905C49.0108 181.908 49.0696 181.973 49.0663 182.048C49.063 182.122 49.0023 182.179 48.9293 182.179Z" fill="#FAFAFA"/>
<path d="M24.28 184.731L48.7616 185.816Z" fill="white"/>
<path d="M48.7621 185.953C48.7599 185.953 48.758 185.953 48.7561 185.953L24.2742 184.868C24.1984 184.865 24.1397 184.801 24.143 184.725C24.1462 184.65 24.2173 184.593 24.286 184.594L48.7679 185.679C48.8436 185.682 48.9024 185.747 48.8991 185.822C48.8958 185.896 48.8351 185.953 48.7621 185.953Z" fill="#FAFAFA"/>
<path d="M24.1145 188.505L48.5961 189.59Z" fill="white"/>
<path d="M48.5963 189.727C48.5941 189.727 48.5922 189.727 48.5903 189.727L24.1086 188.642C24.0329 188.639 23.9741 188.575 23.9774 188.499C23.9807 188.424 24.0502 188.365 24.1205 188.368L48.6021 189.453C48.6778 189.456 48.7366 189.521 48.7333 189.596C48.73 189.67 48.6693 189.727 48.5963 189.727Z" fill="#FAFAFA"/>
<path d="M23.9468 192.279L48.4284 193.363Z" fill="white"/>
<path d="M48.4286 193.501C48.4264 193.501 48.4244 193.501 48.4225 193.501L23.9409 192.416C23.8652 192.413 23.8064 192.349 23.8097 192.273C23.813 192.197 23.8852 192.136 23.9527 192.142L48.4343 193.227C48.5101 193.23 48.5688 193.294 48.5656 193.37C48.5623 193.444 48.5016 193.501 48.4286 193.501Z" fill="#FAFAFA"/>
<path d="M23.7795 196.053L48.2611 197.138Z" fill="white"/>
<path d="M48.2613 197.275C48.2591 197.275 48.2572 197.275 48.2553 197.275L23.7737 196.19C23.6979 196.187 23.6392 196.123 23.6425 196.047C23.6458 195.971 23.7166 195.913 23.7855 195.916L48.2671 197.001C48.3429 197.004 48.4016 197.068 48.3983 197.144C48.395 197.217 48.3344 197.275 48.2613 197.275Z" fill="#FAFAFA"/>
<path d="M23.6121 199.827L34.603 200.314Z" fill="white"/>
<path d="M34.6032 200.451C34.601 200.451 34.599 200.451 34.5971 200.451L23.6062 199.964C23.5304 199.961 23.4717 199.897 23.475 199.821C23.4783 199.745 23.5472 199.685 23.618 199.69L34.6089 200.177C34.6847 200.18 34.7434 200.244 34.7401 200.32C34.7369 200.394 34.6762 200.451 34.6032 200.451Z" fill="#FAFAFA"/>
<path opacity="0.7" d="M53.1952 178.374L46.943 178.097C46.4359 178.075 46.0431 177.645 46.0656 177.138L46.3459 170.811L53.1952 178.374Z" fill="#1B9C68"/>
<path d="M48.2929 180.51L51.0129 214.587C51.051 215.066 50.6939 215.486 50.2148 215.524L19.1887 218C18.7097 218.038 18.2905 217.681 18.2523 217.202L15.0245 176.762C14.9864 176.283 15.3435 175.864 15.8225 175.826L40.5614 173.851L41.0684 180.204C41.1071 180.688 41.5313 181.05 42.0161 181.011L48.2932 180.51H48.2929Z" fill="#335BAC"/>
<path opacity="0.73" d="M48.2929 180.51L51.0129 214.587C51.051 215.066 50.6939 215.486 50.2148 215.524L19.1887 218C18.7097 218.038 18.2905 217.681 18.2523 217.202L15.0245 176.762C14.9864 176.283 15.3435 175.864 15.8225 175.826L40.5614 173.851L41.0687 180.206C41.1074 180.689 41.5304 181.05 42.0139 181.011L48.2929 180.51Z" fill="white"/>
<path d="M20.0854 186.627L44.5135 184.677Z" fill="white"/>
<path d="M20.0854 186.764C20.0146 186.764 19.9544 186.71 19.9487 186.638C19.9426 186.562 19.9992 186.496 20.0747 186.49L44.5028 184.54C44.5763 184.536 44.6444 184.591 44.6505 184.666C44.6565 184.742 44.5999 184.808 44.5244 184.814L20.0964 186.764C20.0928 186.764 20.089 186.764 20.0854 186.764Z" fill="#FAFAFA"/>
<path d="M20.3848 190.392L44.8128 188.443Z" fill="white"/>
<path d="M20.3847 190.53C20.3139 190.53 20.2538 190.475 20.248 190.403C20.242 190.328 20.2985 190.262 20.374 190.256L44.8021 188.306C44.8759 188.301 44.9437 188.357 44.9498 188.432C44.9558 188.508 44.8993 188.574 44.8238 188.58L20.3957 190.529C20.3921 190.529 20.3883 190.53 20.3847 190.53Z" fill="#FAFAFA"/>
<path d="M20.6858 194.158L45.1139 192.208Z" fill="white"/>
<path d="M20.6857 194.296C20.6149 194.296 20.5548 194.241 20.549 194.169C20.543 194.094 20.5995 194.028 20.675 194.022L45.1031 192.072C45.1772 192.066 45.2448 192.122 45.2508 192.198C45.2568 192.273 45.2003 192.339 45.1248 192.345L20.6967 194.295C20.6931 194.295 20.6893 194.296 20.6857 194.296Z" fill="#FAFAFA"/>
<path d="M20.9866 197.924L45.4146 195.974Z" fill="white"/>
<path d="M20.9865 198.061C20.9157 198.061 20.8556 198.006 20.8498 197.934C20.8438 197.859 20.9003 197.793 20.9758 197.787L45.4036 195.837C45.478 195.831 45.5453 195.887 45.5513 195.963C45.5573 196.038 45.5008 196.105 45.4253 196.111L20.9975 198.06C20.9939 198.06 20.9901 198.061 20.9865 198.061Z" fill="#FAFAFA"/>
<path d="M21.2878 201.689L45.7159 199.739Z" fill="white"/>
<path d="M21.2878 201.827C21.217 201.827 21.1568 201.772 21.1511 201.7C21.145 201.625 21.2016 201.559 21.2771 201.553L45.7052 199.603C45.7798 199.596 45.8468 199.653 45.8528 199.729C45.8589 199.804 45.8023 199.87 45.7268 199.876L21.2988 201.826C21.2952 201.826 21.2914 201.827 21.2878 201.827Z" fill="#FAFAFA"/>
<path d="M21.5869 205.455L32.5537 204.579Z" fill="white"/>
<path d="M21.5869 205.592C21.516 205.592 21.4559 205.538 21.4501 205.466C21.4441 205.39 21.5007 205.324 21.5762 205.318L32.5429 204.443C32.6173 204.438 32.6846 204.493 32.6906 204.569C32.6966 204.644 32.6401 204.71 32.5646 204.717L21.5978 205.592C21.5943 205.592 21.5904 205.592 21.5869 205.592Z" fill="#FAFAFA"/>
<path opacity="0.3" d="M48.2929 180.51L42.0544 181.008C41.5485 181.048 41.1057 180.671 41.0651 180.165L40.561 173.851L48.2929 180.51Z" fill="white"/>
<path d="M44.7581 195.489V196.394C44.7581 197.064 44.2148 197.608 43.5447 197.608H19.1298C18.5141 197.608 17.996 198.069 17.9247 198.68L15.5786 218.796C15.4946 219.517 16.0579 220.15 16.7838 220.15H52.8797C53.5023 220.15 54.0239 219.679 54.0868 219.06L56.4693 195.611C56.5421 194.896 55.9807 194.275 55.2623 194.275H45.9717C45.3016 194.275 44.7584 194.818 44.7584 195.489L44.7581 195.489Z" fill="#0CBC8B"/>
<path d="M233.795 279C254.925 279 272.054 261.871 272.054 240.741C272.054 219.611 254.925 202.482 233.795 202.482C212.665 202.482 195.536 219.611 195.536 240.741C195.536 261.871 212.665 279 233.795 279Z" fill="white"/>
<path opacity="0.1" d="M233.795 279C254.925 279 272.054 261.871 272.054 240.741C272.054 219.611 254.925 202.482 233.795 202.482C212.665 202.482 195.536 219.611 195.536 240.741C195.536 261.871 212.665 279 233.795 279Z" fill="#1B9C68"/>
<path d="M210.306 230.204C210.043 230.204 209.831 229.991 209.831 229.729V220.928C209.831 218.428 211.864 216.394 214.365 216.394H223.168C223.431 216.394 223.644 216.607 223.644 216.869C223.644 217.132 223.431 217.344 223.168 217.344H214.365C212.389 217.344 210.781 218.952 210.781 220.928V229.729C210.781 229.991 210.568 230.204 210.306 230.204L210.306 230.204Z" fill="#292A2E"/>
<path d="M223.168 266.351H214.365C211.864 266.351 209.831 264.318 209.831 261.818V253.017C209.831 252.754 210.044 252.542 210.306 252.542C210.568 252.542 210.781 252.754 210.781 253.017V261.818C210.781 263.793 212.388 265.401 214.364 265.401H223.168C223.431 265.401 223.643 265.613 223.643 265.876C223.643 266.138 223.43 266.351 223.168 266.351L223.168 266.351Z" fill="#292A2E"/>
<path d="M259.316 230.204C259.053 230.204 258.84 229.991 258.84 229.729V220.928C258.84 218.952 257.233 217.345 255.257 217.345H246.453C246.191 217.345 245.978 217.132 245.978 216.869C245.978 216.607 246.191 216.394 246.453 216.394H255.257C257.757 216.394 259.791 218.428 259.791 220.928V229.729C259.791 229.991 259.578 230.204 259.316 230.204L259.316 230.204Z" fill="#292A2E"/>
<path d="M255.257 266.351H246.453C246.191 266.351 245.978 266.139 245.978 265.876C245.978 265.614 246.191 265.401 246.453 265.401H255.257C257.233 265.401 258.84 263.794 258.84 261.818V253.017C258.84 252.755 259.053 252.542 259.316 252.542C259.578 252.542 259.791 252.755 259.791 253.017V261.818C259.791 264.318 257.757 266.352 255.257 266.352L255.257 266.351Z" fill="#292A2E"/>
<path d="M230.237 257.707C230.069 257.707 229.906 257.618 229.82 257.46C229.694 257.23 229.778 256.941 230.008 256.815C235.222 253.957 233.006 247.998 232.909 247.746C232.815 247.501 232.936 247.226 233.181 247.131C233.426 247.037 233.701 247.159 233.796 247.403C233.822 247.473 236.414 254.388 230.465 257.648C230.393 257.688 230.315 257.707 230.237 257.707Z" fill="#0CBC8B"/>
<path d="M232.714 260.17C232.542 260.17 232.375 260.076 232.291 259.912C232.171 259.679 232.263 259.392 232.496 259.272C232.761 259.135 238.866 255.855 236.876 247.252C236.638 246.22 235.974 244.919 234.827 244.363C233.983 243.953 232.989 244.011 231.871 244.536C230.386 245.234 230.509 246.988 230.65 249.02C230.822 251.479 231.017 254.266 227.967 255.282C226.095 255.906 224.946 255.337 224.311 254.749C222.154 252.753 222.493 247.624 223.438 243.838C224.45 239.791 228.405 235.927 234.022 236.378C241.98 237.016 245.279 241.625 245.05 251.79C245.044 252.053 244.831 252.271 244.564 252.255C244.301 252.249 244.093 252.031 244.099 251.769C244.317 242.105 241.375 237.921 233.946 237.326C228.864 236.919 225.275 240.41 224.361 244.069C223.216 248.651 223.456 252.662 224.957 254.052C225.615 254.661 226.502 254.769 227.667 254.381C230.017 253.597 229.871 251.507 229.702 249.086C229.55 246.905 229.393 244.651 231.467 243.675C232.857 243.022 234.127 242.966 235.243 243.507C236.691 244.21 237.515 245.792 237.803 247.037C239.965 256.383 233.002 260.081 232.932 260.117C232.862 260.153 232.788 260.17 232.715 260.17H232.714Z" fill="#0CBC8B"/>
<path d="M239.936 256.661C239.889 256.661 239.843 256.654 239.797 256.64C239.546 256.564 239.404 256.298 239.481 256.047C241.302 250.07 240.844 244.983 238.256 242.439C236.674 240.882 234.43 240.468 231.938 241.273C225.669 243.298 227.162 251.928 227.178 252.015C227.225 252.273 227.054 252.52 226.796 252.568C226.54 252.614 226.29 252.444 226.243 252.186C226.226 252.091 224.582 242.65 231.646 240.369C234.492 239.45 237.076 239.945 238.923 241.761C241.767 244.559 242.316 250.003 240.39 256.324C240.327 256.529 240.139 256.662 239.935 256.662L239.936 256.661Z" fill="#0CBC8B"/>
<path d="M244.977 239.361C244.824 239.361 244.673 239.287 244.581 239.149C242.352 235.789 239.91 235.354 236.53 234.751C235.349 234.54 234.011 234.302 232.549 233.913C227.785 232.645 224.253 228.872 224.105 228.712C223.926 228.519 223.938 228.219 224.13 228.04C224.323 227.862 224.623 227.873 224.802 228.066C224.836 228.103 228.302 231.799 232.794 232.994C234.217 233.373 235.535 233.608 236.697 233.815C240.174 234.435 242.92 234.925 245.373 238.623C245.518 238.842 245.459 239.137 245.24 239.282C245.159 239.336 245.068 239.362 244.977 239.362V239.361Z" fill="#0CBC8B"/>
<path d="M222.66 238.806C222.449 238.806 222.256 238.665 222.2 238.451C222.134 238.198 222.285 237.938 222.539 237.871C223.756 237.551 226.876 236.375 226.706 234.798C226.497 232.86 223.066 232.343 223.032 232.338C222.772 232.301 222.591 232.06 222.629 231.8C222.666 231.541 222.906 231.359 223.166 231.397C223.337 231.421 227.363 232.025 227.651 234.696C227.939 237.36 223.309 238.652 222.78 238.791C222.74 238.801 222.7 238.806 222.66 238.806Z" fill="#0CBC8B"/>
<path d="M224.487 235.886C224.472 235.886 224.457 235.886 224.442 235.885L222.783 235.729C222.521 235.704 222.329 235.473 222.354 235.211C222.379 234.95 222.616 234.76 222.872 234.782L224.531 234.938C224.792 234.963 224.984 235.194 224.959 235.456C224.937 235.702 224.729 235.887 224.487 235.887L224.487 235.886Z" fill="#0CBC8B"/>
<path d="M245.947 235.008C245.809 235.008 245.673 234.948 245.579 234.833C243.764 232.613 239.977 231.968 236.933 231.45C236.639 231.4 236.35 231.35 236.07 231.301C232.658 230.7 230.512 229.231 230.422 229.169C230.206 229.019 230.152 228.723 230.302 228.508C230.451 228.292 230.747 228.238 230.963 228.387C230.983 228.401 233.04 229.802 236.235 230.365C236.513 230.414 236.8 230.463 237.093 230.513C240.293 231.058 244.275 231.736 246.315 234.231C246.481 234.435 246.451 234.734 246.248 234.9C246.16 234.972 246.053 235.008 245.947 235.008Z" fill="#0CBC8B"/>
<path d="M244.153 230.124C244.052 230.124 243.951 230.092 243.865 230.027C242.747 229.176 241.469 229.033 239.851 228.852C238.81 228.736 237.629 228.603 236.276 228.26C236.021 228.196 235.867 227.937 235.932 227.683C235.996 227.428 236.256 227.275 236.509 227.339C237.8 227.666 238.946 227.794 239.957 227.907C241.651 228.096 243.113 228.26 244.441 229.27C244.649 229.429 244.69 229.728 244.531 229.936C244.438 230.059 244.296 230.124 244.152 230.124H244.153Z" fill="#0CBC8B"/>
<path d="M229.257 228.149C229.185 228.149 229.112 228.133 229.044 228.098C228.958 228.055 226.937 227.023 226.337 225.388C226.246 225.142 226.373 224.869 226.619 224.778C226.866 224.689 227.139 224.814 227.229 225.061C227.699 226.34 229.454 227.241 229.472 227.25C229.705 227.368 229.8 227.654 229.681 227.888C229.598 228.054 229.431 228.149 229.257 228.149L229.257 228.149Z" fill="#0CBC8B"/>
<path d="M234.709 227.561C234.678 227.561 234.647 227.558 234.615 227.552C232.211 227.069 229.281 224.252 229.158 224.133C228.97 223.95 228.965 223.649 229.148 223.461C229.331 223.272 229.632 223.268 229.819 223.45C229.848 223.477 232.672 226.192 234.802 226.62C235.059 226.671 235.226 226.922 235.174 227.179C235.129 227.405 234.931 227.561 234.709 227.561V227.561Z" fill="#0CBC8B"/>
<path d="M241.137 226.196C236.201 226.196 233.808 223.734 233.705 223.626C233.525 223.436 233.532 223.135 233.723 222.954C233.913 222.774 234.213 222.781 234.394 222.971C234.43 223.008 236.785 225.388 241.571 225.238C241.837 225.231 242.053 225.437 242.061 225.699C242.068 225.962 241.863 226.181 241.6 226.189C241.444 226.194 241.289 226.196 241.137 226.196Z" fill="#0CBC8B"/>
<path d="M193.809 107.556C178.871 107.556 165.075 102.615 153.993 94.2739C142.91 102.615 129.115 107.556 114.177 107.556C112.997 107.556 111.818 107.527 110.653 107.462V132.434C110.668 154.881 119.602 175.563 139.213 186.48L153.993 194.683L168.772 186.48C188.384 175.563 197.318 154.881 197.332 132.434V107.462C196.168 107.527 194.988 107.556 193.809 107.556Z" fill="white"/>
<path d="M153.993 195.154L139.014 186.84C129.512 181.551 122.179 173.855 117.217 163.965C112.661 154.886 110.249 143.982 110.242 132.434V107.026L110.677 107.05C111.785 107.112 112.963 107.144 114.177 107.144C128.589 107.144 142.272 102.58 153.745 93.9445L153.993 93.7581L154.241 93.9445C165.714 102.58 179.397 107.144 193.809 107.144C195.023 107.144 196.201 107.112 197.309 107.05L197.744 107.026V132.433C197.737 143.982 195.325 154.886 190.769 163.965C185.807 173.855 178.474 181.551 168.973 186.839L153.993 195.154ZM111.065 107.895V132.434C111.081 156.532 121.414 176.1 139.414 186.12L153.993 194.212L168.572 186.119C186.572 176.1 196.905 156.532 196.921 132.433V107.895C195.926 107.943 194.881 107.967 193.809 107.967C179.32 107.967 165.559 103.412 153.993 94.7884C142.427 103.412 128.666 107.967 114.177 107.967C113.105 107.967 112.061 107.943 111.065 107.895Z" fill="#292A2E"/>
<path d="M164.417 126.676V136.342C164.417 137.146 163.761 137.799 162.959 137.799C162.158 137.799 161.501 137.146 161.501 136.342V126.676C161.501 122.923 158.133 119.868 153.993 119.868C149.854 119.868 146.485 122.923 146.485 126.676V137.056C146.485 137.857 145.832 138.513 145.028 138.513C144.223 138.513 143.57 137.857 143.57 137.056V126.676C143.57 121.315 148.245 116.952 153.993 116.952C159.742 116.952 164.417 121.315 164.417 126.676Z" fill="#292A2E"/>
<path d="M164.417 136.342C164.417 137.146 163.761 137.799 162.959 137.799C162.158 137.799 161.501 137.146 161.501 136.342V126.676C161.501 122.923 158.133 119.868 153.993 119.868C149.854 119.868 146.485 122.923 146.485 126.676V137.056C146.485 137.857 145.832 138.513 145.028 138.513C144.223 138.513 143.57 137.857 143.57 137.056V126.676C143.57 121.315 148.245 116.952 153.993 116.952C159.742 116.952 164.417 121.315 164.417 126.676V136.342Z" fill="#292A2E"/>
<path d="M167.67 135.26H140.317C138.722 135.26 137.429 136.553 137.429 138.148V163.913C137.429 165.508 138.722 166.801 140.317 166.801H167.67C169.265 166.801 170.558 165.508 170.558 163.913V138.148C170.558 136.553 169.265 135.26 167.67 135.26Z" fill="#1B9C68"/>
<path d="M151.27 148.48C151.27 149.56 151.896 150.486 152.804 150.931V155.115C152.804 155.777 153.339 156.304 153.992 156.304C154.646 156.304 155.181 155.777 155.181 155.115V150.931C156.089 150.486 156.715 149.56 156.715 148.48C156.715 146.973 155.499 145.757 153.992 145.757C152.486 145.757 151.27 146.973 151.27 148.48Z" fill="#262626"/>
<path d="M79.4078 69.7888C98.6795 69.7888 114.302 54.166 114.302 34.8944C114.302 15.6227 98.6795 0 79.4078 0C60.1362 0 44.5134 15.6227 44.5134 34.8944C44.5134 54.166 60.1362 69.7888 79.4078 69.7888Z" fill="white"/>
<path opacity="0.1" d="M79.4078 69.7888C98.6795 69.7888 114.302 54.166 114.302 34.8944C114.302 15.6227 98.6795 0 79.4078 0C60.1362 0 44.5134 15.6227 44.5134 34.8944C44.5134 54.166 60.1362 69.7888 79.4078 69.7888Z" fill="#1B9C68"/>
<path opacity="0.8" d="M58.349 52.2064H59.6969C59.8998 52.2064 60.0642 52.0419 60.0642 51.8391V42.1839C60.0642 41.9811 59.8998 41.8166 59.6969 41.8166H58.349C58.1462 41.8166 57.9817 41.9811 57.9817 42.1839V51.8391C57.9817 52.0419 58.1462 52.2064 58.349 52.2064Z" fill="#1B9C68"/>
<path opacity="0.8" d="M85.8014 52.2064H87.1493C87.3521 52.2064 87.5166 52.0419 87.5166 51.8391V27.6399C87.5166 27.4371 87.3521 27.2726 87.1493 27.2726H85.8014C85.5986 27.2726 85.4341 27.4371 85.4341 27.6399V51.8391C85.4341 52.0419 85.5986 52.2064 85.8014 52.2064Z" fill="#1B9C68"/>
<path opacity="0.8" d="M94.9528 52.2064H96.3007C96.5035 52.2064 96.668 52.0419 96.668 51.8391V27.6399C96.668 27.4371 96.5035 27.2726 96.3007 27.2726H94.9528C94.7499 27.2726 94.5855 27.4371 94.5855 27.6399V51.8391C94.5855 52.0419 94.7499 52.2064 94.9528 52.2064Z" fill="#1B9C68"/>
<path opacity="0.8" d="M67.5004 52.2064H68.8483C69.0511 52.2064 69.2156 52.0419 69.2156 51.8391V33.9849C69.2156 33.782 69.0511 33.6176 68.8483 33.6176H67.5004C67.2975 33.6176 67.1331 33.782 67.1331 33.9849V51.8391C67.1331 52.0419 67.2975 52.2064 67.5004 52.2064Z" fill="#1B9C68"/>
<path opacity="0.8" d="M76.6518 52.2064H77.9996C78.2025 52.2064 78.3669 52.0419 78.3669 51.8391V37.421C78.3669 37.2182 78.2025 37.0537 77.9996 37.0537H76.6518C76.4489 37.0537 76.2844 37.2182 76.2844 37.421V51.8391C76.2844 52.0419 76.4489 52.2064 76.6518 52.2064Z" fill="#1B9C68"/>
<path opacity="0.5" d="M60.431 52.2061H61.7789C61.9818 52.2061 62.1462 52.0416 62.1462 51.8388V23.353C62.1462 23.1502 61.9818 22.9857 61.7789 22.9857H60.431C60.2282 22.9857 60.0637 23.1502 60.0637 23.353V51.8388C60.0637 52.0416 60.2282 52.2061 60.431 52.2061Z" fill="#1B9C68"/>
<path opacity="0.5" d="M97.0368 52.2061H98.3846C98.5875 52.2061 98.752 52.0416 98.752 51.8388V23.353C98.752 23.1502 98.5875 22.9857 98.3846 22.9857H97.0368C96.8339 22.9857 96.6695 23.1502 96.6695 23.353V51.8388C96.6695 52.0416 96.8339 52.2061 97.0368 52.2061Z" fill="#1B9C68"/>
<path opacity="0.5" d="M87.8854 52.2064H89.2333C89.4361 52.2064 89.6006 52.0419 89.6006 51.8391V33.9849C89.6006 33.782 89.4361 33.6176 89.2333 33.6176H87.8854C87.6825 33.6176 87.5181 33.782 87.5181 33.9849V51.8391C87.5181 52.0419 87.6825 52.2064 87.8854 52.2064Z" fill="#1B9C68"/>
<path opacity="0.5" d="M78.7338 52.2064H80.0817C80.2845 52.2064 80.449 52.0419 80.449 51.8391V42.8134C80.449 42.6106 80.2845 42.4461 80.0817 42.4461H78.7338C78.5309 42.4461 78.3665 42.6106 78.3665 42.8134V51.8391C78.3665 52.0419 78.5309 52.2064 78.7338 52.2064Z" fill="#1B9C68"/>
<path opacity="0.5" d="M69.5824 52.2064H70.9303C71.1332 52.2064 71.2976 52.0419 71.2976 51.8391V31.8077C71.2976 31.6048 71.1332 31.4404 70.9303 31.4404H69.5824C69.3796 31.4404 69.2151 31.6048 69.2151 31.8077V51.8391C69.2151 52.0419 69.3796 52.2064 69.5824 52.2064Z" fill="#1B9C68"/>
<path opacity="0.2" d="M99.1188 52.2061H100.467C100.67 52.2061 100.834 52.0416 100.834 51.8388V31.6712C100.834 31.4684 100.67 31.3039 100.467 31.3039H99.1188C98.9159 31.3039 98.7515 31.4684 98.7515 31.6712V51.8388C98.7515 52.0416 98.9159 52.2061 99.1188 52.2061Z" fill="#1B9C68"/>
<path opacity="0.2" d="M89.9674 52.2061H91.3153C91.5182 52.2061 91.6826 52.0416 91.6826 51.8388V39.4621C91.6826 39.2592 91.5182 39.0948 91.3153 39.0948H89.9674C89.7646 39.0948 89.6001 39.2592 89.6001 39.4621V51.8388C89.6001 52.0416 89.7646 52.2061 89.9674 52.2061Z" fill="#1B9C68"/>
<path opacity="0.2" d="M80.8161 52.2064H82.1639C82.3668 52.2064 82.5312 52.0419 82.5312 51.8391V33.849C82.5312 33.6461 82.3668 33.4817 82.1639 33.4817H80.8161C80.6132 33.4817 80.4488 33.6461 80.4488 33.849V51.8391C80.4488 52.0419 80.6132 52.2064 80.8161 52.2064Z" fill="#1B9C68"/>
<path opacity="0.2" d="M71.6664 52.2064H73.0143C73.2171 52.2064 73.3816 52.0419 73.3816 51.8391V33.849C73.3816 33.6461 73.2171 33.4817 73.0143 33.4817H71.6664C71.4635 33.4817 71.2991 33.6461 71.2991 33.849V51.8391C71.2991 52.0419 71.4635 52.2064 71.6664 52.2064Z" fill="#1B9C68"/>
<path opacity="0.2" d="M62.515 52.2064H63.8629C64.0658 52.2064 64.2302 52.0419 64.2302 51.8391V24.629C64.2302 24.4261 64.0658 24.2617 63.8629 24.2617H62.515C62.3122 24.2617 62.1477 24.4261 62.1477 24.629V51.8391C62.1477 52.0419 62.3122 52.2064 62.515 52.2064Z" fill="#1B9C68"/>
<path d="M104.948 52.2163H54.4005C54.249 52.2163 54.126 52.0933 54.126 51.9418V19.2858C54.126 19.1343 54.249 19.0113 54.4005 19.0113C54.552 19.0113 54.675 19.1343 54.675 19.2858V51.6673H104.948C105.1 51.6673 105.223 51.7902 105.223 51.9418C105.223 52.0933 105.1 52.2163 104.948 52.2163Z" fill="#292A2E"/>
</g>
<defs>
<clipPath id="clip0_389_2553">
<rect width="303.672" height="279" fill="white" transform="translate(0.163818)"/>
</clipPath>
</defs>
</svg>
