<svg width="298" height="279" viewBox="0 0 298 279" fill="none" xmlns="http://www.w3.org/2000/svg">
<g clip-path="url(#clip0_389_789)">
<g opacity="0.7">
<path d="M253.357 2.43005H200.982V64.5149H253.357V2.43005Z" fill="#F4F4F4"/>
<path d="M253.358 64.515H255.057V2.43006H253.358V64.515Z" fill="#F4F4F4"/>
<path opacity="0.05" d="M253.358 64.515H255.057V2.43006H253.358V64.515Z" fill="#292A2E"/>
<path opacity="0.05" d="M243.817 14.8487H210.523V52.0966H243.817V14.8487Z" fill="#292A2E"/>
<path opacity="0.03" d="M243.816 14.8487H242.081V52.0966H243.816V14.8487Z" fill="#292A2E"/>
<path d="M296.191 81.2798H253.357V124.508H296.191V81.2798Z" fill="#F4F4F4"/>
<path opacity="0.05" d="M288.389 89.1543H261.16V116.633H288.389V89.1543Z" fill="#292A2E"/>
<path d="M296.192 124.508H297.891V81.2798H296.192V124.508Z" fill="#F4F4F4"/>
<path opacity="0.05" d="M296.192 124.508H297.891V81.2798H296.192V124.508Z" fill="#292A2E"/>
<path opacity="0.03" d="M288.389 89.1543H286.654V116.633H288.389V89.1543Z" fill="#292A2E"/>
</g>
<g opacity="0.7">
<path d="M146.119 0H22.8123V123.307H146.119V0Z" fill="#F4F4F4"/>
<path d="M22.8115 0H21.3982V123.307H22.8115V0Z" fill="#F4F4F4"/>
<path opacity="0.05" d="M22.8115 0H21.3982V123.307H22.8115V0Z" fill="#292A2E"/>
<path opacity="0.05" d="M52.6843 84.9685V52.7075H79.1108V71.4504H120.046V104.637H137.444V123.307H120.046H116.694H28.7441V84.9685H52.6843Z" fill="#292A2E"/>
<path opacity="0.34" d="M75.7188 56.2103H56.4746V59.713H75.7188V56.2103Z" fill="#FFFFFA"/>
<path opacity="0.34" d="M75.7188 63.469H56.4746V66.9717H75.7188V63.469Z" fill="#FFFFFA"/>
<path opacity="0.34" d="M75.7188 70.7274H56.4746V74.2301H75.7188V70.7274Z" fill="#FFFFFA"/>
<path opacity="0.34" d="M35.7026 88.3687H32.1558V91.8714H35.7026V88.3687Z" fill="#FFFFFA"/>
<path opacity="0.34" d="M35.7026 95.6274H32.1558V99.1301H35.7026V95.6274Z" fill="#FFFFFA"/>
<path opacity="0.34" d="M35.7026 102.886H32.1558V106.389H35.7026V102.886Z" fill="#FFFFFA"/>
<path opacity="0.34" d="M42.2649 88.3687H38.718V91.8714H42.2649V88.3687Z" fill="#FFFFFA"/>
<path opacity="0.34" d="M42.2649 95.6274H38.718V99.1301H42.2649V95.6274Z" fill="#FFFFFA"/>
<path opacity="0.34" d="M42.2649 102.886H38.718V106.389H42.2649V102.886Z" fill="#FFFFFA"/>
<path opacity="0.34" d="M48.6492 88.3687H45.1023V91.8714H48.6492V88.3687Z" fill="#FFFFFA"/>
<path opacity="0.34" d="M48.6492 95.6274H45.1023V99.1301H48.6492V95.6274Z" fill="#FFFFFA"/>
<path opacity="0.34" d="M48.6492 102.886H45.1023V106.389H48.6492V102.886Z" fill="#FFFFFA"/>
<path d="M22.8123 60.9617H47.6236V0H49.6756V60.9617H116.694V0H118.746V60.9617H146.119V63.0136H118.746V123.307H116.694V63.0136H49.6756V123.307H47.6236V63.0136H22.8123V60.9617Z" fill="white"/>
<path d="M151.03 123.158H17.8989V127.259H151.03V123.158Z" fill="#F4F4F4"/>
<path opacity="0.1" d="M151.03 123.158H17.8989V127.259H151.03V123.158Z" fill="#292A2E"/>
<path opacity="0.1" d="M17.8995 123.158H15.9775V127.259H17.8995V123.158Z" fill="#292A2E"/>
<path opacity="0.1" d="M17.8995 123.158H15.9775V127.259H17.8995V123.158Z" fill="#292A2E"/>
</g>
<path d="M93.9775 15.3107H238.305C242.631 15.3107 246.144 18.8232 246.144 23.1496V196.013C246.144 200.434 242.555 204.023 238.135 204.023H94.1483C89.7278 204.023 86.1389 200.434 86.1389 196.013V23.1493C86.1389 18.8229 89.6514 15.3104 93.9778 15.3104L93.9775 15.3107Z" fill="white"/>
<path d="M238.135 204.327H94.1483C89.5567 204.327 85.8345 200.604 85.8345 196.013V22.845C85.8345 18.5158 89.3439 15.006 93.6734 15.006H238.61C242.939 15.006 246.449 18.5155 246.449 22.845V196.013C246.449 200.604 242.726 204.327 238.135 204.327ZM86.4433 23.1363V196.013C86.4433 200.268 89.893 203.718 94.1483 203.718H238.135C242.39 203.718 245.839 200.268 245.839 196.013V23.0602C245.839 18.9483 242.506 15.6151 238.394 15.6151H93.9644C89.8105 15.6151 86.4433 18.9824 86.4433 23.1363Z" fill="#292A2E"/>
<path d="M117.178 52.8369H99.6872C97.6596 52.8369 96.01 51.1877 96.01 49.1601V31.6695C96.01 29.6419 97.6596 27.9927 99.6872 27.9927H117.178C119.205 27.9927 120.855 29.6419 120.855 31.6695V49.1601C120.855 51.1877 119.205 52.8369 117.178 52.8369ZM99.6872 28.6012C97.9953 28.6012 96.6188 29.9774 96.6188 31.6692V49.1598C96.6188 50.8516 97.995 52.2278 99.6872 52.2278H117.178C118.87 52.2278 120.246 50.8516 120.246 49.1598V31.6692C120.246 29.9774 118.87 28.6012 117.178 28.6012H99.6872Z" fill="#292A2E"/>
<path d="M117.178 87.4892H99.6872C97.6596 87.4892 96.01 85.8397 96.01 83.8121V66.3215C96.01 64.2939 97.6596 62.6444 99.6872 62.6444H117.178C119.205 62.6444 120.855 64.2939 120.855 66.3215V83.8121C120.855 85.8397 119.205 87.4892 117.178 87.4892ZM99.6872 63.2535C97.9953 63.2535 96.6188 64.6297 96.6188 66.3218V83.8124C96.6188 85.5042 97.995 86.8807 99.6872 86.8807H117.178C118.87 86.8807 120.246 85.5045 120.246 83.8124V66.3218C120.246 64.63 118.87 63.2535 117.178 63.2535H99.6872Z" fill="#292A2E"/>
<path d="M117.178 122.142H99.6872C97.6596 122.142 96.01 120.492 96.01 118.464V100.974C96.01 98.9463 97.6596 97.297 99.6872 97.297H117.178C119.205 97.297 120.855 98.9463 120.855 100.974V118.464C120.855 120.492 119.205 122.142 117.178 122.142ZM99.6872 97.9058C97.9953 97.9058 96.6188 99.282 96.6188 100.974V118.464C96.6188 120.156 97.995 121.533 99.6872 121.533H117.178C118.87 121.533 120.246 120.157 120.246 118.464V100.974C120.246 99.282 118.87 97.9058 117.178 97.9058H99.6872Z" fill="#292A2E"/>
<path d="M117.178 156.318H99.6872C97.6596 156.318 96.01 154.669 96.01 152.641V135.15C96.01 133.123 97.6596 131.473 99.6872 131.473H117.178C119.205 131.473 120.855 133.123 120.855 135.15V152.641C120.855 154.669 119.205 156.318 117.178 156.318ZM99.6872 132.082C97.9953 132.082 96.6188 133.458 96.6188 135.15V152.641C96.6188 154.333 97.995 155.709 99.6872 155.709H117.178C118.87 155.709 120.246 154.333 120.246 152.641V135.15C120.246 133.459 118.87 132.082 117.178 132.082H99.6872Z" fill="#292A2E"/>
<path d="M117.178 190.494H99.6872C97.6596 190.494 96.01 188.845 96.01 186.817V169.326C96.01 167.299 97.6596 165.649 99.6872 165.649H117.178C119.205 165.649 120.855 167.299 120.855 169.326V186.817C120.855 188.845 119.205 190.494 117.178 190.494ZM99.6872 166.258C97.9953 166.258 96.6188 167.635 96.6188 169.327V186.817C96.6188 188.509 97.995 189.886 99.6872 189.886H117.178C118.87 189.886 120.246 188.509 120.246 186.817V169.327C120.246 167.635 118.87 166.258 117.178 166.258H99.6872Z" fill="#292A2E"/>
<path d="M105.321 82.0646C105.017 82.0646 104.713 81.9516 104.477 81.7248L99.379 76.8249C98.8941 76.3589 98.8789 75.5881 99.3449 75.1032C99.811 74.6186 100.581 74.6031 101.067 75.0691L105.3 79.1381L115.912 68.4305C116.385 67.9529 117.156 67.9492 117.634 68.4225C118.112 68.8959 118.115 69.6669 117.642 70.1445L106.186 81.7041C105.948 81.9443 105.634 82.0649 105.321 82.0649L105.321 82.0646Z" fill="#0CBC8B"/>
<path d="M105.321 116.717C105.017 116.717 104.713 116.604 104.477 116.377L99.379 111.477C98.8941 111.011 98.8789 110.24 99.3449 109.756C99.811 109.271 100.581 109.255 101.067 109.721L105.3 113.79L115.912 103.082C116.385 102.605 117.156 102.601 117.634 103.075C118.112 103.548 118.115 104.319 117.642 104.797L106.186 116.356C105.948 116.596 105.635 116.717 105.321 116.717H105.321Z" fill="#0CBC8B"/>
<path opacity="0.5" d="M232.992 34.9991H130.413C129.944 34.9991 129.563 35.3795 129.563 35.8487C129.563 36.3179 129.944 36.6982 130.413 36.6982H232.992C233.462 36.6982 233.842 36.3179 233.842 35.8487C233.842 35.3795 233.462 34.9991 232.992 34.9991Z" fill="#262626"/>
<path opacity="0.5" d="M196.464 44.1311H130.413C129.944 44.1311 129.563 44.5114 129.563 44.9807C129.563 45.4499 129.944 45.8302 130.413 45.8302H196.464C196.933 45.8302 197.314 45.4499 197.314 44.9807C197.314 44.5114 196.933 44.1311 196.464 44.1311Z" fill="#262626"/>
<path opacity="0.5" d="M232.992 69.6514H130.413C129.944 69.6514 129.563 70.0318 129.563 70.501C129.563 70.9702 129.944 71.3506 130.413 71.3506H232.992C233.462 71.3506 233.842 70.9702 233.842 70.501C233.842 70.0318 233.462 69.6514 232.992 69.6514Z" fill="#262626"/>
<path opacity="0.5" d="M196.464 78.7834H130.413C129.944 78.7834 129.563 79.1638 129.563 79.633C129.563 80.1022 129.944 80.4826 130.413 80.4826H196.464C196.933 80.4826 197.314 80.1022 197.314 79.633C197.314 79.1638 196.933 78.7834 196.464 78.7834Z" fill="#262626"/>
<path opacity="0.5" d="M232.992 104.304H130.413C129.944 104.304 129.563 104.684 129.563 105.153C129.563 105.622 129.944 106.003 130.413 106.003H232.992C233.462 106.003 233.842 105.622 233.842 105.153C233.842 104.684 233.462 104.304 232.992 104.304Z" fill="#262626"/>
<path opacity="0.5" d="M196.464 113.436H130.413C129.944 113.436 129.563 113.816 129.563 114.285C129.563 114.755 129.944 115.135 130.413 115.135H196.464C196.933 115.135 197.314 114.755 197.314 114.285C197.314 113.816 196.933 113.436 196.464 113.436Z" fill="#262626"/>
<path opacity="0.5" d="M232.992 138.48H130.413C129.944 138.48 129.563 138.86 129.563 139.33C129.563 139.799 129.944 140.179 130.413 140.179H232.992C233.462 140.179 233.842 139.799 233.842 139.33C233.842 138.86 233.462 138.48 232.992 138.48Z" fill="#262626"/>
<path opacity="0.5" d="M196.464 147.612H130.413C129.944 147.612 129.563 147.992 129.563 148.462C129.563 148.931 129.944 149.311 130.413 149.311H196.464C196.933 149.311 197.314 148.931 197.314 148.462C197.314 147.992 196.933 147.612 196.464 147.612Z" fill="#262626"/>
<path opacity="0.5" d="M232.992 172.656H130.413C129.944 172.656 129.563 173.036 129.563 173.505C129.563 173.975 129.944 174.355 130.413 174.355H232.992C233.462 174.355 233.842 173.975 233.842 173.505C233.842 173.036 233.462 172.656 232.992 172.656Z" fill="#262626"/>
<path opacity="0.5" d="M196.464 181.788H130.413C129.944 181.788 129.563 182.168 129.563 182.638C129.563 183.107 129.944 183.487 130.413 183.487H196.464C196.933 183.487 197.314 183.107 197.314 182.638C197.314 182.168 196.933 181.788 196.464 181.788Z" fill="#262626"/>
<path d="M104.442 46.642C104.656 46.1185 105.138 45.9477 105.564 45.9757C105.563 45.9568 105.547 45.9112 105.58 45.9115L104.818 45.4302C104.358 45.1395 104.142 44.5484 104.374 44.0556C104.615 43.5448 105.187 43.3314 105.683 43.5043C105.68 43.4939 105.687 43.4836 105.687 43.4729L105.375 43.2751C104.941 43.0014 104.729 42.4578 104.916 41.9808C105.168 41.3388 105.92 41.1135 106.473 41.4627L107.195 41.919C107.197 41.9147 107.195 41.9101 107.198 41.9062C107.2 41.901 107.208 41.9004 107.211 41.8958C106.869 41.5534 106.795 41.0094 107.064 40.583C107.36 40.0372 108.122 40.1005 108.59 40.3954L109.989 41.4389C110.428 41.7662 110.673 42.2909 110.643 42.8376C110.519 45.1654 110.048 51.2379 108.557 50.2964L104.886 47.9787C104.462 47.7111 104.253 47.1056 104.442 46.642Z" fill="#FF9E85"/>
<path d="M105.321 47.0652C105.017 47.0652 104.713 46.9522 104.477 46.7254L99.379 41.8255C98.8941 41.3595 98.8789 40.5887 99.3449 40.1038C99.811 39.6192 100.581 39.6037 101.067 40.0697L105.3 44.1386L115.912 33.4308C116.385 32.9528 117.156 32.9495 117.634 33.4228C118.112 33.8962 118.115 34.6672 117.642 35.1448L106.186 46.7044C105.948 46.9446 105.634 47.0652 105.321 47.0652H105.321Z" fill="#0CBC8B"/>
<path d="M101.811 44.093C101.919 43.3487 102.628 42.8398 103.375 42.9874C104.075 43.1259 104.513 43.8358 104.411 44.5426L104.375 46.4116C104.358 47.2298 104.956 47.9315 105.766 48.0465C106.559 48.1592 107.315 47.6746 107.545 46.9072L108.498 43.7158L107.461 42.1674C107.824 41.5832 108.128 40.0719 108.757 40.5221C109.288 40.8524 110.496 41.652 110.827 42.4097C110.834 42.4127 111.452 48.9107 111.116 49.4526L108.138 57.4142C106.71 59.713 99.8188 57.9341 99.8188 57.9341L101.811 44.0933L101.811 44.093Z" fill="#FF9E85"/>
<path d="M105.3 44.1386L115.912 33.4308C116.385 32.9528 117.156 32.9495 117.634 33.4228C118.112 33.8962 118.115 34.6672 117.642 35.1448L106.186 46.7044" fill="#0CBC8B"/>
<path d="M51.1417 99.4808L94.0887 95.8663C97.2511 95.9494 100.004 93.3203 101.164 90.3701L112.416 55.1031L97.6967 49.3171L87.7644 79.5267L49.9941 82.1701L51.1417 99.4808Z" fill="#63C69E"/>
<path d="M26.2048 265.528C26.2048 265.528 27.5792 272.652 34.2495 273.049C40.9198 273.446 39.4733 278.76 39.4733 278.76H13.9832V266.025L26.2048 265.528Z" fill="#63C69E"/>
<path d="M18.3417 135.57C18.3417 135.57 18.4218 133.428 18.4048 138.287C18.3417 156.407 18.0273 177.105 17.259 189.217C16.024 208.688 12.8577 270.075 12.8577 270.075L29.6076 269.934L45.8422 134.834L18.342 135.571L18.3417 135.57Z" fill="#262626"/>
<path d="M37.2581 156.939C37.2581 156.939 37.9521 170.089 38.0808 173.176C38.3786 180.316 38.482 187.708 38.482 196.089L41.1224 174.117C41.1224 174.117 39.1904 167.231 37.2581 156.939Z" fill="#0A0A0A"/>
<path d="M56.0242 265.528C56.0242 265.528 57.3985 272.652 64.0689 273.049C70.7392 273.446 69.2927 278.76 69.2927 278.76H43.8025V266.025L56.0242 265.528Z" fill="#63C69E"/>
<path d="M64.1342 136.977C64.1342 136.977 65.6179 198.91 65.4005 201.936L59.1713 269.606L42.698 269.91L44.3035 199.489C44.3035 199.489 43.1711 180.063 38.4775 162.026C36.0691 152.77 34.6381 143.288 34.1648 133.735L64.1342 136.977Z" fill="#262626"/>
<path d="M18.1606 135.568L18.1057 135.571C18.1057 135.571 18.1453 134.515 18.1606 135.568Z" fill="#333333"/>
<path d="M66.4923 104.428C66.1468 108.486 64.4665 131.979 64.1344 136.977H18.3611C18.1027 132.469 16.9414 112.755 15.9609 103.938C15.0249 95.5251 13.1885 91.3131 14.5345 88.8259C16.7341 84.7609 22.7448 82.4118 26.8432 81.8569C29.346 81.5181 50.6827 81.2752 50.7338 81.2752C52.4098 81.2752 62.1686 82.0633 64.3262 83.7244C68.2295 86.7301 67.0956 97.3503 66.4923 104.427V104.428Z" fill="#63C69E"/>
<path d="M67.1248 98.2553C67.2049 98.2553 67.272 98.1926 67.2768 98.1119L67.6465 92.2762C67.6514 92.1922 67.5871 92.1204 67.5033 92.1155C67.4207 92.1119 67.3472 92.1749 67.3424 92.2586L66.9727 98.0942C66.9678 98.1782 67.0321 98.2501 67.1159 98.255C67.119 98.255 67.122 98.2553 67.1248 98.2553Z" fill="#0C0C0C"/>
<path d="M8.46475 136.712C5.9087 136.712 3.47228 135.539 1.87904 133.498C0.0986058 131.218 -0.375954 128.179 0.624914 125.464C1.09765 124.182 12.1839 94.8243 14.2943 89.3847L29.9219 95.7168C28.7354 98.7755 24.4357 110.368 20.9817 119.707L26.7202 119.083L28.5266 135.699L9.36912 136.663C9.06685 136.696 8.76488 136.712 8.46475 136.712Z" fill="#63C69E"/>
<path d="M56.1867 80.7197C56.1356 80.713 54.7314 85.9967 43.7739 85.1746C36.1879 84.6062 34.3384 79.443 34.1646 79.443C34.9825 79.2692 36.3106 79.0887 36.6737 78.8948C37.8682 78.2531 38.7385 77.4717 39.1762 75.7951C39.5186 74.4837 39.6931 69.4358 39.6931 66.9032L51.3659 69.5262C51.2034 72.383 50.0646 79.0062 54.0556 80.1784C54.7198 80.3723 55.4351 80.5507 56.1861 80.72L56.1867 80.7197Z" fill="#FF9E85"/>
<path d="M50.9619 75.1424C46.3603 75.5056 40.4488 73.5626 39.3259 67.4231L38.3129 61.8834C37.1899 55.7439 39.5043 50.177 45.2851 49.1198C51.0657 48.0627 56.2968 52.2494 57.4198 58.3888L57.8684 60.8414C58.2992 63.1971 59.1725 74.4947 50.9622 75.1424H50.9619Z" fill="#FF9E85"/>
<path d="M55.2286 69.5056C54.4025 65.3554 54.0238 62.5862 54.0676 59.6649C55.2311 57.6242 54.9251 55.2818 54.6606 54.2697C55.8009 54.8919 56.2779 54.9595 57.3512 54.9595C57.3512 54.9595 55.4271 47.2374 48.8873 45.1596C47.685 44.6914 44.6145 44.1003 40.5376 44.6595C37.0699 45.1349 28.5227 47.7278 27.3014 57.3508H27.3008C27.3008 57.3508 27.3008 57.3536 27.3005 57.3563C27.26 57.6753 26.4393 66.5416 24.8032 70.7956C22.6036 76.5144 19.5158 78.2911 19.594 84.889C19.6947 93.376 35.2971 94.5056 44.7082 93.871C54.1191 93.236 59.3724 90.1418 59.4406 84.0254C59.517 77.1725 56.8815 77.809 55.2286 69.5056Z" fill="#0A0A0A"/>
<path d="M17.3861 104.108L17.0815 104.118L18.2062 136.983L18.5108 136.972L17.3861 104.108Z" fill="#0C0C0C"/>
<path d="M290.96 278.974H4.69611C4.578 278.974 4.48242 278.878 4.48242 278.76C4.48242 278.642 4.578 278.546 4.69611 278.546H290.96C291.078 278.546 291.174 278.642 291.174 278.76C291.174 278.878 291.078 278.974 290.96 278.974Z" fill="#292A2E"/>
<path d="M261.412 239.081C261.334 239.081 261.256 239.051 261.197 238.991C260.768 238.563 260.069 230.694 258.186 207.266C257.416 197.68 256.688 188.625 256.157 183.122C256.119 182.729 255.966 182.684 255.916 182.669C255.189 182.449 252.978 184.193 251.744 185.719C251.638 185.85 251.446 185.871 251.315 185.765C251.185 185.659 251.164 185.467 251.27 185.336C252.086 184.327 254.747 181.681 256.091 182.085C256.362 182.167 256.699 182.403 256.763 183.064C257.294 188.571 258.022 197.628 258.793 207.217C259.937 221.454 261.233 237.583 261.659 238.598C261.745 238.717 261.734 238.884 261.627 238.991C261.568 239.051 261.49 239.081 261.412 239.081H261.412Z" fill="#494949"/>
<path d="M255.375 193.22C260.426 189.171 262.1 182.869 259.114 179.143C256.128 175.418 249.613 175.681 244.561 179.73C239.51 183.779 237.836 190.081 240.822 193.806C243.808 197.531 250.323 197.268 255.375 193.22Z" fill="#0CBC8B"/>
<path opacity="0.2" d="M255.375 193.22C260.426 189.171 262.1 182.869 259.114 179.143C256.128 175.418 249.613 175.681 244.561 179.73C239.51 183.779 237.836 190.081 240.822 193.806C243.808 197.531 250.323 197.268 255.375 193.22Z" fill="white"/>
<path d="M242.238 194.753C242.204 194.753 242.17 194.742 242.141 194.718C242.077 194.665 242.068 194.569 242.122 194.504L256.517 177.144C256.571 177.08 256.666 177.071 256.731 177.125C256.796 177.178 256.805 177.274 256.751 177.339L242.356 194.698C242.326 194.735 242.282 194.753 242.238 194.753Z" fill="white"/>
<path d="M264.553 235.359C264.52 235.359 264.486 235.354 264.453 235.342C264.294 235.287 264.21 235.113 264.265 234.954L269.673 219.404C269.997 218.471 270.764 217.775 271.725 217.543C272.685 217.311 273.685 217.58 274.4 218.263L277.258 220.993C277.38 221.109 277.384 221.302 277.268 221.424C277.152 221.545 276.959 221.55 276.838 221.434L273.979 218.703C273.415 218.164 272.626 217.951 271.867 218.135C271.109 218.317 270.504 218.867 270.248 219.603L264.84 235.154C264.796 235.28 264.679 235.359 264.553 235.359V235.359Z" fill="#494949"/>
<path d="M285.245 229.604C288.988 226.641 288.766 220.124 284.748 215.048C280.73 209.972 274.438 208.259 270.695 211.222C266.952 214.185 267.174 220.702 271.192 225.778C275.21 230.854 281.501 232.567 285.245 229.604Z" fill="#0CBC8B"/>
<path d="M258.955 238.089C258.817 238.089 258.693 237.995 258.659 237.855L249.585 199.913C249.456 199.375 249.058 198.976 248.521 198.845C247.984 198.714 247.447 198.885 247.085 199.303L244.288 202.536C244.178 202.662 243.985 202.676 243.858 202.567C243.731 202.457 243.717 202.264 243.827 202.137L246.624 198.905C247.131 198.319 247.913 198.069 248.665 198.253C249.418 198.436 249.997 199.018 250.177 199.771L259.251 237.713C259.29 237.877 259.189 238.041 259.026 238.08C259.002 238.086 258.978 238.088 258.955 238.088V238.089Z" fill="#494949"/>
<path d="M255.61 210.966C256.713 204.587 253.794 198.756 249.089 197.943C244.385 197.129 239.677 201.641 238.574 208.02C237.471 214.399 240.39 220.23 245.095 221.043C249.799 221.857 254.507 217.345 255.61 210.966Z" fill="#0CBC8B"/>
<path d="M261.412 239.081C261.4 239.081 261.387 239.08 261.374 239.078C261.208 239.058 261.089 238.906 261.109 238.739L266.904 191.692C267.035 190.63 267.75 189.775 268.771 189.459C269.792 189.143 270.866 189.444 271.574 190.245L278.197 197.746C278.308 197.872 278.296 198.065 278.17 198.176C278.044 198.288 277.852 198.275 277.741 198.15L271.118 190.648C270.571 190.029 269.741 189.796 268.951 190.04C268.162 190.285 267.609 190.946 267.508 191.766L261.714 238.814C261.695 238.968 261.563 239.081 261.412 239.081V239.081Z" fill="#494949"/>
<path d="M284.991 201.915C287.302 197.737 284.583 191.811 278.918 188.677C273.254 185.544 266.788 186.39 264.477 190.568C262.167 194.746 264.885 200.672 270.55 203.806C276.215 206.939 282.68 206.093 284.991 201.915Z" fill="#0CBC8B"/>
<path opacity="0.2" d="M285.245 229.604C288.988 226.641 288.766 220.124 284.748 215.048C280.73 209.972 274.438 208.259 270.695 211.222C266.952 214.185 267.174 220.702 271.192 225.778C275.21 230.854 281.501 232.567 285.245 229.604Z" fill="white"/>
<path opacity="0.5" d="M255.61 210.966C256.713 204.587 253.794 198.756 249.089 197.943C244.385 197.129 239.677 201.641 238.574 208.02C237.471 214.399 240.39 220.23 245.095 221.043C249.799 221.857 254.507 217.345 255.61 210.966Z" fill="white"/>
<path opacity="0.5" d="M284.991 201.915C287.302 197.737 284.583 191.811 278.918 188.677C273.254 185.544 266.788 186.39 264.477 190.568C262.167 194.746 264.885 200.672 270.55 203.806C276.215 206.939 282.68 206.093 284.991 201.915Z" fill="white"/>
<path d="M268.824 279H254L251.544 231.573H271.28L268.824 279Z" fill="#292A2E"/>
<path opacity="0.3" d="M268.824 279H254L251.544 231.573H271.28L268.824 279Z" fill="white"/>
<path d="M285.246 229.754C285.201 229.754 285.156 229.734 285.126 229.697L270.576 211.315C270.524 211.249 270.535 211.153 270.601 211.101C270.668 211.049 270.763 211.06 270.815 211.126L285.365 229.508C285.417 229.574 285.406 229.669 285.34 229.722C285.312 229.744 285.279 229.754 285.246 229.754Z" fill="white"/>
<path d="M284.024 203.388C283.993 203.388 283.961 203.378 283.934 203.359L265.315 189.763C265.247 189.714 265.232 189.618 265.282 189.55C265.332 189.483 265.427 189.468 265.495 189.517L284.114 203.113C284.182 203.162 284.197 203.258 284.147 203.325C284.117 203.366 284.071 203.388 284.024 203.388H284.024Z" fill="white"/>
<path d="M244.338 220.845C244.325 220.845 244.312 220.843 244.299 220.839C244.218 220.818 244.17 220.734 244.191 220.653L250.118 198.446C250.14 198.365 250.225 198.317 250.305 198.338C250.386 198.36 250.434 198.443 250.413 198.525L244.485 220.732C244.467 220.8 244.405 220.845 244.338 220.845Z" fill="white"/>
</g>
<defs>
<clipPath id="clip0_389_789">
<rect width="297.782" height="279" fill="white" transform="translate(0.108887)"/>
</clipPath>
</defs>
</svg>
