<svg width="285" height="279" viewBox="0 0 285 279" fill="none" xmlns="http://www.w3.org/2000/svg">
<g clip-path="url(#clip0_389_7716)">
<path d="M114.606 221.122H110.915C110.316 221.122 109.775 220.744 109.579 220.177C109.295 219.36 108.959 218.569 108.579 217.805C108.305 217.26 108.417 216.603 108.848 216.173L111.471 213.55C112.026 212.995 112.026 212.094 111.471 211.539L105.805 205.876C105.25 205.321 104.351 205.321 103.794 205.876L101.124 208.546C100.698 208.971 100.046 209.086 99.504 208.82C98.755 208.454 97.9787 208.133 97.1798 207.862C96.605 207.668 96.2217 207.125 96.2217 206.52V202.738C96.2217 201.954 95.5872 201.317 94.8008 201.317H86.7906C86.0042 201.317 85.3697 201.954 85.3697 202.738V206.52C85.3697 207.125 84.9864 207.667 84.4117 207.862C83.6131 208.133 82.8364 208.454 82.0875 208.82C81.5451 209.086 80.893 208.972 80.4676 208.546L77.7975 205.876C77.2425 205.321 76.3417 205.321 75.7867 205.876L70.1209 211.539C69.5659 212.094 69.5659 212.995 70.1209 213.55L72.7434 216.173C73.1739 216.603 73.2858 217.26 73.0123 217.805C72.6315 218.569 72.2957 219.36 72.0143 220.177C71.8153 220.744 71.2751 221.122 70.6755 221.122H66.9851C66.1987 221.122 65.5642 221.759 65.5642 222.543V230.555C65.5642 231.339 66.1987 231.976 66.9851 231.976H70.5783C71.193 231.976 71.7354 232.369 71.9268 232.951C72.2054 233.79 72.539 234.604 72.9198 235.388C73.1861 235.935 73.0789 236.59 72.6509 237.018L70.1201 239.548C69.5652 240.103 69.5652 241.002 70.1201 241.557L75.786 247.223C76.341 247.777 77.2418 247.777 77.7968 247.223L80.2775 244.742C80.7105 244.309 81.3723 244.204 81.9197 244.478C82.7184 244.876 83.5472 245.224 84.4005 245.513C84.9778 245.71 85.3686 246.25 85.3686 246.859V250.358C85.3686 251.144 86.0031 251.781 86.7895 251.781H94.7998C95.5861 251.781 96.2206 251.144 96.2206 250.358V246.859C96.2206 246.25 96.6115 245.71 97.1888 245.513C98.0424 245.224 98.8709 244.876 99.6695 244.478C100.217 244.204 100.879 244.309 101.312 244.742L103.793 247.223C104.35 247.777 105.248 247.777 105.803 247.223L111.469 241.557C112.024 241.002 112.024 240.103 111.469 239.548L108.938 237.018C108.51 236.59 108.403 235.935 108.669 235.388C109.05 234.604 109.384 233.79 109.662 232.951C109.854 232.369 110.397 231.976 111.011 231.976H114.604C115.391 231.976 116.025 231.339 116.025 230.555V222.543C116.025 221.759 115.391 221.122 114.604 221.122H114.606ZM90.797 238.389C84.2576 238.389 78.9549 233.089 78.9549 226.549C78.9549 220.01 84.2576 214.707 90.797 214.707C97.3363 214.707 102.637 220.01 102.637 226.549C102.637 233.089 97.3363 238.389 90.797 238.389Z" fill="#F4F4F4"/>
<path d="M68.5178 173.389H63.4937C62.677 173.389 61.9421 172.874 61.6744 172.102C61.2882 170.99 60.8308 169.913 60.3125 168.873C59.94 168.131 60.0923 167.237 60.6785 166.651L64.2491 163.08C65.0045 162.325 65.0045 161.098 64.2491 160.343L56.535 152.632C55.7796 151.877 54.5567 151.877 53.7977 152.632L50.1627 156.267C49.5833 156.847 48.6958 157.003 47.9572 156.64C46.9377 156.142 45.8806 155.705 44.793 155.336C44.0106 155.071 43.4888 154.333 43.4888 153.51V148.36C43.4888 147.293 42.625 146.426 41.5543 146.426H30.6491C29.5784 146.426 28.7146 147.293 28.7146 148.36V153.51C28.7146 154.333 28.1928 155.071 27.4103 155.336C26.3227 155.705 25.2661 156.142 24.2461 156.64C23.5076 157.002 22.6201 156.846 22.0407 156.267L18.4057 152.632C17.6503 151.877 16.4238 151.877 15.6683 152.632L7.95466 160.343C7.19923 161.098 7.19923 162.325 7.95466 163.08L11.5252 166.651C12.1111 167.237 12.2637 168.131 11.8912 168.873C11.373 169.913 10.9155 170.99 10.5326 172.102C10.2616 172.874 9.52633 173.389 8.71008 173.389H3.68591C2.61522 173.389 1.75146 174.257 1.75146 175.324V186.232C1.75146 187.299 2.61522 188.167 3.68591 188.167H8.57764C9.4144 188.167 10.1529 188.702 10.4138 189.495C10.7932 190.636 11.2474 191.744 11.7656 192.811C12.128 193.556 11.9823 194.447 11.3996 195.03L7.9543 198.475C7.19887 199.231 7.19887 200.454 7.9543 201.209L15.668 208.923C16.4234 209.678 17.6499 209.678 18.4054 208.923L21.783 205.545C22.3725 204.956 23.2737 204.814 24.019 205.186C25.1066 205.728 26.2346 206.202 27.3967 206.595C28.1827 206.863 28.7146 207.598 28.7146 208.428V213.191C28.7146 214.262 29.5784 215.129 30.6491 215.129H41.5543C42.625 215.129 43.4888 214.262 43.4888 213.191V208.428C43.4888 207.598 44.0207 206.863 44.8067 206.595C45.9688 206.202 47.0967 205.728 48.1843 205.186C48.9297 204.814 49.8309 204.956 50.4204 205.545L53.798 208.923C54.557 209.678 55.78 209.678 56.5354 208.923L64.2494 201.209C65.0049 200.454 65.0049 199.231 64.2494 198.475L60.8041 195.03C60.2215 194.447 60.0757 193.556 60.4381 192.811C60.9564 191.744 61.4106 190.636 61.7899 189.495C62.0508 188.702 62.7893 188.167 63.6261 188.167H68.5178C69.5885 188.167 70.4523 187.299 70.4523 186.232V175.324C70.4523 174.257 69.5885 173.389 68.5178 173.389ZM36.104 196.897C27.2012 196.897 19.9817 189.681 19.9817 180.778C19.9817 171.875 27.2009 164.656 36.104 164.656C45.0072 164.656 52.2228 171.875 52.2228 180.778C52.2228 189.681 45.0068 196.897 36.104 196.897Z" fill="#F4F4F4"/>
<path d="M39.9187 206.202L39.2976 206.27L46.97 276.382L47.5911 276.314L39.9187 206.202Z" fill="#292A2E"/>
<path d="M59.7901 236.811L56.0156 274.152L56.6373 274.215L60.4118 236.874L59.7901 236.811Z" fill="#292A2E"/>
<path d="M66.2809 269.638H38.2737V278.727H66.2809V269.638Z" fill="#292A2E"/>
<path opacity="0.2" d="M66.2809 269.638H38.2737V278.727H66.2809V269.638Z" fill="white"/>
<path d="M83.1645 252.902C88.4701 245.851 85.9409 234.995 77.5153 228.656C69.0897 222.316 57.9584 222.893 52.6528 229.945C47.3472 236.996 49.8764 247.852 58.302 254.191C66.7275 260.531 77.8589 259.954 83.1645 252.902Z" fill="#4B2C91"/>
<path opacity="0.2" d="M83.1645 252.902C88.4701 245.851 85.9409 234.995 77.5153 228.656C69.0897 222.316 57.9584 222.893 52.6528 229.945C47.3472 236.996 49.8764 247.852 58.302 254.191C66.7275 260.531 77.8589 259.954 83.1645 252.902Z" fill="white"/>
<path opacity="0.5" d="M83.1641 252.903C82.8032 253.384 82.4145 253.835 82.0006 254.251C76.1602 257.983 67.5399 257.396 60.7008 252.249C52.2759 245.91 49.7473 235.055 55.0536 228.004C55.4146 227.523 55.8033 227.075 56.2143 226.656C62.0572 222.922 70.6753 223.512 77.517 228.656C85.9418 234.997 88.4701 245.852 83.1641 252.903Z" fill="white"/>
<path d="M44.078 226.149C52.4247 219.706 54.6932 208.656 49.1449 201.468C43.5967 194.281 32.3325 193.677 23.9858 200.12C15.6391 206.563 13.3706 217.612 18.9189 224.8C24.4672 231.988 35.7313 232.592 44.078 226.149Z" fill="#013298"/>
<path opacity="0.2" d="M41.4346 224.3C34.9705 229.293 26.7555 230.054 20.8006 226.804C20.1208 226.205 19.4917 225.537 18.9209 224.799C13.3716 217.613 15.64 206.562 23.9864 200.12C30.4505 195.13 38.6656 194.366 44.6175 197.614C45.2999 198.212 45.9294 198.883 46.4998 199.622C52.0491 206.808 49.781 217.859 41.4346 224.3Z" fill="white"/>
<path d="M265.146 159.801H171.217C168.982 159.801 167.171 161.613 167.171 163.848V210.455C167.171 212.689 168.982 214.501 171.217 214.501H265.146C267.381 214.501 269.192 212.689 269.192 210.455V163.848C269.192 161.613 267.381 159.801 265.146 159.801Z" fill="#F4F4F4"/>
<path d="M229.284 190.862H222.773C222.376 190.862 222.055 191.183 222.055 191.58V206.013C222.055 206.41 222.376 206.731 222.773 206.731H229.284C229.681 206.731 230.002 206.41 230.002 206.013V191.58C230.002 191.183 229.681 190.862 229.284 190.862Z" fill="white"/>
<path d="M244.977 175.714H238.465C238.069 175.714 237.747 176.035 237.747 176.432V206.013C237.747 206.41 238.069 206.731 238.465 206.731H244.977C245.373 206.731 245.695 206.41 245.695 206.013V176.432C245.695 176.035 245.373 175.714 244.977 175.714Z" fill="white"/>
<path d="M260.671 187.305H254.159C253.763 187.305 253.441 187.626 253.441 188.023V206.013C253.441 206.41 253.763 206.731 254.159 206.731H260.671C261.068 206.731 261.389 206.41 261.389 206.013V188.023C261.389 187.626 261.068 187.305 260.671 187.305Z" fill="white"/>
<path d="M182.206 190.862H175.694C175.298 190.862 174.976 191.183 174.976 191.58V206.013C174.976 206.41 175.298 206.731 175.694 206.731H182.206C182.602 206.731 182.924 206.41 182.924 206.013V191.58C182.924 191.183 182.602 190.862 182.206 190.862Z" fill="white"/>
<path d="M197.898 175.714H191.386C190.99 175.714 190.668 176.035 190.668 176.432V206.013C190.668 206.41 190.99 206.731 191.386 206.731H197.898C198.295 206.731 198.616 206.41 198.616 206.013V176.432C198.616 176.035 198.295 175.714 197.898 175.714Z" fill="white"/>
<path d="M213.592 187.305H207.08C206.684 187.305 206.362 187.626 206.362 188.023V206.013C206.362 206.41 206.684 206.731 207.08 206.731H213.592C213.988 206.731 214.31 206.41 214.31 206.013V188.023C214.31 187.626 213.988 187.305 213.592 187.305Z" fill="white"/>
<path d="M88.5881 17.775H5.06961C2.63016 17.775 0.652588 19.7525 0.652588 22.192V62.8737C0.652588 65.3132 2.63016 67.2907 5.06961 67.2907H88.5881C91.0276 67.2907 93.0051 65.3132 93.0051 62.8737V22.192C93.0051 19.7525 91.0276 17.775 88.5881 17.775Z" fill="#F4F4F4"/>
<path d="M56.878 45.8916H50.9829C50.6241 45.8916 50.3333 46.1825 50.3333 46.5412V59.6073C50.3333 59.9661 50.6241 60.2569 50.9829 60.2569H56.878C57.2368 60.2569 57.5276 59.9661 57.5276 59.6073V46.5412C57.5276 46.1825 57.2368 45.8916 56.878 45.8916Z" fill="white"/>
<path d="M71.085 32.1791H65.1899C64.8311 32.1791 64.5403 32.47 64.5403 32.8287V59.6073C64.5403 59.966 64.8311 60.2569 65.1899 60.2569H71.085C71.4438 60.2569 71.7346 59.966 71.7346 59.6073V32.8287C71.7346 32.47 71.4438 32.1791 71.085 32.1791Z" fill="white"/>
<path d="M85.2903 42.6715H79.3952C79.0365 42.6715 78.7456 42.9624 78.7456 43.3212V59.6072C78.7456 59.966 79.0365 60.2568 79.3952 60.2568H85.2903C85.6491 60.2568 85.94 59.966 85.94 59.6072V43.3212C85.94 42.9624 85.6491 42.6715 85.2903 42.6715Z" fill="white"/>
<path d="M14.2618 45.8916H8.36666C8.00788 45.8916 7.71704 46.1824 7.71704 46.5412V59.6073C7.71704 59.966 8.00788 60.2569 8.36666 60.2569H14.2618C14.6205 60.2569 14.9114 59.966 14.9114 59.6073V46.5412C14.9114 46.1824 14.6205 45.8916 14.2618 45.8916Z" fill="white"/>
<path d="M28.4673 32.1791H22.5722C22.2134 32.1791 21.9226 32.47 21.9226 32.8287V59.6073C21.9226 59.966 22.2134 60.2569 22.5722 60.2569H28.4673C28.8261 60.2569 29.117 59.966 29.117 59.6073V32.8287C29.117 32.47 28.8261 32.1791 28.4673 32.1791Z" fill="white"/>
<path d="M42.6724 42.6715H36.7773C36.4185 42.6715 36.1277 42.9624 36.1277 43.3212V59.6072C36.1277 59.966 36.4185 60.2568 36.7773 60.2568H42.6724C43.0312 60.2568 43.322 59.966 43.322 59.6072V43.3212C43.322 42.9624 43.0312 42.6715 42.6724 42.6715Z" fill="white"/>
<path d="M199.336 0.359894H47.9449C44.713 0.359894 42.093 2.97989 42.093 6.21183V184.459C42.093 187.69 44.713 190.311 47.9449 190.311H199.336C202.568 190.311 205.188 187.69 205.188 184.459V6.21183C205.188 2.97989 202.568 0.359894 199.336 0.359894Z" fill="white"/>
<path d="M199.336 190.67H47.9452C44.5201 190.67 41.7334 187.884 41.7334 184.459V6.21183C41.7334 2.78669 44.5201 0 47.9452 0H199.336C202.761 0 205.548 2.78669 205.548 6.21183V184.459C205.548 187.884 202.761 190.67 199.336 190.67ZM47.9452 0.719795C44.9171 0.719795 42.4532 3.18365 42.4532 6.21183V184.459C42.4532 187.487 44.9171 189.951 47.9452 189.951H199.336C202.364 189.951 204.828 187.487 204.828 184.459V6.21183C204.828 3.18365 202.364 0.719795 199.336 0.719795H47.9452Z" fill="#292A2E"/>
<path d="M140.781 29.0985C142.718 29.0985 144.289 27.528 144.289 25.5906C144.289 23.6533 142.718 22.0827 140.781 22.0827C138.844 22.0827 137.273 23.6533 137.273 25.5906C137.273 27.528 138.844 29.0985 140.781 29.0985Z" fill="#6C3ECF"/>
<path d="M140.781 29.0985C142.718 29.0985 144.289 27.528 144.289 25.5906C144.289 23.6533 142.718 22.0827 140.781 22.0827C138.844 22.0827 137.273 23.6533 137.273 25.5906C137.273 27.528 138.844 29.0985 140.781 29.0985Z" fill="#6C3ECF"/>
<path d="M140.781 46.9797C142.718 46.9797 144.289 45.4091 144.289 43.4718C144.289 41.5344 142.718 39.9638 140.781 39.9638C138.844 39.9638 137.273 41.5344 137.273 43.4718C137.273 45.4091 138.844 46.9797 140.781 46.9797Z" fill="#292A2E"/>
<path opacity="0.5" d="M140.781 64.8608C142.718 64.8608 144.289 63.2903 144.289 61.3529C144.289 59.4155 142.718 57.845 140.781 57.845C138.844 57.845 137.273 59.4155 137.273 61.3529C137.273 63.2903 138.844 64.8608 140.781 64.8608Z" fill="#6C3ECF"/>
<path opacity="0.2" d="M140.781 82.7419C142.718 82.7419 144.289 81.1714 144.289 79.234C144.289 77.2967 142.718 75.7261 140.781 75.7261C138.844 75.7261 137.273 77.2967 137.273 79.234C137.273 81.1714 138.844 82.7419 140.781 82.7419Z" fill="#6C3ECF"/>
<path d="M71.1511 52.4123C71.1511 61.4115 76.9091 69.0665 84.9409 71.9014L79.2707 85.7291C65.8034 80.6577 56.2222 67.6511 56.2222 52.4123C56.2222 32.7554 72.1602 16.8174 91.8171 16.8174V31.7463C80.4058 31.7463 71.1511 40.9967 71.1511 52.4123Z" fill="#292A2E"/>
<path d="M127.411 52.4123H112.482C112.482 40.9967 103.228 31.7463 91.8164 31.7463V16.8174C111.473 16.8174 127.411 32.7554 127.411 52.4123Z" fill="#6C3ECF"/>
<path opacity="0.5" d="M127.413 52.4122C127.413 69.3512 115.579 83.5264 99.733 87.1236L97.2036 72.3664C106.006 69.9961 112.484 61.9603 112.484 52.4122H127.413Z" fill="#6C3ECF"/>
<path opacity="0.2" d="M99.7315 87.1236C97.1856 87.7016 94.5346 88.0072 91.817 88.0072C87.3989 88.0072 83.1737 87.2032 79.271 85.729L84.9412 71.9014C87.0894 72.6594 89.4053 73.074 91.8174 73.074C93.6809 73.074 95.4858 72.8271 97.2025 72.3664L99.7319 87.1236H99.7315Z" fill="#6C3ECF"/>
<path d="M189.579 25.8449H148.946C148.805 25.8449 148.691 25.7308 148.691 25.5904C148.691 25.4501 148.805 25.336 148.946 25.336H189.579C189.72 25.336 189.834 25.4501 189.834 25.5904C189.834 25.7308 189.72 25.8449 189.579 25.8449Z" fill="#6C3ECF"/>
<path d="M189.579 43.726H148.946C148.805 43.726 148.691 43.6119 148.691 43.4715C148.691 43.3312 148.805 43.2171 148.946 43.2171H189.579C189.72 43.2171 189.834 43.3312 189.834 43.4715C189.834 43.6119 189.72 43.726 189.579 43.726Z" fill="#292A2E"/>
<g opacity="0.5">
<path d="M189.579 61.6072H148.946C148.805 61.6072 148.691 61.4931 148.691 61.3527C148.691 61.2124 148.805 61.0983 148.946 61.0983H189.579C189.72 61.0983 189.834 61.2124 189.834 61.3527C189.834 61.4931 189.72 61.6072 189.579 61.6072Z" fill="#6C3ECF"/>
</g>
<g opacity="0.2">
<path d="M189.579 79.4883H148.946C148.805 79.4883 148.691 79.3742 148.691 79.2338C148.691 79.0935 148.805 78.9794 148.946 78.9794H189.579C189.72 78.9794 189.834 79.0935 189.834 79.2338C189.834 79.3742 189.72 79.4883 189.579 79.4883Z" fill="#6C3ECF"/>
</g>
<g opacity="0.1">
<path d="M189.756 176.67H57.5272C55.136 176.67 53.1912 174.725 53.1912 172.334V105.343C53.1912 102.952 55.1364 101.007 57.5272 101.007H189.756C192.146 101.007 194.092 102.952 194.092 105.343V172.334C194.092 174.725 192.146 176.67 189.756 176.67Z" fill="#6C3ECF"/>
</g>
<path opacity="0.5" d="M71.2172 116.203H68.6428C68.2555 116.203 67.9414 116.517 67.9414 116.904V166.081C67.9414 166.468 68.2555 166.782 68.6428 166.782H71.2172C71.6046 166.782 71.9186 166.468 71.9186 166.081V116.904C71.9186 116.517 71.6046 116.203 71.2172 116.203Z" fill="#6C3ECF"/>
<path d="M67.2389 132.089H64.6646C64.2772 132.089 63.9631 132.403 63.9631 132.79V166.081C63.9631 166.469 64.2772 166.783 64.6646 166.783H67.2389C67.6263 166.783 67.9404 166.469 67.9404 166.081V132.79C67.9404 132.403 67.6263 132.089 67.2389 132.089Z" fill="#6C3ECF"/>
<path opacity="0.5" d="M103.045 160.383H100.471C100.084 160.383 99.7695 160.697 99.7695 161.084V166.081C99.7695 166.469 100.084 166.783 100.471 166.783H103.045C103.433 166.783 103.747 166.469 103.747 166.081V161.084C103.747 160.697 103.433 160.383 103.045 160.383Z" fill="#6C3ECF"/>
<path d="M99.0688 129.232H96.4944C96.107 129.232 95.793 129.546 95.793 129.934V166.081C95.793 166.468 96.107 166.782 96.4944 166.782H99.0688C99.4561 166.782 99.7702 166.468 99.7702 166.081V129.934C99.7702 129.546 99.4561 129.232 99.0688 129.232Z" fill="#6C3ECF"/>
<path opacity="0.5" d="M87.1308 136.507H84.5564C84.169 136.507 83.855 136.821 83.855 137.208V166.081C83.855 166.468 84.169 166.782 84.5564 166.782H87.1308C87.5182 166.782 87.8322 166.468 87.8322 166.081V137.208C87.8322 136.821 87.5182 136.507 87.1308 136.507Z" fill="#6C3ECF"/>
<path d="M83.1523 146.968H80.5779C80.1905 146.968 79.8765 147.282 79.8765 147.669V166.081C79.8765 166.468 80.1905 166.782 80.5779 166.782H83.1523C83.5396 166.782 83.8537 166.468 83.8537 166.081V147.669C83.8537 147.282 83.5396 146.968 83.1523 146.968Z" fill="#6C3ECF"/>
<path opacity="0.5" d="M150.788 125.985H148.214C147.827 125.985 147.513 126.299 147.513 126.686V166.081C147.513 166.469 147.827 166.783 148.214 166.783H150.788C151.176 166.783 151.49 166.469 151.49 166.081V126.686C151.49 126.299 151.176 125.985 150.788 125.985Z" fill="#6C3ECF"/>
<path d="M146.812 141.005H144.238C143.85 141.005 143.536 141.319 143.536 141.707V166.081C143.536 166.469 143.85 166.783 144.238 166.783H146.812C147.199 166.783 147.513 166.469 147.513 166.081V141.707C147.513 141.319 147.199 141.005 146.812 141.005Z" fill="#6C3ECF"/>
<path opacity="0.5" d="M118.958 132.349H116.384C115.997 132.349 115.683 132.663 115.683 133.05V166.081C115.683 166.468 115.997 166.782 116.384 166.782H118.958C119.346 166.782 119.66 166.468 119.66 166.081V133.05C119.66 132.663 119.346 132.349 118.958 132.349Z" fill="#6C3ECF"/>
<path d="M114.982 136.247H112.407C112.02 136.247 111.706 136.561 111.706 136.949V166.081C111.706 166.468 112.02 166.782 112.407 166.782H114.982C115.369 166.782 115.683 166.468 115.683 166.081V136.949C115.683 136.561 115.369 136.247 114.982 136.247Z" fill="#6C3ECF"/>
<path opacity="0.5" d="M134.873 116.203H132.299C131.912 116.203 131.598 116.517 131.598 116.904V166.081C131.598 166.468 131.912 166.782 132.299 166.782H134.873C135.261 166.782 135.575 166.468 135.575 166.081V116.904C135.575 116.517 135.261 116.203 134.873 116.203Z" fill="#6C3ECF"/>
<path d="M130.897 118.639H128.323C127.935 118.639 127.621 118.953 127.621 119.341V166.081C127.621 166.468 127.935 166.782 128.323 166.782H130.897C131.284 166.782 131.598 166.468 131.598 166.081V119.341C131.598 118.953 131.284 118.639 130.897 118.639Z" fill="#6C3ECF"/>
<path opacity="0.5" d="M166.703 116.203H164.129C163.741 116.203 163.427 116.517 163.427 116.904V166.081C163.427 166.468 163.741 166.782 164.129 166.782H166.703C167.09 166.782 167.404 166.468 167.404 166.081V116.904C167.404 116.517 167.09 116.203 166.703 116.203Z" fill="#6C3ECF"/>
<path d="M162.726 132.089H160.152C159.765 132.089 159.451 132.403 159.451 132.79V166.081C159.451 166.469 159.765 166.783 160.152 166.783H162.726C163.114 166.783 163.428 166.469 163.428 166.081V132.79C163.428 132.403 163.114 132.089 162.726 132.089Z" fill="#6C3ECF"/>
<path opacity="0.5" d="M182.618 136.507H180.044C179.656 136.507 179.342 136.821 179.342 137.208V166.081C179.342 166.468 179.656 166.782 180.044 166.782H182.618C183.005 166.782 183.32 166.468 183.32 166.081V137.208C183.32 136.821 183.005 136.507 182.618 136.507Z" fill="#6C3ECF"/>
<path d="M178.642 146.968H176.067C175.68 146.968 175.366 147.282 175.366 147.669V166.081C175.366 166.468 175.68 166.782 176.067 166.782H178.642C179.029 166.782 179.343 166.468 179.343 166.081V147.669C179.343 147.282 179.029 146.968 178.642 146.968Z" fill="#6C3ECF"/>
<path d="M276.758 279H26.2232C26.0245 279 25.8633 278.839 25.8633 278.64C25.8633 278.441 26.0245 278.28 26.2232 278.28H276.758C276.957 278.28 277.118 278.441 277.118 278.64C277.118 278.839 276.957 279 276.758 279Z" fill="#292A2E"/>
<path d="M226.451 17.9392C226.451 17.9392 222.927 14.4345 222.888 7.47339C222.858 2.08356 227.266 6.17632 227.266 6.17632C227.266 6.17632 227.282 2.29518 230.007 3.05349C232.731 3.81215 233.739 8.02979 233.739 8.02979" fill="#0C0C0C"/>
<path d="M244.3 5.46591C244.3 5.46591 257.878 8.83095 250.339 26.8215L249.109 26.7362L246.61 26.5631" fill="#0C0C0C"/>
<path d="M226.874 45.5196C226.935 45.5116 227.614 56.7714 240.694 55.79C249.75 55.1116 252.979 45.5037 253.186 45.5037C252.21 45.2961 251.003 44.9812 250.524 44.8732C248.931 44.514 246.942 43.1997 246.482 40.4303C246.217 38.8341 246.667 30.6691 246.528 29.0543L232.628 32.1569C232.822 35.5673 234.182 43.4739 229.417 44.8732C228.624 45.1046 227.77 45.3173 226.874 45.5196Z" fill="#FF9E85"/>
<path opacity="0.22" d="M232.433 41.6417C232.63 41.0133 232.747 40.4666 232.851 39.4841C233.037 37.7271 232.938 36.1119 232.761 34.466C235.569 34.0921 238.265 32.9113 240.443 31.1003C240.701 32.0536 242.121 36.2187 241.728 37.1246C240.985 38.837 237.494 41.6413 232.433 41.6413L232.433 41.6417Z" fill="#0C0C0C"/>
<path d="M234.512 38.3576C240.012 38.6146 246.985 36.0722 248.089 28.7102L249.086 22.0672C250.19 14.7048 247.218 8.15681 240.286 7.11742C233.354 6.07804 227.278 11.2692 226.173 18.6316L225.733 21.5727C225.642 22.1781 225.543 23.2739 225.539 24.6268C225.532 27.3257 225.532 31.431 226.958 34.4034C228.304 37.2095 230.999 38.1938 234.512 38.3583V38.3576Z" fill="#FF9E85"/>
<path d="M228.685 24.5004C229.107 24.5004 229.449 24.1582 229.449 23.736C229.449 23.3138 229.107 22.9716 228.685 22.9716C228.263 22.9716 227.921 23.3138 227.921 23.736C227.921 24.1582 228.263 24.5004 228.685 24.5004Z" fill="#0A0A0A"/>
<path d="M233.436 28.6012C233.591 28.6012 233.723 28.4842 233.74 28.3273C233.757 28.1592 233.635 28.0088 233.467 27.9915L231.848 27.8223L232.845 24.5883C232.894 24.4271 232.804 24.2558 232.642 24.2061C232.481 24.1564 232.31 24.2468 232.26 24.4084L231.154 27.998C231.127 28.0854 231.141 28.1801 231.192 28.2564C231.242 28.3327 231.324 28.3823 231.415 28.3921L233.404 28.6001C233.415 28.6012 233.426 28.6019 233.436 28.6019L233.436 28.6012Z" fill="#0A0A0A"/>
<path d="M233.796 32.0633C236.567 32.0633 237.392 30.3887 237.429 30.3103C237.501 30.1577 237.435 29.9756 237.283 29.9032C237.131 29.8313 236.949 29.896 236.877 30.0476C236.842 30.1188 235.996 31.7636 232.946 31.399C232.775 31.3777 232.626 31.4987 232.606 31.6664C232.586 31.8341 232.706 31.986 232.873 32.0061C233.202 32.0453 233.51 32.0633 233.796 32.0633H233.796Z" fill="#0A0A0A"/>
<path d="M236.11 19.8869C236.037 20.1147 236.865 20.4552 238.03 20.7672C239.195 21.0793 240.25 21.3046 240.329 21.0174C240.429 20.6546 239.561 19.8005 238.396 19.4885C237.231 19.1765 236.226 19.5288 236.11 19.8869Z" fill="#0A0A0A"/>
<path d="M236.35 24.9877C236.771 24.9877 237.114 24.6455 237.114 24.2233C237.114 23.8011 236.771 23.4589 236.35 23.4589C235.928 23.4589 235.585 23.8011 235.585 24.2233C235.585 24.6455 235.928 24.9877 236.35 24.9877Z" fill="#0A0A0A"/>
<path d="M226.827 20.0468C226.852 20.2847 227.748 20.2598 228.939 20.0723C230.13 19.8848 231.186 19.6628 231.141 19.3684C231.086 18.9962 230.07 18.5413 228.878 18.7288C227.687 18.9163 226.787 19.6725 226.827 20.0468Z" fill="#0A0A0A"/>
<path d="M247.323 30.8888C249.429 31.2047 251.475 29.207 251.791 27.1005C252.107 24.994 250.573 23.576 248.466 23.26L247.169 24.5089L245.511 30.617L247.323 30.8888Z" fill="#FF9E85"/>
<path d="M246.339 27.2404C245.983 27.2238 245.706 26.924 245.721 26.5677C245.817 24.2655 245.944 16.5151 243.328 15.5988C241.279 14.8808 235.759 17.1704 231.149 15.6189C229.132 14.9402 227.096 15.1834 226.762 16.1343C226.629 16.5107 226.102 10.7679 229.924 6.9875C232.967 3.97768 241.547 4.1857 245.24 5.81496C255.467 10.327 248.839 23.7789 248.839 23.7789L248.008 26.811C247.928 27.1036 247.656 27.3019 247.353 27.2875L246.339 27.2404Z" fill="#0C0C0C"/>
<path d="M237.238 8.03846C238.033 5.80516 237.448 3.55671 235.93 3.0164C234.413 2.4761 232.538 3.84854 231.743 6.08185C230.948 8.31515 231.533 10.5636 233.05 11.1039C234.568 11.6442 236.442 10.2718 237.238 8.03846Z" fill="#0C0C0C"/>
<path d="M251.511 262.656C251.511 262.656 249.886 271.079 242 271.548C234.113 272.018 235.824 278.301 235.824 278.301H265.961V263.243L251.511 262.656Z" fill="#6C3ECF"/>
<path d="M268.005 109.005C268.005 109.005 267.91 106.473 267.93 112.217C268.005 133.641 267.291 268.032 267.291 268.032L247.487 267.866L235.491 108.135L268.005 109.006V109.005Z" fill="#262626"/>
<path d="M217.694 262.656C217.694 262.656 216.069 271.079 208.182 271.548C200.296 272.018 202.006 278.3 202.006 278.3H232.144V263.243L217.694 262.656Z" fill="#6C3ECF"/>
<path d="M213.864 110.669C213.864 110.669 211.39 183.892 211.647 187.471L213.973 267.477L233.45 267.837L236.59 184.577C236.59 184.577 238.649 161.61 244.198 140.284C247.045 129.341 248.737 118.13 249.297 106.836L213.864 110.669Z" fill="#262626"/>
<path d="M239.557 162.584L237.933 137.748C237.933 137.748 236.265 148.073 236.265 156.973C236.265 161.323 237.161 178.546 237.161 178.546L239.557 162.584Z" fill="#0A0A0A"/>
<path d="M210.994 70.025C211.402 74.8231 213.389 104.759 213.782 110.669H267.9C268.206 105.338 269.579 82.0297 270.738 71.6056C271.845 61.6588 274.016 56.6789 272.424 53.7382C269.824 48.9321 262.717 46.1548 257.872 45.4987C254.913 45.0981 250.462 44.8109 250.462 44.8109C250.462 44.8109 250.086 52.4339 241.1 52.8579C228.869 53.4348 229.686 44.8109 229.625 44.8109C227.644 44.8109 216.324 46.0652 213.555 47.7066C206.009 52.1755 210.127 59.8564 210.994 70.0246V70.025Z" fill="#6C3ECF"/>
<path d="M199.114 106.585C197.591 106.585 196.047 106.205 194.625 105.405C190.207 102.921 188.639 97.3262 191.123 92.9081L212.998 53.9996C215.481 49.5815 221.077 48.0134 225.495 50.4974C229.914 52.9814 231.481 58.5767 228.997 62.9948L207.122 101.903C205.438 104.899 202.323 106.585 199.114 106.585Z" fill="#6C3ECF"/>
<path d="M239.073 74.6656L233.412 68.0402C232.902 67.4428 231.991 67.3892 231.413 67.9373C230.872 68.4512 230.882 69.3233 231.367 69.8908L232.576 71.3063L238.627 75.9029L239.073 74.6656Z" fill="#FF9E85"/>
<path d="M230.195 76.4121L212.323 77.5256C210.837 77.6181 209.521 76.573 209.275 75.1046L204.861 48.7302C204.576 47.0297 205.826 45.4566 207.547 45.3494L225.419 44.2359C226.905 44.1434 228.221 45.1885 228.466 46.6569L232.881 73.0312C233.166 74.7318 231.916 76.3049 230.195 76.4121Z" fill="#292A2E"/>
<path d="M232.577 71.3066L226.709 68.5911C226.062 68.2777 225.068 68.3072 224.764 69.0561C224.479 69.6453 224.653 70.3356 225.142 70.7289C225.138 70.735 225.132 70.7404 225.129 70.7476C225.127 70.7527 225.127 70.7581 225.126 70.7631L224.128 70.2801C223.362 69.9094 222.422 70.3107 222.191 71.1774C222.018 71.8216 222.372 72.4939 222.972 72.7843L223.397 72.9898C223.397 73.0053 223.399 73.0208 223.404 73.0352C222.769 72.8908 222.095 73.2108 221.828 73.8446C221.539 74.5327 221.897 75.3273 222.569 75.6527L223.613 76.158C223.574 76.1652 223.538 76.1882 223.519 76.2274C223.508 76.2519 223.508 76.2771 223.512 76.3016C222.941 76.33 222.409 76.7065 222.242 77.3294C222.07 77.9737 222.424 78.646 223.023 78.9364L231.922 83.2447C234.469 84.4777 237.509 84.0419 239.607 82.1434L242.909 79.1556L232.577 71.3066Z" fill="#FF9E85"/>
<g opacity="0.2">
<path d="M230.936 73.4469C230.905 73.5088 230.831 73.535 230.768 73.5059L225.191 70.9164C225.128 70.8869 225.1 70.8113 225.129 70.7473C225.153 70.6854 225.235 70.6559 225.299 70.6854L230.875 73.2748C230.939 73.3044 230.967 73.3799 230.937 73.444L230.936 73.4469Z" fill="#0C0C0C"/>
</g>
<g opacity="0.2">
<path d="M229.862 75.9377C229.832 75.9996 229.757 76.0259 229.695 75.9967L223.471 73.1068C223.407 73.0772 223.38 73.0017 223.409 72.9376C223.437 72.8797 223.515 72.8462 223.578 72.8757L229.802 75.7657C229.865 75.7952 229.893 75.8708 229.864 75.9348L229.862 75.9373V75.9377Z" fill="#0C0C0C"/>
</g>
<g opacity="0.2">
<path d="M228.714 78.6424C228.683 78.7043 228.609 78.7305 228.546 78.7014L223.582 76.3962C223.518 76.3667 223.49 76.2912 223.52 76.2271C223.551 76.1634 223.625 76.1357 223.689 76.1652L228.653 78.4703C228.717 78.4998 228.745 78.5754 228.715 78.6395L228.714 78.642V78.6424Z" fill="#0C0C0C"/>
</g>
<path d="M232.217 85.7996L270.818 104.734C271.58 105.085 272.373 105.329 273.176 105.468C275.888 105.939 278.719 105.219 280.899 103.41C283.725 101.066 284.954 97.308 284.061 93.7468L273.753 56.6886C272.471 51.5777 267.288 48.4735 262.178 49.7559C257.067 51.0378 254.323 56.2203 255.605 61.3309L263.692 81.3682L238.957 70.9974L232.216 85.7996H232.217Z" fill="#6C3ECF"/>
<path d="M268.278 103.695C268.267 103.693 268.255 103.69 268.245 103.684L232.161 85.9144C232.099 85.8841 232.072 85.81 232.101 85.7474L238.842 70.9452C238.87 70.8822 238.943 70.853 239.007 70.8804L263.138 80.7884L258.362 66.4043C258.343 66.3367 258.383 66.2665 258.45 66.2471C258.518 66.228 258.588 66.2676 258.607 66.3349L263.455 80.9737C263.468 81.0209 263.454 81.0712 263.417 81.1036C263.38 81.136 263.328 81.1447 263.283 81.1256L239.022 71.1629L232.384 85.7395L268.355 103.455C268.419 103.486 268.445 103.562 268.414 103.626C268.389 103.678 268.333 103.705 268.278 103.695V103.695Z" fill="#0C0C0C"/>
<path d="M267.66 83.0774C267.649 83.0756 267.639 83.0727 267.629 83.068L263.28 81.1242C263.216 81.0958 263.188 81.0202 263.216 80.9561C263.245 80.8917 263.32 80.8622 263.384 80.8921L267.733 82.8359C267.797 82.8643 267.826 82.9399 267.798 83.0039C267.773 83.0583 267.716 83.0871 267.66 83.0774Z" fill="#0C0C0C"/>
<path d="M218.493 57.1129C218.082 56.6058 217.433 56.4817 216.898 56.6969C216.891 56.6731 216.884 56.6483 216.864 56.631C216.828 56.6011 216.784 56.6015 216.743 56.6152L217.494 55.7082C217.957 55.1479 217.965 54.305 217.448 53.7947C216.942 53.2962 216.172 53.2746 215.642 53.6791C215.641 53.6655 215.629 53.6554 215.624 53.6428L215.931 53.2714C216.353 52.761 216.399 52.0096 215.982 51.4953C215.412 50.7928 214.384 50.8154 213.839 51.474L213.13 52.331C213.126 52.3266 213.127 52.3198 213.122 52.3158C213.117 52.3104 213.108 52.3126 213.101 52.3086C213.386 51.7465 213.258 51.044 212.752 50.6254C212.165 50.0704 211.248 50.457 210.789 51.0109L206.457 56.152L206.582 55.9195L207.095 54.1229C207.295 53.4236 206.964 52.6484 206.285 52.3885C205.519 52.0959 204.684 52.5249 204.464 53.2962L202.069 61.6746L201.488 63.7091C200.908 65.7379 202.048 67.8598 204.059 68.4972L204.692 68.6977C207.389 69.5524 210.335 68.6847 212.139 66.5048L218.442 58.8872C218.864 58.3769 218.91 57.6258 218.493 57.1111L218.493 57.1129Z" fill="#FF9E85"/>
<g opacity="0.2">
<path d="M208.963 57.1848C209.016 57.2284 209.095 57.2215 209.14 57.169L213.135 52.4957C213.181 52.4425 213.175 52.3622 213.121 52.3165C213.075 52.2697 212.987 52.2773 212.942 52.3305L208.947 57.0038C208.901 57.0571 208.907 57.1373 208.961 57.183L208.963 57.1848Z" fill="#0C0C0C"/>
</g>
<g opacity="0.2">
<path d="M210.977 59.0039C211.03 59.0475 211.109 59.0406 211.154 58.9881L215.613 53.7728C215.659 53.7196 215.652 53.6393 215.599 53.5936C215.55 53.5522 215.465 53.5544 215.42 53.6076L210.961 58.8229C210.915 58.8762 210.921 58.9564 210.975 59.0021L210.977 59.0039Z" fill="#0C0C0C"/>
</g>
<g opacity="0.2">
<path d="M213.144 60.9864C213.197 61.0299 213.276 61.0231 213.321 60.9706L216.878 56.8105C216.923 56.7572 216.917 56.677 216.864 56.6313C216.809 56.5863 216.73 56.592 216.685 56.6453L213.128 60.8054C213.082 60.8586 213.088 60.9389 213.142 60.9846L213.144 60.9864Z" fill="#0C0C0C"/>
</g>
<path d="M215.643 66.2421L208.541 98.1808C207.784 102.867 203.733 106.201 199.134 106.201C198.628 106.201 198.116 106.16 197.6 106.077C192.399 105.237 188.863 100.338 189.704 95.1365L199.455 61.015" fill="#6C3ECF"/>
<path d="M209.094 92.4287C209.079 92.4287 209.063 92.4269 209.047 92.4222C208.951 92.3963 208.894 92.2973 208.92 92.2012L212.925 77.4901C212.95 77.3943 213.049 77.3368 213.145 77.3637C213.241 77.3897 213.298 77.4886 213.272 77.5847L209.268 92.2959C209.246 92.3762 209.173 92.4287 209.094 92.4287Z" fill="#0C0C0C"/>
</g>
<defs>
<clipPath id="clip0_389_7716">
<rect width="283.695" height="279" fill="white" transform="translate(0.652588)"/>
</clipPath>
</defs>
</svg>
