<svg width="317" height="279" viewBox="0 0 317 279" fill="none" xmlns="http://www.w3.org/2000/svg">
<g clip-path="url(#clip0_389_4398)">
<path d="M158.5 278.981C235.533 278.981 297.981 216.533 297.981 139.5C297.981 62.4672 235.533 0.0195312 158.5 0.0195312C81.4669 0.0195312 19.0193 62.4672 19.0193 139.5C19.0193 216.533 81.4669 278.981 158.5 278.981Z" fill="white"/>
<path opacity="0.1" d="M158.5 278.981C235.533 278.981 297.981 216.533 297.981 139.5C297.981 62.4672 235.533 0.0195312 158.5 0.0195312C81.4669 0.0195312 19.0193 62.4672 19.0193 139.5C19.0193 216.533 81.4669 278.981 158.5 278.981Z" fill="#6C3ECF"/>
<path d="M67.8516 186.875L1.14746 186.673L1.42191 96.0562L47.5463 96.196L68.0636 116.838L67.8516 186.875Z" fill="white"/>
<path opacity="0.3" d="M47.5461 96.196L47.4836 116.776L68.0634 116.838L47.5461 96.196Z" fill="#6C3ECF"/>
<path d="M68.4827 116.813C68.4805 116.775 68.4733 116.739 68.4614 116.704C68.4568 116.69 68.4534 116.676 68.447 116.663C68.4266 116.618 68.4007 116.575 68.3646 116.539L47.8472 95.8965C47.8107 95.86 47.7678 95.834 47.7232 95.8132C47.71 95.8073 47.6968 95.8034 47.6832 95.7988C47.6476 95.7865 47.611 95.7788 47.5732 95.7767C47.5643 95.7763 47.5562 95.7716 47.5473 95.7716L1.42335 95.6318H1.42208C1.30992 95.6318 1.20201 95.676 1.12256 95.7554C1.04269 95.8349 0.997653 95.9428 0.997228 96.0558L0.721925 186.671C0.7215 186.906 0.910983 187.097 1.1455 187.098L67.8496 187.3H67.8509C67.9631 187.3 68.071 187.256 68.1504 187.176C68.2303 187.097 68.2753 186.989 68.2758 186.876L68.4878 116.839C68.4878 116.83 68.4831 116.822 68.4827 116.812V116.813ZM47.9675 97.2233L57.4382 106.751L67.039 116.41L47.9097 116.352L47.9675 97.2233ZM1.5729 186.249L1.84481 96.4824L47.119 96.6196L47.0583 116.775C47.0579 117.009 47.2473 117.2 47.4819 117.201L67.6368 117.262L67.4273 186.449L1.5729 186.249Z" fill="#262626"/>
<path d="M203.838 183.249L112.876 182.973L113.25 59.4027L176.148 59.5934L204.127 87.7423L203.838 183.249Z" fill="white"/>
<path opacity="0.3" d="M176.147 59.5934L176.062 87.6574L204.126 87.7424L176.147 59.5934Z" fill="#6C3ECF"/>
<path d="M204.546 87.7169C204.544 87.6795 204.537 87.6434 204.525 87.6077C204.52 87.5941 204.517 87.5805 204.511 87.5673C204.49 87.5223 204.464 87.4794 204.428 87.4429L176.449 59.2939C176.413 59.2574 176.37 59.2311 176.325 59.2102C176.311 59.2043 176.299 59.2005 176.285 59.1958C176.249 59.1835 176.213 59.1758 176.175 59.1737C176.166 59.1733 176.158 59.1686 176.149 59.1686L113.251 58.9778H113.25C113.137 58.9778 113.03 59.022 112.95 59.1015C112.87 59.1809 112.825 59.2888 112.825 59.4018L112.45 182.972C112.45 183.207 112.64 183.398 112.874 183.398L203.836 183.674H203.838C203.95 183.674 204.058 183.63 204.137 183.551C204.217 183.471 204.262 183.363 204.262 183.25L204.552 87.7436C204.552 87.7343 204.547 87.7262 204.547 87.7169H204.546ZM176.569 60.6203L203.102 87.3146L176.489 87.2338L176.569 60.6203ZM113.301 182.55L113.673 59.8288L175.721 60.017L175.638 87.6561C175.637 87.8906 175.827 88.0814 176.061 88.0823L203.7 88.166L203.414 182.823L113.301 182.55H113.301Z" fill="#262626"/>
<path d="M315.642 186.875L248.938 186.673L249.212 96.0563L295.336 96.1961L315.854 116.838L315.642 186.875Z" fill="white"/>
<path opacity="0.3" d="M295.336 96.196L295.274 116.776L315.853 116.838L295.336 96.196Z" fill="#6C3ECF"/>
<path d="M316.274 116.813C316.271 116.775 316.264 116.739 316.252 116.704C316.248 116.69 316.244 116.676 316.238 116.663C316.217 116.618 316.192 116.575 316.155 116.539L295.638 95.8965C295.602 95.86 295.559 95.8341 295.514 95.8132C295.501 95.8073 295.488 95.8035 295.474 95.7988C295.438 95.7865 295.402 95.7788 295.364 95.7767C295.355 95.7763 295.347 95.7716 295.338 95.7716L249.214 95.6318H249.213C249.101 95.6318 248.993 95.676 248.913 95.7555C248.834 95.8349 248.789 95.9428 248.788 96.0558L248.514 186.672C248.513 186.907 248.703 187.098 248.937 187.098L315.641 187.301H315.643C315.755 187.301 315.863 187.256 315.942 187.177C316.022 187.098 316.067 186.99 316.068 186.877L316.28 116.84C316.28 116.831 316.275 116.823 316.274 116.813L316.274 116.813ZM295.758 97.2233L305.229 106.751L314.829 116.41L295.7 116.352L295.758 97.2233H295.758ZM249.364 186.249L249.636 96.4824L294.91 96.6196L294.849 116.775C294.848 117.009 295.038 117.2 295.272 117.201L315.427 117.262L315.218 186.449L249.363 186.249H249.364Z" fill="#262626"/>
<path d="M129.213 143.261C132.35 143.261 134.893 141.922 134.893 140.271C134.893 138.62 132.35 137.282 129.213 137.282C126.076 137.282 123.532 138.62 123.532 140.271C123.532 141.922 126.076 143.261 129.213 143.261Z" fill="white"/>
<path d="M186.013 143.261C189.15 143.261 191.693 141.922 191.693 140.271C191.693 138.62 189.15 137.282 186.013 137.282C182.876 137.282 180.333 138.62 180.333 140.271C180.333 141.922 182.876 143.261 186.013 143.261Z" fill="white"/>
<g opacity="0.4">
<path d="M129.213 143.261C132.35 143.261 134.893 141.922 134.893 140.271C134.893 138.62 132.35 137.282 129.213 137.282C126.076 137.282 123.532 138.62 123.532 140.271C123.532 141.922 126.076 143.261 129.213 143.261Z" fill="#6C3ECF"/>
<path d="M186.013 143.261C189.15 143.261 191.693 141.922 191.693 140.271C191.693 138.62 189.15 137.282 186.013 137.282C182.876 137.282 180.333 138.62 180.333 140.271C180.333 141.922 182.876 143.261 186.013 143.261Z" fill="#6C3ECF"/>
</g>
<path d="M204.263 88.7551C193.342 76.2186 178.197 68.6839 161.607 67.5389C145.02 66.394 128.984 71.7747 116.444 82.6955C95.6447 100.81 89.255 130.926 100.904 155.938C103.217 160.913 106.221 165.589 109.823 169.843L110.589 170.75L53.576 231.255C51.9378 232.995 51.5282 235.517 52.5406 237.686C52.8516 238.354 53.2803 238.949 53.8224 239.457C56.1506 241.653 59.829 241.543 62.0246 239.214L119.022 178.72L119.974 179.433C129.549 186.645 140.981 190.897 153.037 191.731C169.623 192.875 185.663 187.491 198.2 176.574C210.736 165.653 218.275 150.508 219.42 133.921C220.565 117.335 215.18 101.295 204.263 88.7551ZM207.839 133.121C206.91 146.613 200.778 158.938 190.578 167.822C181.28 175.918 169.612 180.275 157.398 180.275C156.214 180.275 155.028 180.233 153.837 180.149C140.341 179.22 128.021 173.089 119.136 162.888C100.802 141.831 103.013 109.785 124.066 91.4466C134.267 82.5655 147.315 78.1861 160.811 79.1149C167.556 79.5813 174.011 81.3445 179.888 84.2721C185.766 87.1921 191.067 91.2758 195.511 96.3761C198.662 99.9976 201.275 104.013 203.277 108.31C206.853 115.989 208.43 124.566 207.839 133.121L207.839 133.121Z" fill="#6C3ECF"/>
</g>
<defs>
<clipPath id="clip0_389_4398">
<rect width="315.556" height="279" fill="white" transform="translate(0.721924)"/>
</clipPath>
</defs>
</svg>
