<svg width="80" height="70" viewBox="0 0 80 70" fill="none" xmlns="http://www.w3.org/2000/svg">
<g filter="url(#filter0_d_250_4638)">
<path d="M20 28C20 16.9543 28.9543 8 40 8C51.0457 8 60 16.9543 60 28C60 39.0457 51.0457 48 40 48C28.9543 48 20 39.0457 20 28Z" fill="#E9F7F1" shape-rendering="crispEdges"/>
<path d="M39.9688 20C40.2812 20 40.5312 20.1875 40.6562 20.4375L42.8125 24.8438L47.5938 25.5625C47.875 25.5938 48.0938 25.8125 48.1875 26.0625C48.2812 26.3438 48.2188 26.625 48 26.8438L44.5312 30.2812L45.3438 35.125C45.4062 35.4062 45.2812 35.7188 45.0625 35.875C44.8125 36.0312 44.5 36.0625 44.25 35.9375L39.9688 33.625L35.6875 35.9375C35.4375 36.0625 35.1562 36.0312 34.9062 35.875C34.6875 35.7188 34.5625 35.4062 34.5938 35.125L35.4375 30.2812L31.9688 26.8438C31.75 26.625 31.6875 26.3438 31.7812 26.0625C31.875 25.8125 32.0938 25.5938 32.375 25.5625L37.1562 24.8438L39.3125 20.4375C39.4375 20.1875 39.6875 20 39.9688 20ZM39.9688 22.4688L38.3438 25.875C38.2188 26.0938 38.0312 26.25 37.7812 26.2812L34.0625 26.8125L36.75 29.4688C36.9375 29.6562 37 29.9062 36.9688 30.1562L36.3438 33.875L39.625 32.125C39.8438 32 40.125 32 40.3438 32.125L43.625 33.875L43 30.1562C42.9375 29.9062 43.0312 29.6562 43.2188 29.4688L45.875 26.8125L42.1875 26.2812C41.9375 26.25 41.7188 26.0938 41.625 25.875L39.9688 22.4688Z" fill="#1EAD74"/>
</g>
<defs>
<filter id="filter0_d_250_4638" x="0" y="-10" width="80" height="80" filterUnits="userSpaceOnUse" color-interpolation-filters="sRGB">
<feFlood flood-opacity="0" result="BackgroundImageFix"/>
<feColorMatrix in="SourceAlpha" type="matrix" values="0 0 0 0 0 0 0 0 0 0 0 0 0 0 0 0 0 0 127 0" result="hardAlpha"/>
<feOffset dy="2"/>
<feGaussianBlur stdDeviation="10"/>
<feComposite in2="hardAlpha" operator="out"/>
<feColorMatrix type="matrix" values="0 0 0 0 0 0 0 0 0 0 0 0 0 0 0 0 0 0 0.05 0"/>
<feBlend mode="normal" in2="BackgroundImageFix" result="effect1_dropShadow_250_4638"/>
<feBlend mode="normal" in="SourceGraphic" in2="effect1_dropShadow_250_4638" result="shape"/>
</filter>
</defs>
</svg>
