<svg width="99" height="99" viewBox="0 0 99 99" fill="none" xmlns="http://www.w3.org/2000/svg">
<g filter="url(#filter0_d_389_125)">
<path d="M25 47.5C25 33.969 35.969 23 49.5 23C63.031 23 74 33.969 74 47.5C74 61.031 63.031 72 49.5 72C35.969 72 25 61.031 25 47.5Z" fill="#E9F7F1" shape-rendering="crispEdges"/>
<path d="M49.2173 47.8047L44.9595 43.3516C43.7095 42.0625 43.7876 39.9141 45.1548 38.7031C46.3657 37.6484 48.1626 37.8438 49.2563 39.0156L49.686 39.4453L50.1157 39.0156C51.2095 37.8438 53.0063 37.6484 54.2173 38.7031C55.5845 39.9141 55.6626 42.0625 54.4126 43.3516L50.1938 47.8047C49.9204 48.0781 49.4907 48.0781 49.2173 47.8047ZM60.6626 51.1641C61.1704 51.8672 61.0142 52.8438 60.272 53.3516L54.9595 57.2188C54.2954 57.7266 53.436 58 52.5767 58H39.061C38.7485 58 38.4751 57.7266 38.4751 57.375V53.7031C38.4751 53.3906 38.7095 53.0781 39.061 53.0781H41.2095L43.0063 51.6328C43.8267 50.9688 44.9204 50.5781 45.936 50.5781H52.186C52.9673 50.5781 53.5532 51.3203 53.436 52.0625C53.3188 52.6484 52.7329 53.0781 52.147 53.0781H49.061C48.7876 53.0781 48.4751 53.3516 48.4751 53.6641C48.4751 53.9766 48.7485 54.2891 49.061 54.2891H53.7876L58.4751 50.8125C59.1782 50.3047 60.1548 50.4609 60.6626 51.1641Z" fill="#1EAD74"/>
</g>
<defs>
<filter id="filter0_d_389_125" x="0.5" y="0.95" width="98" height="98" filterUnits="userSpaceOnUse" color-interpolation-filters="sRGB">
<feFlood flood-opacity="0" result="BackgroundImageFix"/>
<feColorMatrix in="SourceAlpha" type="matrix" values="0 0 0 0 0 0 0 0 0 0 0 0 0 0 0 0 0 0 127 0" result="hardAlpha"/>
<feOffset dy="2.45"/>
<feGaussianBlur stdDeviation="12.25"/>
<feComposite in2="hardAlpha" operator="out"/>
<feColorMatrix type="matrix" values="0 0 0 0 0 0 0 0 0 0 0 0 0 0 0 0 0 0 0.05 0"/>
<feBlend mode="normal" in2="BackgroundImageFix" result="effect1_dropShadow_389_125"/>
<feBlend mode="normal" in="SourceGraphic" in2="effect1_dropShadow_389_125" result="shape"/>
</filter>
</defs>
</svg>
