<svg width="99" height="89" viewBox="0 0 99 89" fill="none" xmlns="http://www.w3.org/2000/svg">
<g filter="url(#filter0_d_389_7160)">
<path d="M20 26.5C20 22.0817 23.5817 18.5 28 18.5H71C75.4183 18.5 79 22.0817 79 26.5V58.5C79 62.9183 75.4183 66.5 71 66.5H28C23.5817 66.5 20 62.9183 20 58.5V26.5Z" fill="white"/>
<path d="M30 35.5C30 31.0817 33.5817 27.5 38 27.5H62C66.4183 27.5 70 31.0817 70 35.5V49.5C70 53.9183 66.4183 57.5 62 57.5H38C33.5817 57.5 30 53.9183 30 49.5V35.5Z" fill="#011C14"/>
<path d="M49.775 50.73C47.199 50.73 45.152 50.1703 43.634 49.051C42.1313 47.9317 41.38 46.1837 41.38 43.807V35.021C41.38 34.8523 41.4413 34.7067 41.564 34.584C41.6867 34.4613 41.8323 34.4 42.001 34.4H46.808C46.9767 34.4 47.1223 34.4613 47.245 34.584C47.3677 34.7067 47.429 34.8523 47.429 35.021V44.175C47.429 44.8037 47.636 45.2867 48.05 45.624C48.4793 45.9613 49.0543 46.13 49.775 46.13C50.4957 46.13 51.063 45.9613 51.477 45.624C51.9063 45.2867 52.121 44.8037 52.121 44.175V35.021C52.121 34.8523 52.1823 34.7067 52.305 34.584C52.4277 34.4613 52.5733 34.4 52.742 34.4H57.549C57.7177 34.4 57.8633 34.4613 57.986 34.584C58.1087 34.7067 58.17 34.8523 58.17 35.021V43.807C58.17 46.1837 57.411 47.9317 55.893 49.051C54.3903 50.1703 52.351 50.73 49.775 50.73Z" fill="white"/>
<path d="M20 26.5C20 22.0817 23.5817 18.5 28 18.5H71C75.4183 18.5 79 22.0817 79 26.5V58.5C79 62.9183 75.4183 66.5 71 66.5H28C23.5817 66.5 20 62.9183 20 58.5V26.5Z" fill="white"/>
<path d="M30 35.5C30 31.0817 33.5817 27.5 38 27.5H62C66.4183 27.5 70 31.0817 70 35.5V49.5C70 53.9183 66.4183 57.5 62 57.5H38C33.5817 57.5 30 53.9183 30 49.5V35.5Z" fill="#011C14"/>
<path d="M49.775 50.73C47.199 50.73 45.152 50.1703 43.634 49.051C42.1313 47.9317 41.38 46.1837 41.38 43.807V35.021C41.38 34.8523 41.4413 34.7067 41.564 34.584C41.6867 34.4613 41.8323 34.4 42.001 34.4H46.808C46.9767 34.4 47.1223 34.4613 47.245 34.584C47.3677 34.7067 47.429 34.8523 47.429 35.021V44.175C47.429 44.8037 47.636 45.2867 48.05 45.624C48.4793 45.9613 49.0543 46.13 49.775 46.13C50.4957 46.13 51.063 45.9613 51.477 45.624C51.9063 45.2867 52.121 44.8037 52.121 44.175V35.021C52.121 34.8523 52.1823 34.7067 52.305 34.584C52.4277 34.4613 52.5733 34.4 52.742 34.4H57.549C57.7177 34.4 57.8633 34.4613 57.986 34.584C58.1087 34.7067 58.17 34.8523 58.17 35.021V43.807C58.17 46.1837 57.411 47.9317 55.893 49.051C54.3903 50.1703 52.351 50.73 49.775 50.73Z" fill="white"/>
<path d="M20 26.5C20 22.0817 23.5817 18.5 28 18.5H71C75.4183 18.5 79 22.0817 79 26.5V58.5C79 62.9183 75.4183 66.5 71 66.5H28C23.5817 66.5 20 62.9183 20 58.5V26.5Z" fill="white"/>
<path d="M30 35.5C30 31.0817 33.5817 27.5 38 27.5H62C66.4183 27.5 70 31.0817 70 35.5V49.5C70 53.9183 66.4183 57.5 62 57.5H38C33.5817 57.5 30 53.9183 30 49.5V35.5Z" fill="#1EAD74"/>
<path d="M49.775 50.73C47.199 50.73 45.152 50.1703 43.634 49.051C42.1313 47.9317 41.38 46.1837 41.38 43.807V35.021C41.38 34.8523 41.4413 34.7067 41.564 34.584C41.6867 34.4613 41.8323 34.4 42.001 34.4H46.808C46.9767 34.4 47.1223 34.4613 47.245 34.584C47.3677 34.7067 47.429 34.8523 47.429 35.021V44.175C47.429 44.8037 47.636 45.2867 48.05 45.624C48.4793 45.9613 49.0543 46.13 49.775 46.13C50.4957 46.13 51.063 45.9613 51.477 45.624C51.9063 45.2867 52.121 44.8037 52.121 44.175V35.021C52.121 34.8523 52.1823 34.7067 52.305 34.584C52.4277 34.4613 52.5733 34.4 52.742 34.4H57.549C57.7177 34.4 57.8633 34.4613 57.986 34.584C58.1087 34.7067 58.17 34.8523 58.17 35.021V43.807C58.17 46.1837 57.411 47.9317 55.893 49.051C54.3903 50.1703 52.351 50.73 49.775 50.73Z" fill="white"/>
<path d="M65 63.5L57 57.5L64 57L65 63.5Z" fill="#1EAD74"/>
</g>
<defs>
<filter id="filter0_d_389_7160" x="0" y="0.5" width="99" height="88" filterUnits="userSpaceOnUse" color-interpolation-filters="sRGB">
<feFlood flood-opacity="0" result="BackgroundImageFix"/>
<feColorMatrix in="SourceAlpha" type="matrix" values="0 0 0 0 0 0 0 0 0 0 0 0 0 0 0 0 0 0 127 0" result="hardAlpha"/>
<feOffset dy="2"/>
<feGaussianBlur stdDeviation="10"/>
<feComposite in2="hardAlpha" operator="out"/>
<feColorMatrix type="matrix" values="0 0 0 0 0 0 0 0 0 0 0 0 0 0 0 0 0 0 0.05 0"/>
<feBlend mode="normal" in2="BackgroundImageFix" result="effect1_dropShadow_389_7160"/>
<feBlend mode="normal" in="SourceGraphic" in2="effect1_dropShadow_389_7160" result="shape"/>
</filter>
</defs>
</svg>
