<svg width="80" height="71" viewBox="0 0 80 71" fill="none" xmlns="http://www.w3.org/2000/svg">
<g filter="url(#filter0_d_250_4629)">
<path d="M20 29C20 17.9543 28.9543 9 40 9C51.0457 9 60 17.9543 60 29C60 40.0457 51.0457 49 40 49C28.9543 49 20 40.0457 20 29Z" fill="#E9F7F1" shape-rendering="crispEdges"/>
<path d="M46.25 22C47.1875 22 48 22.8125 48 23.75V33.25C48 34.7812 46.75 36 45.25 36H34.25C33 36 32 35 32 33.75V24.5C32 24.0938 32.3125 23.75 32.75 23.75C33.1562 23.75 33.5 24.0938 33.5 24.5V33.75C33.5 34.1875 33.8125 34.5 34.25 34.5C34.6562 34.5 35 34.1875 35 33.75V23.75C35 22.8125 35.7812 22 36.75 22H46.25ZM46.5 33.25V23.75C46.5 23.625 46.375 23.5 46.25 23.5H36.75C36.5938 23.5 36.5 23.625 36.5 23.75V33.75C36.5 34.0312 36.4375 34.2812 36.3438 34.5H45.25C45.9375 34.5 46.5 33.9688 46.5 33.25ZM40.25 29.5C40.6562 29.5 41 29.8438 41 30.25C41 30.6875 40.6562 31 40.25 31H38.25C37.8125 31 37.5 30.6875 37.5 30.25C37.5 29.8438 37.8125 29.5 38.25 29.5H40.25ZM44.75 29.5C45.1562 29.5 45.5 29.8438 45.5 30.25C45.5 30.6875 45.1562 31 44.75 31H42.75C42.3125 31 42 30.6875 42 30.25C42 29.8438 42.3125 29.5 42.75 29.5H44.75ZM40.25 32C40.6562 32 41 32.3438 41 32.75C41 33.1875 40.6562 33.5 40.25 33.5H38.25C37.8125 33.5 37.5 33.1875 37.5 32.75C37.5 32.3438 37.8125 32 38.25 32H40.25ZM44.75 32C45.1562 32 45.5 32.3438 45.5 32.75C45.5 33.1875 45.1562 33.5 44.75 33.5H42.75C42.3125 33.5 42 33.1875 42 32.75C42 32.3438 42.3125 32 42.75 32H44.75ZM44.5 24.5C45.0312 24.5 45.5 24.9688 45.5 25.5V27.5C45.5 28.0625 45.0312 28.5 44.5 28.5H38.5C37.9375 28.5 37.5 28.0625 37.5 27.5V25.5C37.5 24.9688 37.9375 24.5 38.5 24.5H44.5Z" fill="#1EAD74"/>
</g>
<defs>
<filter id="filter0_d_250_4629" x="0" y="-9" width="80" height="80" filterUnits="userSpaceOnUse" color-interpolation-filters="sRGB">
<feFlood flood-opacity="0" result="BackgroundImageFix"/>
<feColorMatrix in="SourceAlpha" type="matrix" values="0 0 0 0 0 0 0 0 0 0 0 0 0 0 0 0 0 0 127 0" result="hardAlpha"/>
<feOffset dy="2"/>
<feGaussianBlur stdDeviation="10"/>
<feComposite in2="hardAlpha" operator="out"/>
<feColorMatrix type="matrix" values="0 0 0 0 0 0 0 0 0 0 0 0 0 0 0 0 0 0 0.05 0"/>
<feBlend mode="normal" in2="BackgroundImageFix" result="effect1_dropShadow_250_4629"/>
<feBlend mode="normal" in="SourceGraphic" in2="effect1_dropShadow_250_4629" result="shape"/>
</filter>
</defs>
</svg>
