<svg width="80" height="71" viewBox="0 0 80 71" fill="none" xmlns="http://www.w3.org/2000/svg">
<g filter="url(#filter0_d_250_4626)">
<path d="M20 29C20 17.9543 28.9543 9 40 9C51.0457 9 60 17.9543 60 29C60 40.0457 51.0457 49 40 49C28.9543 49 20 40.0457 20 29Z" fill="#E9F7F1" shape-rendering="crispEdges"/>
<path d="M48.1362 20.6461H31.8638C31.6627 20.6461 31.5 20.806 31.5 21.0037V36.9963C31.5 37.194 31.6627 37.3539 31.8638 37.3539H48.1362C48.3373 37.3539 48.5 37.194 48.5 36.9963V21.0037C48.5 20.806 48.3373 20.6461 48.1362 20.6461ZM46.2075 27.9336C45.9808 28.0199 45.5786 28.045 45.5786 28.045C45.4909 28.1133 45.2112 28.1816 45.2112 28.1816C45.2112 28.1816 45.255 28.4475 45.0192 28.9991C44.7834 29.5507 44.4506 29.583 44.5731 29.2309C44.6956 28.8787 44.5896 28.9308 44.5896 28.9308C44.1344 29.283 44.2751 28.9991 44.2751 28.9991C44.1965 29.044 44.3793 28.8104 43.1545 29.8921C41.9296 30.9755 40.6444 33.5897 40.2422 34.4575C39.84 35.3272 39.681 34.6642 39.681 34.6642C39.0868 32.7381 38.745 32.0841 38.3775 31.4139C38.3519 31.369 38.33 31.3241 38.3062 31.2809C37.5457 32.7866 36.9644 34.1773 36.7834 34.5797C36.436 35.3505 36.2569 34.7181 36.1929 34.5797C36.1289 34.4396 35.7687 33.6059 35.3318 32.4812C34.8949 31.3564 33.9296 29.8651 33.4671 29.283C33.0046 28.7026 33.7377 29.0045 33.7377 29.0045C35.7706 29.725 36.3611 32.0374 36.3611 32.0374C36.9022 29.2578 38.4452 26.8305 38.6499 26.5017C38.8547 26.1729 38.9845 25.9069 39.1252 25.4272C39.266 24.9475 38.9314 24.6313 38.5073 24.4803C38.0832 24.3294 38.5073 24.1138 38.6755 24.0114C38.8419 23.9108 39.6536 23.8353 40.1289 23.9611C40.6042 24.0869 40.6298 23.9485 40.8492 23.8353C41.0686 23.7221 42.1618 23.1903 43.0484 23.0645C43.9351 22.9388 44.4506 23.3933 44.4506 23.3933C44.862 23.5317 44.9644 23.9629 44.9644 23.9629C45.7102 24.2414 45.3501 24.5324 45.1453 24.5324C44.9406 24.5324 44.6298 24.5953 44.6298 24.5953C44.1801 24.784 43.8839 24.7337 43.8839 24.7337C43.8071 24.8091 43.3958 25.0122 43.3958 25.0122C43.3318 25.7955 43.2678 26.0363 42.9333 26.5412C42.5987 27.0461 42.5329 26.6921 42.5859 26.5286C42.6371 26.3633 42.6243 26.0471 42.6243 26.0471C41.9461 26.6759 42.138 26.2214 42.1472 26.1998C41.8748 26.3795 40.6828 27.5276 40.6828 27.5276C40.0155 28.2517 39.3373 29.3459 38.7358 30.4634C39.659 30.8012 40.1746 32.111 40.1746 32.111C40.1746 32.111 40.7998 30.3592 42.1508 28.3792C42.3519 27.8043 41.9059 27.6749 41.9059 27.6749C41.4415 27.5707 41.7395 27.3731 41.9406 27.2796C42.1417 27.1844 42.7029 27.2796 42.9552 27.3317C43.2093 27.3838 43.3062 27.3838 43.4269 27.2886C43.5494 27.1934 44.2587 26.9275 44.9406 26.8161C45.6243 26.7047 45.9735 27.0658 45.9735 27.0658C46.2806 27.2024 46.3848 27.5294 46.3848 27.5294C47.1636 27.9857 46.2093 27.9336 46.2093 27.9336" fill="#1EAD74"/>
<path d="M46.3833 27.5296C46.3833 27.5296 46.2791 27.2026 45.972 27.0661C45.972 27.0661 45.6228 26.7049 44.9391 26.8163C44.2572 26.9277 43.5478 27.1954 43.4254 27.2888C43.3029 27.3823 43.2078 27.3823 42.9537 27.332C42.6996 27.2799 42.1402 27.1864 41.9391 27.2799C41.738 27.3751 41.44 27.5727 41.9043 27.6751C41.9043 27.6751 42.3504 27.8045 42.1493 28.3795C40.7965 30.3594 40.1731 32.1113 40.1731 32.1113C40.1731 32.1113 39.6575 30.8014 38.7343 30.4637C39.3358 29.3461 40.014 28.2519 40.6813 27.5278C40.6813 27.5278 41.8751 26.3797 42.1456 26.2C42.1365 26.2216 41.9446 26.6762 42.6228 26.0473C42.6228 26.0473 42.6356 26.3635 42.5844 26.5288C42.5332 26.6923 42.5972 27.0463 42.9318 26.5414C43.2663 26.0347 43.3303 25.7958 43.3943 25.0124C43.3943 25.0124 43.8056 24.8094 43.8824 24.7339C43.8824 24.7339 44.1786 24.7842 44.6283 24.5956C44.6283 24.5956 44.9372 24.5327 45.1438 24.5327C45.3504 24.5327 45.7087 24.2416 44.9628 23.9631C44.9628 23.9631 44.8605 23.5337 44.4491 23.3936C44.4491 23.3936 43.9336 22.939 43.0469 23.0648C42.1584 23.1905 41.0652 23.7224 40.8477 23.8355C40.6301 23.9505 40.6027 24.0871 40.1274 23.9613C39.652 23.8355 38.8422 23.9092 38.674 24.0116C38.5058 24.114 38.0835 24.3278 38.5058 24.4806C38.9299 24.6315 39.2645 24.9477 39.1237 25.4274C38.9829 25.909 38.8531 26.1731 38.6484 26.5019C38.4418 26.8307 36.9007 29.2563 36.3595 32.0376C36.3595 32.0376 35.7691 29.7252 33.7361 29.0047C33.7361 29.0047 33.0031 28.7011 33.4656 29.2832C33.9281 29.8653 34.8934 31.3566 35.3303 32.4814C35.7672 33.6061 36.1274 34.4398 36.1914 34.58C36.2553 34.7183 36.4363 35.3507 36.7818 34.58C36.9628 34.1775 37.5442 32.7868 38.3047 31.2812C38.3285 31.3261 38.3504 31.371 38.376 31.4141C38.7435 32.0843 39.0835 32.7383 39.6795 34.6644C39.6795 34.6644 39.8367 35.3274 40.2407 34.4578C40.6429 33.59 41.9281 30.9757 43.153 29.8923C44.3778 28.8089 44.195 29.0425 44.2736 28.9993C44.2736 28.9993 44.1329 29.2832 44.5881 28.9311C44.5881 28.9311 44.6923 28.8789 44.5716 29.2311C44.4491 29.5833 44.7818 29.5509 45.0177 28.9993C45.2553 28.4477 45.2096 28.1818 45.2096 28.1818C45.2096 28.1818 45.4893 28.1135 45.5771 28.0453C45.5771 28.0453 45.9793 28.0183 46.206 27.9339C46.206 27.9339 47.1603 27.986 46.3815 27.5296H46.3833Z" fill="white"/>
</g>
<defs>
<filter id="filter0_d_250_4626" x="0" y="-9" width="80" height="80" filterUnits="userSpaceOnUse" color-interpolation-filters="sRGB">
<feFlood flood-opacity="0" result="BackgroundImageFix"/>
<feColorMatrix in="SourceAlpha" type="matrix" values="0 0 0 0 0 0 0 0 0 0 0 0 0 0 0 0 0 0 127 0" result="hardAlpha"/>
<feOffset dy="2"/>
<feGaussianBlur stdDeviation="10"/>
<feComposite in2="hardAlpha" operator="out"/>
<feColorMatrix type="matrix" values="0 0 0 0 0 0 0 0 0 0 0 0 0 0 0 0 0 0 0.05 0"/>
<feBlend mode="normal" in2="BackgroundImageFix" result="effect1_dropShadow_250_4626"/>
<feBlend mode="normal" in="SourceGraphic" in2="effect1_dropShadow_250_4626" result="shape"/>
</filter>
</defs>
</svg>
