<svg width="361" height="338" viewBox="0 0 361 338" fill="none" xmlns="http://www.w3.org/2000/svg">
<g filter="url(#filter0_d_389_7185)">
<rect x="25.6431" width="372" height="341.756" rx="83.4368" transform="rotate(25.9677 25.6431 0)" fill="#1EAD74" shape-rendering="crispEdges"/>
<path d="M237.49 262.654C237.49 262.654 238.416 256.298 234.367 251.484C234.367 251.484 231.452 242.546 219.035 238.818C206.648 235.104 192.52 233.796 189.693 234.364C186.867 234.932 185.267 234.153 181.404 231.225C177.555 228.265 168.908 222.109 164.759 222.033C160.595 221.988 153.962 222.871 160.935 228.399C160.935 228.399 167.381 234.231 159.286 242.257C120.298 264.486 95.4535 288.853 95.4535 288.853C95.4535 288.853 97.5127 262.59 84.747 249.341C104.025 235.466 124.404 222.613 141.564 215.898C141.564 215.898 171.059 206.363 177.084 205.557C176.753 205.845 169.798 211.921 186.364 206.898C186.364 206.898 183.988 212.323 181.772 214.685C179.571 217.017 177.747 223.496 187.513 217.743C197.294 211.96 200.329 208.463 207.825 195.807C207.825 195.807 216.41 195.761 218.32 195.121C218.32 195.121 222.891 198.394 232.004 198.905C232.004 198.905 237.717 200.379 241.193 202.072C244.669 203.765 253.083 201.804 242.815 191.006C242.815 191.006 244.612 182.942 238.839 177.213C238.839 177.213 233.89 165.34 217.941 160.19C201.961 155.025 179.208 155.015 174.62 155.137C170.018 155.289 168.437 157.362 161.47 151.35C154.504 145.339 140.273 139.942 136.604 140.287C132.935 140.632 124.077 140.769 129.931 146.799C135.831 152.814 138.869 160.876 132.569 167.794C126.255 174.743 121.906 178.123 115.767 181.977C109.596 185.817 63.7892 213.999 31.8923 256.363C31.8923 256.363 40.906 212.616 12.6053 183.835C12.6053 183.835 2.7589 172.718 5.7707 186.303C8.7825 199.888 12.8031 232.89 10.9378 255.395C9.07245 277.9 8.3004 294.879 8.22856 297.761C8.17144 300.613 6.03398 312.738 18.164 302.6C24.5073 297.311 45.6849 278.677 70.8193 259.575C70.8511 260.526 70.8521 261.461 70.9294 262.397C71.6202 276.684 71.9822 290.474 66.2262 327.766C66.2262 327.766 63.4386 340.209 77.3627 328.888C91.2413 317.583 134.288 284.128 163.776 275.937C193.263 267.745 188.273 270.177 189.949 270.095C189.949 270.095 185.254 273.718 195.799 271.523C195.799 271.523 197.979 271.5 193.063 276.437C188.117 281.358 193.98 283.541 202.468 276.192C210.987 268.859 212.397 264.01 212.397 264.01C212.397 264.01 217.663 265.154 219.699 264.724C219.699 264.724 226.687 267.566 231.193 268.003C231.193 268.003 246.823 276.7 237.459 262.639L237.49 262.654Z" fill="white"/>
</g>
<defs>
<filter id="filter0_d_389_7185" x="-144" y="-18" width="524.086" height="510.139" filterUnits="userSpaceOnUse" color-interpolation-filters="sRGB">
<feFlood flood-opacity="0" result="BackgroundImageFix"/>
<feColorMatrix in="SourceAlpha" type="matrix" values="0 0 0 0 0 0 0 0 0 0 0 0 0 0 0 0 0 0 127 0" result="hardAlpha"/>
<feOffset dy="2"/>
<feGaussianBlur stdDeviation="10"/>
<feComposite in2="hardAlpha" operator="out"/>
<feColorMatrix type="matrix" values="0 0 0 0 0 0 0 0 0 0 0 0 0 0 0 0 0 0 0.1 0"/>
<feBlend mode="normal" in2="BackgroundImageFix" result="effect1_dropShadow_389_7185"/>
<feBlend mode="normal" in="SourceGraphic" in2="effect1_dropShadow_389_7185" result="shape"/>
</filter>
</defs>
</svg>
